<svg width="20789" height="2097" viewBox="0 0 20789 2097" fill="none" xmlns="http://www.w3.org/2000/svg">
<path d="M15912.3 1200.12C15908.9 1202.34 15905.1 1203.66 15901.1 1203.97C15889.2 1204.76 15877.2 1204.76 15865.2 1203.97C15859.9 1203.66 15854.8 1201.56 15850.6 1197.97C15847.4 1195.41 15843.6 1193.7 15839.7 1193C15835.8 1192.29 15831.7 1192.59 15827.9 1193.89C15824.1 1195.19 15820.6 1197.26 15817.5 1200.01C15814.2 1202.46 15810.4 1203.84 15806.4 1203.97C15793.1 1203.97 15779.8 1204.54 15766.5 1204.65C15758.5 1204.57 15750.6 1207.23 15744 1212.24C15741.8 1213.83 15739.2 1214.67 15736.6 1214.67C15734 1214.67 15731.4 1213.83 15729.2 1212.24L15722.3 1207.94C15719.9 1206.62 15717.1 1206.3 15714.5 1207.03C15713.2 1207.05 15711.9 1207.32 15710.7 1207.82C15707.1 1209.82 15704 1212.56 15701.4 1215.89C15698.9 1219.21 15697 1223.06 15695.8 1227.2C15694.7 1231.43 15692.7 1235.32 15690 1238.53C15685.5 1243.86 15680.7 1248.96 15675.9 1253.94C15672.1 1257.88 15667.3 1260.72 15662.2 1262.22C15658.6 1263.35 15656.8 1265.5 15654.7 1271.51C15651.9 1279.69 15646.8 1286.72 15640.2 1291.68C15638.6 1292.99 15636.7 1293.84 15634.8 1294.16C15632.8 1294.48 15630.8 1294.25 15629 1293.49C15627.7 1293.17 15626.5 1292.59 15625.4 1291.79C15620.1 1287.34 15613.6 1284.88 15606.9 1284.77H15575C15571 1284.99 15567 1284.99 15563 1284.77C15559.1 1284.48 15555.2 1282.94 15552 1280.35C15547.8 1276.73 15543 1274.07 15537.9 1272.53C15535.3 1271.94 15532.9 1270.61 15530.9 1268.68C15527 1264.82 15522.8 1261.2 15519 1257.34C15516 1254.49 15512.4 1252.5 15508.6 1251.56C15504.8 1250.4 15501.2 1248.35 15498.2 1245.56C15495.2 1242.76 15491.6 1240.88 15487.8 1240.12C15481.1 1239.57 15474.6 1238.05 15468.3 1235.59C15462.5 1232.64 15462.4 1233.21 15453.8 1236.38C15451.3 1237.44 15448.7 1238.13 15446.1 1238.42C15436.7 1238.99 15427.5 1239.1 15418.1 1239.33C15414.2 1239.33 15410.1 1239.33 15406.3 1240.12C15402.4 1240.51 15398.8 1242.26 15395.9 1245.11C15391.4 1250.48 15386.4 1255.24 15380.8 1259.27C15379.1 1260.43 15377.2 1261.1 15375.2 1261.24C15373.2 1261.38 15371.2 1260.98 15369.4 1260.06C15365.1 1258.08 15361.4 1254.86 15358.7 1250.74C15355.9 1246.63 15354.3 1241.78 15353.9 1236.72C15353.8 1233.8 15353.3 1230.91 15352.5 1228.11C15351.6 1225.05 15349.4 1222.78 15347.2 1223.24C15339.5 1225.26 15331.9 1228.03 15324.6 1231.51C15323.4 1231.51 15322.5 1233.32 15321.5 1234.11C15317.1 1237.44 15311.8 1239.14 15306.5 1238.99H15254.5H15222.6C15217.3 1239.15 15212.1 1241.22 15207.9 1244.88C15202.5 1249.17 15195.9 1251.22 15189.2 1250.66H15181.2C15175.9 1250.64 15170.6 1248.73 15166.4 1245.22C15165.3 1244.36 15164.3 1243.57 15163.1 1242.84C15161 1241.13 15158.4 1240.22 15155.7 1240.22C15153 1240.22 15150.4 1241.13 15148.3 1242.84C15143.2 1247.57 15136.8 1250.26 15130.2 1250.43C15120.9 1250.2 15111.6 1250.66 15102.3 1251.79C15099.7 1252.21 15097.2 1253.38 15095 1255.19C15091 1258.82 15086.9 1262.56 15083 1266.52C15081.2 1268.65 15078.9 1270.24 15076.3 1271.17C15069.9 1273.12 15063.9 1276.39 15058.7 1280.8C15055.3 1283.14 15051.3 1284.33 15047.3 1284.2L15015.4 1284.99C15012.8 1285.17 15010.2 1285.62 15007.6 1286.35C15006.3 1286.6 15005.1 1287.1 15004 1287.83C14995.4 1294.59 14987.4 1302.17 14980.1 1310.49C14977.1 1313.55 14973.6 1315.87 14969.7 1317.29C14964.7 1319.17 14959.9 1321.89 14955.6 1325.33C14953.6 1327.16 14951.1 1328.3 14948.5 1328.62L14936.6 1330.43C14934 1330.78 14931.5 1331.79 14929.2 1333.38C14923.7 1337.49 14917.2 1339.73 14910.5 1339.84H14798.9C14797.6 1339.95 14796.2 1339.95 14794.9 1339.84C14789.6 1339.61 14784.5 1337.46 14780.4 1333.72C14776.4 1329.87 14772.6 1325.79 14768.4 1322.39C14766.3 1320.68 14763.8 1319.59 14761.1 1319.22C14754.5 1318.42 14747.8 1318.2 14741.3 1317.4C14737.3 1316.89 14733.6 1315.25 14730.4 1312.64C14727.4 1309.87 14723.8 1307.86 14720 1306.75C14714.9 1305.27 14710.1 1302.65 14706 1299.04C14703.7 1297.46 14701.1 1296.56 14698.5 1296.44C14691.8 1295.64 14685.1 1295.64 14678.5 1296.44C14675.8 1296.49 14673.2 1297.31 14670.9 1298.82C14666.7 1302.26 14662 1304.9 14657 1306.64C14653.1 1307.68 14649.3 1309.24 14645.8 1311.28C14644.1 1312.11 14642.2 1312.39 14640.3 1312.09C14638.5 1311.79 14636.8 1310.92 14635.4 1309.58C14633.2 1308 14631.3 1305.84 14629.2 1304.03L14614.2 1289.87C14611.2 1287.15 14607.6 1285.56 14603.8 1285.33C14593.4 1285.33 14583 1285.33 14571.9 1285.33C14565.1 1285.17 14558.6 1287.32 14553 1291.45C14549.7 1293.92 14545.9 1295.41 14541.9 1295.76C14536.6 1295.76 14531.5 1296.44 14526 1296.66C14522 1296.62 14518.1 1297.84 14514.7 1300.18C14508 1304.95 14500 1307.29 14492 1306.86C14485.4 1306.86 14478.7 1306.86 14472.1 1307.66C14468.1 1308.11 14464.4 1309.67 14461.1 1312.19C14457 1315.81 14451.8 1317.87 14446.5 1318.08C14434.5 1318.08 14422.6 1318.76 14410.6 1319.44C14406.6 1319.59 14402.7 1321.05 14399.5 1323.63C14394.1 1328.03 14387.6 1330.35 14380.9 1330.21H14368.9H14329C14325 1329.98 14321 1329.98 14317.1 1330.21C14313.1 1330.76 14309.3 1332.07 14305.8 1334.06C14300.3 1338.21 14293.7 1340.32 14287 1340.07H14227.1C14221.8 1340.05 14216.6 1341.66 14212.1 1344.71C14206.4 1348.5 14199.8 1350.54 14193.1 1350.6H14181.2H14133.3H14113.4C14106.7 1350.57 14100.2 1353.09 14095 1357.74C14091.9 1360.46 14088 1361.97 14084 1362.05C14074.6 1362.62 14065.4 1362.62 14056 1362.73C14046.7 1362.84 14035.2 1362.73 14024.1 1362.73C14016.1 1362.22 14008.2 1364.39 14001.4 1368.96C13997.9 1371.28 13994 1372.57 13990 1372.7C13986 1372.93 13982 1372.93 13978.1 1372.7H13774.6C13765.4 1372.7 13756 1372.7 13746.8 1372.7C13742.8 1373.03 13738.9 1374.14 13735.3 1375.99C13728.7 1381.01 13720.7 1383.4 13712.7 1382.79H13699C13690.9 1383.3 13683 1380.83 13676.4 1375.76C13673 1373.55 13669 1372.48 13665.1 1372.7C13659.7 1372.2 13654.4 1373.55 13649.8 1376.55L13646.4 1378.71C13642.8 1380.76 13639 1382.03 13635 1382.44C13631.1 1382.85 13627.1 1382.39 13623.3 1381.09C13619.3 1380.18 13615.8 1378.03 13611.8 1377.23C13609.2 1376.87 13606.6 1377.6 13604.5 1379.27C13601 1381.46 13597.1 1382.56 13593.1 1382.45H13553.2C13547.9 1382.45 13542.8 1382.45 13537.3 1383.01C13533.3 1382.97 13529.3 1384.36 13526.1 1386.98C13519.8 1392.43 13511.9 1395.24 13503.9 1394.91L13464 1395.59C13460 1395.64 13456.1 1396.93 13452.8 1399.33C13447.3 1403.42 13440.8 1405.78 13434.2 1406.13C13428.9 1406.48 13423.7 1408.27 13419.2 1411.34C13414.7 1414.53 13409.5 1416.23 13404.1 1416.22H13384.2C13377.5 1416.56 13370.9 1414.31 13365.6 1409.87C13363.5 1408.13 13361 1406.97 13358.4 1406.47C13352.1 1404.53 13346.4 1400.59 13342.1 1395.14C13339.2 1392.08 13337.4 1388.11 13336.8 1383.81C13336.8 1380.86 13336 1378.03 13335.6 1375.19C13339.4 1366.13 13342.8 1355.59 13352.1 1352.53C13384.1 1343.01 13378.3 1320.57 13369.4 1296.66C13368.1 1293.07 13366.1 1289.82 13363.5 1287.15C13342.7 1273.77 13323.1 1250.66 13296.6 1275.81C13293.5 1278.14 13290 1279.69 13286.3 1280.35C13261.3 1272.53 13236.6 1265.96 13217.6 1294.17C13214.1 1295.61 13210.4 1296.26 13206.6 1296.1C13201.1 1294.79 13195.8 1292.74 13190.8 1289.98C13158.3 1299.27 13128.5 1321.37 13093.3 1318.76C13089.5 1319.8 13086 1321.69 13082.9 1324.31C13080.7 1325.68 13078.3 1326.39 13075.7 1326.39C13073.2 1326.39 13070.8 1325.68 13068.6 1324.31C13063.9 1319.74 13059 1315.46 13053.8 1311.51C13050.5 1309.55 13047.8 1306.44 13046.2 1302.67C13041.4 1298.03 13043 1289.98 13038.2 1285.33L13034.5 1284.09C13030.7 1282.79 13026.7 1282.57 13022.8 1283.44C13018.9 1284.31 13015.2 1286.25 13012.2 1289.07C13008.8 1291.18 13005 1292.49 13001 1292.93L12965.2 1293.49H12945.4C12940.1 1293.51 12934.9 1295.29 12930.5 1298.59C12923.7 1303.18 12915.5 1304.65 12907.7 1302.67C12905.1 1302.01 12902.6 1301.02 12900.3 1299.72C12898.5 1298.8 12896.6 1298.32 12894.6 1298.32C12892.6 1298.32 12890.7 1298.8 12888.9 1299.72C12885.7 1301.76 12882.2 1303.39 12878.5 1304.6C12874.6 1305.59 12871 1307.84 12868.2 1311.06C12861.5 1317.97 12854.5 1324.65 12848.1 1331.79C12844.2 1335.69 12839.1 1337.87 12833.7 1337.91C12830.5 1338.36 12827.1 1338.04 12823.9 1336.99C12820.8 1335.94 12817.8 1334.16 12815.3 1331.79C12813.4 1329.87 12811.5 1327.83 12809.4 1326.01C12807.5 1324.05 12805.4 1322.23 12803.3 1320.58C12801.1 1319.01 12798.5 1318.11 12795.9 1317.95C12793.2 1317.79 12790.6 1318.38 12788.2 1319.67C12785.9 1321.03 12783.7 1322.54 12781.6 1324.2C12778 1326.16 12774.1 1327.26 12770.2 1327.41C12766.2 1327.57 12762.2 1326.78 12758.6 1325.11C12756.2 1323.87 12753.9 1322.39 12751.8 1320.69C12747.3 1317.72 12742 1316.38 12736.8 1316.84C12734.1 1317.03 12731.6 1317.9 12729.3 1319.35C12727 1320.81 12725.1 1322.81 12723.7 1325.22C12721.7 1328.73 12721 1333.27 12717.1 1335.65C12714.8 1336.96 12712.4 1338.1 12709.9 1339.05C12707.5 1340.13 12705.2 1341.5 12703 1343.13C12698.2 1347.12 12692.4 1349.29 12686.4 1349.29C12680.4 1349.29 12674.6 1347.12 12669.8 1343.13C12667.8 1341.36 12665.3 1340.19 12662.7 1339.73C12657.5 1338.82 12652.2 1338.82 12646.9 1339.73C12644.4 1340.23 12642 1341.48 12640 1343.35C12637.8 1344.93 12635.4 1346.3 12633 1347.43C12602.9 1348.68 12581.7 1357.97 12587.3 1398.54C12592.1 1432.53 12573.2 1433.44 12550.5 1425.51C12547.1 1423.38 12544 1420.71 12541.3 1417.57C12538.5 1414.52 12536.7 1410.54 12536.1 1406.24C12536.1 1402.05 12535.2 1397.74 12534.8 1393.55C12534.3 1391.48 12533.4 1389.58 12532 1388.04C12530.7 1386.51 12529 1385.4 12527.1 1384.83C12524.5 1384.15 12521.9 1383.8 12519.3 1383.81C12516 1383.47 12512.6 1384.42 12509.9 1386.49C12507.2 1388.57 12505.2 1391.63 12504.3 1395.14C12501.2 1403.86 12501 1403.75 12490.8 1408.4C12488.3 1409.4 12486.1 1410.86 12484 1412.7C12479.9 1416.12 12476.1 1419.91 12472.5 1424.03C12469.2 1428.45 12465.5 1432.65 12462.1 1436.73C12460.2 1438.7 12458.3 1440.55 12456.2 1442.28C12439.4 1453.61 12421.2 1442.28 12404.2 1447.04C12400.5 1449.2 12396.4 1450.19 12392.2 1449.89C12388 1449.59 12384 1448.01 12380.6 1445.34C12378.7 1443.7 12376.6 1442.37 12374.4 1441.37L12372.3 1440.8L12374.7 1441.37C12376.7 1442.24 12378.5 1443.51 12380 1445.11C12382 1447.07 12384.2 1448.68 12386.6 1449.87C12393.2 1452.14 12398.8 1448.4 12404.7 1446.92C12419.8 1448.74 12437.9 1438.54 12448.2 1459.62C12453.9 1463.58 12461 1462.68 12466.9 1466.19C12468.1 1466.8 12469.2 1467.76 12469.9 1468.95C12470.7 1470.14 12471.2 1471.53 12471.4 1472.99C12471.9 1474.99 12471.9 1477.1 12471.4 1479.1C12470.8 1481.1 12469.8 1482.9 12468.5 1484.32L12465.7 1487.49C12462.3 1491.99 12457.5 1494.87 12452.1 1495.54C12446.9 1496.07 12441.6 1496.41 12436.2 1496.56C12432.2 1496.46 12428.3 1497.77 12425 1500.3C12418.8 1505.85 12411 1509 12403 1509.25C12397.7 1509.86 12392.7 1512.06 12388.5 1515.59C12385.1 1517.88 12381.1 1519.1 12377.1 1519.11C12363.8 1519.11 12350.6 1519.11 12337.3 1519.11H12325.3C12318.6 1519.02 12312.1 1521.03 12306.4 1524.89C12301.8 1527.9 12296.6 1529.47 12291.2 1529.42C12272.6 1529.42 12254 1529.42 12235.4 1530.33C12231.5 1530.48 12227.8 1532.22 12225 1535.2C12220.9 1539.01 12215.9 1541.28 12210.5 1541.66H12206.5C12203.9 1541.66 12201.2 1541.66 12198.6 1541.66C12193.2 1541.63 12188 1539.63 12183.8 1535.99C12179.8 1532.16 12174.6 1530.03 12169.3 1529.99C12161.3 1529.99 12153.3 1529.99 12145.4 1529.99C12140 1530.03 12134.8 1532.07 12130.6 1535.76C12126.5 1539.47 12121.4 1541.55 12116 1541.66H12080.2C12072.2 1541.2 12064.2 1541.89 12056.4 1543.7C12053.5 1544.6 12049.3 1550.16 12049.9 1553.44C12050.2 1556.27 12051 1559.03 12052.1 1561.6C12053.6 1563.97 12054.9 1566.47 12056 1569.08C12057.2 1573.2 12057 1577.67 12055.4 1581.66C12053.6 1587.1 12049.4 1591.18 12048.3 1597.07C12047.4 1601.32 12045.4 1605.23 12042.7 1608.4C12034.7 1617.92 12026.1 1627.1 12017.4 1636.05C12014.4 1639.01 12010.9 1641.14 12007 1642.28C12003.2 1643.31 11999.7 1645.2 11996.6 1647.84C11992.5 1651.5 11987.7 1654.24 11982.6 1655.88C11979 1657.78 11975.5 1659.94 11972.2 1662.34C11969.8 1663.7 11967.2 1664.58 11964.6 1664.95C11959.3 1665.59 11954 1665.89 11948.7 1665.85H11837C11829 1665.85 11821.1 1665.85 11813.1 1665.85C11807.8 1666.01 11802.6 1667.78 11798.2 1670.95C11793.6 1673.93 11788.3 1675.57 11783 1675.71H11723.2C11717.9 1675.71 11712.8 1675.71 11707.3 1676.28C11703.3 1676.5 11699.4 1677.87 11696.1 1680.24C11690.7 1684.51 11684.2 1686.85 11677.5 1686.93C11669.6 1686.93 11661.6 1686.93 11653.6 1688.18C11649.7 1688.55 11646.1 1690.25 11643.2 1693.05C11640.2 1695.89 11636.6 1697.78 11632.8 1698.49C11630.1 1698.49 11627.5 1699.28 11624.8 1699.51C11619.5 1700.06 11614.5 1702.17 11610.2 1705.63C11606.9 1708.08 11603 1709.38 11599 1709.37C11583.1 1709.37 11567.1 1709.93 11551.2 1710.5C11548.5 1710.75 11545.9 1711.4 11543.5 1712.43C11542.2 1712.92 11541.1 1713.65 11540 1714.58C11532.8 1721.04 11522.7 1721.83 11515.6 1728.86C11512.5 1731.63 11508.6 1733.08 11504.6 1732.94H11484.6C11476.1 1732.94 11475.3 1732.94 11463.1 1724.1C11461.4 1723.03 11459.5 1722.38 11457.5 1722.19C11455.5 1721.99 11453.6 1722.26 11451.7 1722.97C11449.3 1724.19 11447 1725.67 11444.9 1727.38C11443 1729.42 11440.7 1730.96 11438.2 1731.92C11433 1733.19 11428.1 1735.88 11424.1 1739.74C11421.3 1742.68 11417.9 1745.18 11415 1748.12C11410.9 1751.77 11406 1754.33 11400.8 1755.6C11395.8 1757.3 11392.6 1762.74 11387.4 1764.67C11384.9 1765.63 11382.2 1765.63 11379.7 1764.67C11376 1762.96 11372.5 1760.63 11369.3 1757.75C11367.3 1755.87 11364.7 1754.84 11362 1754.84C11359.3 1754.84 11356.7 1755.87 11354.6 1757.75C11351.4 1760.45 11347.9 1762.69 11344.2 1764.44C11341.7 1765.51 11339 1765.51 11336.5 1764.44C11333.1 1762.4 11330.1 1759.57 11326.7 1757.19C11325 1756.16 11323 1755.62 11321 1755.62C11319 1755.62 11317 1756.16 11315.3 1757.19C11314.1 1757.8 11313 1758.48 11311.9 1759.23C11307.8 1762.99 11303.2 1765.87 11298.1 1767.73C11291.6 1769.54 11287.1 1775.77 11280.6 1777.58C11275.4 1778.88 11270.5 1781.31 11266.2 1784.72C11262.8 1787.06 11258.9 1788.28 11254.9 1788.24H11234.9H11203C11196.4 1788.04 11189.8 1790.32 11184.5 1794.69C11180.2 1798.11 11174.9 1799.86 11169.5 1799.68C11159.2 1799.68 11148.8 1799.68 11137.6 1800.59C11132.3 1800.81 11127.2 1802.79 11122.9 1806.25C11118.5 1809.64 11113.3 1811.5 11108 1811.58H11080H11064.1C11060.1 1811.53 11056.2 1812.71 11052.8 1814.98C11046 1819.62 11038.1 1821.91 11030 1821.55C11018.1 1821.55 11006.1 1821.55 10994.2 1821.55C10987.5 1821.39 10981 1823.71 10975.7 1828.12C10972.8 1829.98 10969.5 1830.92 10966.2 1830.82C10962.9 1830.72 10959.6 1829.59 10956.9 1827.56C10955.9 1826.63 10954.7 1825.99 10953.4 1825.71C10952.1 1825.43 10950.8 1825.52 10949.6 1825.97C10947.1 1826.96 10944.4 1827.37 10941.7 1827.2C10939.1 1827.02 10936.5 1826.26 10934.1 1824.95C10930.6 1822.91 10926.7 1821.79 10922.7 1821.66C10906.8 1821.66 10890.8 1820.76 10874.8 1821.66C10870.8 1821.92 10867 1823.55 10863.9 1826.31C10859.9 1829.94 10856.1 1834.13 10852.4 1838.21C10850.5 1840.32 10848.3 1841.98 10845.8 1843.08C10839.6 1845.43 10833.5 1848.47 10827.9 1852.15C10825.5 1853.61 10822.9 1854.43 10820.3 1854.53C10811 1854.53 10801.8 1855.09 10792.4 1855.21C10783 1855.32 10776.5 1855.21 10768.5 1855.21C10760.5 1854.78 10752.6 1857.3 10746 1862.35C10743.9 1864.05 10741.2 1865 10738.6 1865.06C10731.9 1865.06 10725.3 1866.08 10718.7 1865.86C10709.3 1865.42 10700.1 1868.63 10692.7 1874.92C10690.5 1876.58 10687.9 1877.52 10685.2 1877.64C10684 1877.64 10682.6 1877.64 10681.3 1877.64H10577.3C10572 1877.73 10566.8 1875.81 10562.6 1872.2C10558.4 1868.58 10553.3 1866.3 10548 1865.63H10544.1C10538.8 1865.15 10533.7 1863.07 10529.5 1859.63C10526.1 1857.4 10522.2 1856.01 10518.3 1855.55C10509 1854.7 10499.6 1854.7 10490.3 1855.55C10486.3 1855.8 10482.5 1857.21 10479.2 1859.63C10473.7 1863.76 10467.1 1865.86 10460.5 1865.63H10444.5C10435.2 1865.27 10425.9 1865.54 10416.6 1866.42C10412.8 1866.87 10409.1 1868.61 10406.2 1871.41C10404.3 1873.44 10402.1 1875.05 10399.7 1876.17C10393.5 1878.78 10387.5 1881.92 10381.8 1885.58C10379.5 1887.05 10376.9 1887.98 10374.3 1888.3C10367.7 1888.98 10361 1888.86 10354.4 1889.65C10350.5 1889.98 10346.6 1891.55 10343.4 1894.19C10340.3 1896.92 10336.4 1898.54 10332.4 1898.83C10324.5 1899.4 10316.5 1899.51 10308.5 1899.51H10184.9C10176.9 1899.51 10168.9 1899.51 10161 1899.51C10155.6 1899.68 10150.4 1901.61 10146.1 1905.07C10141.8 1908.49 10136.7 1910.53 10131.4 1910.96C10126.1 1910.96 10121 1911.53 10115.6 1912.32C10111.6 1912.83 10107.8 1914.47 10104.5 1917.08C10100.2 1920.46 10095 1922.32 10089.7 1922.4C10083 1922.4 10076.4 1922.4 10069.7 1922.4C10063 1922.29 10056.5 1924.47 10051 1928.64C10048.8 1930.28 10046.3 1931.33 10043.7 1931.7C10039.8 1932.26 10035.8 1932.6 10031.8 1932.72C10023.8 1932.35 10015.9 1934.77 10009.2 1939.63C10006.6 1944.19 10002.8 1947.75 9998.2 1949.83C9992.9 1949.83 9987.8 1950.39 9982.29 1950.39H9925.43C9918.78 1950.26 9912.25 1952.36 9906.72 1956.4C9902.38 1959.82 9897.21 1961.75 9891.85 1961.95L9872 1962.52C9865.31 1962.37 9858.74 1964.47 9853.18 1968.52C9849.98 1970.98 9846.19 1972.36 9842.27 1972.49C9832.91 1972.49 9823.66 1972.49 9814.41 1973.62C9810.4 1973.98 9806.56 1975.51 9803.29 1978.04C9799 1981.49 9793.85 1983.43 9788.52 1983.6C9785.82 1983.6 9783.22 1983.6 9780.52 1983.6C9772.46 1983.4 9764.59 1986.28 9758.27 1991.75C9754.96 1994.19 9751.04 1995.45 9747.05 1995.38C9740.5 1995.38 9733.85 1995.38 9727.19 1995.38H9683.32C9677.97 1995.45 9672.74 1997.18 9668.25 2000.37C9662.55 2004.12 9655.98 2006.01 9649.33 2005.81H9633.32C9617.42 2005.81 9601.51 2005.13 9585.5 2006.49C9582.86 2006.62 9580.28 2007.48 9578.02 2008.98C9575.73 2010.45 9573.24 2011.58 9570.95 2013.06C9568.62 2014.4 9566.08 2015.24 9563.47 2015.55C9555.52 2016.38 9547.53 2016.64 9539.56 2016.34H9487.58C9480.89 2016.06 9474.33 2018.39 9469.07 2022.92C9465.87 2025.47 9462.11 2027.07 9458.16 2027.56C9454.21 2028.13 9450.26 2029.15 9446.41 2029.94C9443.75 2030.4 9441.28 2031.75 9439.34 2033.79C9436.4 2036.53 9432.79 2038.26 9428.95 2038.78C9425.02 2039.39 9421.06 2039.65 9417.1 2039.57C9405.14 2039.57 9393.08 2039.57 9381.13 2039.57H9361.27C9355.92 2039.67 9350.68 2041.31 9346.1 2044.33C9341.63 2047.5 9336.45 2049.27 9331.13 2049.43H9311.17H9259.19C9253.89 2049.43 9248.8 2049.43 9243.18 2050.11C9239.21 2050.37 9235.38 2051.86 9232.17 2054.42C9229.14 2057.29 9225.26 2058.87 9221.25 2058.87C9217.24 2058.87 9213.36 2057.29 9210.33 2054.42C9207.21 2051.81 9204.2 2048.98 9201.19 2046.15C9197.24 2042.24 9192.16 2039.96 9186.84 2039.69C9174.89 2039.12 9162.93 2039.01 9150.98 2039.69C9145.62 2040.06 9140.53 2042.37 9136.53 2046.26C9133.41 2048.98 9130.6 2052.04 9127.48 2054.76C9123.21 2058.28 9118.07 2060.33 9112.72 2060.65H9052.95C9044.92 2060.73 9037.07 2058.07 9030.49 2053.06C9028.27 2051.42 9025.68 2050.48 9023.01 2050.34H9007.1C9001.77 2050.36 8996.58 2052.18 8992.24 2055.55C8987.8 2058.79 8982.61 2060.6 8977.27 2060.76C8956.48 2061.33 8934.75 2061.56 8913.44 2060.76C8912.14 2060.6 8910.86 2060.33 8909.6 2059.97C8906.97 2059.56 8904.54 2058.23 8902.67 2056.19C8900.79 2054.15 8899.58 2051.5 8899.2 2048.64C8898.54 2044.45 8898.92 2040.14 8900.29 2036.16C8901.66 2032.18 8903.97 2028.66 8907 2025.98L8913.03 2020.31C8915.09 2018.46 8917.64 2017.39 8920.3 2017.25C8932.26 2015.89 8944.21 2016.68 8956.17 2016.34C8965.47 2016.84 8974.79 2016.42 8984.03 2015.1C8986.64 2014.71 8989.02 2013.25 8990.68 2011.02L8993.28 2007.73C8996.08 2001.5 9005.65 1998.33 9000.45 1988.47L8994.42 1977.14C8992.03 1972.49 8994.42 1963.42 8999.1 1962.52L9002.84 1961.5L9010.85 1960.36C9015.43 1959.57 9019.74 1957.5 9023.38 1954.37C9027.02 1951.23 9029.87 1947.13 9031.64 1942.46C9032.19 1941.16 9032.57 1939.79 9032.78 1938.38C9032.94 1936.95 9032.94 1935.51 9032.78 1934.08C9033.37 1929.79 9032.86 1925.41 9031.32 1921.41C9029.78 1917.42 9027.27 1913.96 9024.05 1911.41C9021.04 1907.9 9018.96 1907.67 9013.65 1910.05L9010.12 1911.98C9006.52 1913.92 9002.59 1915 8998.58 1915.15C8990.68 1915.15 8982.68 1915.15 8974.67 1915.15C8969.31 1914.98 8964.19 1912.73 8960.22 1908.81C8957.4 1905.91 8953.7 1904.26 8949.83 1904.16C8937.87 1903.59 8925.81 1903.59 8913.86 1903.48H8874.04C8867.36 1903.52 8860.82 1901.3 8855.33 1897.13C8853.14 1895.46 8850.61 1894.41 8847.95 1894.07C8841.36 1893.3 8834.72 1893.03 8828.1 1893.28C8818.75 1892.41 8809.41 1895 8801.59 1900.65C8799.23 1901.95 8796.59 1902.5 8793.96 1902.24C8791.33 1901.98 8788.82 1900.92 8786.72 1899.17C8784.51 1897.55 8782.42 1895.73 8780.49 1893.73C8777.62 1890.72 8774.4 1888.13 8770.92 1886.03C8768.58 1884.69 8766.05 1883.77 8763.44 1883.31C8754.18 1882.12 8744.83 1882.12 8735.58 1883.31C8732.93 1883.13 8730.3 1883.84 8728.03 1885.34C8725.76 1886.83 8723.97 1889.05 8722.89 1891.69C8722.89 1893.05 8721.86 1894.41 8721.44 1895.77C8718.58 1902.32 8714.21 1907.94 8708.76 1912.09C8707.73 1913.02 8706.52 1913.68 8705.22 1914.02C8700.13 1915.38 8694.83 1916.51 8689.73 1917.76C8687.74 1917.98 8685.9 1919.02 8684.57 1920.65C8683.24 1922.29 8682.52 1924.41 8682.56 1926.6C8682.05 1928.71 8682.31 1930.97 8683.31 1932.87C8684.3 1934.78 8685.93 1936.19 8687.86 1936.79C8691.07 1937.65 8694.04 1939.35 8696.49 1941.77C8698.94 1944.18 8700.8 1947.22 8701.9 1950.62C8703.03 1954.85 8705.06 1958.74 8707.82 1961.95C8712.5 1967.05 8717.07 1972.38 8721.65 1977.48C8729.03 1985.86 8736.51 1994.13 8744.52 2001.73C8747.43 2004.44 8751.09 2006.03 8754.91 2006.26C8760.21 2006.26 8765.31 2006.26 8770.82 2007.05C8776.15 2007.2 8781.28 2009.32 8785.37 2013.06C8788.56 2015.44 8792.07 2017.27 8795.77 2018.5C8797.61 2019.34 8799.25 2020.63 8800.55 2022.29C8801.85 2023.94 8802.77 2025.9 8803.25 2028.02C8804.19 2032.22 8804.19 2036.61 8803.25 2040.82C8802.81 2043.64 8801.78 2046.32 8800.24 2048.64C8795.04 2055.21 8789.32 2061.33 8783.92 2067.79C8781.2 2070.92 8777.8 2073.26 8774.04 2074.59C8771.54 2075.61 8768.95 2076.29 8766.56 2077.53C8762.18 2080.78 8757.47 2083.44 8752.52 2085.47C8747.46 2087.23 8742.67 2089.79 8738.28 2093.06C8735.91 2094.37 8733.34 2095.18 8730.69 2095.44C8729.34 2095.44 8728.09 2096.01 8726.74 2096.01H8662.91C8657.58 2096.02 8652.36 2094.29 8647.94 2091.02C8643.49 2087.83 8638.3 2086.07 8632.98 2085.92L8617.07 2084.9C8614.42 2084.62 8611.86 2083.69 8609.59 2082.18C8603.03 2077.08 8595.06 2074.6 8587.03 2075.16C8577.78 2075.16 8568.42 2075.16 8559.17 2075.16C8553.83 2075 8548.65 2073.1 8544.3 2069.72C8540.23 2065.95 8535.09 2063.83 8529.75 2063.71L8489.83 2063.03C8483.16 2063.31 8476.57 2061.29 8471.01 2057.25C8469.89 2056.46 8468.71 2055.78 8467.48 2055.21C8465.2 2053.68 8462.57 2052.85 8459.89 2052.83C8453.34 2052.83 8446.69 2052.04 8440.04 2052.04H8360.2C8353.55 2052.04 8347 2052.04 8340.35 2052.04C8336.31 2052.14 8332.34 2050.96 8328.91 2048.64C8322.15 2043.98 8314.25 2041.65 8306.25 2041.95H8258.33C8252.99 2041.92 8247.73 2043.24 8242.94 2045.81C8241.92 2046.66 8240.72 2047.23 8239.46 2047.47C8238.19 2047.71 8236.89 2047.6 8235.66 2047.17C8228.37 2043.64 8220.55 2041.61 8212.59 2041.16C8208.74 2040.91 8205.09 2039.28 8202.19 2036.51C8201.16 2035.59 8200.05 2034.79 8198.87 2034.13C8196.6 2032.58 8194.04 2031.61 8191.38 2031.3C8182.11 2030.34 8172.79 2030.34 8163.52 2031.3C8159.56 2031.66 8155.73 2032.98 8152.29 2035.15C8149.9 2036.4 8147.62 2037.99 8145.33 2039.46C8143.09 2041.02 8140.5 2041.88 8137.84 2041.95C8131.17 2042.06 8124.58 2043.68 8118.51 2046.71C8116.81 2047.8 8114.87 2048.37 8112.89 2048.37C8110.92 2048.37 8108.98 2047.8 8107.28 2046.71C8103.82 2044.54 8099.94 2043.26 8095.95 2042.97C8089.3 2042.41 8082.64 2042.18 8076.09 2041.61C8073.4 2041.45 8070.83 2040.38 8068.71 2038.55C8063.52 2033.94 8057.02 2031.41 8050.31 2031.42H8010.5C8003.79 2031.38 7997.27 2033.81 7992 2038.33C7989.89 2040.16 7987.31 2041.23 7984.62 2041.39C7982.02 2041.39 7979.42 2042.07 7976.72 2041.95C7972.73 2042.23 7968.76 2041.12 7965.38 2038.78C7958.9 2033.65 7951.05 2030.98 7943.04 2031.19C7923.08 2031.19 7903.12 2031.19 7883.16 2030.39C7879.15 2030.31 7875.24 2029.06 7871.83 2026.77C7869.54 2025.3 7867.46 2023.37 7865.17 2022.12C7862.79 2020.85 7860.22 2020.04 7857.58 2019.74C7847.19 2019.74 7836.27 2019.18 7825.67 2018.95C7820.37 2018.95 7815.28 2018.95 7809.77 2018.95C7804.45 2018.4 7799.34 2016.41 7794.9 2013.17C7792.74 2011.49 7790.23 2010.43 7787.59 2010.09C7784.96 2009.75 7782.28 2010.15 7779.83 2011.24C7776.19 2012.49 7772.76 2015.21 7768.39 2014.08C7765.88 2013.37 7763.44 2012.38 7761.12 2011.13C7758.68 2009.98 7756.07 2009.33 7753.42 2009.2C7748.12 2009.2 7743.03 2009.2 7737.41 2009.2C7722.86 2009.2 7708.2 2009.77 7693.55 2008.52C7689.56 2008.19 7685.76 2006.58 7682.63 2003.88C7680.71 2001.84 7678.29 2000.47 7675.67 1999.91C7671.71 1999.23 7667.87 1998.33 7663.92 1997.76C7659.92 1997.45 7656.08 1995.96 7652.8 1993.45C7648.58 1989.98 7643.92 1987.19 7638.97 1985.18C7635.3 1983.68 7631.81 1981.7 7628.58 1979.29C7625.25 1976.85 7621.35 1975.51 7617.35 1975.44C7609.34 1975.44 7601.44 1975.44 7593.44 1975.44C7588.13 1975.59 7582.97 1977.4 7578.57 1980.65C7574.2 1984.1 7568.89 1985.85 7563.5 1985.63H7503.73C7495.69 1985.75 7487.83 1983.09 7481.27 1978.04C7479.6 1976.87 7477.67 1976.2 7475.69 1976.08C7473.7 1975.96 7471.72 1976.4 7469.94 1977.36C7467.51 1978.49 7465.15 1979.77 7462.87 1981.22C7456.99 1984.68 7450.26 1986.02 7443.64 1985.07C7441.02 1984.8 7438.49 1983.87 7436.26 1982.35C7429.81 1977.09 7421.85 1974.48 7413.81 1974.98H7397.8C7391.11 1975.01 7384.58 1972.79 7379.09 1968.64C7375.71 1966.33 7371.84 1965.04 7367.86 1964.9C7355.9 1964.9 7343.95 1964.9 7332 1963.99C7326.6 1963.79 7321.5 1961.31 7317.75 1957.08C7314.95 1954.02 7311.83 1951.3 7309.12 1948.13C7305.33 1944.02 7300.32 1941.52 7294.99 1941.1L7286.98 1940.19C7283.09 1939.58 7279.46 1937.68 7276.59 1934.76C7273.57 1931.92 7270.77 1928.86 7267.85 1925.92C7264.91 1922.87 7261.35 1920.62 7257.46 1919.34C7252.36 1917.61 7247.63 1914.8 7243.53 1911.07C7241.58 1909.08 7239.03 1907.91 7236.36 1907.79C7231.05 1907.79 7225.96 1906.99 7220.45 1906.88H7180.64C7173.95 1907.17 7167.35 1905.1 7161.82 1900.99C7159.64 1899.34 7157.16 1898.22 7154.54 1897.7C7146.66 1896.4 7138.63 1896.4 7130.74 1897.7C7128.09 1898.13 7125.56 1899.21 7123.36 1900.87C7117.75 1904.83 7111.23 1906.99 7104.54 1907.11H7045.91C7039.2 1907.37 7032.6 1905.13 7027.2 1900.76C7025.03 1899.14 7022.54 1898.09 7019.93 1897.7L7000.07 1896.23C6996.09 1896 6992.24 1894.59 6988.95 1892.15C6984.62 1888.73 6979.51 1886.65 6974.19 1886.14C6967.51 1885.97 6961.06 1883.47 6955.79 1879C6951.54 1875.4 6946.3 1873.49 6940.92 1873.56H6921.07C6914.4 1873.57 6907.88 1871.4 6902.35 1867.33C6899.04 1864.85 6895.14 1863.48 6891.13 1863.37H6875.12H6735.51C6730.21 1863.37 6725.11 1863.37 6719.6 1862.8C6716.97 1862.56 6714.38 1861.91 6711.91 1860.87C6693.72 1852.94 6693.72 1852.83 6681.56 1852.94H6661.6C6654.91 1852.96 6648.41 1850.48 6643.2 1845.91C6640.04 1843.22 6636.18 1841.68 6632.18 1841.5C6616.25 1840.36 6600.28 1840.36 6584.36 1841.5C6580.35 1841.85 6576.45 1843.12 6572.92 1845.23C6570.57 1846.5 6567.96 1847.1 6565.34 1846.96C6562.72 1846.82 6560.18 1845.95 6557.96 1844.44C6554.41 1842.37 6550.44 1841.28 6546.42 1841.27H6502.55C6490.59 1841.27 6478.64 1841.27 6466.68 1841.27C6458.65 1841.52 6450.75 1838.98 6444.13 1834.02C6440.73 1831.72 6436.79 1830.54 6432.79 1830.62C6426.14 1830.62 6419.49 1830.62 6412.84 1830.62C6399.53 1830.62 6386.22 1830.62 6372.92 1830.62C6364.91 1830.84 6357.03 1828.47 6350.25 1823.82C6346.76 1821.69 6342.82 1820.59 6338.82 1820.64C6326.87 1820.64 6314.91 1820.64 6302.96 1819.74C6300.32 1819.42 6297.76 1818.62 6295.37 1817.36C6293 1816.12 6290.71 1814.72 6288.51 1813.17C6286.28 1811.55 6283.69 1810.62 6281.02 1810.48C6278.35 1810.34 6275.69 1810.99 6273.33 1812.37C6271.08 1813.82 6268.51 1814.58 6265.9 1814.58C6263.28 1814.58 6260.72 1813.82 6258.46 1812.37C6253.67 1809.89 6248.48 1808.42 6243.18 1808.07C6237.86 1807.6 6232.78 1805.39 6228.63 1801.72C6224.29 1798.26 6219.04 1796.43 6213.66 1796.51C6201.71 1795.77 6189.74 1795.77 6177.8 1796.51C6173.93 1796.84 6170.28 1798.55 6167.4 1801.38C6164.39 1804.26 6160.84 1806.38 6157.01 1807.61C6151.98 1809.44 6147.29 1812.24 6143.18 1815.89C6141.11 1817.71 6138.63 1818.92 6136.01 1819.4C6132.2 1820.36 6128.64 1822.26 6125.61 1824.95C6122.47 1827.39 6118.95 1829.19 6115.22 1830.28C6111.31 1831.33 6107.73 1833.48 6104.82 1836.51C6100.77 1840.36 6097.23 1844.67 6093.18 1847.84C6090.26 1850.59 6086.62 1852.25 6082.78 1852.6L6046.92 1853.28H6026.96C6021.6 1853.21 6016.34 1854.9 6011.89 1858.15C6006.48 1862.69 5999.41 1863.03 5994.01 1867.1C5989.67 1870.5 5984.86 1873.1 5979.76 1874.81C5975.91 1876.05 5972.35 1878.21 5969.37 1881.16C5966.48 1883.99 5962.84 1885.74 5958.97 1886.14C5952.32 1886.94 5945.67 1887.28 5939.12 1887.84C5936.44 1888.05 5933.87 1889.12 5931.74 1890.9C5927.58 1894.53 5923.42 1898.15 5919.47 1902.23C5916.5 1905.17 5912.94 1907.31 5909.08 1908.47C5905.29 1909.62 5901.76 1911.58 5898.68 1914.24C5894.6 1918.02 5889.47 1920.17 5884.13 1920.36C5876.12 1920.36 5868.22 1920.36 5860.22 1920.36C5856.27 1920.36 5852.21 1920.36 5848.26 1920.93C5844.31 1921.44 5840.49 1922.83 5837.04 1925.01C5828.41 1930.68 5828.41 1931.02 5822.59 1931.36C5814.58 1931.72 5806.83 1934.55 5800.24 1939.51C5798.51 1940.58 5796.56 1941.13 5794.57 1941.13C5792.59 1941.13 5790.63 1940.58 5788.91 1939.51L5781.84 1935.32C5778.4 1933.18 5774.56 1931.91 5770.61 1931.58C5763.93 1931.54 5757.36 1929.71 5751.48 1926.26C5750.29 1925.58 5748.98 1925.23 5747.64 1925.23C5746.3 1925.23 5744.98 1925.58 5743.79 1926.26C5737.89 1929.58 5731.4 1931.43 5724.77 1931.7C5719.45 1932.01 5714.33 1933.97 5710 1937.36C5705.49 1940.52 5700.18 1942.02 5694.83 1941.67C5690.85 1942.07 5686.86 1941.12 5683.39 1938.95C5676.79 1933.93 5668.88 1931.35 5660.83 1931.58C5646.28 1931.58 5631.62 1931.58 5616.97 1931.58C5613.02 1931.58 5609.07 1931.02 5605.12 1930.56C5602.46 1930.21 5599.99 1928.94 5598.05 1926.94C5587.65 1915.6 5577.26 1904.27 5566.86 1892.94C5556.46 1881.61 5548.36 1872.2 5539.21 1861.78C5536.58 1858.51 5534.66 1854.64 5533.6 1850.45C5532.29 1846.32 5530.32 1842.49 5527.77 1839.12C5521.85 1831.18 5514.78 1824.61 5508.65 1817.02C5506.11 1813.8 5504.46 1809.88 5503.87 1805.69C5502.72 1798.55 5503.14 1791.18 5501.79 1784.16C5501.18 1781.36 5499.74 1778.86 5497.69 1777.05C5495.64 1775.24 5493.09 1774.23 5490.46 1774.18C5487.83 1773.9 5485.18 1773.9 5482.55 1774.18C5479.92 1774.54 5477.4 1775.55 5475.17 1777.13C5469.77 1781.32 5464.78 1786.2 5459.37 1790.5C5456.11 1792.98 5452.23 1794.29 5448.25 1794.24C5442.93 1794.72 5437.59 1793.54 5432.86 1790.84C5428.42 1787.63 5423.54 1785.18 5418.41 1783.59C5415.88 1782.86 5413.53 1781.51 5411.55 1779.62C5404.6 1772.9 5398.07 1765.66 5392.01 1757.98C5391.13 1756.91 5390.49 1755.63 5390.14 1754.24C5388.27 1747.28 5385 1740.85 5380.58 1735.43C5377.98 1732.26 5375.79 1728.52 5373.19 1725.23C5370.71 1721.81 5369.32 1717.59 5369.24 1713.22C5369.24 1703.02 5369.25 1692.94 5368.62 1682.74C5368.62 1668.35 5368.62 1653.84 5368.1 1639.34C5367.91 1635.1 5366.32 1631.07 5363.63 1628.01C5358.33 1621.43 5353.24 1615.09 5347.31 1608.97C5344.5 1605.99 5340.82 1604.19 5336.92 1603.87C5330.26 1603.19 5323.61 1603.08 5316.96 1603.08H5237.12C5231.92 1603.08 5226.72 1602.51 5221.32 1602.06C5218.67 1601.82 5216.15 1600.67 5214.15 1598.77C5210.09 1594.92 5206.25 1590.95 5202.19 1587.44C5199.23 1584.63 5195.65 1582.71 5191.8 1581.88C5189.09 1581.88 5186.49 1581.09 5183.9 1580.53C5178.64 1579.72 5173.68 1577.37 5169.55 1573.73C5166.16 1571.42 5162.31 1570.06 5158.32 1569.76C5151.71 1568.94 5145.05 1570.79 5139.61 1574.97C5135.45 1578.74 5130.15 1580.68 5124.75 1580.41C5110.19 1580.98 5095.53 1581.2 5080.88 1580.41C5076.89 1580.44 5073 1579.09 5069.75 1576.56C5064.31 1572.39 5058.21 1569.32 5051.77 1567.49C5047.09 1565 5043.19 1561.06 5040.54 1556.16C5040.63 1554.74 5040.88 1553.33 5041.27 1551.97C5042.45 1547.06 5045.19 1542.77 5048.99 1539.85C5052.8 1536.92 5057.42 1535.56 5062.06 1535.99C5064.71 1535.8 5067.37 1536.18 5069.89 1537.12C5072.4 1538.05 5074.72 1539.52 5076.72 1541.43C5080.74 1545.26 5085.83 1547.5 5091.17 1547.78C5093.87 1547.78 5096.47 1547.78 5099.17 1547.78H5103.12C5106.46 1547.84 5109.73 1546.79 5112.5 1544.76C5115.27 1542.73 5117.4 1539.83 5118.61 1536.44C5121.94 1528.17 5122.98 1527.61 5129.01 1525.11L5132.75 1523.75C5135.29 1522.92 5137.64 1521.49 5139.61 1519.56C5142.61 1516.96 5146.21 1515.31 5150.01 1514.8C5156.66 1514.8 5163.31 1514.12 5169.86 1513.33C5172.51 1513.02 5175.02 1511.92 5177.14 1510.16C5181.32 1506.52 5184.85 1502.06 5187.53 1497.01C5188.77 1494.47 5189.07 1491.5 5188.38 1488.72C5187.68 1485.95 5186.04 1483.56 5183.79 1482.05C5177.59 1479.55 5171.77 1476.03 5166.53 1471.63C5162.49 1469.05 5157.84 1467.83 5153.17 1468.12C5148.49 1468.4 5144 1470.17 5140.24 1473.21C5136.17 1476.86 5131.22 1479.14 5125.99 1479.79C5122.04 1479.79 5118.09 1481.03 5114.14 1481.6C5111.55 1482.25 5109.15 1483.61 5107.18 1485.57C5103.96 1488.12 5100.13 1489.62 5096.16 1489.87L5084.2 1490.55H5068.19C5065.56 1490.69 5062.97 1491.42 5060.61 1492.7C5056.1 1495.77 5051.24 1498.17 5046.16 1499.84C5040.88 1500.52 5035.57 1500.86 5030.25 1500.86C5010.29 1500.86 4990.33 1500.86 4970.37 1500.86C4963.76 1500.95 4957.25 1502.7 4951.35 1505.96C4949.68 1507.13 4947.73 1507.76 4945.74 1507.76C4943.75 1507.76 4941.8 1507.13 4940.12 1505.96C4936.92 1503.37 4933.09 1501.83 4929.1 1501.54H4917.15H4893.24C4888.15 1501.54 4887.11 1501.54 4878.38 1495.99C4873.77 1493.1 4868.61 1491.43 4863.3 1491.12L4847.4 1490.1C4844.72 1489.95 4842.13 1489.01 4839.91 1487.38C4833.26 1482.54 4825.34 1480.2 4817.35 1480.69C4801.35 1480.69 4785.44 1480.69 4769.43 1480.69C4764.09 1481 4758.83 1479.06 4754.77 1475.25C4753.72 1474.41 4752.61 1473.65 4751.45 1472.99C4749.24 1471.36 4746.71 1470.32 4744.07 1469.93C4733.51 1468.34 4722.81 1468.34 4712.26 1469.93C4707.08 1471.2 4702.29 1473.89 4698.33 1477.75C4696.69 1478.94 4694.79 1479.65 4692.82 1479.81C4690.86 1479.97 4688.88 1479.57 4687.1 1478.65C4685.86 1478.14 4684.7 1477.41 4683.67 1476.5C4677.41 1470.9 4669.39 1468.18 4661.32 1468.91C4650.92 1468.91 4640.53 1468.91 4629.41 1468.91C4621.4 1468.36 4613.49 1471.02 4607.16 1476.39C4605.1 1478.26 4602.69 1479.61 4600.09 1480.35C4595.01 1481.91 4590.22 1484.45 4585.95 1487.83C4583.73 1489.47 4581.14 1490.41 4578.47 1490.55C4573.17 1491.23 4568.07 1491.34 4562.56 1491.57C4553.21 1491.57 4543.96 1491.57 4534.6 1492.25C4531.97 1492.54 4529.44 1493.51 4527.22 1495.08C4525.07 1496.82 4522.4 1497.59 4519.75 1497.23C4517.09 1496.87 4514.67 1495.41 4512.98 1493.16C4512.04 1492.14 4510.9 1491.34 4509.96 1490.32C4508.17 1488.21 4506.99 1485.56 4506.59 1482.72C4506.18 1479.87 4506.56 1476.96 4507.68 1474.35C4509.82 1470.69 4512.33 1467.31 4515.16 1464.26C4517.92 1460.95 4521.55 1458.66 4525.56 1457.69C4530.56 1455.82 4535.34 1453.31 4539.8 1450.21C4542.21 1448.99 4544.76 1448.15 4547.39 1447.72C4553.99 1446.98 4560.64 1446.98 4567.24 1447.72C4571.22 1448.27 4575.08 1449.53 4578.68 1451.46C4580.34 1452.34 4582.2 1452.7 4584.04 1452.48C4585.88 1452.26 4587.63 1451.47 4589.07 1450.21C4592.29 1447.6 4595.1 1444.43 4598.22 1441.82C4601.17 1439.06 4604.77 1437.26 4608.62 1436.61C4613.92 1435.93 4619.01 1435.59 4624.52 1435.37C4629.84 1435.04 4634.94 1432.99 4639.18 1429.47C4643.44 1425.95 4648.59 1423.94 4653.94 1423.69C4659.24 1423.69 4664.33 1423.69 4669.84 1422.79C4675.16 1422.04 4680.11 1419.46 4683.98 1415.42C4689.15 1410.9 4693.22 1405.06 4695.83 1398.42C4695.72 1397.03 4695.35 1395.68 4694.74 1394.46C4694.14 1393.23 4693.3 1392.15 4692.3 1391.29C4691.15 1390.58 4689.87 1390.16 4688.56 1390.04C4679.25 1389.21 4669.92 1388.94 4660.59 1389.25C4650.2 1389.25 4639.8 1389.25 4628.68 1389.25C4620.66 1388.75 4612.76 1391.45 4606.43 1396.84C4603.17 1399.41 4599.32 1400.94 4595.31 1401.26C4590.11 1401.94 4584.91 1402.16 4579.4 1402.39C4575.42 1402.73 4571.56 1404.01 4568.07 1406.13C4566.93 1406.7 4565.99 1407.83 4564.85 1408.51C4561.42 1410.79 4557.53 1412.11 4553.52 1412.36H4509.65H4477.74C4472.43 1412.54 4467.26 1414.26 4462.77 1417.35C4458.23 1420.41 4453.03 1422.09 4447.7 1422.22H4415.78C4407.78 1422.22 4399.77 1422.22 4391.77 1422.22C4387.91 1422.31 4384.22 1423.92 4381.37 1426.75C4380.37 1427.69 4379.29 1428.52 4378.15 1429.25C4374.2 1431.97 4369.64 1433.47 4364.97 1433.57C4360.29 1433.67 4355.69 1432.37 4351.64 1429.81C4349.26 1427.28 4346.45 1425.29 4343.36 1423.95C4340.28 1422.61 4336.98 1421.94 4333.66 1421.99H4321.7C4316.39 1421.87 4311.24 1419.97 4306.94 1416.55C4304.8 1414.75 4302.25 1413.61 4299.56 1413.27C4295.62 1412.59 4291.58 1413.52 4288.23 1415.88C4283.44 1419.84 4277.61 1422.05 4271.6 1422.17C4265.58 1422.29 4259.68 1420.32 4254.76 1416.55C4250.2 1413.55 4245.01 1411.88 4239.68 1411.68C4237.04 1411.57 4234.43 1411.11 4231.89 1410.32C4229.33 1409.56 4226.96 1408.2 4224.92 1406.36C4221.97 1403.44 4219.32 1400.17 4217.02 1396.61C4215.65 1394.17 4214.93 1391.37 4214.93 1388.51C4214.93 1385.65 4215.65 1382.85 4217.02 1380.41C4219.46 1376.97 4222.33 1373.92 4225.54 1371.34C4227.67 1369.59 4230.18 1368.45 4232.82 1368.06C4238.12 1368.06 4243.22 1367.04 4248.73 1366.92C4255.42 1366.87 4261.91 1364.35 4267.13 1359.78C4270.25 1357.09 4274.06 1355.51 4278.04 1355.25C4287.34 1354.17 4296.71 1354.17 4306.01 1355.25C4309.89 1355.68 4313.54 1357.47 4316.4 1360.35C4319.33 1363.35 4322.91 1365.49 4326.8 1366.58C4330.67 1367.72 4334.43 1369.28 4338.02 1371.23C4339.6 1372.22 4341.4 1372.75 4343.22 1372.75C4345.05 1372.75 4346.84 1372.22 4348.42 1371.23C4349.45 1370.32 4350.61 1369.59 4351.85 1369.07C4359.63 1366.97 4366.93 1363.11 4373.26 1357.74C4375.53 1356.21 4378.21 1355.59 4380.85 1355.98C4383.48 1356.38 4385.91 1357.76 4387.71 1359.9C4392.43 1365 4397.51 1369.7 4402.89 1373.95C4405.06 1375.62 4407.62 1376.6 4410.27 1376.78C4420.89 1377.86 4431.57 1377.86 4442.19 1376.78C4446.17 1376.34 4449.87 1374.32 4452.58 1371.11C4456.32 1367.04 4460.38 1363.3 4464.43 1359.78C4467.07 1357.57 4470.35 1356.46 4473.67 1356.67C4476.99 1356.88 4480.13 1358.39 4482.52 1360.92C4484.5 1362.84 4486.26 1365.11 4488.24 1367.04C4490.08 1369.12 4492.02 1371.08 4494.06 1372.93C4497.21 1375.63 4501.07 1377.14 4505.08 1377.23H4520.98C4524.98 1377.03 4528.88 1375.87 4532.42 1373.83C4538.91 1368.72 4546.76 1366.05 4554.77 1366.24C4557.37 1365.65 4559.91 1364.78 4562.36 1363.64C4569.58 1357.11 4578.65 1353.5 4588.03 1353.44C4590.66 1353.09 4593.14 1351.95 4595.21 1350.15C4598.28 1347.41 4601.81 1345.33 4605.6 1344.03C4610.78 1342.79 4615.65 1340.32 4619.84 1336.78C4621.96 1335 4624.35 1333.65 4626.91 1332.81C4628.21 1332.47 4629.46 1331.98 4630.65 1331.34C4632.3 1330.16 4633.7 1328.61 4634.76 1326.79C4635.82 1324.97 4636.51 1322.93 4636.79 1320.8C4636.44 1318.68 4635.7 1316.67 4634.61 1314.87C4633.52 1313.08 4632.1 1311.55 4630.45 1310.38C4626.77 1309.1 4623.27 1307.27 4620.05 1304.94C4615.92 1301.22 4610.84 1299 4605.5 1298.59C4601.53 1298.55 4597.58 1297.94 4593.75 1296.78C4592.45 1296.47 4591.21 1295.89 4590.11 1295.08C4582 1287.6 4575.56 1278.31 4566.72 1271.51C4562.25 1268.11 4559.76 1267.66 4556.33 1270.38C4552.5 1274.38 4548.2 1277.81 4543.54 1280.57C4542.32 1281.1 4541 1281.32 4539.69 1281.23C4538.37 1281.13 4537.1 1280.71 4535.95 1280.01C4533.67 1278.51 4531.52 1276.81 4529.51 1274.91C4526.49 1272.19 4523.69 1268.9 4520.46 1266.52C4518.08 1265.25 4515.35 1264.93 4512.77 1265.62C4511.43 1265.73 4510.16 1266.25 4509.07 1267.11C4507.99 1267.97 4507.15 1269.14 4506.64 1270.49C4505.73 1272.4 4505.25 1274.51 4505.25 1276.66C4505.25 1278.81 4505.73 1280.93 4506.64 1282.84C4510.9 1288.39 4515.16 1294.17 4519.53 1299.38C4520.89 1300.98 4521.95 1302.85 4522.64 1304.89C4523.34 1306.94 4523.66 1309.11 4523.58 1311.28C4523.89 1314.14 4523.89 1317.03 4523.58 1319.9C4522.54 1326.35 4519.74 1331.23 4513.91 1331.23C4509.99 1331.97 4505.98 1331.97 4502.06 1331.23C4499.42 1330.76 4496.92 1329.59 4494.79 1327.83C4488.13 1320.8 4481.58 1313.55 4474.93 1306.41C4471.17 1302.29 4466.41 1299.42 4461.21 1298.14C4457.45 1296.88 4453.92 1294.88 4450.81 1292.25C4448.12 1290.13 4444.88 1288.98 4441.56 1288.98C4438.24 1288.98 4435 1290.13 4432.31 1292.25C4430.07 1293.8 4427.74 1295.2 4425.35 1296.44C4423.57 1297.4 4421.6 1297.86 4419.61 1297.76C4417.63 1297.66 4415.7 1297.01 4414.01 1295.87C4412.87 1295.19 4411.83 1294.29 4410.69 1293.49C4405.12 1289.42 4398.44 1287.58 4391.77 1288.28C4387.79 1288.31 4383.91 1289.65 4380.64 1292.13C4377.45 1294.73 4373.8 1296.6 4369.93 1297.64C4366.05 1298.67 4362.02 1298.84 4358.09 1298.14C4355.42 1298.01 4352.85 1297.03 4350.71 1295.31C4344.28 1290.06 4336.38 1287.42 4328.36 1287.83H4272.43C4269.83 1287.83 4267.23 1288.62 4264.53 1288.85C4261.9 1289.24 4259.46 1290.56 4257.58 1292.61C4255.71 1294.65 4254.49 1297.31 4254.13 1300.18C4253.49 1307.38 4254.56 1314.64 4257.25 1321.26C4257.71 1322.63 4257.84 1324.12 4257.62 1325.57C4257.4 1327.02 4256.84 1328.38 4255.99 1329.52C4255.14 1330.66 4254.03 1331.55 4252.78 1332.08C4251.53 1332.62 4250.17 1332.79 4248.83 1332.59C4246.22 1332.45 4243.62 1332.15 4241.04 1331.68C4239.69 1331.57 4238.39 1331.06 4237.29 1330.21C4229.39 1322.39 4221.8 1314.34 4213.8 1306.75C4210.99 1304.03 4207.77 1301.31 4203.4 1304.6C4196.65 1309.47 4188.02 1309.47 4181.37 1314.46C4179.81 1315.63 4177.93 1316.2 4176.04 1316.05C4174.15 1315.91 4172.36 1315.07 4170.97 1313.66C4167.74 1311.12 4164.68 1308.31 4161.82 1305.28C4155.07 1298.25 4148.52 1291.11 4141.97 1283.97L4130.74 1271.62C4126.81 1267.68 4121.73 1265.39 4116.39 1265.16C4109.73 1264.34 4103.04 1266.32 4097.68 1270.72C4094.38 1273.21 4090.55 1274.77 4086.56 1275.25C4083.96 1275.25 4081.26 1275.81 4078.66 1276.27C4074.74 1276.93 4071.1 1278.91 4068.27 1281.93C4065.4 1284.93 4062.82 1288.23 4060.57 1291.79C4059.51 1293.6 4058.88 1295.65 4058.71 1297.79C4058.55 1299.92 4058.87 1302.06 4059.63 1304.03C4060.63 1306.75 4061.96 1309.3 4063.59 1311.62C4065.34 1314.68 4066.52 1318.09 4067.06 1321.65C4067.59 1325.21 4067.47 1328.85 4066.71 1332.36C4066.4 1335.12 4065.17 1337.67 4063.25 1339.51C4061.33 1341.35 4058.86 1342.35 4056.31 1342.33C4055 1342.25 4053.71 1341.99 4052.46 1341.54C4047.99 1338.41 4043.26 1335.75 4038.33 1333.61C4033.28 1331.92 4028.54 1329.31 4024.29 1325.9C4022.04 1324.35 4019.5 1323.36 4016.85 1323.03C4014.21 1322.7 4011.53 1323.02 4009.01 1323.97L4005.27 1325.33C3978.45 1331.45 3989.67 1355.36 3985.52 1372.81C3982.71 1384.15 3998.1 1413.04 3966.08 1403.64L3964.21 1390.72C3963.87 1387.87 3963.01 1385.12 3961.69 1382.63C3960.37 1380.14 3958.61 1377.96 3956.51 1376.21L3953.5 1373.38C3949.8 1370.3 3945.42 1368.35 3940.8 1367.71C3936.18 1367.07 3931.49 1367.78 3927.2 1369.75C3924.71 1370.79 3922.37 1372.2 3920.23 1373.95C3916.82 1376.22 3912.9 1377.43 3908.9 1377.46C3899.65 1377.46 3890.29 1377.46 3881.04 1377.46H3797.88C3793.91 1377.65 3789.96 1378.07 3786.03 1378.71C3784.77 1379.08 3783.6 1379.74 3782.6 1380.65C3781.6 1381.55 3780.78 1382.68 3780.21 1383.96C3779.64 1385.24 3779.33 1386.63 3779.29 1388.05C3779.25 1389.47 3779.5 1390.88 3780 1392.19C3782.39 1397.18 3784.78 1399.44 3788.73 1399.78C3792.68 1400.12 3799.13 1400.8 3804.64 1401.03C3811.33 1401.35 3817.64 1404.53 3822.21 1409.87C3823.09 1410.95 3824.03 1411.97 3825.01 1412.93C3827.27 1415.55 3828.53 1419.02 3828.53 1422.62C3828.53 1426.22 3827.27 1429.68 3825.01 1432.31C3823.16 1434.34 3821.18 1436.24 3819.09 1437.97C3817.59 1439.46 3815.69 1440.35 3813.67 1440.52C3811.65 1440.68 3809.64 1440.1 3807.96 1438.88C3803.37 1435.99 3798.19 1434.39 3792.89 1434.23C3787.61 1433.68 3782.46 1432.06 3777.71 1429.47C3771.37 1426.3 3771.16 1426.19 3766.7 1429.47C3762.16 1432.55 3756.96 1434.27 3751.62 1434.46C3742.37 1434.46 3733.01 1434.46 3723.76 1434.46C3714.51 1434.46 3707.75 1434.46 3699.85 1434.46C3694.52 1434.44 3689.3 1436.18 3684.88 1439.44C3681.84 1442.27 3677.97 1443.82 3673.97 1443.82C3669.97 1443.82 3666.1 1442.27 3663.05 1439.44C3658.75 1435.98 3653.54 1434.11 3648.19 1434.12C3636.23 1434.12 3624.28 1433.55 3612.43 1433.1C3608.41 1432.79 3604.54 1431.35 3601.2 1428.91C3600.06 1428.16 3598.88 1427.48 3597.67 1426.87C3595.28 1425.28 3593.09 1425.96 3591.22 1429.02C3587.69 1436.5 3569.6 1427.66 3575.42 1445.68C3577.26 1448.86 3580.05 1451.26 3583.32 1452.48C3585.75 1453.67 3588.29 1454.54 3590.91 1455.08C3598.91 1455.06 3606.72 1457.75 3613.26 1462.79C3616.47 1465.41 3620.37 1466.84 3624.38 1466.87C3629.68 1466.87 3634.78 1467.55 3640.29 1467.89C3644.27 1468.36 3648.08 1469.88 3651.41 1472.31C3652.55 1472.99 3653.49 1474.12 3654.63 1474.91C3658.02 1477.19 3661.83 1478.61 3665.79 1479.08C3669.74 1479.55 3673.74 1479.06 3677.5 1477.63C3680.02 1476.67 3682.49 1475.53 3684.88 1474.23C3689.14 1472.42 3689.25 1472.19 3695.28 1475.71C3701.47 1478.29 3707.99 1479.78 3714.61 1480.13C3718.46 1480.91 3722.04 1482.78 3725.01 1485.57L3727.82 1488.62C3731.67 1492.68 3733.94 1498.2 3734.16 1504.04C3734.29 1508.39 3733.69 1512.73 3732.39 1516.84C3731.27 1518.68 3729.7 1520.14 3727.87 1521.08C3726.04 1522.02 3724.01 1522.39 3721.99 1522.17C3719.42 1521.64 3716.95 1520.6 3714.72 1519.11C3709.02 1515.25 3702.4 1513.32 3695.69 1513.55H3663.78C3653.38 1513.55 3642.99 1513.55 3631.87 1513.55C3627.22 1514.08 3622.52 1513.58 3618.06 1512.08C3613.59 1510.58 3609.45 1508.12 3605.88 1504.83C3602.48 1502.53 3598.54 1501.35 3594.55 1501.43C3590.6 1501.43 3586.54 1501.43 3582.59 1501.43C3574.59 1501.43 3566.69 1501.43 3558.68 1501.43C3549.35 1501.75 3540.14 1498.99 3532.28 1493.5C3530.5 1492.55 3528.54 1492.05 3526.56 1492.05C3524.58 1492.05 3522.62 1492.55 3520.84 1493.5C3519.65 1494.1 3518.54 1494.86 3517.52 1495.76C3513.07 1499.04 3507.9 1500.96 3502.55 1501.32C3490.6 1502.05 3478.63 1502.05 3466.68 1501.32C3462.73 1501.01 3458.89 1499.73 3455.46 1497.58C3453.07 1496.22 3451.2 1494.06 3448.8 1492.93C3443.92 1490.78 3438.41 1489.08 3433.83 1487.04C3429.26 1485 3428.01 1484.66 3419.28 1488.28C3415.57 1489.88 3411.63 1490.76 3407.64 1490.89C3400.99 1491 3394.54 1493.42 3389.24 1497.8C3388.16 1498.7 3386.97 1499.42 3385.71 1499.96C3384.5 1500.46 3383.24 1500.8 3381.96 1500.98C3375.31 1501.54 3368.66 1502.11 3362 1502.45C3356.66 1502.86 3351.67 1505.5 3348.07 1509.82C3344.99 1512.64 3341.07 1514.13 3337.05 1514.01C3330.44 1515.02 3323.72 1513.28 3318.24 1509.14C3314.5 1506.08 3312 1506.98 3307.84 1510.95C3303.69 1514.91 3302.64 1518.43 3303.69 1522.28C3305.74 1527.61 3309.41 1532.01 3314.08 1534.74C3315.3 1535.27 3316.61 1535.51 3317.93 1535.42C3323.23 1535.42 3328.32 1536.1 3333.83 1536.22H3389.76C3399.1 1536.8 3408.37 1534.05 3416.16 1528.4C3417.9 1527.37 3419.85 1526.83 3421.83 1526.83C3423.81 1526.83 3425.76 1527.37 3427.49 1528.4C3429.88 1529.65 3432.28 1530.89 3434.56 1532.37C3438.01 1534.56 3441.9 1535.8 3445.89 1535.99L3493.71 1537.12C3496.42 1537.09 3499.05 1538.05 3501.2 1539.84C3502.24 1540.64 3503.48 1541.2 3504.52 1542.11C3509.84 1546.56 3516.33 1549.02 3523.03 1549.14C3528.41 1549.43 3533.48 1551.99 3537.16 1556.28C3538.12 1557.28 3539.02 1558.34 3539.87 1559.45C3540.62 1560.15 3541.21 1561.02 3541.62 1562C3542.04 1562.98 3542.25 1564.04 3542.25 1565.11C3542.25 1566.19 3542.04 1567.25 3541.62 1568.23C3541.21 1569.21 3540.62 1570.08 3539.87 1570.78L3534.15 1576.79C3532.17 1578.71 3529.7 1579.94 3527.07 1580.32C3524.44 1580.71 3521.77 1580.23 3519.39 1578.94C3512.02 1572.57 3502.65 1569.6 3493.3 1570.67H3489.35C3483.99 1570.62 3478.75 1572.4 3474.38 1575.77C3470.12 1579.25 3465.03 1581.34 3459.72 1581.77C3457.02 1581.77 3454.42 1581.77 3451.71 1581.77C3443.68 1581.65 3435.83 1584.39 3429.37 1589.59C3427.25 1591.33 3424.73 1592.39 3422.09 1592.65C3419.38 1592.65 3416.79 1593.33 3414.08 1593.33H3342.36C3336.98 1593.25 3331.83 1590.98 3327.91 1586.98C3323.02 1582.11 3318.24 1577.13 3313.25 1572.48C3312.07 1571.77 3310.75 1571.42 3309.4 1571.46C3307.43 1571.28 3305.46 1571.72 3303.71 1572.73C3301.96 1573.73 3300.51 1575.26 3299.53 1577.13C3298.3 1581.23 3298.56 1585.69 3300.25 1589.59C3302.7 1593.01 3305.38 1596.23 3308.26 1599.22C3311.79 1603.53 3315.33 1607.83 3318.65 1611.91C3321.55 1614.9 3323.78 1618.56 3325.19 1622.63C3326.59 1626.69 3327.13 1631.05 3326.76 1635.37C3326.74 1638.28 3326.17 1641.15 3325.08 1643.8C3323.99 1646.46 3322.4 1648.83 3320.42 1650.78L3315.33 1657.47C3309.68 1665.58 3301.82 1671.54 3292.87 1674.47C3289.34 1675.37 3288.4 1676.84 3285.8 1684.1C3284.96 1686.82 3283.41 1689.22 3281.34 1691.01C3279.28 1692.8 3276.79 1693.9 3274.16 1694.18L3266.26 1695.54C3262.41 1696.08 3258.79 1697.86 3255.87 1700.64C3242.56 1714.81 3228.94 1728.63 3216.15 1743.36C3208.88 1751.86 3200.98 1759.57 3193.18 1767.39C3189.28 1771.35 3184.58 1774.26 3179.46 1775.88C3176.96 1776.77 3174.68 1778.29 3172.81 1780.3C3169.79 1783.36 3166.78 1786.2 3163.66 1788.8C3161.3 1791.4 3158.45 1793.42 3155.31 1794.71C3152.17 1796 3148.81 1796.54 3145.47 1796.28C3138.79 1796.72 3132.55 1800.02 3128.11 1805.46C3125.3 1808.52 3122.08 1811.13 3119.27 1814.19C3116.5 1817.26 3112.81 1819.15 3108.88 1819.51C3099.52 1819.51 3090.27 1820.19 3080.91 1819.51C3071.6 1818.83 3062.34 1821.45 3054.51 1826.99C3052.23 1828.47 3049.73 1829.51 3047.13 1830.05C3042.19 1832.14 3037.54 1834.97 3033.3 1838.44C3028.62 1841.16 3023.63 1843.08 3018.75 1845.35C3012.68 1850.77 3005.58 1854.64 2997.96 1856.68C2991.2 1859.74 2991.1 1860.31 2982.88 1856.68C2980.48 1855.38 2977.87 1854.57 2975.19 1854.3L2947.33 1853.73C2940.68 1853.73 2934.03 1853.73 2927.37 1853.73C2922.04 1853.41 2916.9 1851.49 2912.51 1848.18C2904.29 1842.51 2903.36 1842.29 2897.95 1842.06C2892.55 1841.83 2884.75 1841.5 2878.1 1841.5C2871.4 1841.5 2864.87 1839.16 2859.49 1834.81C2856.21 1832.35 2852.35 1830.98 2848.37 1830.84C2843.06 1830.84 2837.97 1830.84 2832.36 1829.94C2828.37 1829.83 2824.49 1828.54 2821.13 1826.2C2818.96 1824.51 2816.63 1823.11 2814.17 1822C2807.7 1820.33 2801.69 1817.03 2796.6 1812.37C2791.82 1809.99 2786.83 1807.84 2782.15 1805.12C2776.92 1800.73 2770.95 1797.5 2764.58 1795.6C2762.23 1794.27 2759.97 1792.75 2757.82 1791.07C2754.63 1788.46 2751.58 1785.66 2748.68 1782.68C2743.88 1777.61 2737.48 1774.73 2730.8 1774.64C2727.47 1774.49 2724.21 1773.59 2721.21 1771.99C2718.23 1770.39 2715.58 1768.13 2713.44 1765.35C2711.67 1763.19 2709.69 1761.27 2707.93 1759C2707.04 1757.93 2706.4 1756.65 2706.05 1755.26C2704.37 1748.26 2701 1741.88 2696.28 1736.79C2692.54 1732.71 2689.11 1728.18 2685.26 1724.21C2682.41 1721.08 2678.81 1718.88 2674.87 1717.87C2669.69 1716.58 2664.94 1713.75 2661.15 1709.71C2658.4 1706.51 2655.17 1703.87 2651.58 1701.89C2650.39 1701.3 2649.1 1700.99 2647.79 1700.99C2646.48 1700.99 2645.19 1701.3 2643.99 1701.89C2639.3 1704.53 2634.4 1706.7 2629.34 1708.35C2626.74 1709.06 2624.35 1710.46 2622.37 1712.43C2618.04 1715.82 2612.84 1717.65 2607.51 1717.64C2591.5 1718.43 2575.59 1717.64 2559.58 1718.55C2556.92 1718.67 2554.36 1719.74 2552.31 1721.61C2548.36 1725.34 2544.09 1728.97 2540.35 1732.94C2532.66 1741.1 2525.38 1749.48 2517.79 1757.64C2514.87 1760.57 2511.78 1763.3 2508.54 1765.8C2506.88 1766.95 2505.01 1767.71 2503.06 1768.04C2501.11 1768.37 2499.12 1768.26 2497.21 1767.73C2491.53 1763.88 2484.86 1762.13 2478.19 1762.74C2467.79 1762.74 2457.4 1762.74 2446.28 1762.74C2442.31 1762.78 2438.35 1762.48 2434.42 1761.83C2430.52 1761.35 2426.86 1759.48 2424.03 1756.51C2422.16 1754.47 2420.08 1752.77 2418.1 1750.84C2414.55 1746.44 2409.89 1743.29 2404.69 1741.78C2399.62 1740.04 2395.04 1736.92 2391.39 1732.71C2388.68 1729.54 2385.77 1726.59 2382.86 1723.65C2380.01 1720.8 2376.33 1719.11 2372.47 1718.89C2363.22 1718.32 2353.86 1718.21 2344.61 1717.64C2340.58 1717.62 2336.64 1716.32 2333.28 1713.9C2331.18 1712.11 2328.87 1710.62 2326.42 1709.48C2320.11 1707.33 2314.15 1704.11 2308.74 1699.96C2305.46 1697.43 2301.54 1696.08 2297.52 1696.11L2273.61 1694.98C2268.26 1694.97 2263.05 1693.1 2258.74 1689.65C2254.33 1686.41 2249.19 1684.57 2243.88 1684.32H2203.96C2197.28 1684.08 2190.7 1686.23 2185.25 1690.44C2180.79 1693.66 2175.51 1695.25 2170.17 1694.98C2166.18 1694.95 2162.25 1693.99 2158.63 1692.14C2154.25 1688.92 2149.54 1686.26 2144.6 1684.21C2139.55 1682.42 2134.76 1679.87 2130.36 1676.62C2128.01 1675.26 2125.42 1674.45 2122.77 1674.24C2112.2 1673.05 2101.54 1673.05 2090.96 1674.24C2088.33 1674.69 2085.84 1675.81 2083.68 1677.52C2074.43 1685.68 2067.16 1696.34 2057.49 1704.15C2055.79 1705.24 2053.9 1705.91 2051.94 1706.11C2049.98 1706.3 2048.01 1706.02 2046.16 1705.29C2043.8 1704.01 2041.6 1702.41 2039.61 1700.53C2036.27 1698.14 2032.49 1696.58 2028.54 1695.95C2024.59 1695.32 2020.56 1695.65 2016.74 1696.9C2015.39 1697.19 2014.14 1697.85 2013.1 1698.83C2000.42 1711.41 1987.53 1723.99 1975.47 1737.47C1973.16 1738.8 1970.72 1739.83 1968.19 1740.53C1962.89 1741.21 1957.8 1741.1 1952.29 1741.66C1946.78 1742.23 1944.39 1742.91 1940.44 1743.48C1938.95 1744.74 1937.12 1745.43 1935.24 1745.43C1933.35 1745.43 1931.52 1744.74 1930.04 1743.48C1928.28 1741.32 1926.84 1738.87 1925.78 1736.22L1917.05 1721.72C1916.32 1716.05 1915.8 1710.39 1914.66 1704.61C1914 1701.83 1912.87 1699.22 1911.33 1696.9C1909.87 1694.52 1907.69 1692.6 1906.13 1690.33C1904.84 1688.66 1903.26 1687.28 1901.47 1686.29C1899.69 1685.3 1897.73 1684.71 1895.73 1684.55C1886.48 1683.58 1877.17 1683.24 1867.88 1683.53C1863.89 1683.76 1859.9 1683.76 1855.92 1683.53C1851.93 1683.27 1848.07 1681.91 1844.7 1679.56C1839.21 1675.43 1832.64 1673.36 1825.98 1673.67H1821.93C1813.93 1673.01 1805.96 1675.37 1799.37 1680.36C1795.93 1682.64 1791.96 1683.78 1787.94 1683.64C1780.04 1683.64 1772.03 1683.64 1764.03 1683.64H1756.12C1749.43 1683.64 1742.9 1685.98 1737.52 1690.33C1735.31 1691.95 1732.74 1692.88 1730.08 1693.02C1727.43 1693.16 1724.78 1692.51 1722.45 1691.12C1718.81 1689.42 1715.48 1686.82 1712.05 1685.23C1709.56 1684.27 1706.85 1684.27 1704.36 1685.23C1703.07 1685.65 1701.87 1686.35 1700.82 1687.27C1696.63 1690.84 1691.88 1693.53 1686.79 1695.2C1682.98 1696.5 1679.44 1698.62 1676.39 1701.43C1673.32 1704.26 1669.49 1705.93 1665.48 1706.19C1658.89 1707.1 1652.21 1707.1 1645.62 1706.19C1641.7 1705.78 1638.02 1703.9 1635.23 1700.87C1634.23 1699.87 1633.11 1699.03 1631.9 1698.38C1629.61 1696.98 1626.94 1696.52 1624.37 1697.08C1621.79 1697.64 1619.49 1699.19 1617.87 1701.43C1615.48 1705.06 1614.85 1709.48 1612.67 1712.77C1610.49 1716.05 1607.89 1719.68 1605.91 1723.42C1604.86 1726.05 1604.03 1728.78 1603.42 1731.58C1602.39 1735.96 1600.18 1739.91 1597.08 1742.91C1595.21 1744.72 1593.02 1746.42 1590.94 1748.23C1587.17 1746.95 1583.64 1744.92 1580.55 1742.23C1579.48 1741.41 1578.47 1740.5 1577.53 1739.51C1562.36 1721.15 1545.52 1704.72 1529.51 1687.27C1526.02 1685.18 1521.98 1684.46 1518.07 1685.23C1514.54 1687.27 1511.21 1689.65 1507.68 1691.58C1504.08 1693.47 1500.13 1694.44 1496.14 1694.41C1490.81 1694.76 1485.54 1692.95 1481.38 1689.31C1474.31 1682.62 1467.34 1676.05 1460.58 1669.03C1457.72 1665.81 1454.14 1663.46 1450.19 1662.23C1445.16 1660.39 1440.29 1658.08 1435.64 1655.31C1430.86 1652.82 1428.15 1656.22 1425.24 1659.05C1418.79 1666.38 1411.84 1673.16 1404.45 1679.34C1402.28 1680.96 1399.76 1681.94 1397.13 1682.18C1394.51 1682.42 1391.87 1681.91 1389.48 1680.7C1388.33 1680 1387.25 1679.16 1386.26 1678.2C1382.89 1675.84 1379.12 1674.25 1375.17 1673.52C1371.22 1672.8 1367.17 1672.97 1363.29 1674.01C1360.68 1674.57 1358.22 1675.77 1356.11 1677.52C1352.95 1680.16 1349.99 1683.08 1347.28 1686.25C1343.45 1690.24 1338.87 1693.3 1333.87 1695.2C1328.7 1696.74 1324.11 1700.04 1320.77 1704.61C1318.9 1706.53 1316.82 1708.46 1314.95 1710.5C1312.24 1713.71 1308.56 1715.75 1304.58 1716.23C1300.61 1716.71 1296.61 1715.6 1293.32 1713.11C1289.11 1709.56 1283.99 1707.5 1278.67 1707.21H1274.61C1269.26 1706.94 1264.15 1704.66 1260.16 1700.75C1256.93 1698.25 1253.18 1696.65 1249.25 1696.11C1245.28 1695.66 1241.29 1695.43 1237.29 1695.43H1217.33C1210.64 1695.44 1204.03 1693.82 1198 1690.67C1196.17 1689.85 1194.19 1689.51 1192.22 1689.69C1190.25 1689.87 1188.35 1690.55 1186.67 1691.69C1183.12 1693.71 1179.04 1694.32 1175.13 1693.41C1171.22 1692.5 1167.73 1690.13 1165.25 1686.7L1150.7 1671.86C1146.02 1666.76 1141.45 1661.43 1136.56 1656.56C1133.62 1653.54 1130.05 1651.32 1126.17 1650.1C1122.35 1649.18 1118.78 1647.28 1115.77 1644.55C1112.78 1641.95 1109.18 1640.34 1105.38 1639.9C1098.74 1639.22 1092.05 1639.22 1085.42 1639.9C1082.76 1639.99 1080.2 1640.94 1078.04 1642.62C1071.52 1647.74 1063.6 1650.29 1055.58 1649.88C1045.19 1649.88 1034.27 1649.88 1023.67 1649.88C1019.66 1649.84 1015.75 1648.5 1012.44 1646.02C1011.31 1645.26 1010.04 1644.81 1008.71 1644.71C1007.39 1644.61 1006.06 1644.87 1004.85 1645.46C1002.36 1646.36 999.967 1647.72 997.473 1648.52C989.814 1651.17 981.547 1650.85 974.082 1647.61C971.945 1645.93 969.453 1644.86 966.836 1644.5C964.221 1644.14 961.564 1644.51 959.113 1645.57C957.215 1646.16 955.217 1646.28 953.271 1645.91C951.326 1645.53 949.484 1644.68 947.887 1643.42C944.508 1641.07 940.561 1639.88 936.555 1640.02C929.896 1639.83 923.346 1638.13 917.322 1635.03C915.48 1634.27 913.492 1634.04 911.545 1634.36C909.598 1634.68 907.758 1635.53 906.201 1636.84C903.891 1638.29 901.277 1639.07 898.611 1639.11C889.359 1639.11 880.004 1639.68 870.752 1639.9C864.1 1639.9 857.447 1639.9 850.793 1639.9C845.496 1640.15 840.344 1641.87 835.824 1644.89C831.537 1648.45 826.238 1650.26 820.855 1649.99H812.955C806.275 1650.47 799.643 1648.47 794.139 1644.32C791.424 1642.19 788.197 1640.96 784.854 1640.8C781.512 1640.64 778.199 1641.55 775.322 1643.42L752.453 1667.44C750.51 1669.42 748.219 1670.96 745.719 1671.95C743.217 1672.94 740.557 1673.37 737.898 1673.22C734.578 1673.61 731.219 1673.13 728.107 1671.81C724.994 1670.48 722.221 1668.36 720.02 1665.63L711.287 1656.67C707.441 1652.71 703.596 1648.63 699.957 1644.55C697.037 1641.84 693.387 1640.25 689.561 1640.02C688.246 1639.9 686.926 1639.9 685.611 1640.02C636.441 1640.02 587.27 1639.34 537.996 1640.02C534.031 1640.37 530.176 1641.6 526.666 1643.64C525.494 1644.33 524.383 1645.13 523.34 1646.02C519.938 1648.26 516.08 1649.55 512.111 1649.76C502.756 1650.33 493.504 1650.56 484.252 1651.12C480.326 1651.35 476.619 1653.17 473.857 1656.22C457.848 1673.56 441.008 1690.22 425.83 1708.23C421.301 1713.55 416.4 1718.47 411.172 1722.97C407.5 1726.1 403.139 1728.12 398.523 1728.84C393.906 1729.55 389.199 1728.94 384.873 1727.04C382.363 1726.05 380.014 1724.64 377.908 1722.85C374.543 1720.43 370.605 1719.14 366.576 1719.11C350.672 1718.55 334.662 1718.43 318.758 1717.98C314.748 1717.65 310.9 1716.12 307.635 1713.56C306.584 1712.72 305.578 1711.81 304.621 1710.84C301.605 1708.01 298.486 1705.29 295.68 1702.23C293.824 1700.11 291.549 1698.48 289.027 1697.47C282.764 1694.92 277.01 1691.07 272.082 1686.14C268.133 1682.28 263.768 1678.88 259.504 1675.49C258.273 1674.95 256.979 1674.6 255.658 1674.47C254.357 1674.17 253.037 1673.98 251.709 1673.9C229.15 1673.9 206.488 1673.11 183.93 1673.9C181.281 1674.27 178.67 1674.91 176.133 1675.83C167.609 1682.96 156.381 1684.21 147.961 1691.58C141.986 1694.92 135.057 1695.61 128.627 1693.5C126.707 1693.04 124.947 1692 123.549 1690.5C122.15 1688.99 121.172 1687.09 120.725 1685C119.896 1679.31 119.48 1673.55 119.479 1667.78C119.479 1662 117.4 1657.35 115.01 1657.01C111.078 1657.22 107.363 1659.04 104.613 1662.11L95.2578 1670.16C93.1445 1671.94 90.5469 1672.9 87.877 1672.88H47.957C32.0527 1672.88 16.0449 1672.88 0.138672 1673.67V0.767822H20788.6V1773.5C20760.8 1807.5 20725.5 1811.81 20693.5 1805.35C20706.6 1852.26 20759.8 1838.1 20788.6 1869.03V1947.33C20784.9 1948.68 20781 1949.51 20777.1 1949.83C20751.8 1950.62 20726.5 1949.83 20701.3 1949.83C20694.6 1949.92 20688.1 1947.74 20682.6 1943.59C20679.3 1941.02 20675.4 1939.52 20671.4 1939.29C20662.2 1938.38 20652.8 1938.38 20643.6 1939.29C20639.7 1940.11 20636 1941.77 20632.7 1944.16C20623.7 1949.83 20622.3 1950.05 20618 1950.17C20599.4 1951.07 20580.8 1951.07 20562.2 1950.17C20558.2 1949.76 20554.4 1948.52 20550.9 1946.54C20545.8 1941.76 20539.3 1939.18 20532.6 1939.29C20527.2 1939.14 20522 1937.62 20517.4 1934.87C20516.2 1934.08 20515.1 1932.83 20513.9 1932.72C20512.6 1932.81 20511.3 1933.24 20510.2 1933.96C20504.2 1937.11 20497.7 1938.96 20491.1 1939.4C20485.7 1939.37 20480.5 1941.28 20476.3 1944.84C20475.3 1945.71 20474.1 1946.43 20472.9 1946.99C20468.8 1949.34 20464.2 1950.48 20459.5 1950.31C20454.9 1950.13 20450.3 1948.63 20446.4 1945.97L20442.9 1943.71C20439.6 1941.23 20435.7 1939.89 20431.7 1939.85C20419.8 1939.29 20407.8 1939.29 20395.8 1938.95C20391.8 1938.74 20387.9 1937.78 20384.2 1936.12C20379.3 1931.7 20374.4 1934.08 20369.6 1936.12C20366.6 1937.69 20363.2 1938.32 20359.9 1937.94C20356.6 1937.56 20353.5 1936.18 20350.8 1933.96C20347.7 1931.22 20343.8 1929.66 20339.8 1929.54C20327.9 1929.54 20315.9 1928.75 20304 1928.52C20298.6 1928.48 20293.4 1926.66 20289 1923.31C20283.3 1919.63 20276.7 1917.72 20270.1 1917.76H20254.1H20190.2C20184.9 1917.76 20179.8 1917.08 20174.3 1916.74C20171.7 1916.56 20169.1 1915.45 20167.1 1913.56C20162 1908.79 20155.6 1906 20149 1905.63C20142.3 1905.37 20135.9 1902.88 20130.6 1898.49C20128.3 1896.87 20125.8 1895.76 20123.2 1895.21C20118.1 1893.67 20113.2 1891.14 20108.9 1887.73C20106.7 1886.27 20104.1 1885.38 20101.5 1885.12C20092.2 1884.22 20082.9 1884.22 20073.6 1885.12C20069.6 1885.3 20065.8 1886.59 20062.4 1888.86C20056.8 1892.9 20050.3 1895.11 20043.7 1895.21C20029 1895.21 20014.3 1895.21 19999.7 1895.21C19990.4 1895.83 19981.1 1893.12 19973.3 1887.5C19969.8 1885.44 19965.8 1884.57 19961.8 1885.01C19956.5 1884.83 19951.2 1886.32 19946.7 1889.31L19943.1 1891.35C19940.9 1892.97 19938.4 1893.83 19935.7 1893.83C19933.1 1893.83 19930.5 1892.97 19928.3 1891.35C19921.6 1886.53 19913.7 1884.05 19905.6 1884.22C19895 1884.65 19884.4 1884.35 19873.8 1883.31C19869.9 1882.73 19866.3 1880.91 19863.4 1878.1C19859.3 1874.26 19854.1 1872.1 19848.7 1871.98C19840.8 1871.98 19832.8 1871.41 19824.8 1871.18C19820.9 1871.17 19817 1869.91 19813.6 1867.56C19807.9 1863.8 19801.9 1860.79 19795.5 1858.61C19790.6 1856.57 19786.9 1851.92 19781.4 1851.13C19777.4 1850.56 19773.4 1850.22 19769.5 1849.43C19765.5 1848.85 19761.8 1846.72 19759.1 1843.42C19757.3 1841.27 19755.4 1839.23 19753.4 1837.3C19749 1831.89 19743.2 1827.96 19736.8 1825.97C19733 1824.72 19729.5 1822.72 19726.4 1820.08C19723.1 1817.71 19719.1 1816.49 19715.2 1816.57L19667.3 1815.43C19664.7 1815.37 19662 1814.51 19659.8 1812.94C19657.5 1811.47 19655.1 1810.22 19652.9 1808.63C19650.6 1807.1 19648.1 1806.06 19645.4 1805.57C19635.1 1803.98 19624.6 1803.98 19614.2 1805.57C19610.4 1806.43 19606.9 1808.21 19603.8 1810.79C19599.4 1814.01 19594.2 1815.74 19588.9 1815.77H19529C19522.3 1816.1 19515.7 1813.9 19510.4 1809.54C19507.2 1806.95 19503.3 1805.38 19499.4 1805.01L19479.5 1802.97C19476.9 1802.71 19474.3 1801.65 19472.2 1799.91C19468 1796.41 19463.3 1793.72 19458.2 1791.98C19454.5 1790.63 19451 1788.64 19447.8 1786.08C19444.5 1783.65 19440.6 1782.35 19436.6 1782.34H19408.6C19403.3 1782.61 19397.9 1781.96 19392.8 1780.42C19389.2 1778.75 19385.7 1776.74 19382.4 1774.41C19380.1 1772.93 19377.5 1772.11 19374.8 1772.03C19366.9 1772.03 19358.9 1771.35 19350.9 1771.35H19243.2C19232.8 1771.35 19222.4 1771.35 19211.3 1771.35C19201.9 1772.13 19192.6 1768.87 19185.4 1762.29C19181.8 1760.49 19177.9 1759.42 19174 1759.11L19142.1 1758.55C19136.8 1758.22 19131.6 1756.6 19127 1753.79C19118 1748.69 19117.2 1748.57 19112 1748.57H19072.1C19065.5 1748.62 19058.9 1750.12 19052.8 1752.99C19048.6 1754.81 19048.5 1754.47 19041.8 1751.86C19039.3 1750.65 19036.8 1749.82 19034.2 1749.37C19027.5 1748.8 19020.9 1748.57 19014.2 1748.46H18942.5C18938.5 1748.13 18934.7 1746.89 18931.1 1744.84C18929.9 1744.22 18928.8 1743.46 18927.7 1742.57C18924.4 1740.15 18920.4 1738.85 18916.4 1738.83C18904.4 1738.83 18892.5 1738.83 18880.5 1738.15H18864.5C18857.8 1738.48 18851.2 1736.33 18845.8 1732.03C18840.4 1727.75 18833.9 1725.56 18827.2 1725.8H18807.2H18799.2C18793.9 1725.68 18788.7 1723.95 18784.3 1720.81C18779.8 1717.66 18774.6 1715.84 18769.3 1715.54C18764 1715.24 18758.7 1716.47 18753.9 1719.11C18752.2 1720.28 18750.3 1720.98 18748.4 1721.15C18746.4 1721.33 18744.4 1720.98 18742.6 1720.13C18737.9 1717.38 18732.8 1715.75 18727.5 1715.37C18720.8 1715.21 18714.3 1712.92 18708.8 1708.8C18705.5 1706.38 18701.6 1705.12 18697.6 1705.17C18685.6 1705.17 18673.6 1705.17 18661.6 1705.17C18657.6 1705.19 18653.7 1706.32 18650.2 1708.46C18648.5 1709.6 18646.6 1710.27 18644.6 1710.43C18642.6 1710.59 18640.6 1710.22 18638.8 1709.37C18634.1 1706.78 18628.9 1705.28 18623.5 1704.95H18595.7C18587.6 1705.68 18579.6 1702.95 18573.3 1697.36C18569.9 1695.21 18566.1 1693.9 18562.1 1693.5C18556.8 1693.5 18551.7 1693.5 18546.1 1692.94H18518.2C18512.9 1692.91 18507.6 1691.01 18503.3 1687.5C18497.5 1683.91 18491 1682.03 18484.4 1682.06L18452.4 1681.38C18451.1 1681.2 18449.8 1680.86 18448.6 1680.36C18447.3 1680.15 18446 1679.69 18444.9 1679C18438.3 1673.93 18430.5 1671.12 18422.5 1670.95C18418.5 1670.93 18414.6 1669.32 18411.6 1666.42C18408.8 1663.47 18405.6 1660.75 18402.6 1657.81C18397.9 1652.82 18393.1 1647.84 18388.4 1642.62C18385.5 1639.79 18381.9 1638.08 18378 1637.75C18371.4 1637.07 18364.7 1637.07 18358.1 1637.75C18355.4 1637.91 18352.8 1638.9 18350.7 1640.58C18344.2 1645.78 18336.2 1648.31 18328.2 1647.72H18320.2C18316.2 1647.8 18312.3 1646.62 18308.9 1644.32C18302.2 1639.43 18294.3 1637.01 18286.2 1637.41C18279.6 1637.41 18273 1637.41 18266.4 1636.84C18263.7 1636.75 18261.1 1636.05 18258.7 1634.8C18257.4 1634.37 18256.1 1633.72 18255 1632.88C18249.5 1628.86 18243.6 1625.63 18237.4 1623.25C18235.1 1621.81 18232.8 1620.22 18230.7 1618.49C18227.4 1616.05 18223.5 1614.71 18219.5 1614.63C18207.5 1614.63 18195.6 1613.84 18183.6 1613.61C18179.6 1613.43 18175.7 1611.93 18172.5 1609.31C18167 1605.21 18160.5 1603.07 18153.8 1603.19C18148.5 1603.46 18143.2 1603.04 18138 1601.94C18136.7 1601.68 18135.4 1601.22 18134.2 1600.58C18127.4 1596.11 18121.4 1590.22 18116.7 1583.24C18115.2 1580.82 18114.2 1578.13 18113.7 1575.31C18113.2 1573.91 18113.2 1572.38 18113.7 1570.99C18114.1 1569.59 18115 1568.4 18116.2 1567.61C18117.2 1566.73 18118.1 1565.7 18118.9 1564.55C18120.2 1562.93 18121.8 1561.63 18123.5 1560.73C18125.3 1559.84 18127.3 1559.36 18129.2 1559.33C18138.6 1558.54 18147.9 1558.54 18157.2 1559.33C18161.2 1559.22 18165.1 1560.36 18168.5 1562.62C18175.2 1567.56 18183.1 1569.99 18191.1 1569.53C18204.4 1569.53 18217.7 1570.1 18231 1568.85C18232.3 1568.78 18233.6 1568.28 18234.6 1567.44C18235.6 1566.59 18236.4 1565.43 18236.8 1564.09C18237.3 1562.74 18237.4 1561.29 18237.1 1559.89C18236.8 1558.48 18236.2 1557.2 18235.3 1556.16C18231.5 1552 18228 1547.49 18224.9 1542.68C18223.6 1540.14 18223.1 1537.27 18223.3 1534.4C18223.3 1532.97 18223.7 1531.57 18224.5 1530.37C18225.2 1529.16 18226.2 1528.21 18227.4 1527.61C18228.5 1526.83 18229.7 1526.29 18231 1526.02C18237.6 1525.34 18244.2 1524.89 18250.9 1524.55C18256.2 1524.16 18261.2 1521.71 18265 1517.63C18266 1516.67 18267 1515.65 18267.9 1514.57C18271.2 1510.97 18273.4 1506.39 18274.3 1501.41C18275.2 1496.42 18274.7 1491.26 18272.9 1486.59C18272.6 1485.15 18271.9 1483.83 18271 1482.73C18268.1 1479.77 18265 1477.08 18261.7 1474.69C18260.6 1473.93 18259.3 1473.53 18258 1473.53C18256.7 1473.53 18255.4 1473.93 18254.3 1474.69C18248.6 1478.56 18242 1480.42 18235.3 1480.01C18230 1480.26 18224.7 1479.76 18219.5 1478.54C18218.2 1478.28 18216.9 1477.7 18215.8 1476.84C18211.9 1472.99 18208 1469.02 18204.4 1464.83C18199.7 1459.71 18194.7 1454.94 18189.4 1450.55C18186.2 1447.95 18182.3 1446.48 18178.3 1446.36C18174.4 1446.36 18170.4 1446.36 18166.4 1446.36C18159.7 1446.56 18153.2 1444.15 18148 1439.56C18146 1437.64 18143.4 1436.45 18140.8 1436.16C18134.1 1435.48 18127.5 1435.03 18120.9 1434.23C18117 1434 18113.1 1432.41 18110 1429.7L18101.1 1420.97C18096.4 1415.79 18090 1412.78 18083.3 1412.59C18071.3 1412.59 18059.4 1412.59 18047.4 1411.46C18045.5 1411.56 18043.5 1411.04 18041.8 1409.98C18040.1 1408.92 18038.7 1407.35 18037.8 1405.45C18036.8 1402.73 18035.8 1400.12 18034.8 1397.4C18031.9 1390.86 18027.3 1385.38 18021.6 1381.65C18019.4 1380 18016.8 1378.98 18014.2 1378.71C18007.6 1377.86 18000.9 1377.86 17994.3 1378.71C17990.5 1379.32 17986.9 1381.08 17983.9 1383.81C17979.9 1387.43 17976.1 1391.62 17972.2 1395.14C17969.3 1398.03 17965.7 1399.79 17961.8 1400.12C17955.1 1400.12 17948.5 1400.69 17941.9 1400.69C17937.9 1401.11 17933.9 1400.63 17930.1 1399.28C17926.2 1397.94 17922.7 1395.76 17919.7 1392.87C17916.5 1390.27 17912.6 1388.85 17908.6 1388.79C17899.3 1388.11 17889.9 1388 17880.7 1387.43C17876.9 1387.04 17873.2 1385.38 17870.3 1382.67C17868.3 1380.74 17866 1379.31 17863.4 1378.48C17860.8 1377.86 17858.3 1376.87 17856 1375.53C17853.5 1374.36 17851.6 1372.21 17850.6 1369.53C17848 1361.25 17843.6 1353.75 17837.9 1347.66L17824 1332.02C17821.3 1328.94 17819.5 1324.96 17819.1 1320.69C17818 1313.55 17817.7 1306.3 17817.1 1299.04C17816.7 1296.26 17815.5 1293.68 17813.6 1291.78C17811.7 1289.87 17809.3 1288.75 17806.7 1288.62C17804.1 1288.34 17801.4 1288.34 17798.8 1288.62C17796.1 1288.98 17793.6 1289.94 17791.3 1291.45C17785.7 1295.28 17780.6 1299.97 17776.2 1305.39C17774.3 1307.36 17772.9 1309.88 17772.3 1312.67C17771.6 1315.46 17771.7 1318.4 17772.5 1321.14C17773.4 1323.86 17774.6 1326.47 17775.3 1329.19C17776.6 1334.84 17776.6 1340.76 17775.3 1346.41C17774.4 1348.32 17773.1 1349.92 17771.4 1351.05C17769.8 1352.17 17767.9 1352.76 17765.9 1352.76C17763.3 1352.5 17760.8 1351.6 17758.6 1350.15C17755.4 1347.67 17751.9 1345.69 17748.2 1344.26C17743 1342.87 17738.2 1340.41 17733.9 1337.01C17730.5 1334.67 17726.6 1333.45 17722.6 1333.49H17702.6H17686.6C17682.6 1333.1 17678.8 1331.83 17675.3 1329.75C17670 1325.45 17664.1 1322.05 17657.8 1319.67C17653.4 1316.45 17648.9 1313.57 17644.1 1311.06C17638.9 1309.83 17634.2 1307.05 17630.4 1303.01C17627.4 1300.06 17624.6 1297.01 17621.4 1294.4C17618.4 1291.76 17614.9 1290.04 17611 1289.41C17605.7 1288.85 17600.6 1288.85 17595 1288.73C17589.7 1288.87 17584.4 1288.38 17579.2 1287.26C17576.7 1286.6 17574.2 1285.4 17572.1 1283.75C17568.8 1281.19 17565.9 1278.22 17563.3 1274.91C17560.6 1271.68 17557.3 1269.17 17553.6 1267.58C17549.9 1265.99 17545.9 1265.36 17541.9 1265.73H17522C17516.6 1265.54 17511.4 1263.61 17507.1 1260.18C17505 1258.42 17502.6 1257.07 17500.1 1256.21C17495.1 1254.49 17490.3 1251.8 17486.1 1248.28C17481.8 1244.84 17476.5 1243.16 17471.1 1243.52C17468.4 1243.29 17465.8 1243.68 17463.2 1244.66C17460.7 1245.63 17458.4 1247.17 17456.5 1249.19C17453.5 1251.95 17449.9 1253.75 17446.1 1254.4C17439.4 1255.19 17432.8 1255.3 17426.2 1255.76C17422.2 1256.24 17418.4 1257.84 17415.2 1260.4C17414.2 1261.31 17413 1262.11 17411.9 1262.78C17409.5 1264.2 17406.9 1264.95 17404.3 1264.95C17401.6 1264.95 17399 1264.2 17396.7 1262.78C17394.7 1260.87 17392.4 1259.27 17390 1258.02C17382.4 1255.46 17375.2 1251.64 17368.6 1246.69C17366.4 1245.11 17363.8 1244.17 17361.1 1243.97C17351.9 1243.01 17342.5 1243.01 17333.3 1243.97C17329.4 1244.44 17325.8 1246.18 17322.9 1248.96C17318.9 1252.7 17315.2 1256.89 17311 1260.29C17308.1 1263.07 17304.5 1264.81 17300.6 1265.28C17287.3 1265.28 17274 1265.96 17260.8 1266.64C17256.9 1266.73 17253.2 1268.47 17250.4 1271.51C17245.9 1276.72 17241 1281.59 17236.1 1286.47C17233.2 1289.53 17230.3 1292.47 17227.2 1295.31C17224.3 1297.88 17220.6 1299.46 17216.8 1299.84C17208.9 1300.05 17201.1 1302.76 17194.5 1307.66C17191.5 1309.29 17188.3 1310.27 17185 1310.52C17181.7 1310.77 17178.4 1310.3 17175.3 1309.13C17173.9 1308.83 17172.7 1308.21 17171.6 1307.33C17170.6 1306.45 17169.7 1305.32 17169 1304.03C17167.1 1298.7 17164.6 1293.64 17161.5 1288.96C17159.1 1285.6 17157.3 1281.75 17156.2 1277.63C17156.2 1276.27 17156.2 1274.79 17155.2 1273.44C17154.8 1272.04 17154.2 1270.73 17153.4 1269.58C17147 1260.29 17139.2 1252.31 17130.3 1246.01C17128.5 1245.09 17126.5 1244.68 17124.5 1244.82C17122.5 1244.96 17120.6 1245.64 17118.9 1246.81C17116.7 1248.39 17114.8 1250.43 17112.5 1251.79C17110.2 1253.27 17107.6 1254.05 17104.9 1254.05C17102.3 1254.05 17099.7 1253.27 17097.4 1251.79C17095 1250.44 17092.8 1248.77 17090.9 1246.81C17088.8 1245 17086.2 1243.94 17083.6 1243.75C17073.2 1242.84 17062.3 1243.75 17051.7 1243.18C17043.6 1242.8 17035.8 1245.53 17029.4 1250.89C17026.8 1253.2 17023.5 1254.33 17020.2 1254.06C17016.8 1253.79 17013.7 1252.12 17011.4 1249.41C17010.4 1248.55 17009.3 1247.76 17008.1 1247.03C17005.9 1245.48 17003.3 1244.65 17000.7 1244.65C16998 1244.65 16995.5 1245.48 16993.2 1247.03C16991.2 1248.85 16989.1 1250.66 16987.1 1252.58L16978.4 1261.42C16975 1263.84 16971 1264.81 16967 1264.14C16964.5 1263.42 16962 1262.32 16959.8 1260.86C16954.3 1256.67 16947.7 1254.74 16941.1 1255.42C16938.4 1255.35 16935.7 1256.02 16933.4 1257.34C16929.8 1259.38 16926.5 1261.76 16923 1263.46C16919.4 1265.16 16915.5 1266.18 16911.8 1267.88C16909.5 1269.21 16907.2 1270.77 16905.1 1272.53C16902.8 1274.14 16900.3 1275.15 16897.6 1275.47C16893.7 1276.38 16889.7 1276.39 16885.8 1275.52C16881.9 1274.64 16878.2 1272.89 16874.9 1270.38C16872.2 1268.4 16869 1267.06 16865.8 1266.42C16862.5 1265.77 16859.2 1265.85 16855.9 1266.64C16853.2 1266.89 16850.7 1268.17 16848.8 1270.24C16846.9 1272.31 16845.8 1275.05 16845.5 1277.97C16844.9 1285.22 16844.5 1292.36 16843.8 1299.61C16843.7 1301.05 16843.4 1302.47 16842.8 1303.76C16842.2 1305.05 16841.4 1306.18 16840.3 1307.09C16838.1 1308.6 16835.6 1309.56 16833.1 1309.92C16830.4 1310.2 16827.7 1310.2 16825 1309.92C16821.1 1309.85 16817.2 1308.29 16814.1 1305.5C16811 1302.77 16808.1 1299.81 16805.4 1296.66C16796.9 1287.49 16788.6 1278.19 16780.1 1268.9C16777.3 1265.82 16774.4 1262.9 16771.3 1260.18C16769.2 1258.43 16766.8 1257.19 16764.2 1256.55C16760.4 1255.45 16756.4 1255.21 16752.4 1255.83C16748.5 1256.45 16744.7 1257.93 16741.3 1260.18C16733.4 1265.39 16733.3 1265.28 16730.9 1264.82C16727.1 1264.12 16723.5 1262.37 16720.5 1259.72C16714.5 1253.93 16708.9 1247.72 16703.6 1241.14C16700 1236.95 16696.1 1233.09 16692.2 1229.13C16689.3 1226.14 16685.8 1223.93 16682 1222.65C16678.1 1221.37 16674.1 1221.07 16670.2 1221.76C16665.1 1222.56 16662.2 1224.03 16660.8 1228.33C16654.9 1237.32 16646.4 1243.96 16636.7 1247.26C16635.1 1248.52 16633.1 1249.24 16631.1 1249.34C16629.2 1249.44 16627.2 1248.91 16625.5 1247.83C16623.2 1246.35 16621.2 1244.54 16618.9 1243.07C16613.1 1239.35 16606.4 1237.95 16599.8 1239.1C16597.1 1239.34 16594.5 1240.4 16592.4 1242.16C16588.3 1245.9 16584.4 1249.75 16580.4 1253.49C16576.6 1257.45 16571.8 1260.26 16566.6 1261.65C16562.8 1262.98 16559.3 1265.06 16556.2 1267.77C16554 1269.38 16551.5 1270.42 16548.8 1270.83C16534.3 1272.53 16519.6 1272.53 16505.1 1270.83C16502.4 1270.46 16499.9 1269.46 16497.6 1267.88C16492.2 1263.56 16485.8 1261.21 16479.1 1261.2C16476.4 1261.2 16473.8 1261.2 16471.1 1261.2C16464.4 1261.3 16457.9 1259.08 16452.5 1254.85C16449.1 1252.43 16445.2 1251.09 16441.1 1251C16429.3 1250.43 16417.2 1250.43 16405.3 1249.98C16402.6 1249.98 16400 1249.4 16397.6 1248.27C16395.2 1247.14 16393 1245.49 16391.1 1243.41C16386.2 1238.49 16382.6 1232.18 16380.7 1225.16C16378.8 1221.39 16375.7 1218.53 16371.9 1217.12C16368.2 1215.93 16364.7 1214.05 16361.5 1211.56C16357.5 1207.71 16352.4 1205.47 16347.1 1205.22C16340.4 1204.84 16333.9 1202.74 16328.1 1199.1C16323.7 1196.27 16322.2 1196.83 16317.8 1200.91C16313.3 1204.99 16310 1208.84 16305.8 1212.24C16303.7 1213.98 16301.2 1215.11 16298.5 1215.53C16285.3 1216.49 16272 1216.49 16258.7 1215.53C16254.7 1215.46 16250.8 1213.99 16247.6 1211.34C16244.5 1208.6 16240.7 1206.94 16236.7 1206.57C16232.7 1206.21 16228.7 1207.16 16225.2 1209.3C16223.7 1210.29 16221.9 1210.82 16220 1210.82C16218.2 1210.82 16216.4 1210.29 16214.8 1209.3C16210.2 1206.33 16204.9 1204.76 16199.6 1204.76L16179.6 1204.2C16174.3 1204.12 16169 1202.43 16164.5 1199.33C16162.3 1197.85 16160.2 1196.27 16157.8 1194.79C16151.5 1192.18 16144.7 1192.18 16138.4 1194.79C16134.9 1196.72 16131.4 1198.88 16128 1201.25C16125.8 1202.76 16123.2 1203.69 16120.6 1203.97C16108.6 1205.22 16096.6 1203.97 16084.7 1205.1C16079.4 1205.57 16074.3 1207.43 16069.8 1210.54C16065.6 1214.09 16060.3 1215.97 16055 1215.87H16050.9C16041.6 1216.98 16032.2 1214.28 16024.6 1208.28C16022.2 1206.97 16019.6 1206.38 16017 1206.58C16014.3 1206.78 16011.8 1207.76 16009.6 1209.41C16008.5 1210.18 16007.5 1211.1 16006.5 1212.13C16003.4 1214.85 16000.4 1217.57 15997.4 1220.52C15995.4 1222.53 15993.1 1224.08 15990.6 1225.05C15984.2 1226.99 15978.2 1230.22 15972.9 1234.57C15970.6 1235.86 15967.9 1236.44 15965.3 1236.24C15962.6 1236.04 15960.1 1235.07 15957.9 1233.43C15955.7 1231.78 15953.7 1230.01 15951.7 1228.11C15945.9 1222.22 15940.2 1216.1 15934.5 1210.09C15928.8 1204.08 15923 1194.68 15912.3 1200.12Z" fill="#060127"/>
</svg>
