<svg width="20790" height="1829" viewBox="0 0 20790 1829" fill="none" xmlns="http://www.w3.org/2000/svg">
<path d="M15913 782.038C15909.5 780.099 15905.7 778.948 15901.7 778.676C15889.8 777.984 15877.8 777.984 15865.9 778.676C15860.5 778.948 15855.4 780.778 15851.2 783.917C15848 786.151 15844.3 787.636 15840.3 788.254C15836.4 788.872 15832.3 788.606 15828.5 787.477C15824.7 786.344 15821.2 784.531 15818.1 782.137C15814.9 779.994 15811 778.793 15807 778.676C15793.7 778.676 15780.4 778.182 15767.1 778.083C15759.1 778.151 15751.2 775.835 15744.6 771.457C15742.4 770.075 15739.9 769.338 15737.2 769.338C15734.6 769.338 15732 770.075 15729.8 771.457L15722.9 775.215C15720.5 776.361 15717.7 776.642 15715.1 776.006C15713.8 775.985 15712.5 775.751 15711.3 775.314C15707.7 773.572 15704.6 771.18 15702.1 768.277C15699.5 765.374 15697.6 762.018 15696.4 758.403C15695.3 754.71 15693.3 751.317 15690.6 748.514C15686.1 743.866 15681.3 739.416 15676.6 735.065C15672.7 731.631 15668 729.152 15662.8 727.846C15659.2 726.857 15657.4 724.978 15655.4 719.737C15652.5 712.599 15647.4 706.458 15640.8 702.134C15639.2 700.99 15637.4 700.244 15635.4 699.968C15633.4 699.691 15631.4 699.892 15629.6 700.552C15628.3 700.832 15627.1 701.335 15626 702.036C15620.7 705.917 15614.2 708.067 15607.5 708.167H15575.6C15571.6 707.968 15567.6 707.968 15563.7 708.167C15559.7 708.419 15555.9 709.757 15552.6 712.023C15548.5 715.181 15543.7 717.502 15538.5 718.847C15535.9 719.357 15533.5 720.518 15531.5 722.209C15527.6 725.571 15523.4 728.736 15519.6 732.098C15516.6 734.592 15513.1 736.327 15509.2 737.142C15505.4 738.156 15501.8 739.944 15498.8 742.383C15495.8 744.823 15492.3 746.463 15488.4 747.13C15481.8 747.609 15475.2 748.939 15469 751.085C15463.1 753.657 15463 753.162 15454.4 750.393C15451.9 749.465 15449.4 748.866 15446.7 748.613C15437.4 748.119 15428.1 748.02 15418.8 747.822C15414.8 747.822 15410.8 747.822 15406.9 747.13C15403 746.786 15399.4 745.259 15396.5 742.779C15392 738.089 15387 733.937 15381.4 730.417C15379.7 729.409 15377.8 728.817 15375.8 728.696C15373.8 728.576 15371.8 728.929 15370 729.725C15365.7 731.457 15362 734.27 15359.3 737.86C15356.5 741.45 15354.9 745.681 15354.5 750.097C15354.4 752.645 15353.9 755.169 15353.2 757.612C15352.2 760.282 15350 762.26 15347.9 761.865C15340.1 760.1 15332.5 757.684 15325.2 754.646C15324.1 754.646 15323.1 753.063 15322.1 752.371C15317.7 749.472 15312.4 747.982 15307.1 748.119H15255.1H15223.2C15217.9 747.977 15212.7 746.17 15208.6 742.976C15203.2 739.228 15196.5 737.439 15189.8 737.933H15181.8C15176.5 737.947 15171.3 739.612 15167 742.68C15165.9 743.428 15164.9 744.122 15163.8 744.757C15161.6 746.245 15159 747.046 15156.3 747.046C15153.7 747.046 15151.1 746.245 15148.9 744.757C15143.8 740.626 15137.5 738.285 15130.8 738.131C15121.5 738.329 15112.2 737.932 15102.9 736.944C15100.3 736.581 15097.8 735.557 15095.7 733.977C15091.6 730.813 15087.6 727.549 15083.6 724.088C15081.8 722.235 15079.5 720.843 15077 720.034C15070.6 718.333 15064.6 715.479 15059.3 711.628C15055.9 709.585 15052 708.552 15048 708.661L15016 707.969C15013.4 707.816 15010.8 707.418 15008.2 706.782C15007 706.564 15005.7 706.129 15004.6 705.497C14996 699.598 14988 692.979 14980.7 685.719C14977.7 683.049 14974.2 681.025 14970.3 679.785C14965.3 678.141 14960.5 675.773 14956.3 672.764C14954.2 671.174 14951.7 670.179 14949.1 669.896L14937.2 668.314C14934.6 668.012 14932.1 667.131 14929.9 665.742C14924.3 662.159 14917.8 660.199 14911.1 660.106H14799.5C14798.2 660.005 14796.9 660.005 14795.6 660.106C14790.2 660.303 14785.1 662.181 14781 665.446C14777 668.808 14773.2 672.368 14769 675.335C14766.9 676.825 14764.4 677.777 14761.8 678.104C14755.1 678.796 14748.5 678.994 14741.9 679.686C14738 680.133 14734.2 681.566 14731 683.84C14728 686.256 14724.4 688.011 14720.6 688.982C14715.5 690.27 14710.7 692.56 14706.6 695.706C14704.3 697.089 14701.7 697.875 14699.1 697.981C14692.5 698.674 14685.8 698.674 14679.1 697.981C14676.4 697.933 14673.8 697.217 14671.5 695.904C14667.3 692.899 14662.6 690.592 14657.6 689.081C14653.7 688.173 14649.9 686.811 14646.4 685.026C14644.7 684.306 14642.8 684.062 14641 684.325C14639.1 684.588 14637.4 685.346 14636 686.51C14633.8 687.894 14631.9 689.773 14629.9 691.355L14614.8 703.717C14611.9 706.085 14608.2 707.475 14604.4 707.673C14594 707.673 14583.6 707.673 14572.5 707.673C14565.8 707.811 14559.2 705.943 14553.7 702.332C14550.4 700.175 14546.5 698.879 14542.5 698.574C14537.2 698.574 14532.1 697.981 14526.6 697.783C14522.6 697.822 14518.7 696.757 14515.3 694.717C14508.6 690.555 14500.6 688.513 14492.6 688.883C14486 688.883 14479.3 688.883 14472.7 688.191C14468.7 687.798 14465 686.434 14461.8 684.235C14457.6 681.079 14452.4 679.277 14447.1 679.093C14435.1 679.093 14423.2 678.499 14411.2 677.906C14407.2 677.778 14403.3 676.503 14400.1 674.247C14394.8 670.407 14388.2 668.387 14381.5 668.511H14369.6H14329.6C14325.6 668.71 14321.7 668.71 14317.7 668.511C14313.8 668.026 14310 666.888 14306.5 665.149C14300.9 661.523 14294.3 659.685 14287.6 659.908H14227.8C14222.4 659.923 14217.2 658.518 14212.7 655.853C14207 652.546 14200.4 650.77 14193.8 650.711H14181.8H14133.9H14114C14107.3 650.745 14100.8 648.541 14095.6 644.481C14092.5 642.114 14088.6 640.794 14084.6 640.723C14075.3 640.229 14066 640.229 14056.6 640.13C14047.3 640.031 14035.9 640.13 14024.7 640.13C14016.7 640.578 14008.8 638.68 14002 634.691C13998.6 632.667 13994.7 631.541 13990.6 631.427C13986.7 631.229 13982.7 631.229 13978.7 631.427H13775.2C13766 631.427 13756.6 631.427 13747.4 631.427C13743.4 631.141 13739.5 630.17 13736 628.56C13729.3 624.18 13721.3 622.087 13713.3 622.626H13699.6C13691.5 622.175 13683.6 624.337 13677 628.757C13673.6 630.69 13669.7 631.619 13665.7 631.427C13660.3 631.863 13655 630.687 13650.4 628.065L13647 626.186C13643.5 624.392 13639.6 623.285 13635.7 622.928C13631.7 622.572 13627.7 622.973 13623.9 624.109C13619.9 624.9 13616.4 626.779 13612.5 627.472C13609.8 627.788 13607.2 627.152 13605.1 625.692C13601.6 623.786 13597.7 622.827 13593.7 622.923H13553.8C13548.5 622.923 13543.4 622.922 13537.9 622.428C13533.9 622.464 13529.9 621.249 13526.7 618.967C13520.4 614.211 13512.6 611.754 13504.6 612.045L13464.6 611.451C13460.6 611.412 13456.7 610.279 13453.4 608.188C13447.9 604.617 13441.5 602.563 13434.8 602.254C13429.5 601.953 13424.3 600.389 13419.8 597.705C13415.3 594.92 13410.1 593.442 13404.8 593.453H13384.8C13378.1 593.151 13371.5 595.112 13366.2 598.991C13364.1 600.508 13361.6 601.525 13359 601.958C13352.7 603.648 13347 607.089 13342.7 611.847C13339.9 614.517 13338 617.984 13337.4 621.736C13337.4 624.307 13336.7 626.779 13336.3 629.251C13340 637.163 13343.4 646.36 13352.7 649.03C13384.7 657.337 13378.9 676.917 13370 697.783C13368.7 700.921 13366.7 703.753 13364.1 706.09C13343.3 717.759 13323.7 737.933 13297.3 715.979C13294.1 713.952 13290.6 712.602 13286.9 712.023C13261.9 718.847 13237.2 724.583 13218.3 699.959C13214.7 698.705 13211 698.133 13207.2 698.278C13201.8 699.418 13196.5 701.212 13191.4 703.618C13158.9 695.509 13129.1 676.225 13093.9 678.499C13090.2 677.592 13086.6 675.941 13083.5 673.654C13081.4 672.466 13078.9 671.841 13076.4 671.841C13073.9 671.841 13071.4 672.466 13069.2 673.654C13064.5 677.647 13059.6 681.378 13054.4 684.828C13051.1 686.54 13048.4 689.25 13046.8 692.542C13042.1 696.596 13043.6 703.618 13038.8 707.673L13035.1 708.76C13031.3 709.892 13027.3 710.087 13023.4 709.325C13019.5 708.564 13015.9 706.872 13012.9 704.409C13009.4 702.567 13005.6 701.423 13001.6 701.047L12965.9 700.552H12946C12940.7 700.538 12935.5 698.986 12931.1 696.102C12924.3 692.095 12916.1 690.816 12908.3 692.542C12905.7 693.118 12903.2 693.982 12900.9 695.113C12899.1 695.92 12897.2 696.339 12895.2 696.339C12893.3 696.339 12891.3 695.92 12889.6 695.113C12886.3 693.34 12882.8 691.914 12879.2 690.861C12875.2 689.992 12871.6 688.031 12868.8 685.224C12862.1 679.192 12855.2 673.357 12848.7 667.127C12844.8 663.724 12839.7 661.822 12834.4 661.787C12831.1 661.398 12827.7 661.672 12824.6 662.592C12821.4 663.512 12818.5 665.058 12816 667.127C12814 668.808 12812.1 670.588 12810 672.17C12808.1 673.888 12806.1 675.475 12803.9 676.917C12801.7 678.279 12799.1 679.069 12796.5 679.207C12793.8 679.346 12791.2 678.829 12788.8 677.708C12786.5 676.52 12784.3 675.199 12782.2 673.753C12778.6 672.042 12774.7 671.085 12770.8 670.948C12766.8 670.812 12762.9 671.499 12759.2 672.962C12756.8 674.041 12754.6 675.332 12752.4 676.818C12747.9 679.406 12742.6 680.581 12737.4 680.18C12734.7 680.007 12732.2 679.256 12729.9 677.986C12727.6 676.716 12725.7 674.963 12724.3 672.863C12722.3 669.797 12721.6 665.842 12717.7 663.765C12715.4 662.616 12713 661.624 12710.6 660.798C12708.1 659.848 12705.8 658.655 12703.6 657.238C12698.8 653.75 12693 651.858 12687 651.858C12681 651.858 12675.2 653.75 12670.4 657.238C12668.4 658.775 12665.9 659.795 12663.4 660.205C12658.1 660.996 12652.8 660.996 12647.6 660.205C12645 659.765 12642.6 658.672 12640.6 657.04C12638.4 655.661 12636.1 654.47 12633.6 653.48C12603.5 652.392 12582.3 644.283 12587.9 608.88C12592.7 579.213 12573.9 578.421 12551.1 585.344C12547.7 587.197 12544.6 589.531 12541.9 592.266C12539.1 594.929 12537.3 598.405 12536.7 602.155C12536.7 605.814 12535.8 609.572 12535.4 613.231C12534.9 615.039 12534 616.699 12532.6 618.038C12531.3 619.378 12529.6 620.347 12527.7 620.846C12525.1 621.44 12522.5 621.739 12519.9 621.736C12516.6 622.032 12513.3 621.202 12510.5 619.392C12507.8 617.582 12505.8 614.91 12504.9 611.847C12501.8 604.232 12501.6 604.331 12491.4 600.277C12489 599.399 12486.7 598.128 12484.7 596.519C12480.5 593.532 12476.7 590.224 12473.1 586.629C12469.8 582.773 12466.2 579.114 12462.7 575.554C12460.9 573.834 12458.9 572.216 12456.8 570.708C12440.1 560.819 12421.8 570.708 12404.8 566.555C12401.1 564.666 12397 563.804 12392.8 564.066C12388.6 564.329 12384.6 565.705 12381.2 568.038C12379.3 569.465 12377.2 570.631 12375 571.499L12372.9 571.994L12375.3 571.499C12377.3 570.743 12379.1 569.636 12380.6 568.236C12382.6 566.527 12384.8 565.125 12387.3 564.082C12393.8 562.105 12399.4 565.368 12405.3 566.654C12420.4 565.071 12438.5 573.972 12448.8 555.578C12454.5 552.117 12461.6 552.908 12467.5 549.842C12468.7 549.304 12469.8 548.474 12470.6 547.435C12471.3 546.395 12471.8 545.18 12472 543.908C12472.5 542.165 12472.5 540.32 12472 538.576C12471.5 536.833 12470.5 535.256 12469.1 534.019L12466.4 531.25C12462.9 527.329 12458.1 524.814 12452.7 524.229C12447.5 523.768 12442.2 523.471 12436.8 523.339C12432.8 523.425 12428.9 522.281 12425.6 520.076C12419.4 515.229 12411.6 512.482 12403.6 512.263C12398.3 511.731 12393.3 509.813 12389.1 506.726C12385.7 504.727 12381.7 503.667 12377.7 503.66C12364.4 503.66 12351.2 503.66 12337.9 503.66H12325.9C12319.2 503.736 12312.7 501.985 12307 498.616C12302.4 495.983 12297.2 494.613 12291.8 494.661C12273.2 494.661 12254.6 494.661 12236 493.87C12232.1 493.731 12228.4 492.215 12225.6 489.617C12221.6 486.291 12216.5 484.312 12211.2 483.98H12207.1C12204.5 483.98 12201.8 483.98 12199.2 483.98C12193.8 484.007 12188.6 485.748 12184.4 488.925C12180.4 492.267 12175.2 494.125 12169.9 494.166C12161.9 494.166 12153.9 494.166 12146 494.166C12140.6 494.127 12135.4 492.349 12131.2 489.123C12127.1 485.889 12122 484.076 12116.7 483.98H12080.8C12072.8 484.38 12064.8 483.782 12057 482.2C12054.1 481.409 12049.9 476.564 12050.6 473.696C12050.9 471.225 12051.6 468.819 12052.7 466.576C12054.2 464.512 12055.5 462.328 12056.6 460.049C12057.8 456.452 12057.6 452.548 12056.1 449.072C12054.2 444.325 12050 440.765 12048.9 435.623C12048 431.912 12046 428.5 12043.3 425.734C12035.3 417.427 12026.7 409.417 12018 401.604C12015.1 399.026 12011.5 397.16 12007.6 396.165C12003.8 395.269 12000.3 393.617 11997.2 391.319C11993.1 388.121 11988.3 385.735 11983.2 384.298C11979.6 382.641 11976.1 380.758 11972.8 378.661C11970.4 377.476 11967.9 376.705 11965.2 376.387C11959.9 375.826 11954.6 375.562 11949.3 375.596H11837.7C11829.6 375.596 11821.7 375.596 11813.7 375.596C11808.4 375.459 11803.2 373.918 11798.8 371.146C11794.2 368.545 11788.9 367.115 11783.6 366.992H11723.8C11718.5 366.992 11713.4 366.992 11707.9 366.498C11703.9 366.303 11700.1 365.109 11696.7 363.037C11691.3 359.314 11684.8 357.276 11678.1 357.202C11670.2 357.202 11662.2 357.202 11654.2 356.114C11650.3 355.791 11646.7 354.301 11643.8 351.862C11640.9 349.379 11637.3 347.733 11633.4 347.115C11630.7 347.115 11628.1 346.423 11625.4 346.225C11620.1 345.748 11615.1 343.9 11610.8 340.885C11607.5 338.745 11603.6 337.608 11599.6 337.622C11583.7 337.622 11567.7 337.127 11551.8 336.633C11549.1 336.415 11546.6 335.849 11544.1 334.952C11542.8 334.522 11541.7 333.886 11540.7 333.073C11533.4 327.436 11523.3 326.744 11516.2 320.612C11513.1 318.194 11509.2 316.929 11505.2 317.052H11485.3C11476.7 317.052 11475.9 317.052 11463.7 324.766C11462 325.694 11460.1 326.263 11458.1 326.433C11456.2 326.604 11454.2 326.372 11452.3 325.755C11449.9 324.683 11447.7 323.391 11445.5 321.898C11443.6 320.125 11441.3 318.775 11438.8 317.942C11433.6 316.828 11428.7 314.481 11424.7 311.119C11421.9 308.548 11418.5 306.372 11415.6 303.801C11411.5 300.62 11406.6 298.387 11401.5 297.274C11396.4 295.791 11393.3 291.044 11388.1 289.363C11385.6 288.526 11382.9 288.526 11380.4 289.363C11376.6 290.853 11373.1 292.888 11370 295.395C11367.9 297.036 11365.3 297.934 11362.6 297.934C11359.9 297.934 11357.3 297.036 11355.2 295.395C11352 293.044 11348.5 291.084 11344.8 289.56C11342.3 288.625 11339.6 288.625 11337.1 289.56C11333.7 291.34 11330.7 293.813 11327.3 295.89C11325.6 296.79 11323.6 297.261 11321.6 297.261C11319.6 297.261 11317.7 296.79 11315.9 295.89C11314.7 295.356 11313.6 294.762 11312.5 294.11C11308.4 290.827 11303.8 288.309 11298.8 286.693C11292.2 285.111 11287.7 279.672 11281.2 278.089C11276 276.961 11271.1 274.842 11266.8 271.859C11263.5 269.819 11259.5 268.755 11255.5 268.794H11235.6H11203.6C11197 268.962 11190.5 266.975 11185.1 263.157C11180.8 260.177 11175.5 258.647 11170.2 258.805C11159.8 258.805 11149.4 258.806 11138.3 258.014C11132.9 257.817 11127.8 256.094 11123.5 253.07C11119.1 250.116 11114 248.494 11108.6 248.422H11080.7H11064.8C11060.8 248.463 11056.8 247.435 11053.4 245.455C11046.6 241.409 11038.7 239.41 11030.7 239.72C11018.7 239.72 11006.8 239.72 10994.8 239.72C10988.1 239.86 10981.6 237.837 10976.3 233.984C10973.4 232.36 10970.1 231.544 10966.8 231.632C10963.5 231.719 10960.2 232.707 10957.5 234.478C10956.5 235.291 10955.3 235.846 10954 236.089C10952.8 236.331 10951.4 236.254 10950.2 235.863C10947.7 235.003 10945 234.638 10942.4 234.791C10939.7 234.944 10937.1 235.612 10934.7 236.753C10931.2 238.532 10927.3 239.513 10923.3 239.621C10907.4 239.621 10891.5 240.412 10875.5 239.621C10871.5 239.395 10867.6 237.976 10864.5 235.566C10860.5 232.401 10856.7 228.743 10853 225.183C10851.2 223.339 10848.9 221.889 10846.5 220.93C10840.2 218.883 10834.2 216.232 10828.5 213.019C10826.2 211.739 10823.6 211.025 10820.9 210.942C10811.6 210.942 10802.4 210.448 10793 210.349C10783.7 210.25 10777.1 210.349 10769.1 210.349C10761.1 210.718 10753.2 208.524 10746.7 204.119C10744.5 202.631 10741.9 201.805 10739.2 201.745C10732.5 201.745 10725.9 200.855 10719.3 201.053C10709.9 201.436 10700.7 198.632 10693.3 193.142C10691.1 191.701 10688.5 190.878 10685.8 190.768C10684.6 190.768 10683.2 190.768 10681.9 190.768H10577.9C10572.6 190.691 10567.4 192.367 10563.2 195.515C10559 198.681 10553.9 200.668 10548.6 201.251H10544.7C10539.4 201.674 10534.4 203.489 10530.1 206.492C10526.7 208.435 10522.9 209.65 10518.9 210.052C10509.6 210.794 10500.2 210.794 10490.9 210.052C10487 209.834 10483.1 208.604 10479.8 206.492C10474.3 202.886 10467.8 201.05 10461.1 201.251H10445.1C10435.8 201.564 10426.5 201.332 10417.2 200.558C10413.4 200.174 10409.7 198.653 10406.8 196.208C10405 194.439 10402.7 193.029 10400.3 192.054C10394.1 189.78 10388.1 187.035 10382.4 183.846C10380.1 182.561 10377.6 181.752 10374.9 181.473C10368.3 180.879 10361.6 180.978 10355.1 180.286C10351.1 180.005 10347.2 178.632 10344 176.33C10340.9 173.946 10337 172.532 10333 172.276C10325.1 171.781 10317.1 171.682 10309.1 171.682H10185.5C10177.5 171.682 10169.5 171.682 10161.6 171.682C10156.3 171.54 10151.1 169.85 10146.7 166.837C10142.4 163.849 10137.3 162.068 10132 161.694C10126.7 161.694 10121.6 161.2 10116.2 160.508C10112.2 160.059 10108.4 158.628 10105.2 156.354C10100.8 153.401 10095.6 151.779 10090.3 151.706C10083.6 151.706 10077 151.706 10070.3 151.706C10063.7 151.809 10057.1 149.905 10051.6 146.267C10049.5 144.834 10047 143.919 10044.3 143.597C10040.4 143.104 10036.4 142.807 10032.4 142.707C10024.4 143.025 10016.5 140.912 10009.8 136.675C10007.2 132.698 10003.4 129.589 9998.82 127.775C9993.52 127.775 9988.42 127.28 9982.91 127.28H9926.05C9919.4 127.395 9912.86 125.565 9907.34 122.039C9903 119.054 9897.82 117.366 9892.47 117.193L9872.62 116.699C9865.93 116.827 9859.36 114.998 9853.8 111.458C9850.6 109.31 9846.8 108.106 9842.89 107.996C9833.53 107.996 9824.28 107.996 9815.03 107.008C9811.02 106.696 9807.18 105.364 9803.9 103.151C9799.62 100.14 9794.47 98.4489 9789.14 98.305C9786.44 98.305 9783.84 98.305 9781.14 98.305C9773.08 98.4769 9765.21 95.9578 9758.89 91.1849C9755.58 89.0632 9751.66 87.959 9747.66 88.0206C9741.12 88.0206 9734.46 88.0206 9727.81 88.0206H9683.94C9678.58 87.9577 9673.36 86.4487 9668.87 83.6693C9663.17 80.3944 9656.6 78.7466 9649.95 78.9225H9633.94C9618.03 78.9225 9602.13 79.5158 9586.12 78.3291C9583.47 78.2125 9580.9 77.4643 9578.64 76.1535C9576.35 74.8679 9573.86 73.8792 9571.57 72.5936C9569.24 71.4242 9566.7 70.6859 9564.08 70.418C9556.14 69.695 9548.15 69.4636 9540.17 69.7257H9488.2C9481.51 69.9742 9474.94 67.9398 9469.69 63.9898C9466.48 61.7635 9462.72 60.3668 9458.78 59.9355C9454.83 59.4411 9450.88 58.5508 9447.03 57.8586C9444.37 57.457 9441.9 56.2828 9439.96 54.4963C9437.02 52.1091 9433.4 50.5961 9429.57 50.1451C9425.64 49.6162 9421.68 49.3846 9417.72 49.4528C9405.76 49.4528 9393.7 49.4528 9381.75 49.4528H9361.89C9356.54 49.3712 9351.3 47.938 9346.72 45.2995C9342.25 42.5319 9337.07 40.9917 9331.75 40.8493H9311.79H9259.81C9254.51 40.8493 9249.41 40.8493 9243.8 40.256C9239.83 40.0332 9236 38.7288 9232.78 36.4981C9229.76 33.9936 9225.88 32.6143 9221.87 32.6143C9217.86 32.6143 9213.98 33.9936 9210.95 36.4981C9207.83 38.7726 9204.82 41.245 9201.8 43.7172C9197.85 47.1225 9192.78 49.1153 9187.46 49.3541C9175.5 49.8486 9163.55 49.9475 9151.59 49.3541C9146.24 49.0316 9141.15 47.0122 9137.14 43.6183C9134.03 41.2449 9131.22 38.5748 9128.1 36.2014C9123.83 33.1285 9118.69 31.3382 9113.34 31.0592H9053.57C9045.54 30.9909 9037.69 33.3073 9031.11 37.685C9028.89 39.112 9026.3 39.9328 9023.63 40.0583H9007.72C9002.39 40.0404 8997.2 38.4512 8992.86 35.5094C8988.42 32.6829 8983.23 31.1059 8977.89 30.9602C8957.1 30.4657 8935.37 30.268 8914.06 30.9602C8912.76 31.1042 8911.48 31.3356 8910.21 31.6525C8907.59 32.0114 8905.16 33.1687 8903.29 34.9514C8901.41 36.7341 8900.2 39.0462 8899.82 41.5416C8899.16 45.1998 8899.54 48.9581 8900.91 52.433C8902.28 55.9078 8904.59 58.9746 8907.61 61.3199L8913.64 66.2644C8915.7 67.8776 8918.26 68.8141 8920.92 68.9344C8932.88 70.1211 8944.83 69.429 8956.78 69.7257C8966.09 69.2961 8975.41 69.66 8984.64 70.8133C8987.26 71.1545 8989.63 72.4272 8991.3 74.3736L8993.9 77.2415C8996.7 82.6805 9006.27 85.4493 9001.07 94.0528L8995.04 103.942C8992.65 107.996 8995.04 115.908 8999.72 116.699L9003.46 117.589L9011.46 118.578C9016.04 119.274 9020.36 121.076 9024 123.812C9027.64 126.547 9030.48 130.125 9032.26 134.203C9032.81 135.334 9033.19 136.532 9033.4 137.763C9033.56 139.011 9033.56 140.273 9033.4 141.521C9033.99 145.262 9033.48 149.084 9031.94 152.572C9030.4 156.059 9027.89 159.078 9024.67 161.299C9021.65 164.365 9019.57 164.562 9014.27 162.486L9010.74 160.804C9007.14 159.113 9003.21 158.169 8999.2 158.035C8991.3 158.035 8983.29 158.035 8975.29 158.035C8969.93 158.182 8964.81 160.146 8960.84 163.573C8958.02 166.099 8954.32 167.543 8950.44 167.628C8938.49 168.122 8926.43 168.122 8914.48 168.221H8874.66C8867.97 168.188 8861.44 170.122 8855.95 173.759C8853.76 175.218 8851.22 176.135 8848.57 176.429C8841.98 177.106 8835.34 177.337 8828.71 177.121C8819.37 177.884 8810.03 175.619 8802.21 170.693C8799.85 169.556 8797.21 169.073 8794.58 169.3C8791.95 169.527 8789.44 170.456 8787.34 171.979C8785.13 173.396 8783.04 174.983 8781.1 176.726C8778.24 179.356 8775.02 181.616 8771.54 183.45C8769.2 184.622 8766.67 185.424 8764.05 185.824C8754.8 186.862 8745.45 186.862 8736.2 185.824C8733.55 185.981 8730.92 185.364 8728.65 184.056C8726.38 182.747 8724.59 180.811 8723.51 178.506C8723.51 177.319 8722.47 176.132 8722.06 174.946C8719.2 169.236 8714.82 164.329 8709.37 160.705C8708.35 159.895 8707.14 159.32 8705.84 159.024C8700.75 157.838 8695.45 156.849 8690.35 155.761C8688.36 155.563 8686.52 154.661 8685.19 153.233C8683.86 151.804 8683.14 149.954 8683.18 148.047C8682.66 146.199 8682.93 144.233 8683.92 142.57C8684.91 140.906 8686.55 139.678 8688.48 139.147C8691.69 138.405 8694.66 136.913 8697.11 134.807C8699.56 132.7 8701.42 130.045 8702.52 127.082C8703.64 123.388 8705.67 120 8708.44 117.193C8713.12 112.743 8717.69 108.095 8722.27 103.645C8729.65 96.3273 8737.13 89.1084 8745.14 82.4827C8748.05 80.1146 8751.7 78.7244 8755.53 78.5268C8760.83 78.5268 8765.93 78.527 8771.44 77.8348C8776.77 77.7034 8781.9 75.8558 8785.99 72.5936C8789.18 70.5154 8792.69 68.9145 8796.38 67.8467C8798.23 67.1144 8799.86 65.9816 8801.16 64.5391C8802.46 63.0965 8803.39 61.3844 8803.87 59.5399C8804.8 55.8681 8804.8 52.0369 8803.87 48.3651C8803.43 45.9 8802.4 43.5647 8800.85 41.5416C8795.66 35.8059 8789.94 30.4658 8784.53 24.829C8781.82 22.0951 8778.42 20.0548 8774.66 18.8955C8772.16 18.0055 8769.56 17.4123 8767.17 16.3245C8762.8 13.4955 8758.09 11.1716 8753.14 9.40201C8748.08 7.86071 8743.28 5.62873 8738.9 2.77617C8736.53 1.62912 8733.95 0.924256 8731.31 0.699539C8729.96 0.699539 8728.71 0.205204 8727.36 0.205204L8663.53 0.205204C8658.2 0.189159 8652.98 1.70572 8648.56 4.55644C8644.11 7.33832 8638.92 8.87952 8633.59 9.00636L8617.69 9.89634C8615.04 10.1441 8612.48 10.9555 8610.2 12.2699C8603.65 16.7193 8595.68 18.8845 8587.65 18.4011C8578.39 18.4011 8569.04 18.4011 8559.79 18.4011C8554.44 18.5393 8549.27 20.1923 8544.92 23.148C8540.84 26.4311 8535.71 28.2815 8530.37 28.3892L8490.45 28.9826C8483.78 28.7365 8477.19 30.5014 8471.63 34.0258C8470.51 34.7158 8469.33 35.3116 8468.1 35.8061C8465.82 37.1457 8463.19 37.8639 8460.51 37.8827C8453.96 37.8827 8447.31 38.575 8440.66 38.575H8360.82C8354.17 38.575 8347.62 38.575 8340.96 38.575C8336.93 38.4875 8332.96 39.5182 8329.53 41.5416C8322.76 45.6091 8314.87 47.6424 8306.87 47.3762L8258.94 47.3762C8253.61 47.4048 8248.34 46.2537 8243.56 44.0139C8242.54 43.2674 8241.34 42.7691 8240.07 42.5623C8238.81 42.3555 8237.5 42.4464 8236.28 42.8273C8228.99 45.9006 8221.17 47.677 8213.2 48.0685C8209.36 48.2865 8205.7 49.7127 8202.81 52.123C8201.78 52.9276 8200.67 53.6239 8199.48 54.1997C8197.22 55.5584 8194.66 56.4042 8192 56.672C8182.73 57.5128 8173.4 57.5128 8164.14 56.672C8160.18 56.3558 8156.35 55.2075 8152.91 53.3097C8150.52 52.2219 8148.23 50.8374 8145.95 49.5518C8143.7 48.1946 8141.12 47.4426 8138.46 47.3762C8131.78 47.2829 8125.2 45.8686 8119.13 43.2229C8117.42 42.2757 8115.49 41.7764 8113.51 41.7764C8111.54 41.7764 8109.6 42.2757 8107.9 43.2229C8104.44 45.1222 8100.56 46.2386 8096.57 46.4862C8089.91 46.9806 8083.26 47.1784 8076.71 47.6728C8074.02 47.8194 8071.45 48.752 8069.33 50.3431C8064.14 54.3737 8057.64 56.5741 8050.93 56.573H8011.12C8004.41 56.6051 7997.89 54.4794 7992.62 50.5408C7990.51 48.9439 7987.93 48.0109 7985.23 47.8708C7982.64 47.8708 7980.04 47.2773 7977.33 47.3762C7973.34 47.1372 7969.38 48.1065 7966 50.1451C7959.52 54.6223 7951.66 56.9502 7943.65 56.7709C7923.69 56.7709 7903.73 56.771 7883.78 57.4633C7879.77 57.5374 7875.86 58.6298 7872.44 60.6275C7870.16 61.9131 7868.08 63.5943 7865.79 64.6821C7863.41 65.7934 7860.84 66.4963 7858.2 66.7587C7847.81 66.7587 7836.89 67.2533 7826.29 67.4511C7820.99 67.4511 7815.89 67.4511 7810.38 67.4511C7805.06 67.93 7799.96 69.6636 7795.52 72.4946C7793.36 73.9642 7790.85 74.8893 7788.21 75.1833C7785.57 75.4773 7782.9 75.1305 7780.45 74.1756C7776.81 73.0878 7773.38 70.7144 7769.01 71.7033C7766.5 72.3247 7764.06 73.1863 7761.73 74.2746C7759.3 75.2749 7756.69 75.8448 7754.04 75.9559C7748.74 75.9559 7743.65 75.9559 7738.03 75.9559C7723.48 75.9559 7708.82 75.4614 7694.16 76.5492C7690.18 76.8373 7686.38 78.2491 7683.25 80.6037C7681.33 82.3787 7678.91 83.5815 7676.28 84.0647C7672.33 84.658 7668.49 85.4492 7664.54 85.9436C7660.54 86.2157 7656.7 87.5146 7653.41 89.7016C7649.2 92.7356 7644.54 95.1677 7639.59 96.9207C7635.92 98.2293 7632.43 99.9559 7629.19 102.063C7625.87 104.189 7621.97 105.357 7617.97 105.425C7609.96 105.425 7602.06 105.425 7594.06 105.425C7588.75 105.293 7583.59 103.715 7579.19 100.876C7574.82 97.8688 7569.51 96.3373 7564.12 96.5251H7504.34C7496.31 96.4233 7488.45 98.7428 7481.89 103.151C7480.22 104.17 7478.29 104.76 7476.31 104.864C7474.32 104.968 7472.34 104.582 7470.56 103.744C7468.13 102.763 7465.77 101.64 7463.49 100.382C7457.61 97.3618 7450.88 96.1851 7444.26 97.0197C7441.64 97.2511 7439.11 98.0639 7436.88 99.393C7430.42 103.986 7422.47 106.262 7414.42 105.821H7398.41C7391.73 105.8 7385.2 107.733 7379.7 111.359C7376.33 113.37 7372.46 114.496 7368.48 114.622C7356.52 114.622 7344.57 114.622 7332.61 115.413C7327.22 115.591 7322.12 117.754 7318.37 121.446C7315.56 124.116 7312.45 126.489 7309.74 129.258C7305.95 132.844 7300.94 135.02 7295.6 135.389L7287.6 136.181C7283.71 136.72 7280.08 138.376 7277.2 140.927C7274.19 143.399 7271.38 146.069 7268.47 148.641C7265.53 151.299 7261.97 153.263 7258.08 154.376C7252.98 155.887 7248.25 158.34 7244.15 161.596C7242.19 163.334 7239.65 164.351 7236.97 164.463C7231.67 164.463 7226.58 165.156 7221.07 165.255H7181.26C7174.57 165.003 7167.97 166.806 7162.44 170.397C7160.26 171.833 7157.78 172.811 7155.16 173.265C7147.27 174.401 7139.25 174.401 7131.36 173.265C7128.71 172.893 7126.18 171.945 7123.98 170.496C7118.37 167.041 7111.85 165.156 7105.16 165.057H7046.53C7039.82 164.83 7033.22 166.783 7027.82 170.594C7025.65 172.011 7023.15 172.925 7020.54 173.265L7000.69 174.55C6996.71 174.749 6992.86 175.98 6989.57 178.11C6985.24 181.097 6980.13 182.909 6974.8 183.351C6968.13 183.501 6961.68 185.684 6956.4 189.582C6952.16 192.723 6946.92 194.397 6941.54 194.329H6921.68C6915.02 194.322 6908.5 196.217 6902.97 199.767C6899.66 201.929 6895.76 203.131 6891.74 203.229H6875.74L6736.13 203.229C6730.83 203.229 6725.73 203.229 6720.22 203.723C6717.59 203.931 6715 204.497 6712.53 205.404C6694.34 212.327 6694.34 212.425 6682.17 212.326H6662.22C6655.53 212.305 6649.03 214.47 6643.82 218.458C6640.66 220.805 6636.8 222.153 6632.8 222.315C6616.87 223.303 6600.9 223.303 6584.98 222.315C6580.97 222.005 6577.07 220.893 6573.54 219.051C6571.19 217.943 6568.58 217.425 6565.96 217.546C6563.34 217.667 6560.8 218.424 6558.57 219.743C6555.02 221.549 6551.06 222.5 6547.03 222.512H6503.17C6491.21 222.512 6479.26 222.512 6467.3 222.512C6459.27 222.289 6451.37 224.506 6444.74 228.841C6441.35 230.846 6437.41 231.876 6433.41 231.808C6426.76 231.808 6420.11 231.808 6413.45 231.808C6400.15 231.808 6386.84 231.808 6373.54 231.808C6365.53 231.614 6357.65 233.678 6350.87 237.742C6347.38 239.6 6343.44 240.555 6339.44 240.511C6327.48 240.511 6315.53 240.511 6303.58 241.302C6300.94 241.578 6298.37 242.28 6295.99 243.378C6293.62 244.463 6291.33 245.685 6289.13 247.037C6286.9 248.451 6284.31 249.262 6281.64 249.384C6278.96 249.506 6276.31 248.934 6273.95 247.73C6271.7 246.469 6269.13 245.804 6266.52 245.804C6263.9 245.804 6261.34 246.469 6259.08 247.73C6254.29 249.899 6249.1 251.175 6243.8 251.488C6238.47 251.896 6233.4 253.826 6229.25 257.025C6224.91 260.049 6219.66 261.646 6214.28 261.574C6202.33 262.217 6190.36 262.217 6178.41 261.574C6174.55 261.286 6170.9 259.791 6168.02 257.322C6165.01 254.812 6161.46 252.956 6157.62 251.883C6152.59 250.293 6147.91 247.847 6143.8 244.664C6141.72 243.072 6139.25 242.016 6136.62 241.598C6132.82 240.76 6129.26 239.103 6126.23 236.753C6123.08 234.625 6119.56 233.051 6115.83 232.105C6111.93 231.189 6108.34 229.313 6105.44 226.666C6101.38 223.304 6097.85 219.546 6093.8 216.777C6090.88 214.38 6087.24 212.925 6083.4 212.623L6047.54 212.03H6027.58C6022.22 212.095 6016.96 210.612 6012.5 207.778C6007.1 203.822 6000.03 203.525 5994.62 199.965C5990.29 197.005 5985.48 194.734 5980.38 193.241C5976.52 192.163 5972.97 190.27 5969.99 187.703C5967.1 185.228 5963.46 183.703 5959.59 183.351C5952.94 182.659 5946.29 182.363 5939.74 181.868C5937.06 181.685 5934.49 180.757 5932.36 179.198C5928.2 176.034 5924.04 172.869 5920.09 169.309C5917.12 166.746 5913.56 164.883 5909.69 163.87C5905.91 162.866 5902.37 161.151 5899.3 158.827C5895.22 155.536 5890.09 153.653 5884.75 153.486C5876.74 153.486 5868.84 153.486 5860.84 153.486C5856.89 153.486 5852.83 153.486 5848.88 152.992C5844.92 152.544 5841.1 151.332 5837.65 149.432C5829.03 144.487 5829.03 144.191 5823.2 143.894C5815.2 143.572 5807.45 141.103 5800.86 136.774C5799.13 135.847 5797.17 135.36 5795.19 135.36C5793.2 135.36 5791.25 135.847 5789.52 136.774L5782.45 140.433C5779.01 142.299 5775.18 143.414 5771.23 143.696C5764.55 143.735 5757.98 145.33 5752.1 148.344C5750.91 148.933 5749.59 149.241 5748.25 149.241C5746.91 149.241 5745.6 148.933 5744.41 148.344C5738.51 145.447 5732.02 143.826 5725.38 143.597C5720.07 143.325 5714.95 141.609 5710.62 138.653C5706.11 135.9 5700.8 134.584 5695.45 134.895C5691.47 134.543 5687.47 135.372 5684.01 137.268C5677.41 141.645 5669.5 143.897 5661.45 143.696C5646.9 143.696 5632.24 143.696 5617.58 143.696C5613.63 143.696 5609.68 144.191 5605.73 144.586C5603.08 144.894 5600.6 146.003 5598.66 147.751C5588.27 157.64 5577.87 167.529 5567.48 177.418C5557.08 187.307 5548.98 195.515 5539.83 204.613C5537.2 207.468 5535.28 210.847 5534.21 214.502C5532.91 218.101 5530.93 221.45 5528.39 224.391C5522.47 231.314 5515.4 237.049 5509.26 243.675C5506.73 246.481 5505.07 249.907 5504.48 253.564C5503.34 259.794 5503.75 266.222 5502.4 272.353C5501.8 274.797 5500.36 276.98 5498.31 278.556C5496.26 280.132 5493.71 281.012 5491.07 281.056C5488.45 281.303 5485.8 281.303 5483.17 281.056C5480.54 280.744 5478.01 279.864 5475.79 278.485C5470.39 274.826 5465.4 270.573 5459.99 266.816C5456.73 264.649 5452.84 263.508 5448.87 263.552C5443.55 263.135 5438.21 264.163 5433.48 266.519C5429.04 269.321 5424.16 271.456 5419.03 272.848C5416.49 273.481 5414.15 274.666 5412.17 276.309C5405.22 282.181 5398.69 288.491 5392.63 295.197C5391.75 296.133 5391.11 297.25 5390.76 298.461C5388.89 304.54 5385.62 310.147 5381.19 314.877C5378.6 317.646 5376.41 320.909 5373.81 323.777C5371.32 326.765 5369.94 330.448 5369.86 334.259C5369.86 343.16 5369.86 351.961 5369.24 360.861C5369.24 373.42 5369.24 386.078 5368.72 398.736C5368.53 402.436 5366.94 405.947 5364.25 408.625C5358.95 414.361 5353.85 419.899 5347.93 425.239C5345.12 427.834 5341.44 429.409 5337.53 429.689C5330.88 430.283 5324.23 430.382 5317.57 430.382H5237.74C5232.54 430.382 5227.34 430.876 5221.94 431.272C5219.29 431.476 5216.77 432.481 5214.76 434.14C5210.71 437.502 5206.86 440.963 5202.81 444.029C5199.85 446.48 5196.26 448.151 5192.41 448.874C5189.71 448.874 5187.11 449.566 5184.51 450.061C5179.25 450.761 5174.29 452.813 5170.17 455.994C5166.78 458.007 5162.93 459.196 5158.94 459.456C5152.33 460.174 5145.67 458.555 5140.23 454.906C5136.07 451.619 5130.77 449.927 5125.36 450.16C5110.81 449.665 5096.15 449.468 5081.5 450.16C5077.51 450.138 5073.61 451.314 5070.37 453.522C5064.92 457.162 5058.83 459.841 5052.39 461.433C5047.71 463.613 5043.8 467.052 5041.16 471.322C5041.25 472.565 5041.5 473.793 5041.89 474.981C5043.07 479.263 5045.81 483.01 5049.61 485.561C5053.42 488.112 5058.04 489.303 5062.68 488.925C5065.33 489.091 5067.99 488.758 5070.51 487.943C5073.02 487.129 5075.34 485.849 5077.34 484.178C5081.36 480.836 5086.45 478.885 5091.79 478.641C5094.49 478.641 5097.09 478.641 5099.79 478.641H5103.74C5107.08 478.586 5110.35 479.504 5113.12 481.272C5115.89 483.04 5118.02 485.573 5119.23 488.53C5122.56 495.749 5123.6 496.243 5129.63 498.419L5133.37 499.605C5135.91 500.329 5138.25 501.578 5140.23 503.264C5143.23 505.533 5146.82 506.971 5150.62 507.418C5157.28 507.418 5163.93 508.011 5170.48 508.703C5173.13 508.976 5175.64 509.934 5177.76 511.472C5181.94 514.646 5185.47 518.537 5188.15 522.944C5189.39 525.164 5189.69 527.75 5188.99 530.175C5188.3 532.599 5186.66 534.681 5184.41 535.997C5178.21 538.181 5172.39 541.249 5167.15 545.095C5163.11 547.34 5158.46 548.405 5153.78 548.159C5149.11 547.913 5144.61 546.366 5140.85 543.711C5136.79 540.53 5131.84 538.538 5126.61 537.975C5122.66 537.975 5118.71 536.887 5114.76 536.393C5112.16 535.828 5109.77 534.636 5107.8 532.932C5104.58 530.701 5100.75 529.397 5096.78 529.174L5084.82 528.58H5068.81C5066.17 528.459 5063.59 527.82 5061.22 526.702C5056.72 524.026 5051.86 521.931 5046.77 520.471C5041.5 519.879 5036.18 519.582 5030.87 519.581C5010.91 519.581 4990.95 519.581 4970.99 519.581C4964.38 519.502 4957.87 517.98 4951.97 515.131C4950.29 514.109 4948.35 513.565 4946.36 513.565C4944.37 513.565 4942.42 514.109 4940.74 515.131C4937.54 517.397 4933.71 518.736 4929.72 518.988H4917.77H4893.86C4888.77 518.988 4887.73 518.988 4878.99 523.834C4874.39 526.359 4869.23 527.816 4863.92 528.086L4848.02 528.976C4845.34 529.102 4842.75 529.922 4840.53 531.349C4833.87 535.568 4825.96 537.616 4817.97 537.184C4801.96 537.184 4786.06 537.184 4770.05 537.184C4764.7 536.912 4759.45 538.612 4755.39 541.931C4754.34 542.669 4753.23 543.33 4752.07 543.908C4749.85 545.326 4747.33 546.24 4744.68 546.579C4734.13 547.963 4723.43 547.963 4712.88 546.579C4707.7 545.469 4702.9 543.12 4698.95 539.755C4697.31 538.713 4695.41 538.093 4693.44 537.954C4691.47 537.815 4689.5 538.163 4687.72 538.964C4686.48 539.411 4685.32 540.045 4684.29 540.843C4678.03 545.729 4670.01 548.105 4661.94 547.469C4651.54 547.469 4641.15 547.469 4630.02 547.469C4622.02 547.949 4614.11 545.628 4607.78 540.942C4605.72 539.309 4603.3 538.127 4600.71 537.481C4595.63 536.118 4590.84 533.908 4586.57 530.954C4584.35 529.527 4581.76 528.706 4579.09 528.58C4573.79 527.987 4568.69 527.888 4563.18 527.69C4553.83 527.69 4544.57 527.69 4535.22 527.097C4532.59 526.847 4530.05 525.999 4527.84 524.625C4525.69 523.11 4523.02 522.439 4520.36 522.753C4517.71 523.066 4515.29 524.338 4513.6 526.306C4512.66 527.196 4511.52 527.888 4510.58 528.778C4508.79 530.624 4507.61 532.936 4507.21 535.419C4506.8 537.902 4507.18 540.444 4508.29 542.722C4510.43 545.913 4512.95 548.866 4515.78 551.523C4518.54 554.411 4522.17 556.414 4526.17 557.259C4531.18 558.888 4535.96 561.079 4540.42 563.786C4542.82 564.851 4545.38 565.584 4548 565.961C4554.61 566.604 4561.26 566.604 4567.86 565.961C4571.83 565.48 4575.7 564.377 4579.29 562.698C4580.96 561.924 4582.82 561.615 4584.66 561.807C4586.5 562 4588.24 562.686 4589.69 563.786C4592.91 566.06 4595.72 568.829 4598.84 571.103C4601.79 573.515 4605.39 575.091 4609.23 575.653C4614.54 576.246 4619.63 576.543 4625.14 576.74C4630.45 577.021 4635.56 578.812 4639.8 581.883C4644.06 584.953 4649.21 586.712 4654.56 586.926C4659.86 586.926 4664.95 586.926 4670.46 587.717C4675.78 588.367 4680.73 590.62 4684.6 594.145C4689.77 598.094 4693.83 603.187 4696.45 608.979C4696.34 610.192 4695.97 611.371 4695.36 612.443C4694.75 613.514 4693.92 614.456 4692.92 615.209C4691.76 615.821 4690.49 616.192 4689.17 616.297C4679.87 617.023 4670.54 617.254 4661.21 616.989C4650.82 616.989 4640.42 616.989 4629.3 616.989C4621.28 617.424 4613.37 615.068 4607.05 610.363C4603.79 608.118 4599.94 606.783 4595.93 606.507C4590.73 605.913 4585.53 605.715 4580.02 605.518C4576.04 605.221 4572.18 604.108 4568.69 602.254C4567.55 601.76 4566.61 600.771 4565.47 600.178C4562.04 598.191 4558.15 597.037 4554.14 596.815H4510.27H4478.36C4473.05 596.663 4467.88 595.16 4463.39 592.464C4458.85 589.794 4453.65 588.326 4448.31 588.212H4416.4C4408.39 588.212 4400.39 588.212 4392.39 588.212C4388.53 588.135 4384.84 586.73 4381.99 584.256C4380.99 583.443 4379.91 582.715 4378.77 582.081C4374.82 579.701 4370.26 578.397 4365.59 578.31C4360.91 578.223 4356.3 579.356 4352.26 581.586C4349.88 583.793 4347.07 585.531 4343.98 586.702C4340.9 587.873 4337.6 588.453 4334.28 588.409H4322.32C4317.01 588.518 4311.85 590.175 4307.56 593.156C4305.42 594.734 4302.87 595.725 4300.18 596.024C4296.24 596.619 4292.2 595.809 4288.85 593.75C4284.06 590.287 4278.23 588.364 4272.21 588.257C4266.2 588.151 4260.3 589.866 4255.38 593.156C4250.82 595.775 4245.63 597.239 4240.3 597.409C4237.66 597.505 4235.04 597.904 4232.5 598.595C4229.95 599.264 4227.58 600.444 4225.54 602.056C4222.58 604.605 4219.93 607.458 4217.64 610.561C4216.27 612.69 4215.55 615.137 4215.55 617.632C4215.55 620.127 4216.27 622.574 4217.64 624.703C4220.08 627.702 4222.95 630.364 4226.16 632.614C4228.29 634.146 4230.8 635.134 4233.44 635.482C4238.74 635.482 4243.84 636.372 4249.35 636.471C4256.04 636.517 4262.52 638.712 4267.75 642.701C4270.87 645.053 4274.68 646.434 4278.66 646.657C4287.96 647.596 4297.33 647.596 4306.62 646.657C4310.5 646.285 4314.16 644.723 4317.02 642.206C4319.95 639.591 4323.52 637.721 4327.42 636.767C4331.29 635.771 4335.05 634.413 4338.64 632.713C4340.22 631.845 4342.02 631.388 4343.84 631.388C4345.67 631.388 4347.46 631.845 4349.04 632.713C4350.07 633.505 4351.23 634.139 4352.47 634.592C4360.25 636.428 4367.55 639.797 4373.88 644.481C4376.14 645.817 4378.83 646.36 4381.46 646.017C4384.1 645.674 4386.53 644.466 4388.33 642.602C4393.05 638.149 4398.13 634.049 4403.51 630.34C4405.68 628.881 4408.24 628.025 4410.89 627.867C4421.5 626.928 4432.19 626.928 4442.8 627.867C4446.79 628.255 4450.48 630.013 4453.2 632.812C4456.94 636.372 4461 639.635 4465.05 642.701C4467.68 644.635 4470.97 645.599 4474.29 645.418C4477.61 645.236 4480.75 643.92 4483.14 641.712C4485.11 640.031 4486.88 638.053 4488.85 636.372C4490.69 634.557 4492.64 632.84 4494.68 631.229C4497.83 628.876 4501.69 627.557 4505.7 627.472H4521.6C4525.59 627.65 4529.5 628.663 4533.04 630.438C4539.53 634.902 4547.38 637.229 4555.39 637.064C4557.99 637.581 4560.53 638.343 4562.97 639.339C4570.2 645.036 4579.27 648.18 4588.65 648.239C4591.28 648.543 4593.76 649.536 4595.82 651.107C4598.9 653.501 4602.43 655.313 4606.22 656.447C4611.4 657.528 4616.26 659.69 4620.46 662.776C4622.57 664.331 4624.97 665.505 4627.53 666.237C4628.82 666.533 4630.08 666.964 4631.27 667.522C4632.92 668.555 4634.32 669.908 4635.38 671.494C4636.43 673.079 4637.13 674.861 4637.41 676.72C4637.06 678.568 4636.32 680.328 4635.22 681.893C4634.13 683.458 4632.72 684.793 4631.06 685.817C4627.38 686.933 4623.89 688.53 4620.67 690.564C4616.54 693.808 4611.46 695.744 4606.12 696.102C4602.14 696.135 4598.19 696.667 4594.37 697.684C4593.07 697.953 4591.83 698.456 4590.73 699.168C4582.62 705.694 4576.18 713.803 4567.34 719.737C4562.87 722.704 4560.38 723.099 4556.95 720.726C4553.12 717.23 4548.82 714.237 4544.16 711.826C4542.94 711.365 4541.62 711.171 4540.3 711.257C4538.99 711.342 4537.72 711.705 4536.57 712.32C4534.29 713.624 4532.13 715.113 4530.12 716.77C4527.11 719.144 4524.3 722.011 4521.08 724.088C4518.69 725.202 4515.97 725.483 4513.39 724.879C4512.05 724.776 4510.77 724.324 4509.69 723.574C4508.61 722.824 4507.77 721.804 4507.25 720.627C4506.34 718.963 4505.87 717.114 4505.87 715.238C4505.87 713.361 4506.34 711.512 4507.25 709.848C4511.52 705.002 4515.78 699.959 4520.14 695.41C4521.51 694.018 4522.56 692.384 4523.26 690.603C4523.96 688.821 4524.28 686.926 4524.2 685.026C4524.51 682.53 4524.51 680.007 4524.2 677.511C4523.16 671.874 4520.35 667.621 4514.53 667.621C4510.61 666.977 4506.6 666.977 4502.68 667.621C4500.04 668.027 4497.54 669.046 4495.4 670.588C4488.75 676.72 4482.2 683.048 4475.55 689.279C4471.79 692.876 4467.03 695.38 4461.83 696.498C4458.06 697.599 4454.54 699.342 4451.43 701.64C4448.74 703.49 4445.5 704.486 4442.18 704.486C4438.86 704.486 4435.62 703.49 4432.93 701.64C4430.69 700.287 4428.36 699.065 4425.96 697.981C4424.19 697.138 4422.21 696.74 4420.23 696.827C4418.25 696.913 4416.32 697.481 4414.63 698.475C4413.49 699.069 4412.45 699.86 4411.31 700.552C4405.74 704.102 4399.06 705.709 4392.39 705.101C4388.41 705.078 4384.53 703.906 4381.26 701.739C4378.07 699.47 4374.42 697.837 4370.54 696.936C4366.67 696.036 4362.64 695.887 4358.7 696.498C4356.04 696.605 4353.47 697.466 4351.33 698.97C4344.9 703.545 4336.99 705.853 4328.97 705.497H4273.05C4270.45 705.497 4267.85 704.804 4265.15 704.607C4262.52 704.263 4260.08 703.111 4258.2 701.326C4256.32 699.54 4255.11 697.219 4254.75 694.717C4254.1 688.433 4255.18 682.096 4257.87 676.324C4258.33 675.12 4258.46 673.823 4258.24 672.558C4258.02 671.294 4257.45 670.106 4256.61 669.109C4255.76 668.113 4254.65 667.343 4253.4 666.874C4252.14 666.406 4250.78 666.254 4249.45 666.435C4246.84 666.551 4244.23 666.816 4241.65 667.226C4240.31 667.32 4239.01 667.765 4237.91 668.511C4230.01 675.335 4222.42 682.356 4214.42 688.982C4211.61 691.355 4208.39 693.729 4204.02 690.861C4197.26 686.609 4188.64 686.609 4181.98 682.257C4180.43 681.229 4178.55 680.737 4176.66 680.863C4174.77 680.988 4172.98 681.725 4171.59 682.95C4168.35 685.172 4165.3 687.618 4162.44 690.268C4155.68 696.399 4149.13 702.629 4142.58 708.859L4131.36 719.638C4127.43 723.08 4122.35 725.078 4117.01 725.275C4110.35 725.996 4103.66 724.262 4098.3 720.429C4095 718.253 4091.17 716.894 4087.18 716.474C4084.58 716.474 4081.88 715.979 4079.28 715.584C4075.36 715.007 4071.72 713.279 4068.88 710.639C4066.02 708.025 4063.44 705.143 4061.19 702.036C4060.13 700.462 4059.49 698.667 4059.33 696.806C4059.17 694.945 4059.48 693.073 4060.25 691.355C4061.24 688.985 4062.57 686.755 4064.2 684.73C4065.96 682.061 4067.14 679.086 4067.67 675.979C4068.21 672.872 4068.09 669.695 4067.32 666.632C4067.02 664.22 4065.79 662 4063.87 660.395C4061.95 658.79 4059.48 657.912 4056.93 657.93C4055.62 657.998 4054.33 658.231 4053.08 658.622C4048.61 661.354 4043.88 663.672 4038.94 665.545C4033.9 667.019 4029.16 669.293 4024.91 672.269C4022.66 673.627 4020.12 674.483 4017.47 674.774C4014.83 675.066 4012.14 674.784 4009.63 673.951L4005.89 672.764C3979.07 667.423 3990.29 646.558 3986.14 631.328C3983.33 621.439 3998.71 596.222 3966.7 604.43L3964.83 615.704C3964.49 618.192 3963.63 620.592 3962.31 622.765C3960.99 624.938 3959.23 626.84 3957.13 628.362L3954.12 630.834C3950.42 633.52 3946.03 635.228 3941.42 635.784C3936.8 636.339 3932.1 635.724 3927.82 633.998C3925.33 633.092 3922.98 631.861 3920.85 630.34C3917.44 628.358 3913.52 627.299 3909.52 627.274C3900.27 627.274 3890.91 627.274 3881.66 627.274H3798.5C3794.53 627.107 3790.58 626.744 3786.65 626.186C3785.39 625.86 3784.22 625.283 3783.22 624.492C3782.21 623.702 3781.4 622.717 3780.83 621.602C3780.26 620.488 3779.94 619.271 3779.91 618.032C3779.87 616.793 3780.11 615.561 3780.62 614.418C3783.01 610.067 3785.4 608.089 3789.35 607.792C3793.3 607.496 3799.75 606.902 3805.25 606.704C3811.95 606.421 3818.25 603.652 3822.82 598.991C3823.71 598.052 3824.65 597.161 3825.63 596.321C3827.89 594.03 3829.15 591.006 3829.15 587.866C3829.15 584.725 3827.89 581.702 3825.63 579.411C3823.78 577.632 3821.8 575.979 3819.7 574.466C3818.21 573.17 3816.3 572.388 3814.29 572.245C3812.27 572.101 3810.26 572.605 3808.58 573.675C3803.99 576.197 3798.81 577.59 3793.51 577.729C3788.22 578.214 3783.08 579.622 3778.33 581.883C3771.99 584.652 3771.78 584.751 3767.31 581.883C3762.78 579.196 3757.58 577.695 3752.24 577.532C3742.99 577.532 3733.63 577.532 3724.38 577.532C3715.13 577.532 3708.37 577.532 3700.47 577.532C3695.13 577.548 3689.92 576.031 3685.5 573.18C3682.45 570.714 3678.59 569.36 3674.59 569.36C3670.59 569.36 3666.72 570.714 3663.67 573.18C3659.37 576.206 3654.16 577.836 3648.81 577.828C3636.85 577.828 3624.9 578.323 3613.04 578.718C3609.03 578.986 3605.16 580.247 3601.82 582.377C3600.67 583.029 3599.5 583.623 3598.28 584.157C3595.89 585.542 3593.71 584.948 3591.84 582.278C3588.3 575.751 3570.22 583.465 3576.04 567.741C3577.88 564.961 3580.67 562.866 3583.94 561.808C3586.36 560.768 3588.91 560.005 3591.53 559.533C3599.53 559.552 3607.34 557.202 3613.88 552.809C3617.09 550.524 3620.99 549.277 3625 549.249C3630.3 549.249 3635.4 548.655 3640.91 548.359C3644.89 547.944 3648.7 546.621 3652.03 544.502C3653.17 543.909 3654.11 542.92 3655.25 542.227C3658.64 540.243 3662.45 539 3666.41 538.59C3670.36 538.179 3674.36 538.611 3678.12 539.854C3680.64 540.699 3683.11 541.689 3685.5 542.821C3689.76 544.403 3689.87 544.601 3695.9 541.535C3702.09 539.281 3708.61 537.979 3715.23 537.679C3719.08 536.997 3722.67 535.36 3725.63 532.932L3728.43 530.262C3732.29 526.723 3734.56 521.905 3734.78 516.812C3734.91 513.016 3734.31 509.228 3733.01 505.638C3731.88 504.036 3730.32 502.758 3728.49 501.939C3726.66 501.12 3724.63 500.791 3722.61 500.99C3720.04 501.451 3717.57 502.356 3715.34 503.66C3709.64 507.025 3703.02 508.711 3696.31 508.506H3664.4C3654 508.506 3643.61 508.506 3632.48 508.506C3627.84 508.046 3623.14 508.483 3618.67 509.792C3614.21 511.1 3610.07 513.253 3606.5 516.12C3603.1 518.125 3599.16 519.155 3595.17 519.087C3591.21 519.087 3587.16 519.087 3583.21 519.087C3575.21 519.087 3567.31 519.087 3559.3 519.087C3549.97 518.806 3540.76 521.219 3532.9 526.009C3531.12 526.839 3529.16 527.27 3527.18 527.27C3525.2 527.27 3523.24 526.839 3521.46 526.009C3520.27 525.481 3519.16 524.817 3518.14 524.032C3513.69 521.174 3508.52 519.5 3503.17 519.186C3491.22 518.543 3479.25 518.543 3467.3 519.186C3463.35 519.451 3459.51 520.567 3456.08 522.449C3453.68 523.636 3451.81 525.515 3449.42 526.504C3444.53 528.383 3439.03 529.866 3434.45 531.646C3429.88 533.426 3428.63 533.723 3419.9 530.558C3416.18 529.169 3412.25 528.4 3408.26 528.284C3401.6 528.192 3395.16 526.078 3389.86 522.252C3388.77 521.473 3387.59 520.84 3386.32 520.373C3385.12 519.937 3383.86 519.638 3382.58 519.482C3375.93 518.988 3369.27 518.494 3362.62 518.197C3357.28 517.84 3352.29 515.538 3348.69 511.769C3345.61 509.307 3341.69 508.005 3337.67 508.11C3331.06 507.223 3324.34 508.741 3318.86 512.362C3315.11 515.033 3312.62 514.241 3308.46 510.78C3304.3 507.319 3303.26 504.253 3304.3 500.891C3306.36 496.241 3310.03 492.401 3314.7 490.013C3315.92 489.552 3317.23 489.349 3318.54 489.42C3323.84 489.42 3328.94 488.826 3334.45 488.727H3390.38C3399.72 488.223 3408.99 490.618 3416.78 495.551C3418.52 496.451 3420.47 496.922 3422.45 496.922C3424.42 496.922 3426.37 496.451 3428.11 495.551C3430.5 494.463 3432.89 493.375 3435.18 492.09C3438.63 490.176 3442.52 489.09 3446.51 488.925L3494.33 487.936C3497.03 487.966 3499.67 487.13 3501.82 485.563C3502.85 484.87 3504.1 484.376 3505.14 483.585C3510.46 479.703 3516.95 477.553 3523.65 477.454C3529.03 477.199 3534.1 474.965 3537.78 471.224C3538.74 470.349 3539.64 469.425 3540.49 468.455C3541.23 467.842 3541.83 467.083 3542.24 466.23C3542.66 465.376 3542.87 464.449 3542.87 463.51C3542.87 462.572 3542.66 461.644 3542.24 460.79C3541.83 459.937 3541.23 459.178 3540.49 458.566L3534.77 453.324C3532.79 451.647 3530.32 450.571 3527.69 450.236C3525.06 449.901 3522.38 450.323 3520.01 451.445C3512.64 457.005 3503.27 459.596 3493.92 458.664H3489.96C3484.61 458.709 3479.37 457.153 3475 454.214C3470.74 451.17 3465.65 449.351 3460.34 448.973C3457.63 448.973 3455.04 448.973 3452.33 448.973C3444.3 449.081 3436.45 446.684 3429.98 442.15C3427.87 440.633 3425.34 439.708 3422.71 439.479C3420 439.479 3417.41 438.886 3414.7 438.886H3342.97C3337.6 438.96 3332.45 440.934 3328.52 444.424C3323.64 448.676 3318.86 453.027 3313.87 457.082C3312.69 457.702 3311.36 458.009 3310.02 457.972C3308.05 458.127 3306.08 457.743 3304.33 456.867C3302.58 455.992 3301.13 454.66 3300.14 453.028C3298.92 449.447 3299.18 445.554 3300.87 442.15C3303.32 439.164 3305.99 436.354 3308.88 433.744C3312.41 429.986 3315.95 426.228 3319.27 422.668C3322.17 420.063 3324.4 416.867 3325.8 413.32C3327.21 409.774 3327.75 405.971 3327.38 402.198C3327.36 399.66 3326.79 397.154 3325.7 394.839C3324.6 392.523 3323.02 390.449 3321.04 388.749L3315.95 382.914C3310.3 375.83 3302.44 370.636 3293.49 368.08C3289.96 367.289 3289.02 366.004 3286.42 359.675C3285.58 357.298 3284.03 355.204 3281.96 353.643C3279.9 352.082 3277.41 351.121 3274.78 350.873L3266.88 349.686C3263.03 349.213 3259.41 347.664 3256.48 345.236C3243.18 332.875 3229.56 320.81 3216.77 307.954C3209.5 300.538 3201.6 293.813 3193.8 286.989C3189.9 283.533 3185.2 280.993 3180.08 279.573C3177.58 278.796 3175.3 277.475 3173.42 275.716C3170.41 273.046 3167.4 270.573 3164.28 268.299C3161.92 266.028 3159.07 264.269 3155.93 263.143C3152.79 262.016 3149.43 261.549 3146.09 261.772C3139.41 261.392 3133.17 258.512 3128.73 253.762C3125.92 251.092 3122.7 248.817 3119.89 246.147C3117.12 243.466 3113.43 241.817 3109.49 241.499C3100.14 241.499 3090.89 240.906 3081.53 241.499C3072.22 242.098 3062.95 239.808 3055.13 234.973C3052.85 233.679 3050.35 232.775 3047.75 232.303C3042.81 230.474 3038.16 228.012 3033.92 224.985C3029.24 222.611 3024.25 220.93 3019.37 218.952C3013.3 214.222 3006.19 210.843 2998.58 209.063C2991.82 206.393 2991.71 205.899 2983.5 209.063C2981.09 210.2 2978.49 210.904 2975.81 211.14L2947.95 211.634C2941.3 211.634 2934.64 211.634 2927.99 211.634C2922.66 211.918 2917.52 213.594 2913.12 216.48C2904.91 221.425 2903.98 221.622 2898.57 221.82C2893.17 222.018 2885.37 222.315 2878.72 222.315C2872.01 222.307 2865.49 224.353 2860.11 228.149C2856.83 230.292 2852.97 231.494 2848.99 231.61C2843.68 231.61 2838.59 231.61 2832.98 232.401C2828.99 232.494 2825.11 233.622 2821.75 235.665C2819.58 237.133 2817.25 238.361 2814.79 239.324C2808.32 240.785 2802.3 243.663 2797.22 247.73C2792.43 249.806 2787.44 251.685 2782.77 254.059C2777.54 257.891 2771.57 260.713 2765.2 262.365C2762.85 263.531 2760.59 264.853 2758.44 266.321C2755.25 268.599 2752.2 271.042 2749.29 273.639C2744.49 278.064 2738.1 280.576 2731.42 280.66C2728.09 280.787 2724.82 281.574 2721.83 282.971C2718.84 284.367 2716.19 286.342 2714.05 288.769C2712.29 290.648 2710.31 292.33 2708.54 294.307C2707.66 295.243 2707.02 296.36 2706.67 297.571C2704.99 303.679 2701.61 309.245 2696.9 313.69C2693.16 317.25 2689.73 321.206 2685.88 324.667C2683.03 327.403 2679.43 329.321 2675.49 330.205C2670.31 331.329 2665.56 333.793 2661.76 337.325C2659.02 340.113 2655.78 342.422 2652.2 344.149C2651.01 344.665 2649.72 344.932 2648.41 344.932C2647.1 344.932 2645.8 344.665 2644.61 344.149C2639.92 341.84 2635.02 339.952 2629.96 338.512C2627.36 337.89 2624.97 336.667 2622.99 334.952C2618.66 331.986 2613.46 330.394 2608.13 330.403C2592.12 329.71 2576.21 330.403 2560.2 329.612C2557.53 329.506 2554.98 328.567 2552.92 326.942C2548.97 323.678 2544.71 320.514 2540.97 317.052C2533.28 309.932 2526 302.614 2518.41 295.494C2515.49 292.936 2512.4 290.558 2509.16 288.374C2507.49 287.373 2505.63 286.707 2503.68 286.418C2501.73 286.129 2499.74 286.223 2497.83 286.693C2492.15 290.047 2485.47 291.573 2478.81 291.044C2468.41 291.044 2458.02 291.044 2446.89 291.044C2442.93 291.009 2438.96 291.273 2435.04 291.835C2431.13 292.255 2427.48 293.888 2424.65 296.483C2422.78 298.263 2420.69 299.746 2418.72 301.428C2415.17 305.266 2410.51 308.018 2405.31 309.339C2400.24 310.854 2395.66 313.577 2392.01 317.25C2389.3 320.019 2386.39 322.59 2383.48 325.161C2380.63 327.648 2376.95 329.116 2373.09 329.315C2363.84 329.809 2354.48 329.908 2345.23 330.403C2341.2 330.423 2337.26 331.557 2333.9 333.666C2331.8 335.231 2329.49 336.527 2327.03 337.523C2320.73 339.403 2314.76 342.205 2309.36 345.83C2306.08 348.039 2302.15 349.215 2298.13 349.192L2274.23 350.181C2268.88 350.187 2263.67 351.815 2259.36 354.829C2254.95 357.654 2249.81 359.262 2244.5 359.477H2204.58C2197.89 359.692 2191.32 357.816 2185.87 354.137C2181.41 351.328 2176.13 349.943 2170.79 350.181C2166.8 350.2 2162.87 351.044 2159.25 352.653C2154.87 355.464 2150.16 357.787 2145.22 359.576C2140.17 361.137 2135.37 363.367 2130.98 366.201C2128.63 367.383 2126.04 368.09 2123.39 368.278C2112.82 369.317 2102.15 369.317 2091.58 368.278C2088.95 367.886 2086.45 366.903 2084.3 365.41C2075.05 358.29 2067.77 348.994 2058.11 342.171C2056.41 341.219 2054.51 340.637 2052.56 340.466C2050.6 340.295 2048.62 340.539 2046.77 341.182C2044.42 342.297 2042.22 343.693 2040.23 345.335C2036.89 347.419 2033.11 348.783 2029.16 349.329C2025.21 349.876 2021.18 349.593 2017.35 348.5C2016.01 348.249 2014.76 347.67 2013.72 346.818C2001.04 335.842 1988.15 324.865 1976.09 313.097C1973.78 311.935 1971.34 311.039 1968.81 310.427C1963.51 309.833 1958.42 309.932 1952.91 309.438C1947.4 308.943 1945.01 308.35 1941.05 307.855C1939.57 306.749 1937.74 306.147 1935.86 306.147C1933.97 306.147 1932.14 306.749 1930.66 307.855C1928.9 309.738 1927.46 311.874 1926.4 314.185L1917.67 326.843C1916.94 331.787 1916.42 336.732 1915.27 341.775C1914.62 344.197 1913.49 346.478 1911.95 348.5C1910.49 350.576 1908.31 352.257 1906.75 354.235C1905.46 355.695 1903.87 356.894 1902.09 357.761C1900.3 358.627 1898.35 359.143 1896.35 359.279C1887.09 360.122 1877.79 360.419 1868.5 360.169C1864.51 359.971 1860.52 359.971 1856.54 360.169C1852.55 360.395 1848.68 361.586 1845.31 363.63C1839.83 367.24 1833.26 369.045 1826.6 368.772H1822.55C1814.55 369.35 1806.58 367.29 1799.99 362.938C1796.55 360.949 1792.58 359.953 1788.55 360.07C1780.65 360.07 1772.65 360.07 1764.65 360.07H1756.74C1750.04 360.077 1743.52 358.031 1738.14 354.235C1735.93 352.82 1733.36 352.008 1730.7 351.886C1728.04 351.763 1725.4 352.337 1723.06 353.543C1719.42 355.026 1716.1 357.301 1712.67 358.686C1710.18 359.523 1707.46 359.523 1704.98 358.686C1703.69 358.315 1702.49 357.711 1701.44 356.906C1697.25 353.794 1692.5 351.446 1687.41 349.983C1683.59 348.848 1680.06 346.999 1677.01 344.544C1673.94 342.08 1670.11 340.624 1666.1 340.391C1659.51 339.601 1652.83 339.601 1646.24 340.391C1642.32 340.749 1638.64 342.392 1635.85 345.038C1634.85 345.907 1633.73 346.639 1632.52 347.214C1630.23 348.431 1627.56 348.831 1624.99 348.341C1622.41 347.852 1620.11 346.506 1618.49 344.544C1616.09 341.38 1615.47 337.523 1613.29 334.655C1611.1 331.787 1608.51 328.623 1606.53 325.359C1605.48 323.06 1604.65 320.677 1604.04 318.239C1603.01 314.415 1600.8 310.97 1597.69 308.35C1595.82 306.768 1593.64 305.284 1591.56 303.702C1587.78 304.819 1584.26 306.597 1581.17 308.943C1580.1 309.655 1579.09 310.449 1578.15 311.317C1562.97 327.337 1546.13 341.676 1530.12 356.906C1526.64 358.727 1522.6 359.356 1518.69 358.686C1515.16 356.905 1511.83 354.829 1508.29 353.148C1504.7 351.491 1500.75 350.645 1496.76 350.675C1491.42 350.365 1486.16 351.951 1481.99 355.125C1474.92 360.96 1467.96 366.696 1461.2 372.827C1458.34 375.636 1454.76 377.682 1450.81 378.76C1445.78 380.362 1440.91 382.381 1436.26 384.793C1431.47 386.968 1428.77 384.002 1425.86 381.529C1419.41 375.139 1412.46 369.222 1405.07 363.828C1402.9 362.411 1400.37 361.557 1397.75 361.349C1395.12 361.141 1392.49 361.586 1390.1 362.641C1388.94 363.252 1387.86 363.981 1386.88 364.817C1383.51 366.882 1379.74 368.272 1375.79 368.901C1371.84 369.531 1367.79 369.386 1363.9 368.476C1361.3 367.993 1358.84 366.943 1356.73 365.41C1353.56 363.113 1350.61 360.566 1347.9 357.796C1344.06 354.31 1339.49 351.646 1334.48 349.983C1329.31 348.639 1324.73 345.764 1321.39 341.775C1319.51 340.094 1317.43 338.413 1315.56 336.633C1312.86 333.829 1309.18 332.053 1305.2 331.634C1301.23 331.216 1297.23 332.184 1293.94 334.358C1289.72 337.456 1284.61 339.251 1279.28 339.501H1275.23C1269.87 339.741 1264.77 341.732 1260.78 345.137C1257.55 347.326 1253.8 348.719 1249.87 349.192C1245.9 349.587 1241.9 349.785 1237.91 349.785H1217.95C1211.26 349.772 1204.65 351.192 1198.62 353.939C1196.79 354.655 1194.81 354.948 1192.84 354.793C1190.87 354.638 1188.97 354.04 1187.29 353.049C1183.74 351.286 1179.66 350.756 1175.75 351.551C1171.84 352.345 1168.35 354.414 1165.87 357.4L1151.32 370.355C1146.64 374.805 1142.07 379.453 1137.18 383.705C1134.24 386.343 1130.67 388.275 1126.78 389.342C1122.96 390.145 1119.4 391.806 1116.39 394.187C1113.4 396.453 1109.79 397.86 1105.99 398.242C1099.35 398.835 1092.67 398.835 1086.03 398.242C1083.38 398.163 1080.81 397.337 1078.65 395.868C1072.14 391.407 1064.22 389.176 1056.2 389.54C1045.81 389.54 1034.89 389.54 1024.29 389.54C1020.28 389.573 1016.37 390.744 1013.06 392.902C1011.93 393.568 1010.65 393.962 1009.33 394.048C1008.01 394.134 1006.68 393.91 1005.47 393.396C1002.98 392.605 1000.59 391.418 998.091 390.726C990.433 388.407 982.165 388.687 974.7 391.517C972.564 392.986 970.071 393.919 967.454 394.23C964.837 394.541 962.183 394.221 959.732 393.297C957.833 392.778 955.835 392.678 953.89 393.003C951.945 393.329 950.103 394.072 948.505 395.176C945.126 397.225 941.177 398.258 937.173 398.143C930.515 398.306 923.964 399.788 917.941 402.494C916.099 403.155 914.111 403.356 912.163 403.079C910.216 402.802 908.378 402.056 906.82 400.912C904.509 399.646 901.896 398.966 899.23 398.934C889.978 398.934 880.622 398.44 871.37 398.242C864.718 398.242 858.064 398.242 851.411 398.242C846.114 398.026 840.962 396.528 836.443 393.891C832.155 390.783 826.859 389.208 821.474 389.441H813.573C806.894 389.019 800.261 390.762 794.757 394.385C792.044 396.249 788.816 397.317 785.472 397.457C782.128 397.598 778.816 396.805 775.941 395.176L753.072 374.211C751.128 372.481 748.837 371.143 746.337 370.276C743.837 369.409 741.175 369.032 738.517 369.168C735.197 368.825 731.839 369.248 728.726 370.401C725.613 371.554 722.839 373.404 720.638 375.794L711.905 383.606C708.06 387.067 704.214 390.627 700.575 394.187C697.657 396.549 694.005 397.938 690.179 398.143C688.864 398.245 687.544 398.245 686.23 398.143C637.06 398.143 587.888 398.736 538.614 398.143C534.65 397.836 530.794 396.759 527.284 394.978C526.114 394.379 525.001 393.685 523.958 392.902C520.558 390.947 516.698 389.826 512.73 389.638C503.374 389.144 494.122 388.946 484.87 388.452C480.945 388.25 477.238 386.664 474.476 384.002C458.466 368.871 441.626 354.334 426.448 338.611C421.919 333.972 417.017 329.674 411.79 325.755C408.118 323.022 403.757 321.254 399.142 320.63C394.527 320.005 389.82 320.545 385.491 322.195C382.982 323.058 380.632 324.293 378.527 325.854C375.161 327.963 371.224 329.097 367.195 329.117C351.29 329.611 335.281 329.71 319.376 330.106C315.366 330.397 311.519 331.732 308.253 333.963C307.202 334.7 306.197 335.492 305.24 336.336C302.224 338.808 299.105 341.182 296.298 343.852C294.441 345.7 292.167 347.12 289.646 348.005C283.382 350.234 277.626 353.592 272.7 357.894C268.749 361.257 264.384 364.223 260.122 367.19C258.892 367.659 257.597 367.959 256.277 368.08C254.976 368.342 253.656 368.507 252.327 368.575C229.769 368.575 207.107 369.267 184.548 368.575C181.9 368.251 179.288 367.688 176.751 366.893C168.228 360.663 156.999 359.576 148.579 353.148C142.605 350.232 135.677 349.629 129.245 351.466C127.325 351.866 125.566 352.775 124.167 354.088C122.769 355.4 121.788 357.063 121.343 358.883C120.515 363.855 120.099 368.881 120.097 373.915C120.097 378.958 118.019 383.013 115.628 383.309C111.697 383.127 107.982 381.538 105.232 378.859L95.8762 371.838C93.763 370.285 91.1653 369.45 88.4954 369.465H48.5755C32.6712 369.465 16.6614 369.465 0.757098 368.772V1828.7L20789.2 1828.7V281.649C20761.5 251.982 20726.1 248.224 20694.1 253.861C20707.2 212.92 20760.4 225.281 20789.2 198.284V129.95C20785.5 128.778 20781.6 128.047 20777.7 127.775C20752.4 127.082 20727.2 127.775 20701.9 127.775C20695.2 127.693 20688.7 129.594 20683.2 133.214C20679.9 135.462 20676.1 136.767 20672.1 136.972C20662.8 137.762 20653.5 137.762 20644.2 136.972C20640.3 136.254 20636.6 134.809 20633.3 132.719C20624.3 127.775 20622.9 127.577 20618.6 127.478C20600 126.687 20581.4 126.687 20562.8 127.478C20558.8 127.837 20555 128.911 20551.5 130.643C20546.4 134.816 20539.9 137.069 20533.2 136.972C20527.9 137.105 20522.7 138.426 20518 140.828C20516.9 141.521 20515.7 142.608 20514.6 142.707C20513.2 142.622 20512 142.25 20510.8 141.619C20504.8 138.869 20498.3 137.257 20491.7 136.873C20486.4 136.903 20481.2 135.232 20476.9 132.126C20475.9 131.37 20474.7 130.739 20473.5 130.247C20469.4 128.196 20464.8 127.2 20460.1 127.356C20455.5 127.512 20451 128.815 20447 131.137L20443.6 133.115C20440.3 135.273 20436.3 136.443 20432.3 136.477C20420.4 136.972 20408.4 136.971 20396.4 137.268C20392.4 137.452 20388.5 138.289 20384.8 139.74C20379.9 143.597 20375.1 141.52 20370.2 139.74C20367.2 138.368 20363.8 137.817 20360.5 138.149C20357.2 138.481 20354.1 139.683 20351.5 141.619C20348.3 144.015 20344.5 145.37 20340.4 145.476C20328.5 145.476 20316.5 146.168 20304.6 146.366C20299.2 146.402 20294 147.989 20289.6 150.915C20283.9 154.123 20277.3 155.797 20270.7 155.761H20254.7H20190.9C20185.6 155.761 20180.5 156.354 20174.9 156.651C20172.3 156.806 20169.7 157.777 20167.7 159.42C20162.6 163.583 20156.3 166.019 20149.6 166.342C20142.9 166.571 20136.5 168.747 20131.2 172.572C20128.9 173.986 20126.4 174.961 20123.8 175.44C20118.7 176.78 20113.9 178.991 20109.6 181.967C20107.3 183.238 20104.7 184.014 20102.1 184.241C20092.8 185.032 20083.5 185.032 20074.2 184.241C20070.2 184.084 20066.4 182.96 20063 180.978C20057.4 177.451 20050.9 175.528 20044.3 175.44C20029.6 175.44 20015 175.44 20000.3 175.44C19991 174.9 19981.7 177.26 19973.9 182.165C19970.4 183.968 19966.4 184.727 19962.5 184.34C19957.1 184.496 19951.9 183.192 19947.3 180.583L19943.8 178.803C19941.6 177.395 19939 176.644 19936.3 176.644C19933.7 176.644 19931.1 177.395 19928.9 178.803C19922.2 183.009 19914.3 185.181 19906.2 185.033C19895.6 184.654 19885 184.918 19874.4 185.824C19870.6 186.331 19866.9 187.914 19864 190.373C19859.9 193.72 19854.8 195.608 19849.4 195.713C19841.5 195.713 19833.5 196.207 19825.5 196.405C19821.5 196.415 19817.6 197.513 19814.2 199.57C19808.5 202.852 19802.5 205.475 19796.1 207.382C19791.3 209.162 19787.5 213.217 19782 213.909C19778.1 214.403 19774 214.7 19770.2 215.392C19766.1 215.893 19762.4 217.754 19759.8 220.634C19758 222.512 19756 224.295 19754 225.974C19749.6 230.701 19743.8 234.13 19737.4 235.863C19733.6 236.954 19730.1 238.697 19727 241.005C19723.7 243.069 19719.8 244.137 19715.8 244.071L19668 245.059C19665.3 245.113 19662.7 245.865 19660.4 247.235C19658.1 248.521 19655.7 249.609 19653.5 250.993C19651.2 252.335 19648.7 253.242 19646 253.663C19635.7 255.05 19625.2 255.05 19614.8 253.663C19611.1 252.917 19607.5 251.361 19604.5 249.114C19600 246.301 19594.8 244.789 19589.5 244.763H19529.6C19522.9 244.474 19516.4 246.396 19511 250.202C19507.8 252.465 19504 253.834 19500 254.158L19480.1 255.938C19477.5 256.166 19475 257.091 19472.8 258.608C19468.6 261.662 19463.9 264.004 19458.8 265.53C19455.1 266.7 19451.6 268.437 19448.4 270.672C19445.1 272.795 19441.2 273.931 19437.2 273.936H19409.2C19403.9 273.701 19398.6 274.268 19393.4 275.617C19389.8 277.074 19386.3 278.828 19383 280.858C19380.7 282.154 19378.1 282.869 19375.4 282.935C19367.5 282.935 19359.5 283.528 19351.5 283.528H19243.8C19233.4 283.528 19223 283.528 19211.9 283.528C19202.5 282.853 19193.3 285.692 19186 291.439C19182.4 293.005 19178.6 293.943 19174.6 294.208L19142.7 294.703C19137.4 294.985 19132.2 296.405 19127.6 298.856C19118.6 303.306 19117.8 303.405 19112.6 303.405H19072.7C19066.1 303.367 19059.5 302.055 19053.4 299.549C19049.2 297.966 19049.1 298.263 19042.4 300.538C19040 301.591 19037.4 302.323 19034.8 302.713C19028.1 303.208 19021.5 303.405 19014.8 303.504H18943.1C18939.1 303.797 18935.3 304.875 18931.8 306.669C18930.6 307.21 18929.4 307.873 18928.3 308.647C18925 310.756 18921 311.89 18917 311.91C18905.1 311.91 18893.1 311.91 18881.1 312.503H18865.1C18858.4 312.212 18851.8 314.095 18846.4 317.843C18841 321.578 18834.5 323.492 18827.8 323.282H18807.9H18799.8C18794.5 323.385 18789.3 324.891 18784.9 327.634C18780.4 330.388 18775.2 331.974 18769.9 332.235C18764.6 332.495 18759.3 331.42 18754.5 329.117C18752.9 328.102 18751 327.49 18749 327.335C18747 327.18 18745 327.486 18743.2 328.227C18738.5 330.632 18733.4 332.049 18728.1 332.38C18721.4 332.526 18714.9 334.519 18709.4 338.116C18706.1 340.226 18702.2 341.33 18698.2 341.281C18686.2 341.281 18674.2 341.281 18662.2 341.281C18658.2 341.268 18654.3 340.281 18650.8 338.413C18649.1 337.421 18647.2 336.832 18645.2 336.694C18643.2 336.556 18641.3 336.875 18639.4 337.622C18634.7 339.879 18629.5 341.191 18624.2 341.478H18596.3C18588.2 340.842 18580.2 343.218 18574 348.104C18570.5 349.976 18566.7 351.122 18562.7 351.466C18557.4 351.466 18552.3 351.467 18546.7 351.961H18518.9C18513.5 351.982 18508.2 353.645 18503.9 356.708C18498.1 359.84 18491.6 361.478 18485 361.454L18453.1 362.048C18451.7 362.203 18450.5 362.502 18449.2 362.938C18447.9 363.122 18446.6 363.524 18445.5 364.124C18438.9 368.549 18431.1 370.995 18423.1 371.146C18419.1 371.166 18415.2 372.571 18412.2 375.102C18409.4 377.673 18406.2 380.046 18403.3 382.617C18398.5 386.968 18393.7 391.319 18389 395.868C18386.1 398.338 18382.5 399.833 18378.6 400.121C18372 400.714 18365.3 400.714 18358.7 400.121C18356 399.979 18353.5 399.122 18351.3 397.649C18344.8 393.111 18336.9 390.903 18328.8 391.418H18320.8C18316.8 391.35 18312.9 392.38 18309.5 394.385C18302.8 398.655 18294.9 400.77 18286.8 400.418C18280.2 400.418 18273.6 400.417 18267 400.912C18264.3 400.997 18261.7 401.603 18259.3 402.692C18258 403.071 18256.8 403.638 18255.7 404.373C18250.2 407.876 18244.2 410.7 18238 412.779C18235.7 414.036 18233.5 415.423 18231.3 416.932C18228 419.058 18224.1 420.226 18220.1 420.295C18208.1 420.295 18196.2 420.987 18184.2 421.185C18180.2 421.348 18176.3 422.657 18173.1 424.942C18167.6 428.521 18161.1 430.387 18154.4 430.283C18149.1 430.05 18143.8 430.415 18138.6 431.371C18137.3 431.602 18136 432.001 18134.9 432.557C18128 436.462 18122.1 441.602 18117.3 447.688C18115.9 449.804 18114.8 452.149 18114.3 454.61C18113.8 455.834 18113.8 457.165 18114.3 458.386C18114.7 459.607 18115.6 460.646 18116.8 461.335C18117.8 462.1 18118.7 462.998 18119.5 464.005C18120.8 465.415 18122.4 466.549 18124.2 467.333C18126 468.116 18127.9 468.532 18129.9 468.553C18139.2 469.245 18148.5 469.245 18157.8 468.553C18161.8 468.651 18165.8 467.656 18169.2 465.686C18175.8 461.377 18183.7 459.257 18191.7 459.653C18205 459.653 18218.3 459.159 18231.6 460.247C18232.9 460.314 18234.2 460.744 18235.2 461.483C18236.2 462.223 18237 463.238 18237.5 464.4C18237.9 465.578 18238 466.85 18237.7 468.072C18237.4 469.295 18236.8 470.421 18235.9 471.322C18232.1 474.956 18228.6 478.893 18225.5 483.09C18224.3 485.304 18223.7 487.811 18223.9 490.31C18224 491.562 18224.4 492.784 18225.1 493.834C18225.8 494.884 18226.8 495.72 18228 496.243C18229.1 496.92 18230.3 497.39 18231.6 497.627C18238.2 498.221 18244.8 498.616 18251.5 498.913C18256.8 499.247 18261.8 501.388 18265.6 504.946C18266.7 505.785 18267.6 506.676 18268.5 507.616C18271.8 510.758 18274.1 514.758 18274.9 519.107C18275.8 523.456 18275.3 527.958 18273.5 532.042C18273.2 533.291 18272.6 534.445 18271.7 535.404C18268.8 537.989 18265.6 540.337 18262.3 542.425C18261.2 543.083 18259.9 543.432 18258.6 543.432C18257.3 543.432 18256 543.083 18254.9 542.425C18249.2 539.043 18242.6 537.419 18235.9 537.777C18230.6 537.564 18225.3 537.996 18220.1 539.063C18218.8 539.289 18217.5 539.796 18216.5 540.546C18212.5 543.908 18208.7 547.37 18205 551.029C18200.3 555.496 18195.3 559.659 18190.1 563.489C18186.8 565.761 18182.9 567.038 18178.9 567.148C18175 567.148 18171 567.148 18167 567.148C18160.3 566.97 18153.8 569.075 18148.6 573.081C18146.6 574.759 18144.1 575.796 18141.4 576.048C18134.8 576.641 18128.1 577.037 18121.6 577.729C18117.6 577.933 18113.8 579.316 18110.6 581.685L18101.7 589.3C18097 593.827 18090.6 596.448 18083.9 596.618C18072 596.618 18060 596.618 18048.1 597.607C18046.1 597.519 18044.1 597.965 18042.4 598.893C18040.7 599.821 18039.3 601.192 18038.4 602.848C18037.5 605.221 18036.4 607.496 18035.4 609.869C18032.5 615.58 18027.9 620.359 18022.2 623.615C18020 625.061 18017.4 625.947 18014.8 626.186C18008.2 626.928 18001.5 626.928 17994.9 626.186C17991.1 625.653 17987.5 624.112 17984.5 621.736C17980.5 618.571 17976.7 614.913 17972.8 611.847C17969.9 609.322 17966.3 607.789 17962.4 607.496C17955.7 607.496 17949.1 607.001 17942.5 607.001C17938.5 606.638 17934.5 607.056 17930.7 608.229C17926.9 609.403 17923.3 611.307 17920.3 613.825C17917.1 616.091 17913.2 617.336 17909.2 617.385C17899.9 617.978 17890.6 618.077 17881.3 618.571C17877.5 618.912 17873.9 620.362 17870.9 622.725C17868.9 624.411 17866.6 625.661 17864.1 626.384C17861.5 626.927 17858.9 627.791 17856.6 628.955C17854.1 629.977 17852.2 631.854 17851.2 634.196C17848.6 641.421 17844.2 647.962 17838.5 653.282L17824.7 666.929C17821.9 669.619 17820.2 673.092 17819.7 676.818C17818.6 683.048 17818.3 689.377 17817.7 695.706C17817.4 698.141 17816.1 700.386 17814.2 702.049C17812.3 703.711 17809.9 704.687 17807.3 704.805C17804.7 705.052 17802 705.052 17799.4 704.805C17796.7 704.492 17794.2 703.65 17791.9 702.332C17786.3 698.994 17781.2 694.897 17776.8 690.169C17774.9 688.451 17773.5 686.247 17772.9 683.813C17772.2 681.379 17772.3 678.816 17773.1 676.423C17774 674.049 17775.2 671.775 17775.9 669.401C17777.2 664.467 17777.2 659.304 17775.9 654.37C17775 652.706 17773.7 651.304 17772.1 650.325C17770.4 649.346 17768.5 648.828 17766.5 648.832C17763.9 649.061 17761.4 649.838 17759.2 651.107C17756 653.269 17752.5 654.999 17748.8 656.249C17743.6 657.457 17738.8 659.607 17734.5 662.578C17731.1 664.618 17727.2 665.682 17723.2 665.644H17703.2H17687.2C17683.3 665.987 17679.4 667.097 17675.9 668.907C17670.6 672.664 17664.7 675.632 17658.4 677.708C17654.1 680.519 17649.5 683.03 17644.7 685.224C17639.5 686.291 17634.8 688.724 17631 692.245C17628 694.816 17625.2 697.487 17622.1 699.761C17619.1 702.067 17615.5 703.569 17611.7 704.112C17606.4 704.607 17601.3 704.607 17595.6 704.706C17590.3 704.585 17585.1 705.016 17579.8 705.991C17577.3 706.57 17574.8 707.61 17572.7 709.057C17569.5 711.287 17566.5 713.876 17563.9 716.77C17561.3 719.586 17557.9 721.774 17554.2 723.163C17550.5 724.553 17546.5 725.106 17542.5 724.78H17522.6C17517.2 724.941 17512 726.63 17507.7 729.626C17505.6 731.162 17503.3 732.334 17500.7 733.087C17495.7 734.591 17490.9 736.935 17486.7 740.01C17482.4 743.012 17477.1 744.481 17471.7 744.163C17469.1 744.361 17466.4 744.024 17463.9 743.172C17461.3 742.32 17459 740.973 17457.1 739.218C17454.1 736.807 17450.5 735.231 17446.7 734.67C17440 733.977 17433.4 733.878 17426.8 733.483C17422.8 733.059 17419.1 731.662 17415.8 729.428C17414.8 728.636 17413.7 727.941 17412.5 727.352C17410.2 726.113 17407.6 725.462 17404.9 725.462C17402.2 725.462 17399.6 726.113 17397.3 727.352C17395.3 729.017 17393.1 730.415 17390.7 731.505C17383 733.739 17375.8 737.074 17369.2 741.394C17367 742.779 17364.4 743.596 17361.8 743.768C17352.5 744.608 17343.2 744.608 17333.9 743.768C17330 743.358 17326.4 741.84 17323.5 739.416C17319.5 736.153 17315.8 732.494 17311.6 729.527C17308.7 727.104 17305.1 725.586 17301.3 725.176C17287.9 725.176 17274.6 724.583 17261.4 723.989C17257.5 723.91 17253.8 722.385 17251 719.737C17246.5 715.188 17241.6 710.936 17236.7 706.683C17233.8 704.013 17230.9 701.442 17227.9 698.97C17224.9 696.72 17221.3 695.346 17217.5 695.014C17209.5 694.829 17201.7 692.46 17195.1 688.191C17192.2 686.763 17188.9 685.914 17185.6 685.693C17182.3 685.472 17179 685.884 17175.9 686.905C17174.6 687.17 17173.3 687.706 17172.2 688.475C17171.2 689.243 17170.3 690.226 17169.6 691.355C17167.7 696.007 17165.2 700.423 17162.2 704.508C17159.7 707.442 17157.9 710.802 17156.9 714.397C17156.9 715.584 17156.9 716.869 17155.8 718.056C17155.5 719.274 17154.9 720.415 17154.1 721.418C17147.7 729.525 17139.8 736.489 17130.9 741.987C17129.1 742.792 17127.1 743.151 17125.1 743.03C17123.1 742.909 17121.2 742.312 17119.5 741.295C17117.4 739.911 17115.4 738.131 17113.1 736.944C17110.8 735.656 17108.2 734.976 17105.6 734.976C17102.9 734.976 17100.3 735.656 17098 736.944C17095.7 738.121 17093.5 739.584 17091.5 741.295C17089.4 742.868 17086.9 743.799 17084.2 743.965C17073.8 744.756 17062.9 743.965 17052.3 744.46C17044.3 744.795 17036.4 742.412 17030 737.735C17027.4 735.717 17024.1 734.725 17020.8 734.965C17017.4 735.204 17014.3 736.656 17012.1 739.021C17011 739.77 17009.9 740.463 17008.7 741.097C17006.5 742.456 17003.9 743.178 17001.3 743.178C16998.7 743.178 16996.1 742.456 16993.9 741.097C16991.8 739.515 16989.7 737.933 16987.7 736.252L16979 728.538C16975.7 726.427 16971.6 725.581 16967.7 726.165C16965.1 726.793 16962.7 727.758 16960.4 729.033C16954.9 732.685 16948.3 734.368 16941.7 733.78C16939 733.834 16936.4 733.257 16934 732.098C16930.4 730.318 16927.1 728.242 16923.6 726.758C16920.1 725.275 16916.1 724.385 16912.5 722.901C16910.1 721.739 16907.8 720.382 16905.7 718.847C16903.5 717.44 16900.9 716.559 16898.2 716.276C16894.3 715.486 16890.3 715.474 16886.4 716.24C16882.5 717.006 16878.8 718.533 16875.6 720.726C16872.8 722.446 16869.7 723.621 16866.4 724.182C16863.1 724.742 16859.8 724.677 16856.5 723.989C16853.9 723.767 16851.4 722.653 16849.4 720.845C16847.5 719.036 16846.4 716.648 16846.1 714.1C16845.5 707.771 16845.1 701.541 16844.4 695.212C16844.3 693.954 16844 692.72 16843.4 691.595C16842.8 690.469 16842 689.476 16840.9 688.685C16838.7 687.369 16836.3 686.526 16833.7 686.213C16831 685.968 16828.3 685.968 16825.7 686.213C16821.7 686.273 16817.8 687.634 16814.7 690.07C16811.7 692.458 16808.7 695.035 16806 697.783C16797.5 705.793 16789.2 713.902 16780.8 722.011C16778 724.705 16775 727.248 16771.9 729.626C16769.8 731.15 16767.4 732.229 16764.9 732.791C16761 733.75 16757 733.965 16753 733.421C16749.1 732.878 16745.3 731.587 16741.9 729.626C16734 725.077 16733.9 725.176 16731.5 725.572C16727.7 726.184 16724.1 727.716 16721.1 730.022C16715.1 735.078 16709.5 740.496 16704.2 746.24C16700.6 749.899 16696.8 753.261 16692.8 756.722C16689.9 759.328 16686.4 761.263 16682.6 762.377C16678.8 763.492 16674.7 763.756 16670.8 763.15C16665.7 762.458 16662.8 761.173 16661.4 757.415C16655.5 749.573 16647 743.778 16637.3 740.9C16635.7 739.802 16633.8 739.172 16631.8 739.085C16629.8 738.997 16627.8 739.456 16626.1 740.405C16623.8 741.691 16621.8 743.273 16619.5 744.559C16613.8 747.798 16607 749.022 16600.4 748.02C16597.7 747.81 16595.2 746.884 16593 745.35C16589 742.087 16585 738.724 16581.1 735.461C16577.2 732.003 16572.4 729.552 16567.2 728.341C16563.5 727.179 16559.9 725.369 16556.8 723C16554.6 721.598 16552.1 720.686 16549.5 720.33C16534.9 718.847 16520.2 718.847 16505.7 720.33C16503 720.648 16500.5 721.526 16498.2 722.901C16492.9 726.677 16486.4 728.722 16479.7 728.736C16477 728.736 16474.4 728.736 16471.7 728.736C16465 728.643 16458.5 730.584 16453.1 734.274C16449.7 736.388 16445.8 737.554 16441.8 737.636C16429.9 738.131 16417.9 738.131 16405.9 738.527C16403.3 738.524 16400.6 739.031 16398.2 740.017C16395.8 741.003 16393.6 742.447 16391.8 744.262C16386.8 748.549 16383.2 754.062 16381.4 760.184C16379.4 763.473 16376.3 765.971 16372.5 767.205C16368.8 768.241 16365.3 769.88 16362.1 772.05C16358.1 775.413 16353 777.367 16347.7 777.588C16341 777.917 16334.5 779.748 16328.8 782.928C16324.3 785.401 16322.8 784.906 16318.4 781.346C16313.9 777.786 16310.6 774.424 16306.4 771.457C16304.3 769.94 16301.8 768.954 16299.1 768.589C16285.9 767.748 16272.6 767.748 16259.3 768.589C16255.3 768.653 16251.4 769.935 16248.2 772.248C16245.1 774.641 16241.3 776.09 16237.3 776.407C16233.3 776.724 16229.3 775.896 16225.9 774.028C16224.3 773.16 16222.5 772.703 16220.7 772.703C16218.8 772.703 16217 773.16 16215.5 774.028C16210.8 776.619 16205.5 777.984 16200.2 777.984L16180.2 778.478C16174.9 778.548 16169.7 780.02 16165.1 782.731C16163 784.016 16160.8 785.401 16158.4 786.686C16152.2 788.964 16145.3 788.964 16139.1 786.686C16135.5 785.004 16132 783.122 16128.7 781.049C16126.4 779.735 16123.8 778.924 16121.2 778.676C16109.2 777.588 16097.3 778.676 16085.3 777.687C16080 777.285 16074.9 775.655 16070.4 772.94C16066.2 769.842 16060.9 768.204 16055.6 768.292H16051.5C16042.2 767.323 16032.8 769.684 16025.2 774.918C16022.9 776.062 16020.2 776.575 16017.6 776.401C16015 776.226 16012.4 775.372 16010.3 773.929C16009.1 773.256 16008.1 772.459 16007.1 771.556C16004 769.183 16001 766.809 15998 764.238C15996.1 762.48 15993.7 761.132 15991.2 760.282C15984.8 758.589 15978.8 755.771 15973.6 751.975C15971.2 750.844 15968.5 750.339 15965.9 750.512C15963.2 750.686 15960.7 751.533 15958.5 752.964C15956.3 754.404 15954.3 755.956 15952.3 757.612C15946.5 762.755 15940.8 768.095 15935.1 773.336C15929.4 778.577 15923.7 786.785 15913 782.038Z" fill="#060127"/>
</svg>
