<svg width="20804" height="2174" viewBox="0 0 20804 2174" fill="none" xmlns="http://www.w3.org/2000/svg">
<path d="M15916.8 1341.43C15913.3 1343.62 15909.5 1344.91 15905.5 1345.18C15893.5 1345.87 15881.6 1345.76 15869.6 1344.86C15864.3 1344.5 15859.2 1342.36 15855 1338.73C15851.8 1336.14 15848.1 1334.4 15844.2 1333.66C15840.3 1332.92 15836.2 1333.19 15832.4 1334.45C15828.6 1335.71 15825.1 1337.76 15822 1340.47C15818.7 1342.9 15814.8 1344.24 15810.8 1344.34C15797.5 1344.22 15784.2 1344.67 15770.9 1344.66C15762.9 1344.51 15755 1347.09 15748.4 1352.05C15746.1 1353.62 15743.5 1354.44 15740.9 1354.41C15738.3 1354.39 15735.7 1353.52 15733.5 1351.92L15726.7 1347.55C15724.3 1346.22 15721.5 1345.87 15718.9 1346.58C15717.6 1346.59 15716.3 1346.84 15715 1347.33C15711.5 1349.3 15708.3 1352.01 15705.7 1355.32C15703.2 1358.62 15701.2 1362.45 15700 1366.58C15698.9 1370.8 15696.8 1374.67 15694.1 1377.86C15689.5 1383.14 15684.7 1388.2 15679.9 1393.14C15676 1397.04 15671.2 1399.84 15666.1 1401.29C15662.5 1402.39 15660.7 1404.53 15658.5 1410.52C15655.6 1418.67 15650.5 1425.66 15643.8 1430.56C15642.2 1431.85 15640.3 1432.69 15638.4 1432.99C15636.4 1433.29 15634.4 1433.04 15632.6 1432.27C15631.3 1431.94 15630.1 1431.35 15629 1430.54C15623.8 1426.04 15617.3 1423.52 15610.6 1423.35L15578.7 1423.06C15574.7 1423.25 15570.7 1423.22 15566.7 1422.95C15562.7 1422.63 15558.9 1421.06 15555.8 1418.44C15551.6 1414.78 15546.8 1412.08 15541.7 1410.49C15539.1 1409.88 15536.7 1408.53 15534.8 1406.58C15530.8 1402.69 15526.7 1399.03 15522.9 1395.14C15520 1392.26 15516.4 1390.24 15512.6 1389.27C15508.7 1388.07 15505.2 1385.99 15502.2 1383.17C15499.3 1380.35 15495.7 1378.44 15491.9 1377.64C15485.2 1377.03 15478.7 1375.45 15472.5 1372.93C15466.7 1369.93 15466.6 1370.5 15457.9 1373.59C15455.4 1374.64 15452.8 1375.3 15450.2 1375.56C15440.8 1376.05 15431.6 1376.08 15422.2 1376.22C15418.3 1376.19 15414.2 1376.15 15410.4 1376.91C15406.5 1377.27 15402.8 1378.98 15399.9 1381.8C15395.4 1387.14 15390.3 1391.85 15384.7 1395.83C15383 1396.97 15381.1 1397.63 15379.1 1397.75C15377.1 1397.87 15375.1 1397.45 15373.3 1396.52C15369 1394.5 15365.3 1391.24 15362.7 1387.1C15360 1382.97 15358.4 1378.1 15358 1373.04C15357.9 1370.12 15357.5 1367.22 15356.7 1364.42C15355.8 1361.35 15353.7 1359.06 15351.5 1359.5C15343.7 1361.45 15336.1 1364.15 15328.7 1367.57C15327.6 1367.56 15326.7 1369.36 15325.6 1370.14C15321.2 1373.43 15315.9 1375.09 15310.6 1374.88L15258.6 1374.42L15226.7 1374.13C15221.4 1374.25 15216.2 1376.27 15212 1379.89C15206.6 1384.14 15199.9 1386.13 15193.2 1385.51L15185.2 1385.43C15179.9 1385.37 15174.7 1383.42 15170.4 1379.86C15169.4 1379 15168.3 1378.19 15167.2 1377.45C15165.1 1375.73 15162.5 1374.79 15159.8 1374.77C15157.1 1374.74 15154.5 1375.64 15152.3 1377.32C15147.3 1382.01 15140.8 1384.64 15134.2 1384.75C15124.9 1384.44 15115.6 1384.81 15106.3 1385.86C15103.7 1386.26 15101.1 1387.41 15099 1389.2C15094.9 1392.79 15090.8 1396.49 15086.9 1400.42C15085 1402.53 15082.7 1404.1 15080.2 1405.01C15073.7 1406.9 15067.7 1410.12 15062.4 1414.48C15059 1416.79 15055 1417.94 15051 1417.78L15019.1 1418.29C15016.5 1418.44 15013.9 1418.87 15011.3 1419.58C15010 1419.82 15008.8 1420.3 15007.7 1421.02C14999 1427.7 14991 1435.21 14983.6 1443.47C14980.6 1446.5 14977 1448.79 14973.1 1450.17C14968.1 1452.01 14963.3 1454.68 14959 1458.09C14956.9 1459.89 14954.4 1461.01 14951.8 1461.31L14939.9 1463.02C14937.3 1463.34 14934.7 1464.33 14932.5 1465.9C14927 1469.96 14920.4 1472.15 14913.7 1472.19L14802.1 1471.19C14800.8 1471.3 14799.5 1471.29 14798.2 1471.16C14792.8 1470.89 14787.7 1468.69 14783.7 1464.91C14779.7 1461.02 14775.9 1456.91 14771.8 1453.47C14769.7 1451.75 14767.2 1450.63 14764.6 1450.23C14757.9 1449.38 14751.3 1449.1 14744.7 1448.24C14740.8 1447.7 14737 1446.02 14733.8 1443.39C14730.8 1440.59 14727.3 1438.55 14723.5 1437.4C14718.4 1435.88 14713.6 1433.21 14709.5 1429.57C14707.3 1427.97 14704.7 1427.04 14702.1 1426.9C14695.5 1426.05 14688.8 1425.99 14682.1 1426.72C14679.4 1426.75 14676.8 1427.55 14674.5 1429.03C14670.3 1432.44 14665.5 1435.04 14660.5 1436.73C14656.6 1437.73 14652.8 1439.26 14649.2 1441.27C14647.5 1442.08 14645.6 1442.34 14643.8 1442.03C14642 1441.71 14640.3 1440.82 14638.9 1439.48C14636.7 1437.87 14634.8 1435.7 14632.8 1433.87L14617.8 1419.57C14614.9 1416.83 14611.3 1415.21 14607.5 1414.95C14597.1 1414.85 14586.7 1414.76 14575.6 1414.66C14568.9 1414.44 14562.3 1416.52 14556.7 1420.61C14553.4 1423.05 14549.5 1424.51 14545.5 1424.82C14540.2 1424.77 14535.1 1425.41 14529.6 1425.58C14525.6 1425.5 14521.7 1426.69 14518.3 1429C14511.5 1433.7 14503.5 1435.97 14495.5 1435.48C14488.9 1435.42 14482.2 1435.36 14475.6 1436.09C14471.6 1436.51 14467.9 1438.04 14464.6 1440.53C14460.4 1444.11 14455.2 1446.13 14449.9 1446.29C14438 1446.18 14426 1446.76 14414 1447.33C14410 1447.44 14406.1 1448.87 14402.9 1451.42C14397.5 1455.77 14390.9 1458.03 14384.2 1457.83L14372.3 1457.72L14332.3 1457.36C14328.4 1457.1 14324.4 1457.07 14320.4 1457.26C14316.5 1457.78 14312.6 1459.05 14309.1 1461.01C14303.6 1465.11 14297 1467.16 14290.3 1466.85L14230.4 1466.31C14225.1 1466.25 14219.8 1467.81 14215.3 1470.82C14209.5 1474.56 14203 1476.54 14196.3 1476.55L14184.3 1476.44L14136.4 1476.01L14116.6 1475.83C14109.9 1475.73 14103.3 1478.2 14098.1 1482.81C14094.9 1485.49 14091.1 1486.97 14087 1487.01C14077.7 1487.5 14068.4 1487.41 14059.1 1487.44C14049.7 1487.47 14038.3 1487.26 14027.2 1487.16C14019.2 1486.57 14011.2 1488.68 14004.3 1493.19C14000.9 1495.48 13997 1496.73 13993 1496.83C13989 1497.02 13985 1496.98 13981 1496.72L13777.6 1494.9C13768.3 1494.82 13759 1494.73 13749.7 1494.65C13745.8 1494.94 13741.9 1496.02 13738.3 1497.84C13731.6 1502.79 13723.6 1505.12 13715.6 1504.43L13701.8 1504.31C13693.8 1504.75 13685.9 1502.21 13679.3 1497.08C13675.9 1494.84 13672 1493.74 13668 1493.92C13662.7 1493.37 13657.3 1494.67 13652.7 1497.64L13649.3 1499.76C13645.7 1501.78 13641.9 1503.02 13637.9 1503.39C13634 1503.76 13630 1503.27 13626.2 1501.93C13622.2 1500.99 13618.7 1498.81 13614.8 1497.98C13612.2 1497.59 13609.5 1498.3 13607.4 1499.95C13603.9 1502.1 13600 1503.17 13596 1503.02L13556.1 1502.67C13550.8 1502.62 13545.7 1502.57 13540.2 1503.09C13536.2 1503.01 13532.2 1504.37 13528.9 1506.96C13522.6 1512.35 13514.7 1515.1 13506.7 1514.69L13466.8 1515.01C13462.8 1515.02 13458.9 1516.29 13455.5 1518.65C13450 1522.7 13443.5 1524.99 13436.9 1525.29C13431.5 1525.58 13426.4 1527.33 13421.8 1530.36C13417.3 1533.52 13412.1 1535.16 13406.7 1535.1L13386.8 1534.92C13380.1 1535.21 13373.5 1532.9 13368.2 1528.41C13366.1 1526.65 13363.7 1525.47 13361.1 1524.95C13354.8 1522.95 13349.1 1518.96 13344.9 1513.47C13342.1 1510.39 13340.2 1506.4 13339.7 1502.09C13339.7 1499.15 13339 1496.31 13338.6 1493.47C13342.4 1484.44 13345.9 1473.93 13355.2 1470.95C13387.3 1461.72 13381.7 1439.23 13373.1 1415.25C13371.8 1411.64 13369.8 1408.38 13367.2 1405.67C13346.6 1392.12 13327.1 1368.83 13300.5 1393.75C13297.4 1396.04 13293.8 1397.56 13290.1 1398.19C13265.2 1390.14 13240.5 1383.35 13221.3 1411.4C13217.8 1412.8 13214.1 1413.42 13210.3 1413.22C13204.8 1411.87 13199.5 1409.77 13194.6 1406.96C13161.9 1415.97 13131.9 1437.79 13096.8 1434.87C13093 1435.88 13089.4 1437.74 13086.3 1440.33C13084.2 1441.68 13081.7 1442.37 13079.2 1442.35C13076.6 1442.32 13074.2 1441.59 13072 1440.21C13067.4 1435.59 13062.5 1431.27 13057.4 1427.27C13054 1425.28 13051.4 1422.15 13049.8 1418.36C13045.1 1413.67 13046.7 1405.64 13042 1400.95L13038.3 1399.67C13034.5 1398.34 13030.5 1398.08 13026.6 1398.92C13022.7 1399.76 13019 1401.67 13016 1404.46C13012.5 1406.54 13008.7 1407.82 13004.7 1408.21L12969 1408.46L12949.1 1408.28C12943.8 1408.25 12938.6 1409.98 12934.2 1413.25C12927.3 1417.78 12919.1 1419.17 12911.3 1417.12C12908.7 1416.44 12906.3 1415.43 12903.9 1414.11C12902.2 1413.17 12900.2 1412.67 12898.3 1412.66C12896.3 1412.64 12894.4 1413.1 12892.6 1414.01C12889.3 1416.01 12885.8 1417.62 12882.2 1418.79C12878.2 1419.75 12874.5 1421.96 12871.7 1425.16C12865 1432.01 12858 1438.63 12851.5 1445.71C12847.5 1449.58 12842.4 1451.71 12837.1 1451.7C12833.8 1452.12 12830.4 1451.78 12827.3 1450.69C12824.1 1449.61 12821.2 1447.81 12818.7 1445.42C12816.8 1443.48 12814.9 1441.42 12812.8 1439.59C12810.9 1437.6 12808.9 1435.77 12806.8 1434.1C12804.5 1432.51 12802 1431.59 12799.4 1431.4C12796.7 1431.22 12794.1 1431.79 12791.7 1433.05C12789.4 1434.4 12787.1 1435.89 12785 1437.53C12781.4 1439.46 12777.5 1440.52 12773.6 1440.64C12769.6 1440.76 12765.7 1439.94 12762 1438.23C12759.7 1436.97 12757.4 1435.47 12755.3 1433.75C12750.8 1430.74 12745.5 1429.35 12740.3 1429.76C12737.6 1429.94 12735.1 1430.77 12732.8 1432.21C12730.5 1433.64 12728.6 1435.64 12727.1 1438.03C12725.1 1441.52 12724.3 1446.05 12720.4 1448.4C12718.1 1449.69 12715.7 1450.81 12713.2 1451.73C12710.8 1452.8 12708.4 1454.14 12706.2 1455.75C12701.5 1459.7 12695.6 1461.82 12689.6 1461.76C12683.6 1461.71 12677.8 1459.49 12673.1 1455.45C12671 1453.67 12668.6 1452.48 12666 1451.99C12660.8 1451.03 12655.5 1450.99 12650.2 1451.85C12647.7 1452.33 12645.2 1453.56 12643.3 1455.41C12641 1456.97 12638.7 1458.32 12636.2 1459.43C12606.1 1460.41 12584.8 1469.51 12590.1 1510.12C12594.5 1544.16 12575.7 1544.9 12553 1536.76C12549.6 1534.61 12546.6 1531.91 12543.9 1528.75C12541.1 1525.67 12539.3 1521.67 12538.8 1517.37C12538.9 1513.18 12538 1508.86 12537.6 1504.67C12537.2 1502.59 12536.2 1500.68 12534.9 1499.14C12533.6 1497.59 12531.9 1496.46 12530 1495.87C12527.4 1495.17 12524.8 1494.81 12522.2 1494.79C12518.9 1494.42 12515.6 1495.34 12512.8 1497.39C12510 1499.44 12508 1502.48 12507.1 1505.98C12503.9 1514.68 12503.7 1514.56 12493.5 1519.12C12491 1520.1 12488.7 1521.54 12486.7 1523.37C12482.5 1526.75 12478.7 1530.51 12475.1 1534.59C12471.7 1538.98 12468 1543.14 12464.6 1547.19C12462.7 1549.15 12460.7 1550.98 12458.6 1552.69C12441.7 1563.87 12423.6 1552.38 12406.6 1556.99C12402.9 1559.12 12398.7 1560.07 12394.5 1559.73C12390.3 1559.39 12386.3 1557.78 12383 1555.07C12381.1 1553.42 12379 1552.07 12376.8 1551.05L12374.7 1550.47L12377.1 1551.06C12379.1 1551.94 12380.8 1553.22 12382.4 1554.84C12384.3 1556.82 12386.6 1558.44 12389 1559.66C12395.5 1561.99 12401.1 1558.3 12407.1 1556.88C12422.1 1558.82 12440.3 1548.79 12450.4 1569.96C12456.1 1573.97 12463.2 1573.13 12469.1 1576.7C12470.3 1577.32 12471.3 1578.28 12472.1 1579.48C12472.9 1580.68 12473.4 1582.08 12473.5 1583.53C12474 1585.54 12474 1587.65 12473.4 1589.64C12472.9 1591.64 12471.9 1593.43 12470.5 1594.84L12467.7 1597.99C12464.3 1602.45 12459.4 1605.29 12454.1 1605.91C12448.8 1606.39 12443.5 1606.69 12438.1 1606.79C12434.1 1606.65 12430.2 1607.93 12426.9 1610.43C12420.6 1615.93 12412.8 1619 12404.8 1619.18C12399.5 1619.75 12394.5 1621.9 12390.3 1625.4C12386.8 1627.66 12382.8 1628.84 12378.8 1628.81C12365.5 1628.69 12352.3 1628.57 12339 1628.45L12327 1628.35C12320.3 1628.2 12313.8 1630.15 12308.1 1633.96C12303.5 1636.93 12298.2 1638.46 12292.8 1638.35C12274.2 1638.19 12255.6 1638.02 12237 1638.76C12233.1 1638.89 12229.4 1640.59 12226.6 1643.54C12222.5 1647.32 12217.4 1649.54 12212.1 1649.87L12208 1649.83C12205.4 1649.81 12202.7 1649.79 12200.1 1649.76C12194.7 1649.69 12189.6 1647.64 12185.4 1643.97C12181.4 1640.1 12176.3 1637.93 12170.9 1637.83C12162.9 1637.76 12154.9 1637.69 12147 1637.62C12141.6 1637.61 12136.4 1639.6 12132.2 1643.26C12128 1646.93 12122.9 1648.96 12117.6 1649.03L12081.7 1648.71C12073.7 1648.18 12065.7 1648.79 12057.9 1650.53C12055 1651.41 12050.8 1656.93 12051.4 1660.22C12051.6 1663.05 12052.4 1665.82 12053.5 1668.4C12054.9 1670.77 12056.2 1673.29 12057.2 1675.91C12058.4 1680.04 12058.2 1684.51 12056.6 1688.48C12054.7 1693.91 12050.5 1697.95 12049.3 1703.83C12048.3 1708.07 12046.4 1711.97 12043.6 1715.11C12035.5 1724.56 12026.9 1733.66 12018.1 1742.53C12015.1 1745.46 12011.5 1747.57 12007.6 1748.67C12003.8 1749.67 12000.3 1751.53 11997.2 1754.13C11993 1757.76 11988.2 1760.45 11983.1 1762.05C11979.5 1763.92 11976 1766.05 11972.6 1768.42C11970.2 1769.76 11967.7 1770.62 11965 1770.96C11959.7 1771.55 11954.4 1771.81 11949.1 1771.72L11837.5 1770.72C11829.5 1770.65 11821.6 1770.58 11813.6 1770.51C11808.2 1770.62 11803 1772.34 11798.5 1775.47C11793.9 1778.41 11788.7 1780.01 11783.3 1780.1L11723.5 1779.56C11718.2 1779.52 11713.2 1779.47 11707.6 1779.99C11703.6 1780.18 11699.8 1781.51 11696.4 1783.85C11690.9 1788.07 11684.4 1790.35 11677.7 1790.37C11669.8 1790.3 11661.8 1790.23 11653.8 1791.41C11649.9 1791.74 11646.3 1793.42 11643.4 1796.19C11640.4 1799 11636.8 1800.86 11632.9 1801.53C11630.2 1801.51 11627.6 1802.28 11624.9 1802.48C11619.6 1802.98 11614.6 1805.05 11610.3 1808.47C11607 1810.89 11603 1812.16 11599 1812.11C11583.1 1811.97 11567.1 1812.39 11551.2 1812.81C11548.6 1813.04 11546 1813.66 11543.5 1814.67C11542.2 1815.15 11541.1 1815.87 11540 1816.79C11532.7 1823.19 11522.6 1823.89 11515.5 1830.85C11512.4 1833.6 11508.4 1835.01 11504.4 1834.83L11484.5 1834.65C11475.9 1834.58 11475.1 1834.57 11463 1825.62C11461.3 1824.54 11459.4 1823.88 11457.4 1823.66C11455.5 1823.45 11453.5 1823.7 11451.6 1824.39C11449.2 1825.6 11446.9 1827.05 11444.8 1828.75C11442.9 1830.76 11440.6 1832.29 11438 1833.22C11432.8 1834.45 11427.9 1837.1 11423.9 1840.91C11421.1 1843.83 11417.6 1846.3 11414.7 1849.22C11410.5 1852.82 11405.7 1855.34 11400.5 1856.57C11395.4 1858.22 11392.2 1863.63 11387 1865.51C11384.5 1866.45 11381.8 1866.43 11379.3 1865.44C11375.5 1863.7 11372.1 1861.34 11369 1858.44C11366.9 1856.54 11364.3 1855.49 11361.6 1855.46C11358.9 1855.44 11356.3 1856.45 11354.2 1858.31C11351 1860.97 11347.5 1863.19 11343.8 1864.9C11341.3 1865.95 11338.5 1865.93 11336.1 1864.83C11332.7 1862.76 11329.7 1859.9 11326.4 1857.49C11324.6 1856.44 11322.6 1855.89 11320.7 1855.87C11318.7 1855.85 11316.7 1856.37 11314.9 1857.39C11313.7 1857.99 11312.6 1858.66 11311.5 1859.4C11307.4 1863.12 11302.7 1865.97 11297.7 1867.77C11291.1 1869.53 11286.6 1875.72 11280 1877.48C11274.8 1878.72 11269.9 1881.11 11265.6 1884.49C11262.2 1886.79 11258.3 1887.98 11254.2 1887.9L11234.3 1887.72L11202.4 1887.43C11195.7 1887.18 11189.2 1889.4 11183.8 1893.73C11179.4 1897.1 11174.2 1898.81 11168.8 1898.58C11158.4 1898.49 11148 1898.39 11136.9 1899.2C11131.6 1899.38 11126.4 1901.31 11122.1 1904.73C11117.7 1908.08 11112.5 1909.89 11107.2 1909.93L11079.2 1909.68L11063.3 1909.53C11059.3 1909.45 11055.4 1910.6 11051.9 1912.83C11045.1 1917.41 11037.1 1919.63 11029.1 1919.2C11017.2 1919.09 11005.2 1918.99 10993.2 1918.88C10986.6 1918.66 10980 1920.92 10974.7 1925.29C10971.8 1927.12 10968.5 1928.03 10965.2 1927.9C10961.8 1927.77 10958.6 1926.61 10955.9 1924.55C10954.9 1923.61 10953.7 1922.97 10952.4 1922.68C10951.2 1922.39 10949.9 1922.47 10948.6 1922.9C10946.1 1923.86 10943.4 1924.26 10940.8 1924.06C10938.1 1923.86 10935.5 1923.07 10933.1 1921.74C10929.6 1919.67 10925.7 1918.51 10921.7 1918.36C10905.8 1918.21 10889.9 1917.16 10873.9 1917.93C10869.9 1918.15 10866.1 1919.74 10863 1922.48C10858.9 1926.07 10855.1 1930.23 10851.3 1934.27C10849.5 1936.37 10847.2 1938.01 10844.7 1939.08C10838.4 1941.37 10832.4 1944.36 10826.7 1947.99C10824.3 1949.44 10821.7 1950.23 10819 1950.3C10809.8 1950.22 10800.5 1950.7 10791.2 1950.73C10781.8 1950.76 10775.3 1950.59 10767.3 1950.52C10759.3 1950.02 10751.3 1952.47 10744.8 1957.46C10742.6 1959.14 10739.9 1960.06 10737.2 1960.11C10730.6 1960.05 10723.9 1961.01 10717.4 1960.72C10708 1960.2 10698.8 1963.33 10691.3 1969.56C10689.1 1971.19 10686.5 1972.11 10683.8 1972.21C10682.6 1972.2 10681.2 1972.19 10679.9 1972.17L10575.9 1971.25C10570.6 1971.29 10565.4 1969.32 10561.2 1965.67C10557 1962.01 10552 1959.69 10546.7 1958.97L10542.8 1958.94C10537.5 1958.41 10532.5 1956.28 10528.3 1952.8C10524.8 1950.54 10521 1949.12 10517.1 1948.62C10507.8 1947.69 10498.4 1947.61 10489.1 1948.37C10485.1 1948.59 10481.3 1949.96 10477.9 1952.35C10472.4 1956.43 10465.8 1958.48 10459.2 1958.19L10443.2 1958.05C10433.9 1957.61 10424.6 1957.79 10415.3 1958.59C10411.4 1959 10407.8 1960.71 10404.9 1963.48C10403 1965.49 10400.7 1967.09 10398.3 1968.18C10392.1 1970.73 10386.1 1973.83 10380.3 1977.43C10378 1978.88 10375.4 1979.79 10372.8 1980.08C10366.1 1980.7 10359.5 1980.53 10352.9 1981.26C10348.9 1981.55 10345.1 1983.09 10341.9 1985.7C10338.7 1988.4 10334.8 1989.99 10330.8 1990.25C10322.9 1990.74 10314.9 1990.78 10306.9 1990.71L10183.3 1989.61C10175.3 1989.54 10167.3 1989.46 10159.4 1989.39C10154 1989.51 10148.8 1991.4 10144.5 1994.81C10140.1 1998.2 10135 2000.19 10129.7 2000.57C10124.4 2000.53 10119.3 2001.05 10113.9 2001.79C10109.9 2002.27 10106 2003.88 10102.8 2006.45C10098.4 2009.8 10093.2 2011.61 10087.9 2011.65C10081.2 2011.59 10074.6 2011.53 10067.9 2011.47C10061.2 2011.29 10054.7 2013.41 10049.2 2017.53C10047 2019.15 10044.5 2020.18 10041.9 2020.53C10037.9 2021.06 10033.9 2021.36 10029.9 2021.44C10021.9 2021 10014 2023.35 10007.3 2028.15C10004.6 2032.68 10000.7 2036.21 9996.16 2038.25C9990.86 2038.2 9985.76 2038.72 9980.25 2038.67L9923.39 2038.17C9916.74 2037.97 9910.19 2040.01 9904.62 2044C9900.26 2047.39 9895.06 2049.27 9889.71 2049.42L9869.85 2049.81C9863.16 2049.61 9856.58 2051.64 9850.98 2055.65C9847.76 2058.08 9843.95 2059.43 9840.03 2059.52C9830.68 2059.43 9821.42 2059.35 9812.16 2060.4C9808.16 2060.72 9804.3 2062.22 9801 2064.72C9796.69 2068.13 9791.52 2070.03 9786.19 2070.14C9783.49 2070.12 9780.89 2070.1 9778.19 2070.07C9770.13 2069.8 9762.23 2072.62 9755.87 2078.03C9752.53 2080.43 9748.6 2081.66 9744.61 2081.56C9738.06 2081.5 9731.41 2081.44 9724.76 2081.38L9680.89 2080.99C9675.53 2081.01 9670.29 2082.69 9665.77 2085.84C9660.04 2089.54 9653.46 2091.37 9646.8 2091.11L9630.8 2090.96C9614.89 2090.82 9598.99 2090 9582.97 2091.22C9580.33 2091.33 9577.74 2092.16 9575.47 2093.64C9573.17 2095.1 9570.66 2096.21 9568.36 2097.66C9566.02 2098.98 9563.48 2099.8 9560.86 2100.09C9552.9 2100.84 9544.91 2101.04 9536.94 2100.66L9484.96 2100.2C9478.28 2099.86 9471.69 2102.13 9466.4 2106.61C9463.17 2109.13 9459.4 2110.7 9455.45 2111.16C9451.49 2111.69 9447.53 2112.67 9443.68 2113.43C9441.01 2113.87 9438.53 2115.19 9436.58 2117.22C9433.61 2119.93 9429.98 2121.63 9426.14 2122.11C9422.21 2122.68 9418.24 2122.91 9414.28 2122.8C9402.32 2122.69 9390.27 2122.58 9378.31 2122.48L9358.46 2122.3C9353.1 2122.35 9347.85 2123.94 9343.24 2126.92C9338.75 2130.06 9333.55 2131.77 9328.22 2131.89L9308.27 2131.71L9256.29 2131.25C9250.99 2131.2 9245.9 2131.15 9240.28 2131.78C9236.3 2132 9232.46 2133.46 9229.22 2135.99C9226.17 2138.83 9222.28 2140.38 9218.27 2140.34C9214.25 2140.31 9210.39 2138.69 9207.39 2135.8C9204.3 2133.16 9201.31 2130.3 9198.32 2127.44C9194.4 2123.5 9189.35 2121.18 9184.03 2120.85C9172.08 2120.18 9160.13 2119.96 9148.17 2120.53C9142.81 2120.86 9137.7 2123.12 9133.66 2126.98C9130.52 2129.67 9127.68 2132.7 9124.54 2135.39C9120.24 2138.88 9115.08 2140.88 9109.73 2141.16L9049.95 2140.62C9041.93 2140.63 9034.1 2137.9 9027.57 2132.83C9025.37 2131.17 9022.78 2130.21 9020.11 2130.04L9004.21 2129.9C8998.88 2129.87 8993.67 2131.65 8989.29 2134.98C8984.83 2138.18 8979.62 2139.94 8974.28 2140.06C8953.48 2140.44 8931.76 2140.47 8910.45 2139.49C8909.16 2139.31 8907.88 2139.03 8906.62 2138.66C8904 2138.22 8901.58 2136.88 8899.72 2134.82C8897.87 2132.76 8896.67 2130.1 8896.32 2127.24C8895.7 2123.04 8896.12 2118.73 8897.52 2114.77C8898.93 2110.8 8901.27 2107.3 8904.32 2104.64L8910.4 2099.03C8912.48 2097.2 8915.04 2096.15 8917.7 2096.04C8929.67 2094.78 8941.62 2095.68 8953.57 2095.45C8962.87 2096.03 8972.2 2095.69 8981.44 2094.45C8984.06 2094.09 8986.45 2092.65 8988.13 2090.43L8990.76 2087.17C8993.62 2080.96 9003.22 2077.88 8998.11 2067.97L8992.18 2056.59C8989.83 2051.92 8992.3 2042.88 8996.99 2042.01L9000.74 2041.02L9008.75 2039.96C9013.34 2039.21 9017.67 2037.18 9021.34 2034.08C9025.01 2030.98 9027.89 2026.9 9029.7 2022.25C9030.27 2020.95 9030.66 2019.58 9030.88 2018.18C9031.05 2016.75 9031.07 2015.3 9030.92 2013.87C9031.55 2009.59 9031.08 2005.2 9029.58 2001.19C9028.07 1997.18 9025.59 1993.7 9022.39 1991.13C9019.41 1987.59 9017.33 1987.34 9012.01 1989.68L9008.46 1991.57C9004.84 1993.48 9000.9 1994.52 8996.89 1994.64C8988.99 1994.57 8980.99 1994.5 8972.98 1994.43C8967.63 1994.21 8962.52 1991.92 8958.59 1987.95C8955.8 1985.03 8952.11 1983.35 8948.24 1983.21C8936.29 1982.54 8924.23 1982.43 8912.28 1982.21L8872.46 1981.86C8865.77 1981.84 8859.26 1979.56 8853.81 1975.34C8851.64 1973.65 8849.11 1972.58 8846.46 1972.22C8839.87 1971.38 8833.24 1971.06 8826.61 1971.25C8817.27 1970.29 8807.91 1972.8 8800.04 1978.38C8797.67 1979.66 8795.02 1980.19 8792.39 1979.9C8789.77 1979.62 8787.27 1978.53 8785.18 1976.77C8782.99 1975.13 8780.92 1973.29 8779 1971.28C8776.16 1968.24 8772.96 1965.62 8769.5 1963.48C8767.17 1962.12 8764.65 1961.18 8762.04 1960.7C8752.8 1959.43 8743.45 1959.34 8734.18 1960.45C8731.54 1960.25 8728.9 1960.93 8726.62 1962.41C8724.34 1963.89 8722.53 1966.09 8721.43 1968.72C8721.41 1970.08 8720.36 1971.43 8719.93 1972.79C8717.01 1979.3 8712.59 1984.89 8707.11 1988.99C8706.07 1989.91 8704.86 1990.56 8703.55 1990.89C8698.45 1992.2 8693.14 1993.29 8688.03 1994.49C8686.04 1994.7 8684.19 1995.71 8682.84 1997.34C8681.5 1998.96 8680.76 2001.08 8680.78 2003.26C8680.25 2005.37 8680.5 2007.63 8681.47 2009.54C8682.44 2011.46 8684.07 2012.88 8685.99 2013.51C8689.19 2014.39 8692.14 2016.12 8694.57 2018.56C8697 2020.99 8698.83 2024.05 8699.9 2027.46C8700.99 2031.7 8702.99 2035.6 8705.73 2038.84C8710.36 2043.98 8714.88 2049.35 8719.41 2054.49C8726.72 2062.94 8734.13 2071.28 8742.06 2078.94C8744.95 2081.68 8748.59 2083.31 8752.42 2083.57C8757.72 2083.61 8762.81 2083.66 8768.32 2084.5C8773.65 2084.7 8778.76 2086.86 8782.81 2090.64C8785.98 2093.05 8789.47 2094.91 8793.16 2096.17C8795 2097.03 8796.62 2098.34 8797.91 2100C8799.19 2101.67 8800.1 2103.64 8800.56 2105.75C8801.46 2109.97 8801.42 2114.36 8800.45 2118.56C8799.98 2121.38 8798.93 2124.05 8797.36 2126.35C8792.11 2132.88 8786.33 2138.94 8780.87 2145.35C8778.12 2148.46 8774.71 2150.77 8770.93 2152.07C8768.43 2153.06 8765.83 2153.72 8763.42 2154.94C8759.02 2158.15 8754.29 2160.77 8749.32 2162.75C8744.25 2164.47 8739.43 2166.99 8735.01 2170.22C8732.63 2171.51 8730.05 2172.29 8727.4 2172.53C8726.05 2172.52 8724.8 2173.07 8723.45 2173.06L8659.62 2172.49C8654.28 2172.46 8649.08 2170.67 8644.7 2167.37C8640.27 2164.14 8635.1 2162.33 8629.77 2162.14L8613.88 2160.97C8611.23 2160.67 8608.68 2159.71 8606.42 2158.19C8599.91 2153.03 8591.97 2150.48 8583.92 2150.96C8574.67 2150.88 8565.32 2150.79 8556.06 2150.71C8550.72 2150.51 8545.57 2148.56 8541.25 2145.14C8537.21 2141.34 8532.09 2139.17 8526.75 2139L8486.84 2137.97C8480.16 2138.19 8473.6 2136.11 8468.08 2132.02C8466.96 2131.22 8465.79 2130.53 8464.56 2129.95C8462.29 2128.39 8459.67 2127.55 8456.99 2127.5C8450.44 2127.44 8443.8 2126.59 8437.15 2126.53L8357.31 2125.82C8350.66 2125.76 8344.11 2125.7 8337.46 2125.64C8333.42 2125.7 8329.46 2124.49 8326.05 2122.14C8319.33 2117.42 8311.45 2115.02 8303.45 2115.25L8255.53 2114.82C8250.2 2114.74 8244.92 2116.01 8240.11 2118.54C8239.09 2119.38 8237.88 2119.94 8236.61 2120.17C8235.34 2120.39 8234.04 2120.28 8232.82 2119.83C8225.56 2116.24 8217.76 2114.14 8209.8 2113.62C8205.96 2113.34 8202.32 2111.67 8199.45 2108.88C8198.43 2107.95 8197.32 2107.14 8196.14 2106.47C8193.89 2104.89 8191.34 2103.9 8188.68 2103.57C8179.43 2102.53 8170.1 2102.44 8160.83 2103.32C8156.86 2103.65 8153.02 2104.93 8149.56 2107.08C8147.16 2108.3 8144.86 2109.87 8142.56 2111.32C8140.31 2112.85 8137.71 2113.69 8135.06 2113.75C8128.38 2113.79 8121.78 2115.35 8115.68 2118.33C8113.97 2119.4 8112.02 2119.96 8110.05 2119.94C8108.08 2119.92 8106.14 2119.33 8104.45 2118.23C8101.01 2116.02 8097.14 2114.71 8093.15 2114.39C8086.51 2113.76 8079.86 2113.48 8073.31 2112.85C8070.62 2112.66 8068.06 2111.57 8065.96 2109.73C8060.8 2105.06 8054.33 2102.48 8047.62 2102.42L8007.81 2102.07C8001.11 2101.97 7994.56 2104.35 7989.25 2108.82C7987.12 2110.63 7984.53 2111.67 7981.84 2111.81C7979.24 2111.79 7976.63 2112.44 7973.93 2112.3C7969.94 2112.54 7965.98 2111.4 7962.63 2109.03C7956.19 2103.84 7948.36 2101.11 7940.35 2101.24C7920.39 2101.06 7900.43 2100.88 7880.48 2099.91C7876.48 2099.79 7872.57 2098.5 7869.18 2096.18C7866.91 2094.69 7864.85 2092.75 7862.57 2091.48C7860.2 2090.18 7857.64 2089.36 7855 2089.03C7844.61 2088.94 7833.7 2088.27 7823.1 2087.95C7817.8 2087.9 7812.7 2087.86 7807.2 2087.81C7801.88 2087.21 7796.79 2085.18 7792.38 2081.9C7790.24 2080.2 7787.73 2079.11 7785.1 2078.75C7782.47 2078.39 7779.79 2078.77 7777.33 2079.84C7773.68 2081.05 7770.22 2083.74 7765.87 2082.57C7763.36 2081.83 7760.93 2080.82 7758.62 2079.56C7756.19 2078.39 7753.59 2077.71 7750.94 2077.56C7745.64 2077.51 7740.55 2077.47 7734.93 2077.42C7720.38 2077.29 7705.72 2077.72 7691.07 2076.35C7687.1 2075.98 7683.31 2074.33 7680.2 2071.6C7678.3 2069.55 7675.89 2068.15 7673.27 2067.58C7669.33 2066.86 7665.49 2065.92 7661.54 2065.32C7657.55 2064.97 7653.72 2063.45 7650.46 2060.91C7646.28 2057.4 7641.64 2054.57 7636.71 2052.52C7633.05 2050.98 7629.58 2048.97 7626.37 2046.53C7623.06 2044.07 7619.18 2042.69 7615.17 2042.58C7607.17 2042.51 7599.27 2042.44 7591.27 2042.36C7585.95 2042.47 7580.78 2044.23 7576.35 2047.44C7571.95 2050.85 7566.63 2052.56 7561.24 2052.3L7501.47 2051.76C7493.43 2051.81 7485.6 2049.08 7479.08 2043.97C7477.42 2042.79 7475.5 2042.09 7473.51 2041.96C7471.53 2041.82 7469.55 2042.24 7467.76 2043.19C7465.32 2044.29 7462.95 2045.56 7460.65 2046.98C7454.74 2050.38 7448 2051.67 7441.39 2050.66C7438.77 2050.37 7436.25 2049.41 7434.03 2047.87C7427.63 2042.55 7419.7 2039.87 7411.64 2040.31L7395.64 2040.16C7388.95 2040.13 7382.44 2037.85 7376.98 2033.65C7373.63 2031.32 7369.77 2029.99 7365.79 2029.81C7353.83 2029.7 7341.88 2029.6 7329.93 2028.58C7324.55 2028.33 7319.46 2025.81 7315.76 2021.54C7312.98 2018.46 7309.88 2015.71 7307.21 2012.51C7303.45 2008.37 7298.46 2005.83 7293.13 2005.36L7285.14 2004.39C7281.25 2003.73 7277.64 2001.8 7274.79 1998.85C7271.8 1995.99 7269.02 1992.91 7266.14 1989.94C7263.22 1986.86 7259.68 1984.58 7255.8 1983.27C7250.72 1981.5 7246.01 1978.64 7241.95 1974.88C7240.01 1972.87 7237.48 1971.68 7234.8 1971.53C7229.5 1971.48 7224.42 1970.64 7218.91 1970.48L7179.09 1970.12C7172.4 1970.35 7165.82 1968.22 7160.33 1964.06C7158.16 1962.39 7155.69 1961.25 7153.08 1960.71C7145.21 1959.34 7137.18 1959.26 7129.28 1960.5C7126.63 1960.9 7124.09 1961.96 7121.87 1963.6C7116.22 1967.51 7109.69 1969.61 7103 1969.67L7044.37 1969.14C7037.65 1969.34 7031.08 1967.05 7025.72 1962.63C7023.56 1960.99 7021.08 1959.92 7018.47 1959.51L6998.63 1957.86C6994.65 1957.59 6990.82 1956.15 6987.54 1953.68C6983.24 1950.22 6978.16 1948.09 6972.84 1947.54C6966.16 1947.31 6959.73 1944.75 6954.5 1940.24C6950.29 1936.6 6945.06 1934.63 6939.68 1934.66L6919.83 1934.49C6913.16 1934.43 6906.66 1932.21 6901.17 1928.09C6897.88 1925.58 6894 1924.17 6889.98 1924.02L6873.98 1923.88L6734.37 1922.63C6729.07 1922.58 6723.98 1922.54 6718.47 1921.92C6715.84 1921.66 6713.25 1920.99 6710.8 1919.93C6692.68 1911.83 6692.68 1911.72 6680.51 1911.72L6660.56 1911.54C6653.87 1911.51 6647.39 1908.97 6642.22 1904.35C6639.08 1901.64 6635.24 1900.06 6631.24 1899.84C6615.33 1898.56 6599.36 1898.42 6583.42 1899.41C6579.41 1899.73 6575.5 1900.97 6571.96 1903.05C6569.59 1904.3 6566.98 1904.87 6564.36 1904.7C6561.74 1904.54 6559.21 1903.65 6557 1902.12C6553.46 1900.02 6549.51 1898.89 6545.48 1898.84L6501.62 1898.45C6489.66 1898.35 6477.71 1898.24 6465.76 1898.13C6457.72 1898.32 6449.84 1895.7 6443.26 1890.68C6439.89 1888.35 6435.96 1887.13 6431.96 1887.18C6425.31 1887.12 6418.66 1887.06 6412 1887C6398.7 1886.88 6385.39 1886.76 6372.09 1886.64C6364.08 1886.79 6356.22 1884.36 6349.49 1879.64C6346.02 1877.48 6342.08 1876.35 6338.08 1876.37C6326.13 1876.26 6314.17 1876.15 6302.23 1875.14C6299.6 1874.8 6297.04 1873.97 6294.66 1872.69C6292.31 1871.43 6290.03 1870.01 6287.84 1868.44C6285.63 1866.8 6283.05 1865.85 6280.37 1865.68C6277.7 1865.52 6275.04 1866.15 6272.67 1867.51C6270.4 1868.93 6267.83 1869.67 6265.21 1869.65C6262.6 1869.62 6260.04 1868.84 6257.8 1867.38C6253.03 1864.85 6247.86 1863.34 6242.56 1862.93C6237.24 1862.42 6232.18 1860.16 6228.06 1856.46C6223.76 1852.95 6218.52 1851.08 6213.14 1851.11C6201.2 1850.27 6189.23 1850.16 6177.28 1850.79C6173.41 1851.09 6169.74 1852.77 6166.84 1855.57C6163.81 1858.42 6160.24 1860.51 6156.39 1861.71C6151.34 1863.49 6146.64 1866.25 6142.49 1869.86C6140.4 1871.66 6137.92 1872.85 6135.29 1873.31C6131.47 1874.23 6127.9 1876.1 6124.84 1878.77C6121.68 1881.18 6118.14 1882.95 6114.4 1884C6110.48 1885.01 6106.88 1887.13 6103.95 1890.14C6099.86 1893.95 6096.29 1898.23 6092.21 1901.36C6089.27 1904.09 6085.61 1905.72 6081.77 1906.03L6045.9 1906.39L6025.94 1906.21C6020.58 1906.09 6015.31 1907.74 6010.83 1910.95C6005.38 1915.43 5998.31 1915.71 5992.87 1919.74C5988.5 1923.1 5983.67 1925.65 5978.56 1927.32C5974.69 1928.52 5971.11 1930.66 5968.1 1933.57C5965.19 1936.38 5961.53 1938.1 5957.66 1938.47C5951 1939.2 5944.35 1939.48 5937.8 1939.99C5935.11 1940.17 5932.53 1941.21 5930.39 1942.98C5926.2 1946.57 5922.01 1950.16 5918.02 1954.2C5915.03 1957.11 5911.45 1959.22 5907.57 1960.34C5903.78 1961.46 5900.22 1963.39 5897.12 1966.03C5893.01 1969.76 5887.86 1971.87 5882.52 1972.02C5874.51 1971.95 5866.61 1971.87 5858.61 1971.8C5854.66 1971.77 5850.6 1971.73 5846.65 1972.26C5842.69 1972.74 5838.85 1974.09 5835.38 1976.24C5826.71 1981.83 5826.7 1982.17 5820.88 1982.46C5812.87 1982.76 5805.1 1985.51 5798.46 1990.42C5796.72 1991.46 5794.76 1992 5792.78 1991.99C5790.79 1991.97 5788.85 1991.39 5787.13 1990.32L5780.1 1986.06C5776.67 1983.89 5772.85 1982.58 5768.9 1982.22C5762.22 1982.12 5755.67 1980.23 5749.82 1976.72C5748.64 1976.04 5747.32 1975.67 5745.99 1975.66C5744.65 1975.65 5743.32 1975.99 5742.13 1976.65C5736.21 1979.92 5729.69 1981.72 5723.06 1981.92C5717.74 1982.19 5712.6 1984.11 5708.25 1987.46C5703.71 1990.57 5698.38 1992.03 5693.03 1991.63C5689.05 1991.99 5685.07 1991.01 5681.62 1988.81C5675.06 1983.73 5667.18 1981.08 5659.13 1981.24C5644.58 1981.11 5629.92 1980.98 5615.26 1980.85C5611.31 1980.81 5607.37 1980.21 5603.42 1979.72C5600.78 1979.34 5598.31 1978.05 5596.39 1976.03C5586.09 1964.61 5575.8 1953.18 5565.51 1941.76C5555.21 1930.34 5547.19 1920.86 5538.13 1910.35C5535.54 1907.06 5533.65 1903.17 5532.62 1898.97C5531.35 1894.83 5529.41 1890.98 5526.9 1887.59C5521.05 1879.6 5514.04 1872.97 5507.97 1865.32C5505.47 1862.08 5503.85 1858.14 5503.29 1853.95C5502.21 1846.8 5502.69 1839.43 5501.41 1832.4C5500.83 1829.59 5499.41 1827.08 5497.38 1825.25C5495.34 1823.43 5492.8 1822.4 5490.16 1822.32C5487.54 1822.02 5484.89 1821.99 5482.26 1822.25C5479.63 1822.59 5477.09 1823.57 5474.86 1825.13C5469.42 1829.28 5464.38 1834.11 5458.94 1838.36C5455.66 1840.82 5451.76 1842.09 5447.78 1842C5442.46 1842.43 5437.13 1841.21 5432.43 1838.47C5428.01 1835.22 5423.16 1832.73 5418.04 1831.09C5415.51 1830.34 5413.18 1828.96 5411.22 1827.06C5404.33 1820.27 5397.86 1812.98 5391.87 1805.24C5391 1804.16 5390.37 1802.88 5390.03 1801.48C5388.22 1794.5 5385.02 1788.05 5380.64 1782.59C5378.07 1779.39 5375.92 1775.63 5373.35 1772.33C5370.89 1768.88 5369.54 1764.65 5369.5 1760.28C5369.6 1750.08 5369.69 1740 5369.15 1729.79C5369.28 1715.4 5369.41 1700.9 5369.02 1686.39C5368.87 1682.15 5367.32 1678.11 5364.65 1675.02C5359.41 1668.4 5354.37 1662.01 5348.5 1655.84C5345.72 1652.84 5342.06 1651 5338.15 1650.64C5331.51 1649.9 5324.86 1649.73 5318.2 1649.67L5238.37 1648.96C5233.17 1648.91 5227.98 1648.3 5222.58 1647.8C5219.93 1647.54 5217.43 1646.37 5215.44 1644.45C5211.42 1640.56 5207.6 1636.56 5203.58 1633.01C5200.65 1630.17 5197.08 1628.23 5193.24 1627.36C5190.53 1627.34 5187.94 1626.52 5185.35 1625.93C5180.1 1625.08 5175.16 1622.69 5171.06 1619.01C5167.7 1616.67 5163.85 1615.27 5159.87 1614.94C5153.27 1614.06 5146.59 1615.85 5141.12 1619.98C5136.92 1623.71 5131.6 1625.61 5126.2 1625.29C5111.64 1625.73 5096.98 1625.82 5082.34 1624.9C5078.35 1624.89 5074.47 1623.51 5071.25 1620.95C5065.84 1616.73 5059.77 1613.6 5053.35 1611.72C5048.69 1609.18 5044.82 1605.21 5042.22 1600.29C5042.32 1598.87 5042.58 1597.46 5042.99 1596.1C5044.21 1591.21 5046.99 1586.94 5050.81 1584.05C5054.64 1581.16 5059.29 1579.84 5063.92 1580.31C5066.57 1580.15 5069.23 1580.55 5071.73 1581.51C5074.24 1582.46 5076.55 1583.95 5078.53 1585.88C5082.51 1589.75 5087.59 1592.03 5092.92 1592.36C5095.62 1592.38 5098.22 1592.4 5100.92 1592.43L5104.87 1592.46C5108.21 1592.56 5111.49 1591.53 5114.28 1589.53C5117.06 1587.53 5119.22 1584.65 5120.46 1581.27C5123.86 1573.03 5124.91 1572.47 5130.96 1570.03L5134.71 1568.71C5137.26 1567.9 5139.62 1566.49 5141.61 1564.57C5144.63 1562 5148.24 1560.39 5152.05 1559.91C5158.7 1559.97 5165.36 1559.35 5171.92 1558.61C5174.56 1558.32 5177.09 1557.25 5179.22 1555.51C5183.44 1551.91 5187 1547.48 5189.73 1542.45C5190.99 1539.92 5191.32 1536.96 5190.65 1534.18C5189.98 1531.39 5188.36 1528.99 5186.12 1527.46C5179.94 1524.91 5174.16 1521.34 5168.96 1516.88C5164.94 1514.28 5160.3 1513.01 5155.63 1513.25C5150.95 1513.49 5146.44 1515.23 5142.65 1518.24C5138.55 1521.84 5133.59 1524.08 5128.35 1524.68C5124.4 1524.64 5120.44 1525.86 5116.48 1526.39C5113.88 1527.01 5111.47 1528.36 5109.48 1530.29C5106.24 1532.82 5102.4 1534.28 5098.42 1534.5L5086.47 1535.07L5070.46 1534.93C5067.82 1535.04 5065.23 1535.75 5062.85 1537.01C5058.32 1540.04 5053.44 1542.4 5048.34 1544.02C5043.05 1544.65 5037.74 1544.95 5032.42 1544.9C5012.46 1544.72 4992.51 1544.54 4972.55 1544.37C4965.93 1544.4 4959.41 1546.08 4953.48 1549.29C4951.79 1550.45 4949.84 1551.06 4947.85 1551.04C4945.86 1551.02 4943.92 1550.38 4942.25 1549.19C4939.07 1546.57 4935.26 1545 4931.27 1544.68L4919.32 1544.57L4895.41 1544.36C4890.32 1544.31 4889.28 1544.3 4880.6 1538.67C4876.02 1535.74 4870.87 1534.02 4865.57 1533.66L4849.67 1532.5C4847 1532.33 4844.42 1531.37 4842.21 1529.72C4835.6 1524.82 4827.7 1522.4 4819.71 1522.83C4803.71 1522.69 4787.8 1522.54 4771.79 1522.4C4766.45 1522.66 4761.21 1520.67 4757.19 1516.83C4756.14 1515.97 4755.03 1515.21 4753.88 1514.53C4751.68 1512.89 4749.17 1511.82 4746.53 1511.41C4735.99 1509.73 4725.28 1509.63 4714.72 1511.12C4709.53 1512.35 4704.71 1515 4700.72 1518.82C4699.07 1520 4697.16 1520.69 4695.2 1520.83C4693.23 1520.97 4691.26 1520.56 4689.48 1519.62C4688.25 1519.1 4687.09 1518.36 4686.07 1517.44C4679.86 1511.79 4671.87 1508.99 4663.79 1509.65C4653.4 1509.56 4643 1509.46 4631.88 1509.36C4623.88 1508.74 4615.94 1511.33 4609.57 1516.64C4607.49 1518.5 4605.06 1519.83 4602.46 1520.55C4597.37 1522.06 4592.56 1524.55 4588.26 1527.9C4586.02 1529.51 4583.43 1530.43 4580.75 1530.55C4575.44 1531.18 4570.35 1531.25 4564.84 1531.43C4555.48 1531.35 4546.23 1531.26 4536.87 1531.86C4534.23 1532.12 4531.69 1533.07 4529.46 1534.63C4527.3 1536.34 4524.62 1537.09 4521.97 1536.7C4519.32 1536.32 4516.91 1534.84 4515.24 1532.57C4514.31 1531.54 4513.18 1530.74 4512.25 1529.71C4510.48 1527.58 4509.32 1524.92 4508.94 1522.07C4508.56 1519.22 4508.96 1516.31 4510.11 1513.71C4512.28 1510.08 4514.82 1506.72 4517.68 1503.7C4520.47 1500.41 4524.12 1498.15 4528.13 1497.22C4533.15 1495.4 4537.96 1492.93 4542.44 1489.87C4544.86 1488.67 4547.42 1487.85 4550.05 1487.44C4556.66 1486.76 4563.31 1486.82 4569.91 1487.62C4573.88 1488.21 4577.73 1489.5 4581.31 1491.46C4582.96 1492.36 4584.82 1492.73 4586.66 1492.53C4588.5 1492.32 4590.26 1491.55 4591.71 1490.31C4594.96 1487.73 4597.79 1484.58 4600.94 1482C4603.91 1479.27 4607.53 1477.49 4611.38 1476.88C4616.69 1476.25 4621.78 1475.96 4627.29 1475.78C4632.61 1475.51 4637.74 1473.5 4642 1470.02C4646.3 1466.54 4651.47 1464.57 4656.82 1464.37C4662.12 1464.42 4667.21 1464.46 4672.73 1463.61C4678.05 1462.91 4683.03 1460.37 4686.93 1456.37C4692.14 1451.89 4696.26 1446.09 4698.93 1439.48C4698.84 1438.09 4698.48 1436.73 4697.88 1435.5C4697.28 1434.26 4696.46 1433.18 4695.46 1432.31C4694.32 1431.59 4693.04 1431.16 4691.73 1431.03C4682.44 1430.11 4673.11 1429.76 4663.78 1429.98C4653.38 1429.89 4642.99 1429.8 4631.86 1429.7C4623.85 1429.13 4615.92 1431.76 4609.55 1437.09C4606.27 1439.63 4602.4 1441.13 4598.39 1441.41C4593.18 1442.04 4587.99 1442.22 4582.47 1442.4C4578.49 1442.71 4574.61 1443.95 4571.11 1446.04C4569.96 1446.6 4569.02 1447.72 4567.87 1448.39C4564.41 1450.64 4560.51 1451.92 4556.5 1452.14L4512.63 1451.75L4480.72 1451.47C4475.41 1451.59 4470.23 1453.27 4465.71 1456.32C4461.15 1459.34 4455.93 1460.97 4450.59 1461.05L4418.68 1460.77C4410.68 1460.7 4402.67 1460.63 4394.67 1460.55C4390.81 1460.61 4387.1 1462.19 4384.23 1464.99C4383.22 1465.92 4382.13 1466.74 4380.99 1467.46C4377.01 1470.15 4372.44 1471.6 4367.77 1471.66C4363.09 1471.72 4358.5 1470.38 4354.47 1467.79C4352.12 1465.24 4349.32 1463.22 4346.25 1461.85C4343.18 1460.48 4339.88 1459.79 4336.56 1459.81L4324.61 1459.7C4319.29 1459.53 4314.16 1457.59 4309.9 1454.13C4307.77 1452.3 4305.23 1451.15 4302.55 1450.78C4298.61 1450.06 4294.57 1450.95 4291.19 1453.28C4286.36 1457.21 4280.52 1459.36 4274.5 1459.43C4268.48 1459.5 4262.6 1457.48 4257.71 1453.66C4253.18 1450.62 4248.01 1448.9 4242.68 1448.66C4240.05 1448.52 4237.43 1448.04 4234.9 1447.23C4232.35 1446.44 4229.99 1445.07 4227.97 1443.2C4225.04 1440.25 4222.42 1436.96 4220.16 1433.38C4218.81 1430.93 4218.11 1428.12 4218.14 1425.26C4218.16 1422.4 4218.91 1419.61 4220.3 1417.18C4222.78 1413.77 4225.67 1410.74 4228.91 1408.19C4231.05 1406.45 4233.57 1405.35 4236.21 1404.97C4241.51 1405.02 4246.62 1404.04 4252.13 1403.98C4258.82 1403.99 4265.33 1401.53 4270.59 1397.01C4273.74 1394.34 4277.56 1392.79 4281.55 1392.57C4290.85 1391.58 4300.22 1391.66 4309.51 1392.82C4313.39 1393.28 4317.02 1395.1 4319.86 1398.01C4322.76 1401.04 4326.32 1403.21 4330.2 1404.34C4334.06 1405.51 4337.81 1407.1 4341.38 1409.08C4342.95 1410.09 4344.74 1410.63 4346.57 1410.65C4348.39 1410.66 4350.19 1410.16 4351.78 1409.18C4352.82 1408.28 4353.98 1407.56 4355.23 1407.05C4363.03 1405.02 4370.36 1401.23 4376.74 1395.91C4379.02 1394.4 4381.7 1393.81 4384.34 1394.22C4386.97 1394.64 4389.39 1396.04 4391.17 1398.2C4395.84 1403.34 4400.88 1408.08 4406.22 1412.38C4408.38 1414.07 4410.92 1415.08 4413.58 1415.28C4424.18 1416.45 4434.87 1416.55 4445.49 1415.57C4449.48 1415.16 4453.19 1413.18 4455.94 1409.99C4459.71 1405.95 4463.8 1402.25 4467.89 1398.77C4470.54 1396.58 4473.83 1395.5 4477.15 1395.74C4480.47 1395.98 4483.6 1397.51 4485.96 1400.06C4487.92 1402.01 4489.67 1404.29 4491.63 1406.23C4493.45 1408.33 4495.37 1410.31 4497.39 1412.18C4500.52 1414.9 4504.37 1416.45 4508.37 1416.58L4524.28 1416.72C4528.27 1416.56 4532.19 1415.43 4535.74 1413.43C4542.28 1408.37 4550.15 1405.77 4558.16 1406.04C4560.77 1405.47 4563.32 1404.62 4565.77 1403.5C4573.05 1397.03 4582.16 1393.51 4591.54 1393.53C4594.17 1393.2 4596.66 1392.09 4598.74 1390.31C4601.84 1387.59 4605.39 1385.55 4609.19 1384.28C4614.38 1383.09 4619.27 1380.65 4623.5 1377.16C4625.63 1375.39 4628.03 1374.07 4630.6 1373.25C4631.9 1372.92 4633.16 1372.44 4634.36 1371.81C4636.02 1370.65 4637.43 1369.11 4638.5 1367.3C4639.58 1365.49 4640.29 1363.46 4640.58 1361.33C4640.25 1359.21 4639.53 1357.19 4638.46 1355.38C4637.38 1353.58 4635.98 1352.04 4634.34 1350.85C4630.67 1349.54 4627.18 1347.68 4623.99 1345.32C4619.9 1341.56 4614.83 1339.3 4609.49 1338.84C4605.52 1338.77 4601.58 1338.12 4597.76 1336.92C4596.46 1336.6 4595.23 1336.02 4594.14 1335.19C4586.1 1327.64 4579.74 1318.29 4570.96 1311.41C4566.52 1307.97 4564.03 1307.5 4560.58 1310.19C4556.72 1314.16 4552.39 1317.55 4547.7 1320.27C4546.47 1320.79 4545.15 1321 4543.84 1320.89C4542.53 1320.78 4541.26 1320.35 4540.12 1319.64C4537.85 1318.12 4535.71 1316.4 4533.72 1314.48C4530.73 1311.73 4527.95 1308.42 4524.75 1306.01C4522.37 1304.72 4519.65 1304.37 4517.06 1305.04C4515.73 1305.14 4514.45 1305.65 4513.36 1306.5C4512.27 1307.35 4511.41 1308.51 4510.89 1309.86C4509.96 1311.75 4509.47 1313.87 4509.45 1316.02C4509.43 1318.17 4509.88 1320.29 4510.78 1322.21C4514.99 1327.8 4519.2 1333.61 4523.52 1338.87C4524.87 1340.47 4525.91 1342.35 4526.59 1344.4C4527.26 1346.45 4527.56 1348.62 4527.47 1350.8C4527.75 1353.66 4527.73 1356.55 4527.39 1359.41C4526.29 1365.86 4523.44 1370.71 4517.62 1370.66C4513.69 1371.36 4509.69 1371.32 4505.77 1370.55C4503.13 1370.06 4500.64 1368.87 4498.53 1367.09C4491.94 1360 4485.45 1352.69 4478.86 1345.49C4475.14 1341.34 4470.41 1338.42 4465.21 1337.1C4461.46 1335.8 4457.96 1333.77 4454.87 1331.11C4452.2 1328.97 4448.97 1327.8 4445.65 1327.77C4442.33 1327.74 4439.08 1328.85 4436.37 1330.95C4434.11 1332.48 4431.78 1333.86 4429.37 1335.08C4427.58 1336.03 4425.61 1336.47 4423.62 1336.35C4421.64 1336.23 4419.72 1335.56 4418.04 1334.41C4416.9 1333.72 4415.87 1332.8 4414.74 1332C4409.21 1327.88 4402.54 1325.98 4395.87 1326.62C4391.89 1326.61 4387.99 1327.92 4384.71 1330.37C4381.49 1332.94 4377.82 1334.78 4373.94 1335.78C4370.06 1336.78 4366.03 1336.91 4362.1 1336.18C4359.43 1336.03 4356.87 1335.02 4354.74 1333.28C4348.36 1327.98 4340.48 1325.26 4332.46 1325.6L4276.53 1325.1C4273.94 1325.08 4271.33 1325.85 4268.62 1326.05C4265.99 1326.42 4263.54 1327.72 4261.65 1329.75C4259.75 1331.78 4258.52 1334.42 4258.13 1337.29C4257.42 1344.48 4258.43 1351.75 4261.06 1358.39C4261.51 1359.77 4261.62 1361.26 4261.39 1362.71C4261.15 1364.16 4260.58 1365.51 4259.72 1366.65C4258.86 1367.78 4257.75 1368.65 4256.49 1369.18C4255.23 1369.7 4253.87 1369.87 4252.54 1369.65C4249.93 1369.49 4247.33 1369.16 4244.75 1368.67C4243.4 1368.55 4242.11 1368.03 4241.02 1367.16C4233.19 1359.27 4225.68 1351.16 4217.74 1343.5C4214.96 1340.75 4211.76 1338.01 4207.36 1341.25C4200.56 1346.06 4191.93 1345.99 4185.24 1350.91C4183.67 1352.08 4181.79 1352.63 4179.9 1352.46C4178.01 1352.3 4176.23 1351.44 4174.85 1350.03C4171.64 1347.45 4168.61 1344.62 4165.78 1341.56C4159.08 1334.47 4152.6 1327.28 4146.11 1320.08L4135 1307.63C4131.11 1303.65 4126.04 1301.32 4120.71 1301.04C4114.06 1300.16 4107.34 1302.08 4101.95 1306.43C4098.62 1308.89 4094.78 1310.41 4090.78 1310.86C4088.19 1310.84 4085.48 1311.38 4082.88 1311.81C4078.95 1312.43 4075.3 1314.38 4072.43 1317.38C4069.54 1320.35 4066.93 1323.63 4064.65 1327.17C4063.58 1328.96 4062.92 1331.02 4062.74 1333.15C4062.56 1335.28 4062.85 1337.43 4063.61 1339.4C4064.57 1342.13 4065.88 1344.69 4067.49 1347.03C4069.22 1350.1 4070.36 1353.52 4070.87 1357.09C4071.37 1360.65 4071.22 1364.29 4070.42 1367.79C4070.09 1370.55 4068.84 1373.09 4066.9 1374.91C4064.97 1376.73 4062.49 1377.71 4059.94 1377.67C4058.63 1377.58 4057.34 1377.3 4056.1 1376.84C4051.66 1373.67 4046.95 1370.97 4042.03 1368.79C4037 1367.05 4032.28 1364.4 4028.07 1360.95C4025.83 1359.38 4023.3 1358.37 4020.66 1358.02C4018.01 1357.66 4015.33 1357.96 4012.8 1358.89L4009.05 1360.22C3982.18 1366.1 3993.19 1390.11 3988.87 1407.52C3985.97 1418.83 4001.09 1447.86 3969.16 1438.17L3967.41 1425.23C3967.09 1422.38 3966.26 1419.62 3964.96 1417.12C3963.66 1414.62 3961.93 1412.42 3959.84 1410.66L3956.85 1407.8C3953.18 1404.69 3948.81 1402.69 3944.2 1402.01C3939.59 1401.34 3934.89 1402 3930.59 1403.94C3928.09 1404.95 3925.73 1406.34 3923.58 1408.07C3920.15 1410.31 3916.22 1411.49 3912.22 1411.48C3902.97 1411.4 3893.62 1411.31 3884.36 1411.23L3801.2 1410.49C3797.24 1410.64 3793.28 1411.02 3789.34 1411.63C3788.08 1411.99 3786.91 1412.64 3785.9 1413.54C3784.88 1414.44 3784.06 1415.56 3783.48 1416.83C3782.89 1418.1 3782.57 1419.49 3782.52 1420.91C3782.47 1422.33 3782.7 1423.75 3783.19 1425.06C3785.54 1430.07 3787.91 1432.35 3791.86 1432.73C3795.8 1433.1 3802.24 1433.84 3807.75 1434.12C3814.44 1434.5 3820.72 1437.73 3825.24 1443.11C3826.11 1444.2 3827.04 1445.23 3828.02 1446.2C3830.25 1448.84 3831.48 1452.32 3831.45 1455.92C3831.41 1459.52 3830.13 1462.97 3827.84 1465.57C3825.98 1467.6 3823.98 1469.47 3821.87 1471.19C3820.36 1472.66 3818.45 1473.54 3816.43 1473.68C3814.41 1473.83 3812.41 1473.23 3810.74 1471.99C3806.17 1469.06 3801.01 1467.42 3795.71 1467.21C3790.43 1466.61 3785.3 1464.95 3780.57 1462.32C3774.26 1459.09 3774.05 1458.97 3769.55 1462.22C3764.99 1465.26 3759.78 1466.93 3754.44 1467.07C3745.19 1466.99 3735.83 1466.9 3726.58 1466.82C3717.33 1466.74 3710.57 1466.68 3702.67 1466.61C3697.33 1466.54 3692.1 1468.23 3687.66 1471.46C3684.59 1474.26 3680.7 1475.78 3676.7 1475.74C3672.7 1475.7 3668.85 1474.12 3665.83 1471.27C3661.56 1467.76 3656.36 1465.85 3651.01 1465.81C3639.06 1465.7 3627.11 1465.03 3615.26 1464.47C3611.25 1464.12 3607.39 1462.64 3604.07 1460.17C3602.93 1459.42 3601.76 1458.73 3600.56 1458.1C3598.18 1456.5 3595.99 1457.16 3594.09 1460.2C3590.49 1467.65 3572.48 1458.65 3578.14 1476.71C3579.95 1479.92 3582.72 1482.34 3585.98 1483.58C3588.4 1484.8 3590.94 1485.69 3593.55 1486.26C3601.55 1486.31 3609.34 1489.07 3615.83 1494.16C3619.02 1496.81 3622.9 1498.27 3626.91 1498.34C3632.21 1498.39 3637.3 1499.11 3642.81 1499.5C3646.78 1500.01 3650.59 1501.56 3653.89 1504.02C3655.03 1504.71 3655.95 1505.85 3657.09 1506.66C3660.46 1508.96 3664.26 1510.42 3668.21 1510.92C3672.16 1511.43 3676.16 1510.97 3679.93 1509.58C3682.46 1508.64 3684.94 1507.52 3687.35 1506.25C3691.62 1504.47 3691.73 1504.25 3697.73 1507.81C3703.89 1510.45 3710.41 1512 3717.02 1512.41C3720.86 1513.22 3724.43 1515.13 3727.37 1517.94L3730.15 1521.02C3733.97 1525.11 3736.19 1530.65 3736.35 1536.49C3736.45 1540.84 3735.81 1545.17 3734.47 1549.28C3733.33 1551.1 3731.75 1552.55 3729.91 1553.48C3728.07 1554.4 3726.04 1554.76 3724.03 1554.51C3721.46 1553.96 3719 1552.9 3716.78 1551.39C3711.11 1547.48 3704.51 1545.49 3697.8 1545.66L3665.89 1545.38C3655.5 1545.29 3645.1 1545.19 3633.98 1545.09C3629.33 1545.58 3624.64 1545.03 3620.18 1543.5C3615.73 1541.96 3611.61 1539.45 3608.07 1536.14C3604.69 1533.81 3600.77 1532.59 3596.77 1532.63C3592.82 1532.6 3588.77 1532.56 3584.82 1532.53C3576.81 1532.46 3568.91 1532.39 3560.91 1532.31C3551.57 1532.55 3542.39 1529.71 3534.58 1524.15C3532.8 1523.18 3530.85 1522.67 3528.87 1522.65C3526.89 1522.63 3524.93 1523.11 3523.14 1524.04C3521.95 1524.64 3520.82 1525.39 3519.79 1526.28C3515.32 1529.52 3510.13 1531.39 3504.78 1531.7C3492.83 1532.33 3480.85 1532.22 3468.91 1531.38C3464.96 1531.04 3461.14 1529.73 3457.72 1527.54C3455.34 1526.16 3453.49 1523.99 3451.11 1522.83C3446.24 1520.64 3440.75 1518.89 3436.19 1516.81C3431.64 1514.73 3430.39 1514.38 3421.63 1517.92C3417.9 1519.48 3413.95 1520.33 3409.96 1520.43C3403.31 1520.47 3396.84 1522.84 3391.5 1527.17C3390.41 1528.06 3389.22 1528.77 3387.95 1529.3C3386.74 1529.78 3385.48 1530.11 3384.2 1530.28C3377.54 1530.79 3370.88 1531.3 3364.23 1531.58C3358.88 1531.94 3353.87 1534.53 3350.23 1538.82C3347.13 1541.61 3343.19 1543.07 3339.17 1542.91C3332.56 1543.87 3325.85 1542.07 3320.4 1537.87C3316.69 1534.78 3314.19 1535.66 3309.99 1539.59C3305.8 1543.52 3304.73 1547.02 3305.73 1550.88C3307.74 1556.23 3311.37 1560.66 3316.02 1563.44C3317.23 1563.98 3318.54 1564.23 3319.86 1564.16C3325.16 1564.2 3330.25 1564.93 3335.75 1565.09L3391.68 1565.59C3401.02 1566.25 3410.31 1563.59 3418.15 1558.01C3419.9 1556.99 3421.85 1556.47 3423.83 1556.49C3425.81 1556.51 3427.75 1557.06 3429.48 1558.11C3431.86 1559.38 3434.24 1560.65 3436.52 1562.14C3439.95 1564.36 3443.82 1565.64 3447.81 1565.87L3495.62 1567.43C3498.33 1567.42 3500.95 1568.4 3503.08 1570.21C3504.11 1571.02 3505.35 1571.59 3506.39 1572.51C3511.66 1577 3518.13 1579.53 3524.83 1579.7C3530.21 1580.04 3535.25 1582.65 3538.9 1586.97C3539.84 1587.98 3540.74 1589.04 3541.57 1590.16C3542.32 1590.87 3542.91 1591.75 3543.31 1592.73C3543.71 1593.71 3543.92 1594.77 3543.91 1595.85C3543.9 1596.92 3543.67 1597.99 3543.25 1598.96C3542.83 1599.93 3542.23 1600.8 3541.47 1601.49L3535.7 1607.45C3533.7 1609.35 3531.23 1610.56 3528.59 1610.92C3525.96 1611.28 3523.29 1610.78 3520.92 1609.47C3513.61 1603.03 3504.27 1599.98 3494.9 1600.96L3490.95 1600.93C3485.6 1600.83 3480.35 1602.57 3475.94 1605.89C3471.65 1609.34 3466.55 1611.38 3461.23 1611.77C3458.53 1611.74 3455.93 1611.72 3453.23 1611.7C3445.19 1611.5 3437.32 1614.18 3430.81 1619.32C3428.67 1621.03 3426.14 1622.07 3423.5 1622.31C3420.8 1622.29 3418.2 1622.94 3415.49 1622.92L3343.77 1622.28C3338.4 1622.14 3333.26 1619.84 3329.37 1615.8C3324.53 1610.89 3319.8 1605.86 3314.85 1601.17C3313.68 1600.45 3312.35 1600.08 3311.01 1600.11C3309.04 1599.92 3307.06 1600.34 3305.31 1601.33C3303.55 1602.32 3302.08 1603.83 3301.09 1605.69C3299.82 1609.78 3300.04 1614.25 3301.7 1618.16C3304.12 1621.6 3306.76 1624.85 3309.62 1627.87C3313.11 1632.2 3316.61 1636.54 3319.9 1640.65C3322.77 1643.66 3324.97 1647.34 3326.34 1651.42C3327.7 1655.49 3328.2 1659.86 3327.8 1664.18C3327.75 1667.08 3327.16 1669.95 3326.04 1672.59C3324.92 1675.24 3323.32 1677.6 3321.32 1679.53L3316.17 1686.17C3310.45 1694.24 3302.54 1700.12 3293.56 1702.97C3290.02 1703.84 3289.07 1705.31 3286.41 1712.54C3285.54 1715.25 3283.97 1717.64 3281.89 1719.41C3279.81 1721.18 3277.3 1722.26 3274.68 1722.52L3266.76 1723.81C3262.91 1724.31 3259.27 1726.06 3256.32 1728.81C3242.89 1742.86 3229.15 1756.56 3216.23 1771.18C3208.88 1779.61 3200.91 1787.24 3193.04 1794.99C3189.11 1798.92 3184.38 1801.79 3179.25 1803.37C3176.74 1804.24 3174.45 1805.73 3172.56 1807.73C3169.51 1810.76 3166.47 1813.57 3163.33 1816.15C3160.95 1818.73 3158.08 1820.72 3154.93 1821.98C3151.78 1823.24 3148.42 1823.75 3145.07 1823.46C3138.4 1823.84 3132.12 1827.08 3127.63 1832.48C3124.8 1835.52 3121.55 1838.1 3118.72 1841.13C3115.92 1844.18 3112.22 1846.03 3108.28 1846.36C3098.92 1846.28 3089.66 1846.88 3080.31 1846.11C3071.01 1845.34 3061.72 1847.89 3053.84 1853.36C3051.55 1854.82 3049.04 1855.83 3046.43 1856.35C3041.48 1858.4 3036.8 1861.18 3032.53 1864.61C3027.83 1867.29 3022.83 1869.17 3017.92 1871.39C3011.8 1876.76 3004.67 1880.57 2997.03 1882.54C2990.24 1885.54 2990.14 1886.1 2981.96 1882.4C2979.56 1881.08 2976.96 1880.25 2974.29 1879.96L2946.43 1879.14C2939.78 1879.08 2933.13 1879.02 2926.47 1878.96C2921.15 1878.59 2916.02 1876.62 2911.66 1873.28C2903.5 1867.54 2902.56 1867.3 2897.16 1867.03C2891.76 1866.75 2883.96 1866.34 2877.31 1866.28C2870.61 1866.23 2864.11 1863.83 2858.76 1859.43C2855.5 1856.95 2851.65 1855.54 2847.68 1855.37C2842.37 1855.32 2837.28 1855.27 2831.68 1854.32C2827.69 1854.18 2823.82 1852.85 2820.48 1850.48C2818.33 1848.78 2816.01 1847.35 2813.56 1846.22C2807.11 1844.49 2801.12 1841.14 2796.07 1836.43C2791.31 1834.01 2786.34 1831.81 2781.69 1829.05C2776.5 1824.61 2770.56 1821.33 2764.21 1819.38C2761.87 1818.02 2759.63 1816.49 2757.49 1814.78C2754.33 1812.15 2751.3 1809.32 2748.42 1806.32C2743.66 1801.2 2737.29 1798.27 2730.61 1798.11C2727.29 1797.94 2724.03 1797.01 2721.06 1795.38C2718.08 1793.75 2715.45 1791.47 2713.34 1788.67C2711.59 1786.5 2709.63 1784.55 2707.88 1782.27C2707.01 1781.19 2706.38 1779.9 2706.05 1778.51C2704.42 1771.5 2701.11 1765.09 2696.44 1759.96C2692.73 1755.84 2689.34 1751.28 2685.53 1747.28C2682.71 1744.12 2679.13 1741.89 2675.19 1740.84C2670.03 1739.51 2665.31 1736.64 2661.55 1732.56C2658.83 1729.34 2655.62 1726.67 2652.05 1724.66C2650.87 1724.05 2649.58 1723.74 2648.27 1723.73C2646.96 1723.71 2645.66 1724.01 2644.46 1724.59C2639.75 1727.19 2634.82 1729.31 2629.75 1730.92C2627.15 1731.61 2624.74 1732.99 2622.75 1734.93C2618.39 1738.29 2613.17 1740.07 2607.84 1740.01C2591.82 1740.66 2575.93 1739.73 2559.91 1740.49C2557.24 1740.59 2554.67 1741.64 2552.6 1743.49C2548.62 1747.19 2544.33 1750.78 2540.55 1754.71C2532.78 1762.8 2525.43 1771.12 2517.77 1779.21C2514.82 1782.12 2511.71 1784.81 2508.45 1787.29C2506.77 1788.42 2504.9 1789.17 2502.94 1789.48C2500.99 1789.79 2499 1789.67 2497.1 1789.11C2491.45 1785.22 2484.79 1783.41 2478.12 1783.96C2467.73 1783.86 2457.33 1783.77 2446.21 1783.67C2442.24 1783.68 2438.28 1783.34 2434.37 1782.66C2430.46 1782.14 2426.83 1780.24 2424.02 1777.24C2422.17 1775.18 2420.1 1773.47 2418.14 1771.52C2414.63 1767.09 2410 1763.9 2404.82 1762.34C2399.76 1760.56 2395.21 1757.39 2391.59 1753.15C2388.92 1749.96 2386.03 1746.98 2383.15 1744.01C2380.32 1741.14 2376.66 1739.42 2372.8 1739.16C2363.55 1738.51 2354.2 1738.31 2344.95 1737.66C2340.92 1737.6 2336.99 1736.27 2333.65 1733.82C2331.57 1732.01 2329.27 1730.51 2326.83 1729.34C2320.54 1727.13 2314.61 1723.87 2309.24 1719.67C2305.99 1717.11 2302.07 1715.72 2298.05 1715.71L2274.15 1714.37C2268.81 1714.31 2263.62 1712.4 2259.34 1708.91C2254.96 1705.63 2249.83 1703.74 2244.52 1703.45L2204.6 1703.09C2197.92 1702.79 2191.33 1704.88 2185.84 1709.04C2181.35 1712.22 2176.06 1713.76 2170.72 1713.44C2166.73 1713.38 2162.81 1712.38 2159.21 1710.51C2154.86 1707.25 2150.17 1704.54 2145.25 1702.45C2140.21 1700.61 2135.44 1698.02 2131.08 1694.73C2128.74 1693.36 2126.16 1692.52 2123.51 1692.28C2112.94 1691 2102.28 1690.9 2091.7 1692C2089.06 1692.42 2086.56 1693.53 2084.39 1695.22C2075.07 1703.29 2067.7 1713.88 2057.96 1721.61C2056.26 1722.69 2054.36 1723.34 2052.39 1723.52C2050.43 1723.7 2048.46 1723.4 2046.62 1722.65C2044.27 1721.35 2042.09 1719.73 2040.11 1717.83C2036.8 1715.41 2033.03 1713.81 2029.09 1713.15C2025.14 1712.49 2021.11 1712.78 2017.28 1714C2015.93 1714.27 2014.67 1714.93 2013.62 1715.89C2000.83 1728.36 1987.83 1740.82 1975.65 1754.19C1973.33 1755.51 1970.88 1756.51 1968.34 1757.19C1963.04 1757.82 1957.94 1757.66 1952.43 1758.18C1946.91 1758.7 1944.52 1759.36 1940.56 1759.89C1939.07 1761.14 1937.23 1761.81 1935.35 1761.8C1933.46 1761.78 1931.64 1761.08 1930.17 1759.79C1928.42 1757.62 1927.01 1755.16 1925.97 1752.5L1917.37 1737.92C1916.69 1732.25 1916.22 1726.58 1915.13 1720.79C1914.5 1718.01 1913.4 1715.39 1911.87 1713.05C1910.44 1710.66 1908.27 1708.72 1906.73 1706.44C1905.46 1704.75 1903.89 1703.36 1902.11 1702.36C1900.33 1701.35 1898.39 1700.74 1896.39 1700.56C1887.14 1699.52 1877.84 1699.09 1868.54 1699.3C1864.56 1699.49 1860.57 1699.45 1856.59 1699.19C1852.6 1698.89 1848.75 1697.49 1845.4 1695.12C1839.95 1690.94 1833.4 1688.81 1826.74 1689.06L1822.68 1689.03C1814.69 1688.29 1806.7 1690.58 1800.07 1695.51C1796.61 1697.76 1792.62 1698.86 1788.6 1698.69C1780.7 1698.62 1772.7 1698.55 1764.69 1698.48L1756.79 1698.41C1750.09 1698.34 1743.55 1700.63 1738.13 1704.93C1735.91 1706.53 1733.33 1707.44 1730.67 1707.56C1728.01 1707.67 1725.37 1706.99 1723.05 1705.59C1719.42 1703.86 1716.12 1701.22 1712.71 1699.6C1710.23 1698.62 1707.51 1698.6 1705.01 1699.53C1703.72 1699.95 1702.51 1700.63 1701.46 1701.54C1697.24 1705.07 1692.46 1707.72 1687.36 1709.35C1683.53 1710.62 1679.98 1712.7 1676.91 1715.49C1673.81 1718.28 1669.96 1719.92 1665.95 1720.15C1659.35 1721 1652.68 1720.94 1646.09 1719.97C1642.17 1719.53 1638.52 1717.61 1635.75 1714.55C1634.76 1713.55 1633.65 1712.7 1632.44 1712.03C1630.16 1710.62 1627.5 1710.13 1624.92 1710.67C1622.34 1711.21 1620.02 1712.73 1618.38 1714.96C1615.96 1718.57 1615.3 1722.98 1613.08 1726.25C1610.87 1729.52 1608.24 1733.12 1606.23 1736.84C1605.16 1739.47 1604.3 1742.19 1603.66 1744.98C1602.6 1749.35 1600.35 1753.28 1597.22 1756.25C1595.33 1758.05 1593.14 1759.73 1591.04 1761.52C1587.28 1760.21 1583.77 1758.14 1580.7 1755.42C1579.64 1754.6 1578.64 1753.68 1577.71 1752.68C1562.7 1734.18 1546 1717.6 1530.15 1700.01C1526.69 1697.89 1522.66 1697.14 1518.74 1697.87C1515.18 1699.88 1511.84 1702.23 1508.28 1704.12C1504.67 1705.99 1500.71 1706.92 1496.72 1706.85C1491.39 1707.16 1486.14 1705.3 1482 1701.62C1475 1694.87 1468.09 1688.24 1461.4 1681.15C1458.56 1677.91 1455 1675.53 1451.06 1674.26C1446.05 1672.38 1441.2 1670.02 1436.57 1667.22C1431.81 1664.68 1429.08 1668.06 1426.14 1670.86C1419.63 1678.13 1412.62 1684.85 1405.17 1690.96C1402.99 1692.56 1400.45 1693.52 1397.83 1693.74C1395.2 1693.95 1392.57 1693.42 1390.19 1692.19C1389.04 1691.48 1387.97 1690.63 1386.99 1689.67C1383.65 1687.27 1379.89 1685.64 1375.94 1684.89C1372 1684.13 1367.95 1684.26 1364.05 1685.27C1361.44 1685.8 1358.98 1686.98 1356.85 1688.72C1353.66 1691.32 1350.68 1694.21 1347.94 1697.36C1344.07 1701.32 1339.47 1704.33 1334.45 1706.19C1329.26 1707.69 1324.65 1710.94 1321.27 1715.48C1319.38 1717.39 1317.28 1719.3 1315.39 1721.32C1312.66 1724.51 1308.96 1726.51 1304.98 1726.96C1301 1727.4 1297.01 1726.26 1293.75 1723.73C1289.56 1720.15 1284.46 1718.05 1279.14 1717.71L1275.09 1717.68C1269.74 1717.35 1264.65 1715.03 1260.7 1711.09C1257.49 1708.55 1253.75 1706.92 1249.82 1706.34C1245.86 1705.86 1241.87 1705.59 1237.88 1705.56L1217.92 1705.38C1211.23 1705.33 1204.63 1703.65 1198.63 1700.45C1196.81 1699.61 1194.83 1699.26 1192.86 1699.42C1190.89 1699.58 1188.98 1700.24 1187.29 1701.37C1183.73 1703.35 1179.64 1703.92 1175.74 1702.98C1171.84 1702.03 1168.36 1699.63 1165.92 1696.19L1151.5 1681.21C1146.87 1676.07 1142.34 1670.71 1137.5 1665.79C1134.58 1662.74 1131.04 1660.5 1127.16 1659.24C1123.35 1658.28 1119.8 1656.35 1116.81 1653.59C1113.85 1650.97 1110.26 1649.33 1106.46 1648.86C1099.83 1648.12 1093.15 1648.06 1086.5 1648.68C1083.85 1648.74 1081.27 1649.67 1079.1 1651.33C1072.53 1656.38 1064.6 1658.87 1056.58 1658.38C1046.18 1658.29 1035.27 1658.19 1024.67 1658.1C1020.66 1658.02 1016.76 1656.65 1013.48 1654.14C1012.36 1653.37 1011.08 1652.91 1009.76 1652.8C1008.44 1652.69 1007.11 1652.93 1005.89 1653.51C1003.39 1654.39 1000.99 1655.73 998.485 1656.5C990.803 1659.09 982.54 1658.7 975.104 1655.39C972.982 1653.68 970.499 1652.59 967.886 1652.21C965.273 1651.83 962.614 1652.18 960.153 1653.21C958.249 1653.79 956.251 1653.89 954.309 1653.5C952.367 1653.11 950.533 1652.24 948.946 1650.96C945.589 1648.58 941.652 1647.36 937.646 1647.46C930.99 1647.21 924.454 1645.46 918.459 1642.3C916.624 1641.53 914.637 1641.28 912.688 1641.58C910.738 1641.88 908.891 1642.72 907.321 1644.02C904.998 1645.44 902.378 1646.2 899.713 1646.21C890.461 1646.13 881.1 1646.61 871.846 1646.76C865.194 1646.7 858.542 1646.64 851.889 1646.58C846.589 1646.78 841.422 1648.45 836.875 1651.43C832.557 1654.95 827.243 1656.71 821.861 1656.4L813.961 1656.33C807.278 1656.75 800.663 1654.69 795.196 1650.49C792.502 1648.33 789.286 1647.08 785.944 1646.89C782.603 1646.7 779.282 1647.58 776.39 1649.42L753.306 1673.24C751.345 1675.2 749.041 1676.71 746.531 1677.69C744.022 1678.66 741.357 1679.06 738.701 1678.88C735.377 1679.25 732.023 1678.73 728.923 1677.38C725.822 1676.03 723.067 1673.89 720.89 1671.13L712.238 1662.1C708.428 1658.1 704.618 1653.99 701.017 1649.88C698.122 1647.15 694.486 1645.52 690.662 1645.25C689.349 1645.12 688.027 1645.11 686.712 1645.22C637.544 1644.78 588.381 1643.66 539.103 1643.9C535.135 1644.21 531.268 1645.41 527.74 1647.42C526.564 1648.1 525.444 1648.88 524.393 1649.77C520.972 1651.98 517.103 1653.23 513.132 1653.41C503.772 1653.89 494.519 1654.04 485.262 1654.52C481.334 1654.72 477.611 1656.5 474.822 1659.53C458.659 1676.72 441.67 1693.23 426.332 1711.11C421.755 1716.38 416.811 1721.26 411.543 1725.71C407.844 1728.81 403.463 1730.79 398.841 1731.47C394.219 1732.14 389.518 1731.48 385.207 1729.55C382.707 1728.54 380.37 1727.11 378.281 1725.3C374.938 1722.85 371.012 1721.52 366.983 1721.46C351.084 1720.75 335.077 1720.49 319.177 1719.9C315.171 1719.53 311.337 1717.96 308.094 1715.38C307.051 1714.52 306.052 1713.61 305.104 1712.63C302.114 1709.77 299.02 1707.02 296.241 1703.94C294.403 1701.81 292.142 1700.16 289.631 1699.12C283.389 1696.51 277.671 1692.61 272.788 1687.64C268.872 1683.75 264.537 1680.31 260.306 1676.88C259.08 1676.33 257.788 1675.97 256.469 1675.82C255.17 1675.51 253.851 1675.31 252.524 1675.22C229.967 1675.02 207.313 1674.02 184.748 1674.61C182.096 1674.96 179.48 1675.58 176.935 1676.47C168.347 1683.53 157.109 1684.68 148.623 1691.97C142.619 1695.26 135.684 1695.88 129.271 1693.72C127.357 1693.25 125.606 1692.19 124.221 1690.67C122.837 1689.16 121.874 1687.24 121.447 1685.15C120.67 1679.45 120.304 1673.69 120.354 1667.92C120.405 1662.14 118.369 1657.47 115.981 1657.11C112.048 1657.29 108.318 1659.08 105.54 1662.12L96.1126 1670.08C93.9842 1671.84 91.3778 1672.78 88.7083 1672.73L48.7907 1672.38C32.8865 1672.24 16.8785 1672.09 0.967108 1672.74L15.9195 -0.0935403L20803.5 185.713L20787.7 1958.38C20759.6 1992.12 20724.3 1996.11 20692.3 1989.37C20705 2036.4 20758.3 2022.71 20786.8 2053.9L20786.1 2132.2C20782.4 2133.51 20778.5 2134.31 20774.6 2134.59C20749.3 2135.16 20724.1 2134.14 20698.8 2133.91C20692.1 2133.95 20685.6 2131.71 20680.2 2127.51C20676.9 2124.91 20673.1 2123.38 20669.1 2123.11C20659.8 2122.12 20650.5 2122.04 20641.2 2122.86C20637.3 2123.65 20633.6 2125.27 20630.2 2127.63C20621.3 2133.22 20619.8 2133.43 20615.5 2133.51C20597 2134.25 20578.4 2134.08 20559.7 2133.01C20555.8 2132.56 20551.9 2131.3 20548.4 2129.28C20543.4 2124.45 20536.9 2121.82 20530.2 2121.87C20524.9 2121.67 20519.7 2120.11 20515.1 2117.31C20513.9 2116.51 20512.8 2115.25 20511.6 2115.13C20510.3 2115.21 20509 2115.63 20507.9 2116.34C20501.9 2119.44 20495.4 2121.23 20488.7 2121.61C20483.4 2121.53 20478.2 2123.4 20473.9 2126.92C20472.8 2127.77 20471.7 2128.49 20470.5 2129.04C20466.3 2131.35 20461.7 2132.45 20457 2132.23C20452.4 2132.01 20447.9 2130.48 20444 2127.78L20440.5 2125.49C20437.3 2122.98 20433.4 2121.61 20429.4 2121.53C20417.4 2120.86 20405.4 2120.75 20393.4 2120.3C20389.4 2120.06 20385.5 2119.06 20381.9 2117.37C20377 2112.91 20372.1 2115.24 20367.2 2117.24C20364.2 2118.78 20360.9 2119.38 20357.6 2118.97C20354.3 2118.56 20351.1 2117.16 20348.5 2114.92C20345.4 2112.14 20341.6 2110.56 20337.6 2110.4C20325.6 2110.29 20313.7 2109.39 20301.7 2109.06C20296.3 2108.97 20291.1 2107.11 20286.8 2103.71C20281.1 2099.99 20274.6 2098.01 20267.9 2097.99L20251.9 2097.85L20188.1 2097.28C20182.8 2097.23 20177.7 2096.5 20172.2 2096.12C20169.5 2095.91 20167 2094.78 20164.9 2092.88C20159.9 2088.06 20153.6 2085.21 20146.9 2084.78C20140.3 2084.46 20133.9 2081.91 20128.6 2077.48C20126.4 2075.84 20123.9 2074.7 20121.2 2074.13C20116.1 2072.55 20111.3 2069.97 20107.1 2066.52C20104.8 2065.05 20102.2 2064.13 20099.6 2063.85C20090.3 2062.86 20081 2062.78 20071.7 2063.6C20067.8 2063.75 20063.9 2065 20060.5 2067.24C20054.9 2071.23 20048.4 2073.38 20041.7 2073.42C20027.1 2073.29 20012.4 2073.16 19997.7 2073.03C19988.4 2073.56 19979.2 2070.77 19971.4 2065.08C19967.9 2062.99 19964 2062.08 19960 2062.49C19954.7 2062.26 19949.4 2063.71 19944.8 2066.66L19941.2 2068.67C19939 2070.26 19936.4 2071.1 19933.8 2071.07C19931.1 2071.05 19928.5 2070.17 19926.4 2068.53C19919.7 2063.65 19911.8 2061.09 19903.8 2061.19C19893.1 2061.53 19882.5 2061.13 19872 2060C19868.1 2059.39 19864.5 2057.54 19861.6 2054.7C19857.6 2050.83 19852.4 2048.62 19847 2048.45C19839.1 2048.38 19831.1 2047.74 19823.1 2047.44C19819.1 2047.39 19815.2 2046.1 19811.9 2043.71C19806.3 2039.9 19800.2 2036.84 19793.9 2034.6C19789 2032.52 19785.3 2027.84 19779.8 2027C19775.9 2026.39 19771.8 2026.02 19768 2025.19C19764 2024.58 19760.3 2022.41 19757.7 2019.09C19755.9 2016.92 19754 2014.86 19752 2012.92C19747.6 2007.47 19741.9 2003.48 19735.5 2001.44C19731.7 2000.16 19728.2 1998.13 19725.1 1995.46C19721.8 1993.06 19717.9 1991.8 19713.9 1991.84L19666.1 1990.28C19663.4 1990.2 19660.8 1989.31 19658.6 1987.72C19656.3 1986.23 19653.9 1984.96 19651.7 1983.36C19649.5 1981.8 19646.9 1980.73 19644.3 1980.23C19633.9 1978.55 19623.5 1978.45 19613.1 1979.95C19609.3 1980.77 19605.7 1982.52 19602.7 1985.07C19598.2 1988.25 19593 1989.94 19587.6 1989.92L19527.8 1989.39C19521.1 1989.66 19514.5 1987.4 19509.2 1982.99C19506 1980.37 19502.2 1978.76 19498.2 1978.36L19478.4 1976.14C19475.8 1975.85 19473.3 1974.77 19471.1 1973.01C19467 1969.48 19462.2 1966.75 19457.2 1964.96C19453.5 1963.58 19450 1961.56 19446.8 1958.97C19443.5 1956.51 19439.7 1955.17 19435.7 1955.13L19407.7 1954.88C19402.4 1955.1 19397 1954.41 19391.9 1952.82C19388.3 1951.11 19384.8 1949.07 19381.6 1946.72C19379.3 1945.21 19376.7 1944.37 19374 1944.27C19366.1 1944.2 19358.1 1943.45 19350.1 1943.38L19242.4 1942.41C19232 1942.32 19221.6 1942.23 19210.5 1942.13C19201.1 1942.82 19191.8 1939.48 19184.7 1932.83C19181.1 1931.01 19177.2 1929.9 19173.3 1929.56L19141.4 1928.7C19136.1 1928.33 19130.9 1926.66 19126.3 1923.81C19117.3 1918.63 19116.6 1918.51 19111.4 1918.46L19071.5 1918.11C19064.9 1918.09 19058.3 1919.54 19052.1 1922.35C19048 1924.13 19047.9 1923.79 19041.1 1921.12C19038.7 1919.89 19036.2 1919.03 19033.6 1918.56C19026.9 1917.94 19020.3 1917.65 19013.6 1917.48L18941.9 1916.84C18937.9 1916.46 18934.1 1915.2 18930.6 1913.11C18929.4 1912.48 18928.2 1911.71 18927.2 1910.81C18923.8 1908.36 18919.9 1907.03 18915.9 1906.97C18903.9 1906.86 18892 1906.76 18880 1905.97L18864 1905.83C18857.3 1906.1 18850.7 1903.89 18845.4 1899.54C18840 1895.21 18833.5 1892.96 18826.8 1893.14L18806.8 1892.96L18798.8 1892.89C18793.5 1892.73 18788.4 1890.96 18783.9 1887.77C18779.5 1884.58 18774.3 1882.71 18769 1882.37C18763.7 1882.02 18758.4 1883.21 18753.6 1885.8C18751.9 1886.95 18750 1887.63 18748 1887.79C18746 1887.95 18744.1 1887.59 18742.2 1886.72C18737.6 1883.92 18732.5 1882.25 18727.2 1881.83C18720.5 1881.6 18714 1879.26 18708.6 1875.09C18705.3 1872.64 18701.4 1871.34 18697.4 1871.36C18685.4 1871.25 18673.4 1871.15 18661.4 1871.04C18657.4 1871.02 18653.4 1872.12 18649.9 1874.22C18648.2 1875.35 18646.3 1876 18644.4 1876.14C18642.4 1876.28 18640.4 1875.9 18638.6 1875.03C18633.9 1872.4 18628.7 1870.85 18623.4 1870.47L18595.5 1870.22C18587.4 1870.88 18579.4 1868.09 18573.2 1862.43C18569.8 1860.26 18566 1858.91 18562 1858.48C18556.7 1858.43 18551.6 1858.39 18546 1857.77L18518.2 1857.52C18512.8 1857.45 18507.5 1855.5 18503.2 1851.95C18497.5 1848.31 18491 1846.37 18484.4 1846.34L18452.5 1845.38C18451.2 1845.19 18449.9 1844.83 18448.6 1844.32C18447.3 1844.1 18446.1 1843.63 18444.9 1842.93C18438.4 1837.8 18430.6 1834.93 18422.6 1834.68C18418.6 1834.62 18414.7 1832.98 18411.7 1830.05C18409 1827.08 18405.8 1824.33 18402.9 1821.36C18398.1 1816.33 18393.4 1811.3 18388.8 1806.05C18385.9 1803.19 18382.3 1801.45 18378.4 1801.08C18371.8 1800.34 18365.1 1800.29 18358.5 1800.91C18355.8 1801.04 18353.2 1802 18351.1 1803.67C18344.5 1808.81 18336.6 1811.27 18328.5 1810.61L18320.5 1810.54C18316.5 1810.58 18312.6 1809.37 18309.2 1807.04C18302.6 1802.09 18294.7 1799.59 18286.6 1799.92C18280 1799.86 18273.4 1799.81 18266.8 1799.18C18264.1 1799.06 18261.5 1798.34 18259.1 1797.07C18257.8 1796.63 18256.6 1795.96 18255.5 1795.11C18250 1791.05 18244.1 1787.76 18237.9 1785.32C18235.6 1783.86 18233.4 1782.25 18231.3 1780.5C18228 1778.04 18224.1 1776.67 18220.1 1776.55C18208.2 1776.44 18196.2 1775.54 18184.3 1775.21C18180.2 1774.99 18176.4 1773.45 18173.2 1770.81C18167.7 1766.66 18161.2 1764.46 18154.5 1764.52C18149.2 1764.74 18143.9 1764.27 18138.7 1763.13C18137.4 1762.86 18136.2 1762.39 18135 1761.74C18128.2 1757.2 18122.3 1751.26 18117.6 1744.24C18116.2 1741.81 18115.2 1739.11 18114.6 1736.29C18114.2 1734.88 18114.2 1733.35 18114.7 1731.96C18115.2 1730.56 18116 1729.38 18117.2 1728.6C18118.2 1727.74 18119.2 1726.71 18119.9 1725.57C18121.2 1723.96 18122.9 1722.68 18124.7 1721.8C18126.5 1720.91 18128.4 1720.46 18130.4 1720.45C18139.7 1719.74 18149 1719.82 18158.3 1720.7C18162.3 1720.62 18166.3 1721.8 18169.6 1724.09C18176.2 1729.08 18184.1 1731.58 18192.1 1731.2C18205.4 1731.32 18218.7 1732 18232.1 1730.88C18233.4 1730.81 18234.6 1730.33 18235.6 1729.49C18236.7 1728.65 18237.5 1727.5 18237.9 1726.17C18238.4 1724.82 18238.5 1723.37 18238.2 1721.96C18238 1720.56 18237.3 1719.26 18236.4 1718.22C18232.7 1714.03 18229.2 1709.48 18226.2 1704.65C18224.9 1702.1 18224.4 1699.22 18224.7 1696.36C18224.7 1694.93 18225.1 1693.53 18225.8 1692.33C18226.6 1691.13 18227.6 1690.19 18228.8 1689.6C18229.9 1688.83 18231.1 1688.31 18232.4 1688.04C18239 1687.42 18245.7 1687.03 18252.3 1686.75C18257.6 1686.41 18262.7 1684 18266.5 1679.96C18267.5 1679.01 18268.5 1678 18269.4 1676.93C18272.8 1673.36 18275 1668.79 18276 1663.82C18276.9 1658.84 18276.4 1653.68 18274.7 1648.99C18274.4 1647.55 18273.7 1646.22 18272.8 1645.12C18270 1642.13 18266.9 1639.41 18263.6 1636.99C18262.5 1636.22 18261.2 1635.81 18259.9 1635.8C18258.6 1635.79 18257.3 1636.18 18256.2 1636.92C18250.5 1640.75 18243.8 1642.55 18237.1 1642.08C18231.8 1642.27 18226.5 1641.73 18221.3 1640.46C18220 1640.19 18218.8 1639.6 18217.7 1638.73C18213.8 1634.84 18210 1630.84 18206.4 1626.62C18201.7 1621.46 18196.8 1616.64 18191.5 1612.21C18188.3 1609.57 18184.5 1608.08 18180.4 1607.91C18176.5 1607.88 18172.5 1607.84 18168.5 1607.81C18161.8 1607.95 18155.3 1605.48 18150.2 1600.84C18148.2 1598.9 18145.7 1597.69 18143 1597.38C18136.4 1596.64 18129.7 1596.13 18123.2 1595.28C18119.2 1595.01 18115.4 1593.39 18112.3 1590.65L18103.4 1581.84C18098.8 1576.61 18092.4 1573.55 18085.7 1573.3C18073.8 1573.19 18061.8 1573.08 18049.9 1571.84C18047.9 1571.93 18046 1571.4 18044.3 1570.32C18042.6 1569.24 18041.2 1567.66 18040.3 1565.75C18039.4 1563.02 18038.3 1560.41 18037.3 1557.68C18034.5 1551.11 18030 1545.59 18024.3 1541.81C18022.1 1540.13 18019.6 1539.1 18016.9 1538.8C18010.3 1537.89 18003.7 1537.83 17997.1 1538.62C17993.2 1539.2 17989.6 1540.93 17986.6 1543.63C17982.5 1547.22 17978.8 1551.38 17974.8 1554.85C17971.9 1557.72 17968.2 1559.45 17964.3 1559.75C17957.7 1559.69 17951 1560.19 17944.5 1560.14C17940.5 1560.52 17936.4 1560 17932.6 1558.62C17928.8 1557.24 17925.3 1555.03 17922.3 1552.12C17919.1 1549.49 17915.2 1548.03 17911.2 1547.94C17902 1547.18 17892.6 1546.98 17883.4 1546.33C17879.5 1545.91 17875.9 1544.21 17873 1541.48C17871.1 1539.53 17868.7 1538.08 17866.2 1537.23C17863.6 1536.58 17861.1 1535.57 17858.7 1534.21C17856.3 1533.02 17854.4 1530.85 17853.4 1528.16C17850.9 1519.86 17846.6 1512.32 17840.9 1506.18L17827.2 1490.42C17824.5 1487.31 17822.8 1483.31 17822.3 1479.04C17821.3 1471.89 17821.1 1464.64 17820.5 1457.38C17820.2 1454.59 17819 1452 17817.1 1450.08C17815.3 1448.16 17812.8 1447.02 17810.2 1446.86C17807.6 1446.55 17805 1446.53 17802.3 1446.79C17799.7 1447.12 17797.1 1448.07 17794.8 1449.56C17789.2 1453.33 17784.1 1457.98 17779.6 1463.36C17777.7 1465.31 17776.3 1467.82 17775.6 1470.61C17774.9 1473.39 17775 1476.33 17775.7 1479.08C17776.7 1481.8 17777.8 1484.42 17778.5 1487.15C17779.7 1492.81 17779.7 1498.73 17778.3 1504.37C17777.5 1506.27 17776.1 1507.86 17774.4 1508.97C17772.8 1510.08 17770.9 1510.65 17768.9 1510.63C17766.3 1510.35 17763.8 1509.43 17761.6 1507.96C17758.4 1505.45 17754.9 1503.44 17751.2 1501.97C17746.1 1500.54 17741.3 1498.04 17737 1494.6C17733.7 1492.23 17729.8 1490.97 17725.7 1490.98L17705.8 1490.8L17689.8 1490.66C17685.8 1490.23 17682 1488.92 17678.5 1486.82C17673.2 1482.47 17667.3 1479.01 17661.1 1476.58C17656.8 1473.32 17652.2 1470.4 17647.5 1467.84C17642.3 1466.58 17637.6 1463.74 17633.8 1459.68C17630.8 1456.7 17628 1453.62 17624.9 1450.98C17622 1448.32 17618.4 1446.56 17614.6 1445.91C17609.3 1445.29 17604.2 1445.25 17598.6 1445.08C17593.3 1445.17 17588 1444.63 17582.8 1443.47C17580.2 1442.78 17577.8 1441.57 17575.7 1439.89C17572.5 1437.31 17569.6 1434.31 17567 1430.98C17564.4 1427.72 17561.1 1425.19 17557.4 1423.56C17553.7 1421.94 17549.7 1421.27 17545.7 1421.61L17525.7 1421.43C17520.4 1421.19 17515.2 1419.21 17510.9 1415.74C17508.8 1413.96 17506.5 1412.6 17504 1411.71C17498.9 1409.95 17494.2 1407.22 17490 1403.66C17485.7 1400.18 17480.4 1398.45 17475.1 1398.76C17472.4 1398.51 17469.7 1398.88 17467.2 1399.83C17464.7 1400.78 17462.3 1402.3 17460.4 1404.3C17457.4 1407.03 17453.8 1408.81 17449.9 1409.42C17443.3 1410.15 17436.6 1410.2 17430.1 1410.6C17426.1 1411.05 17422.3 1412.62 17419 1415.15C17418 1416.05 17416.9 1416.83 17415.7 1417.5C17413.3 1418.9 17410.7 1419.62 17408.1 1419.59C17405.4 1419.57 17402.8 1418.8 17400.5 1417.36C17398.5 1415.43 17396.3 1413.81 17393.9 1412.54C17386.3 1409.91 17379.1 1406.03 17372.6 1401.02C17370.3 1399.41 17367.8 1398.45 17365.1 1398.23C17355.9 1397.19 17346.5 1397.1 17337.3 1397.98C17333.4 1398.42 17329.8 1400.13 17326.8 1402.88C17322.8 1406.58 17319 1410.74 17314.9 1414.1C17311.9 1416.85 17308.3 1418.56 17304.4 1419C17291.1 1418.88 17277.8 1419.44 17264.6 1420C17260.7 1420.06 17256.9 1421.77 17254.2 1424.78C17249.5 1429.95 17244.6 1434.78 17239.7 1439.61C17236.7 1442.64 17233.8 1445.56 17230.8 1448.37C17227.8 1450.92 17224.1 1452.46 17220.3 1452.81C17212.3 1452.95 17204.6 1455.59 17197.9 1460.43C17194.9 1462.04 17191.7 1462.98 17188.4 1463.2C17185.1 1463.43 17181.8 1462.92 17178.7 1461.73C17177.4 1461.41 17176.1 1460.79 17175 1459.9C17174 1459.01 17173.1 1457.87 17172.5 1456.57C17170.6 1451.22 17168.1 1446.14 17165.1 1441.43C17162.7 1438.05 17161 1434.19 17159.9 1430.06C17159.9 1428.7 17160 1427.22 17158.9 1425.85C17158.6 1424.46 17158 1423.14 17157.2 1421.99C17150.9 1412.64 17143.1 1404.59 17134.2 1398.21C17132.4 1397.27 17130.5 1396.84 17128.5 1396.96C17126.5 1397.08 17124.6 1397.75 17122.9 1398.9C17120.7 1400.47 17118.7 1402.49 17116.4 1403.83C17114.1 1405.29 17111.5 1406.04 17108.8 1406.02C17106.2 1405.99 17103.6 1405.19 17101.3 1403.69C17099 1402.32 17096.8 1400.63 17094.8 1398.65C17092.7 1396.83 17090.2 1395.74 17087.6 1395.53C17077.2 1394.53 17066.3 1395.34 17055.7 1394.67C17047.6 1394.22 17039.7 1396.88 17033.3 1402.18C17030.7 1404.47 17027.4 1405.58 17024.1 1405.27C17020.7 1404.97 17017.6 1403.28 17015.4 1400.55C17014.3 1399.68 17013.2 1398.87 17012.1 1398.14C17009.9 1396.56 17007.3 1395.71 17004.7 1395.69C17002 1395.66 16999.4 1396.47 16997.2 1398C16995.1 1399.8 16993 1401.59 16991 1403.5L16982.2 1412.26C16978.9 1414.65 16974.8 1415.59 16970.9 1414.88C16968.3 1414.14 16965.9 1413.01 16963.6 1411.53C16958.2 1407.3 16951.6 1405.31 16944.9 1405.92C16942.3 1405.84 16939.6 1406.48 16937.2 1407.78C16933.7 1409.79 16930.3 1412.14 16926.8 1413.81C16923.2 1415.47 16919.3 1416.46 16915.6 1418.13C16913.2 1419.44 16911 1420.97 16908.8 1422.71C16906.6 1424.3 16904 1425.29 16901.3 1425.59C16897.4 1426.46 16893.4 1426.44 16889.5 1425.53C16885.6 1424.61 16881.9 1422.83 16878.7 1420.29C16875.9 1418.29 16872.8 1416.92 16869.6 1416.25C16866.3 1415.58 16863 1415.62 16859.7 1416.38C16857 1416.61 16854.5 1417.87 16852.6 1419.92C16850.7 1421.98 16849.5 1424.7 16849.2 1427.62C16848.5 1434.87 16848 1442 16847.3 1449.25C16847.2 1450.69 16846.9 1452.1 16846.2 1453.38C16845.6 1454.67 16844.8 1455.8 16843.8 1456.69C16841.5 1458.18 16839 1459.13 16836.5 1459.46C16833.8 1459.72 16831.1 1459.69 16828.5 1459.39C16824.5 1459.29 16820.6 1457.69 16817.6 1454.87C16814.5 1452.11 16811.6 1449.13 16808.9 1445.96C16800.5 1436.7 16792.3 1427.34 16783.9 1417.97C16781.1 1414.86 16778.2 1411.92 16775.2 1409.17C16773.1 1407.4 16770.7 1406.14 16768.1 1405.48C16764.3 1404.34 16760.3 1404.06 16756.3 1404.65C16752.4 1405.24 16748.5 1406.68 16745.1 1408.9C16737.2 1414.04 16737.1 1413.92 16734.7 1413.45C16730.9 1412.71 16727.3 1410.93 16724.3 1408.26C16718.4 1402.41 16712.8 1396.15 16707.7 1389.52C16704.1 1385.3 16700.2 1381.41 16696.3 1377.41C16693.4 1374.4 16690 1372.15 16686.2 1370.84C16682.3 1369.53 16678.3 1369.19 16674.4 1369.85C16669.3 1370.6 16666.3 1372.04 16664.9 1376.34C16658.9 1385.27 16650.4 1391.83 16640.7 1395.04C16639 1396.29 16637.1 1396.99 16635.1 1397.07C16633.1 1397.16 16631.1 1396.61 16629.4 1395.51C16627.2 1394.02 16625.2 1392.19 16622.9 1390.69C16617.2 1386.93 16610.4 1385.47 16603.8 1386.56C16601.2 1386.77 16598.6 1387.81 16596.4 1389.55C16592.3 1393.25 16588.3 1397.07 16584.4 1400.77C16580.4 1404.7 16575.7 1407.47 16570.5 1408.81C16566.7 1410.11 16563.1 1412.15 16560 1414.83C16557.8 1416.42 16555.3 1417.44 16552.6 1417.83C16538 1419.4 16523.4 1419.27 16508.8 1417.44C16506.2 1417.05 16503.6 1416.02 16501.4 1414.42C16496.1 1410.05 16489.6 1407.65 16482.9 1407.57C16480.2 1407.55 16477.6 1407.53 16474.9 1407.5C16468.3 1407.55 16461.8 1405.27 16456.4 1400.99C16453 1398.54 16449.1 1397.17 16445.1 1397.04C16433.2 1396.36 16421.2 1396.26 16409.2 1395.7C16406.6 1395.67 16404 1395.07 16401.6 1393.92C16399.2 1392.77 16397 1391.09 16395.2 1389C16390.3 1384.04 16386.7 1377.69 16384.9 1370.66C16383 1366.87 16379.9 1363.98 16376.2 1362.54C16372.4 1361.32 16368.9 1359.41 16365.8 1356.89C16361.8 1353 16356.8 1350.72 16351.4 1350.42C16344.8 1349.98 16338.3 1347.83 16332.6 1344.13C16328.1 1341.26 16326.7 1341.81 16322.2 1345.85C16317.6 1349.89 16314.3 1353.71 16310.1 1357.07C16307.9 1358.79 16305.4 1359.9 16302.8 1360.29C16289.5 1361.14 16276.2 1361.02 16263 1359.94C16259 1359.83 16255.1 1358.33 16251.9 1355.65C16248.8 1352.88 16245 1351.18 16241.1 1350.78C16237.1 1350.38 16233.1 1351.3 16229.6 1353.41C16228 1354.39 16226.2 1354.89 16224.4 1354.88C16222.5 1354.86 16220.7 1354.32 16219.2 1353.31C16214.6 1350.3 16209.3 1348.69 16203.9 1348.65L16184 1347.9C16178.6 1347.77 16173.4 1346.04 16168.9 1342.89C16166.8 1341.4 16164.6 1339.79 16162.2 1338.3C16156 1335.63 16149.1 1335.57 16142.9 1338.13C16139.3 1340.02 16135.8 1342.15 16132.4 1344.49C16130.2 1345.98 16127.6 1346.89 16124.9 1347.15C16113 1348.29 16101 1346.93 16089.1 1347.96C16083.8 1348.37 16078.6 1350.19 16074.1 1353.26C16069.9 1356.78 16064.6 1358.61 16059.2 1358.46L16055.2 1358.42C16045.8 1359.45 16036.5 1356.66 16029 1350.59C16026.6 1349.26 16024 1348.65 16021.3 1348.83C16018.7 1349 16016.2 1349.96 16014 1351.59C16012.8 1352.36 16011.8 1353.26 16010.8 1354.28C16007.7 1356.98 16004.6 1359.67 16001.6 1362.59C15999.7 1364.59 15997.3 1366.11 15994.8 1367.06C15988.4 1368.94 15982.4 1372.12 15977.1 1376.42C15974.7 1377.7 15972 1378.25 15969.4 1378.03C15966.7 1377.81 15964.2 1376.81 15962 1375.15C15959.9 1373.48 15957.8 1371.69 15955.9 1369.77C15950.1 1363.83 15944.5 1357.66 15938.8 1351.6C15933.1 1345.54 15927.5 1336.09 15916.8 1341.43Z" fill="#060127"/>
</svg>
