<svg width="20803" height="1938" viewBox="0 0 20803 1938" fill="none" xmlns="http://www.w3.org/2000/svg">
<path d="M15920.9 847.363C15917.5 845.393 15913.7 844.207 15909.7 843.9C15897.8 843.102 15885.8 842.995 15873.9 843.58C15868.5 843.804 15863.4 845.589 15859.2 848.69C15855.9 850.894 15852.2 852.346 15848.2 852.929C15844.3 853.512 15840.3 853.21 15836.5 852.047C15832.7 850.88 15829.2 849.036 15826.1 846.615C15822.8 844.442 15819 843.206 15815 843.054C15801.7 842.935 15788.4 842.322 15775.1 842.104C15767.1 842.1 15759.3 839.714 15752.7 835.278C15750.5 833.876 15747.9 833.116 15745.3 833.092C15742.7 833.069 15740.1 833.782 15737.9 835.145L15731 838.841C15728.5 839.966 15725.8 840.222 15723.2 839.563C15721.8 839.53 15720.5 839.285 15719.3 838.836C15715.8 837.063 15712.7 834.643 15710.2 831.717C15707.6 828.792 15705.7 825.418 15704.6 821.793C15703.6 818.09 15701.6 814.68 15698.9 811.853C15694.4 807.165 15689.7 802.672 15685 798.279C15681.1 794.81 15676.4 792.289 15671.3 790.937C15667.7 789.916 15665.9 788.021 15663.9 782.761C15661.1 775.598 15656.1 769.413 15649.5 765.029C15647.9 763.871 15646.1 763.109 15644.1 762.815C15642.1 762.52 15640.1 762.704 15638.3 763.347C15637 763.616 15635.8 764.108 15634.7 764.799C15629.4 768.633 15622.9 770.725 15616.2 770.764L15584.3 770.479C15580.3 770.245 15576.3 770.21 15572.3 770.372C15568.3 770.588 15564.5 771.893 15561.3 774.13C15557 777.25 15552.2 779.528 15547.1 780.827C15544.5 781.314 15542 782.453 15540.1 784.127C15536.1 787.454 15531.9 790.581 15528 793.909C15525 796.376 15521.4 798.079 15517.6 798.859C15513.7 799.84 15510.2 801.596 15507.1 804.007C15504.2 806.421 15500.6 808.028 15496.7 808.661C15490.1 809.08 15483.5 810.352 15477.2 812.443C15471.4 814.962 15471.3 814.466 15462.7 811.621C15460.2 810.67 15457.6 810.048 15455 809.772C15445.6 809.194 15436.4 809.012 15427 808.731C15423.1 808.696 15419 808.659 15415.2 807.933C15411.3 807.554 15407.7 805.995 15404.8 803.489C15400.4 798.759 15395.4 794.563 15389.9 790.993C15388.2 789.97 15386.3 789.361 15384.3 789.222C15382.3 789.083 15380.3 789.419 15378.5 790.199C15374.2 791.892 15370.4 794.672 15367.7 798.237C15364.9 801.803 15363.2 806.019 15362.8 810.431C15362.6 812.978 15362.2 815.498 15361.4 817.934C15360.4 820.596 15358.2 822.554 15356 822.139C15348.3 820.305 15340.7 817.821 15333.4 814.718C15332.3 814.708 15331.4 813.117 15330.3 812.416C15326 809.477 15320.7 807.941 15315.4 808.03L15263.4 807.565L15231.5 807.28C15226.2 807.09 15221 805.238 15216.9 802.007C15211.5 798.21 15204.9 796.362 15198.2 796.796L15190.2 796.725C15184.9 796.691 15179.6 798.309 15175.3 801.338C15174.3 802.078 15173.2 802.761 15172.1 803.386C15169.9 804.855 15167.3 805.633 15164.6 805.609C15162 805.585 15159.4 804.761 15157.2 803.253C15152.2 799.078 15145.8 796.679 15139.2 796.466C15129.9 796.581 15120.6 796.101 15111.3 795.031C15108.7 794.643 15106.2 793.597 15104.1 791.999C15100.1 788.798 15096 785.499 15092.1 782.002C15090.3 780.133 15088 778.72 15085.5 777.889C15079.1 776.13 15073.1 773.223 15067.9 769.325C15064.5 767.252 15060.6 766.184 15056.6 766.257L15024.7 765.28C15022.1 765.103 15019.5 764.682 15016.9 764.023C15015.6 763.794 15014.4 763.347 15013.3 762.706C15004.8 756.731 14996.8 750.04 14989.6 742.714C14986.6 740.018 14983.1 737.962 14979.2 736.688C14974.2 735 14969.5 732.589 14965.2 729.542C14963.2 727.934 14960.7 726.916 14958.1 726.61L14946.3 724.922C14943.6 724.596 14941.1 723.693 14938.9 722.285C14933.4 718.652 14926.9 716.634 14920.2 716.481L14808.6 715.483C14807.3 715.37 14806 715.358 14804.7 715.448C14799.3 715.597 14794.2 717.43 14790.1 720.658C14786.1 723.984 14782.2 727.51 14778 730.439C14775.9 731.91 14773.3 732.84 14770.7 733.143C14764 733.776 14757.4 733.914 14750.8 734.548C14746.9 734.96 14743.1 736.359 14739.9 738.604C14736.8 740.993 14733.3 742.717 14729.4 743.653C14724.3 744.895 14719.5 747.143 14715.4 750.252C14713.1 751.615 14710.5 752.377 14707.8 752.459C14701.2 753.093 14694.5 753.033 14687.9 752.281C14685.2 752.209 14682.6 751.47 14680.3 750.137C14676.1 747.094 14671.5 744.745 14666.5 743.189C14662.6 742.246 14658.8 740.85 14655.3 739.034C14653.6 738.298 14651.7 738.038 14649.8 738.284C14648 738.531 14646.3 739.273 14644.9 740.424C14642.7 741.789 14640.8 743.651 14638.7 745.215L14623.5 757.441C14620.6 759.783 14616.9 761.141 14613.1 761.304C14602.7 761.211 14592.3 761.118 14581.2 761.019C14574.4 761.097 14567.9 759.171 14562.4 755.511C14559.1 753.324 14555.3 751.994 14551.3 751.653C14546 751.606 14540.9 750.967 14535.4 750.72C14531.4 750.723 14527.5 749.623 14524.1 747.553C14517.4 743.331 14509.5 741.218 14501.5 741.516C14494.8 741.457 14488.2 741.398 14481.5 740.646C14477.6 740.218 14473.8 738.82 14470.7 736.593C14466.5 733.399 14461.4 731.551 14456 731.32C14444.1 731.213 14432.1 730.513 14420.2 729.812C14416.2 729.648 14412.3 728.339 14409.1 726.054C14403.8 722.167 14397.2 720.088 14390.5 720.152L14378.6 720.046L14338.7 719.689C14334.7 719.851 14330.7 719.816 14326.7 719.582C14322.8 719.062 14319 717.89 14315.5 716.119C14310 712.444 14303.5 710.547 14296.8 710.71L14236.9 710.175C14231.6 710.143 14226.3 708.691 14221.8 705.986C14216.2 702.628 14209.6 700.793 14203 700.675L14191 700.568L14143.1 700.14L14123.2 699.962C14116.5 699.936 14110 697.674 14104.9 693.568C14101.8 691.173 14097.9 689.818 14093.9 689.711C14084.6 689.133 14075.3 689.051 14066 688.868C14056.6 688.686 14045.2 688.682 14034 688.583C14026 688.96 14018.1 686.991 14011.3 682.941C14007.9 680.887 14004 679.725 14000 679.576C13996 679.342 13992.1 679.306 13988.1 679.469L13784.6 677.651C13775.4 677.568 13766 677.485 13756.8 677.402C13752.8 677.081 13749 676.075 13745.4 674.432C13738.8 669.994 13730.8 667.829 13722.8 668.296L13709 668.174C13701 667.651 13693 669.742 13686.4 674.103C13683 676.006 13679 676.899 13675.1 676.672C13669.7 677.06 13664.4 675.836 13659.8 673.173L13656.4 671.263C13652.9 669.439 13649.1 668.297 13645.1 667.905C13641.2 667.513 13637.2 667.878 13633.4 668.98C13629.4 669.736 13625.8 671.584 13621.9 672.24C13619.3 672.533 13616.7 671.874 13614.5 670.395C13611.1 668.458 13607.2 667.465 13603.2 667.524L13563.3 667.168C13558 667.12 13552.9 667.075 13547.4 666.531C13543.4 666.531 13539.4 665.281 13536.2 662.97C13530 658.158 13522.1 655.631 13514.1 655.85L13474.2 654.9C13470.2 654.825 13466.3 653.657 13463 651.536C13457.5 647.916 13451.1 645.805 13444.5 645.436C13439.2 645.087 13434 643.477 13429.5 640.754C13425.1 637.928 13419.9 636.403 13414.5 636.367L13394.5 636.188C13387.9 635.826 13381.2 637.729 13375.9 641.56C13373.8 643.058 13371.3 644.053 13368.7 644.462C13362.3 646.096 13356.6 649.486 13352.3 654.205C13349.4 656.85 13347.5 660.3 13346.9 664.047C13346.9 666.618 13346.1 669.083 13345.7 671.552C13349.4 679.496 13352.7 688.723 13361.9 691.476C13393.9 700.069 13387.9 719.596 13378.9 740.383C13377.5 743.508 13375.4 746.322 13372.9 748.636C13352 760.119 13332.1 780.116 13305.9 757.927C13302.8 755.873 13299.3 754.49 13295.6 753.879C13270.6 760.479 13245.8 765.993 13227.1 741.201C13223.6 739.916 13219.8 739.311 13216.1 739.422C13210.6 740.513 13205.2 742.26 13200.2 744.621C13167.8 736.221 13138.1 716.671 13102.9 718.632C13099.2 717.69 13095.6 716.008 13092.6 713.694C13090.4 712.486 13087.9 711.839 13085.4 711.816C13082.9 711.794 13080.4 712.397 13078.2 713.565C13073.5 717.517 13068.6 721.203 13063.4 724.607C13060 726.289 13057.3 728.975 13055.7 732.253C13050.9 736.264 13052.4 743.3 13047.6 747.311L13043.8 748.365C13040 749.464 13036 749.622 13032.1 748.826C13028.2 748.03 13024.6 746.306 13021.6 743.815C13018.2 741.943 13014.4 740.764 13010.4 740.353L12974.7 739.539L12954.8 739.362C12949.5 739.3 12944.3 737.701 12940 734.779C12933.2 730.711 12925 729.358 12917.2 731.014C12914.6 731.568 12912.1 732.409 12909.8 733.519C12908 734.31 12906 734.712 12904.1 734.695C12902.1 734.677 12900.2 734.241 12898.4 733.418C12895.1 731.616 12891.7 730.159 12888.1 729.073C12884.1 728.168 12880.5 726.176 12877.7 723.344C12871.1 717.252 12864.2 711.355 12857.8 705.068C12853.9 701.63 12848.8 699.682 12843.5 699.6C12840.2 699.181 12836.9 699.426 12833.7 700.318C12830.5 701.209 12827.6 702.728 12825.1 704.775C12823.1 706.439 12821.2 708.202 12819.1 709.765C12817.2 711.466 12815.1 713.034 12812.9 714.457C12810.7 715.799 12808.1 716.566 12805.5 716.681C12802.8 716.796 12800.2 716.256 12797.9 715.113C12795.6 713.905 12793.4 712.564 12791.2 711.099C12787.7 709.356 12783.8 708.365 12779.9 708.193C12775.9 708.021 12771.9 708.672 12768.3 710.102C12765.9 711.16 12763.6 712.431 12761.5 713.898C12756.9 716.445 12751.6 717.574 12746.4 717.126C12743.7 716.929 12741.2 716.155 12738.9 714.865C12736.7 713.575 12734.8 711.804 12733.3 709.691C12731.4 706.608 12730.7 702.646 12726.9 700.535C12724.6 699.366 12722.2 698.353 12719.7 697.504C12717.3 696.532 12715 695.318 12712.8 693.882C12708.1 690.352 12702.3 688.407 12696.3 688.354C12690.3 688.3 12684.4 690.14 12679.6 693.586C12677.6 695.105 12675.1 696.103 12672.5 696.489C12667.3 697.234 12662 697.186 12656.7 696.348C12654.2 695.886 12651.8 694.771 12649.8 693.121C12647.6 691.722 12645.3 690.51 12642.9 689.499C12612.7 688.142 12591.6 679.843 12597.5 644.492C12602.6 614.869 12583.8 613.909 12560.9 620.628C12557.5 622.451 12554.4 624.757 12551.7 627.468C12548.9 630.106 12547 633.565 12546.4 637.311C12546.4 640.97 12545.4 644.719 12545 648.374C12544.5 650.178 12543.6 651.829 12542.2 653.156C12540.8 654.483 12539.1 655.438 12537.2 655.919C12534.7 656.491 12532.1 656.766 12529.4 656.74C12526.1 657.006 12522.8 656.146 12520.1 654.312C12517.3 652.478 12515.4 649.788 12514.6 646.717C12511.5 639.075 12511.3 639.172 12501.1 635.027C12498.7 634.127 12496.4 632.836 12494.4 631.209C12490.3 628.185 12486.5 624.843 12483 621.217C12479.7 617.33 12476.1 613.639 12472.7 610.048C12470.8 608.312 12468.8 606.677 12466.8 605.15C12450.1 595.112 12431.8 604.837 12414.9 600.532C12411.2 598.611 12407 597.711 12402.9 597.937C12398.7 598.162 12394.7 599.502 12391.2 601.804C12389.3 603.215 12387.2 604.361 12385 605.21L12382.9 605.686L12385.3 605.213C12387.3 604.475 12389.1 603.383 12390.6 601.997C12392.6 600.306 12394.9 598.924 12397.3 597.903C12403.9 595.984 12409.5 599.297 12415.4 600.636C12430.5 599.188 12448.5 608.25 12458.9 589.949C12464.7 586.539 12471.7 587.393 12477.7 584.38C12478.9 583.853 12480 583.033 12480.8 582C12481.6 580.968 12482.1 579.758 12482.2 578.487C12482.7 576.748 12482.8 574.904 12482.3 573.155C12481.8 571.407 12480.8 569.822 12479.4 568.572L12476.7 565.779C12473.3 561.827 12468.5 559.269 12463.2 558.637C12457.9 558.128 12452.6 557.784 12447.3 557.605C12443.2 557.655 12439.3 556.476 12436.1 554.241C12429.9 549.339 12422.1 546.523 12414.1 546.232C12408.8 545.652 12403.8 543.69 12399.7 540.565C12396.3 538.536 12392.3 537.44 12388.3 537.398C12375 537.279 12361.8 537.161 12348.5 537.042L12336.5 536.935C12329.8 536.951 12323.3 535.142 12317.6 531.722C12313.1 529.048 12307.9 527.631 12302.5 527.631C12283.9 527.465 12265.3 527.299 12246.7 526.341C12242.8 526.168 12239.1 524.619 12236.3 521.996C12232.3 518.634 12227.3 516.609 12221.9 516.23L12217.9 516.194C12215.3 516.171 12212.6 516.147 12210 516.123C12204.6 516.102 12199.4 517.797 12195.2 520.936C12191.1 524.241 12185.9 526.054 12180.6 526.047C12172.6 525.975 12164.6 525.904 12156.7 525.833C12151.3 525.746 12146.1 523.921 12142 520.658C12137.9 517.388 12132.8 515.529 12127.4 515.386L12091.6 515.065C12083.6 515.394 12075.6 514.724 12067.8 513.073C12064.9 512.255 12060.8 507.373 12061.4 504.511C12061.8 502.042 12062.5 499.643 12063.7 497.41C12065.2 495.36 12066.5 493.188 12067.6 490.918C12068.8 487.332 12068.7 483.427 12067.2 479.937C12065.3 475.174 12061.2 471.577 12060.1 466.424C12059.2 462.706 12057.3 459.276 12054.6 456.485C12046.6 448.107 12038.2 440.021 12029.5 432.131C12026.6 429.526 12023.1 427.629 12019.2 426.599C12015.4 425.669 12011.9 423.986 12008.8 421.661C12004.7 418.425 12000 415.997 11994.9 414.515C11991.3 412.826 11987.8 410.911 11984.5 408.785C11982.2 407.578 11979.6 406.785 11977 406.443C11971.7 405.835 11966.4 405.523 11961.1 405.51L11849.4 404.512C11841.4 404.44 11833.5 404.37 11825.5 404.298C11820.2 404.113 11815 402.526 11810.6 399.714C11806 397.073 11800.8 395.596 11795.4 395.425L11735.7 394.891C11730.4 394.844 11725.3 394.798 11719.8 394.255C11715.8 394.024 11711.9 392.796 11708.6 390.693C11703.2 386.922 11696.7 384.826 11690 384.693C11682.1 384.622 11674.1 384.55 11666.1 383.391C11662.3 383.033 11658.6 381.51 11655.8 379.046C11652.9 376.537 11649.3 374.859 11645.4 374.206C11642.7 374.182 11640.1 373.467 11637.4 373.245C11632.1 372.72 11627.1 370.828 11622.9 367.775C11619.6 365.606 11615.7 364.434 11611.7 364.411C11595.8 364.269 11579.8 363.632 11563.9 362.995C11561.3 362.753 11558.7 362.165 11556.2 361.245C11555 360.804 11553.8 360.158 11552.8 359.336C11545.6 353.634 11535.5 352.852 11528.5 346.658C11525.4 344.212 11521.5 342.912 11517.5 342.999L11497.5 342.821C11489 342.745 11488.2 342.737 11476 350.342C11474.2 351.255 11472.3 351.806 11470.3 351.959C11468.4 352.112 11466.4 351.863 11464.5 351.228C11462.1 350.135 11459.9 348.823 11457.8 347.311C11455.9 345.521 11453.6 344.151 11451.1 343.295C11445.9 342.134 11441.1 339.744 11437.1 336.347C11434.3 333.751 11430.9 331.544 11428 328.947C11423.9 325.73 11419.1 323.453 11413.9 322.295C11408.9 320.766 11405.8 315.991 11400.6 314.264C11398.1 313.404 11395.4 313.38 11392.9 314.195C11389.1 315.651 11385.6 317.655 11382.5 320.134C11380.4 321.756 11377.8 322.631 11375.1 322.607C11372.4 322.583 11369.8 321.661 11367.7 320.002C11364.5 317.623 11361.1 315.631 11357.4 314.075C11354.9 313.117 11352.1 313.092 11349.7 314.006C11346.2 315.755 11343.2 318.201 11339.8 320.247C11338.1 321.132 11336.1 321.586 11334.1 321.568C11332.1 321.55 11330.2 321.061 11328.4 320.145C11327.2 319.601 11326.1 318.997 11325 318.335C11321 315.016 11316.3 312.457 11311.3 310.796C11304.8 309.155 11300.4 303.676 11293.8 302.035C11288.7 300.861 11283.8 298.698 11279.6 295.677C11276.2 293.607 11272.3 292.508 11268.3 292.51L11248.3 292.332L11216.4 292.047C11209.7 292.156 11203.2 290.11 11197.9 286.245C11193.6 283.226 11188.4 281.65 11183 281.76C11172.6 281.667 11162.2 281.574 11151.1 280.684C11145.8 280.439 11140.6 278.669 11136.4 275.607C11132.1 272.615 11126.9 270.947 11121.6 270.827L11093.6 270.577L11077.7 270.435C11073.7 270.44 11069.8 269.377 11066.4 267.367C11059.6 263.26 11051.7 261.19 11043.7 261.428C11031.7 261.321 11019.8 261.214 11007.8 261.107C11001.1 261.188 10994.6 259.107 10989.4 255.206C10986.5 253.557 10983.2 252.712 10979.9 252.77C10976.6 252.827 10973.3 253.786 10970.5 255.533C10969.5 256.337 10968.4 256.881 10967.1 257.112C10965.8 257.344 10964.5 257.254 10963.2 256.852C10960.7 255.97 10958.1 255.581 10955.4 255.711C10952.8 255.84 10950.1 256.484 10947.7 257.604C10944.2 259.351 10940.3 260.298 10936.3 260.369C10920.4 260.227 10904.5 260.876 10888.5 259.942C10884.5 259.681 10880.7 258.228 10877.6 255.79C10873.6 252.589 10869.9 248.897 10866.1 245.304C10864.3 243.443 10862.1 241.974 10859.6 240.993C10853.4 238.89 10847.4 236.185 10841.7 232.921C10839.4 231.62 10836.8 230.883 10834.2 230.777C10824.9 230.694 10815.7 230.117 10806.3 229.934C10796.9 229.752 10790.4 229.792 10782.4 229.721C10774.4 230.018 10766.5 227.754 10760 223.29C10757.8 221.783 10755.2 220.933 10752.5 220.85C10745.9 220.791 10739.2 219.841 10732.7 219.98C10723.3 220.28 10714.1 217.393 10706.8 211.837C10704.6 210.376 10702 209.531 10699.3 209.397C10698.1 209.386 10696.7 209.373 10695.4 209.361L10591.4 208.432C10586.1 208.307 10580.8 209.937 10576.6 213.047C10572.4 216.176 10567.3 218.117 10562 218.652L10558 218.617C10552.8 218.993 10547.7 220.763 10543.4 223.728C10540 225.641 10536.2 226.821 10532.2 227.188C10522.9 227.846 10513.5 227.762 10504.2 226.938C10500.3 226.684 10496.4 225.42 10493.1 223.278C10487.7 219.624 10481.1 217.728 10474.5 217.87L10458.5 217.727C10449.2 217.957 10439.9 217.642 10430.6 216.786C10426.8 216.367 10423.1 214.813 10420.3 212.342C10418.4 210.557 10416.2 209.127 10413.7 208.13C10407.6 205.801 10401.6 203.003 10395.9 199.763C10393.7 198.457 10391.1 197.625 10388.5 197.322C10381.8 196.669 10375.2 196.709 10368.6 195.958C10364.6 195.642 10360.8 194.234 10357.6 191.904C10354.5 189.492 10350.7 188.044 10346.7 187.751C10338.8 187.186 10330.8 187.016 10322.8 186.944L10199.2 185.84C10191.2 185.768 10183.2 185.697 10175.3 185.626C10169.9 185.435 10164.7 183.699 10160.4 180.648C10156.1 177.621 10151 175.794 10145.7 175.373C10140.4 175.326 10135.3 174.786 10129.9 174.046C10125.9 173.562 10122.2 172.096 10118.9 169.794C10114.6 166.801 10109.5 165.134 10104.1 165.013C10097.5 164.954 10090.8 164.894 10084.2 164.835C10077.5 164.877 10071 162.916 10065.5 159.229C10063.4 157.777 10060.9 156.839 10058.3 156.494C10054.3 155.965 10050.3 155.633 10046.3 155.497C10038.3 155.743 10030.4 153.56 10023.8 149.263C10021.2 145.263 10017.4 142.12 10012.9 140.265C10007.6 140.218 10002.5 139.678 9996.96 139.628L9940.1 139.12C9933.45 139.175 9926.94 137.288 9921.44 133.712C9917.13 130.688 9911.97 128.954 9906.62 128.733L9886.77 128.062C9880.08 128.13 9873.53 126.242 9868 122.652C9864.82 120.476 9861.03 119.238 9857.12 119.094C9847.76 119.01 9838.51 118.927 9829.27 117.856C9825.27 117.509 9821.44 116.143 9818.18 113.9C9813.92 110.851 9808.79 109.114 9803.46 108.922C9800.76 108.898 9798.16 108.875 9795.46 108.851C9787.4 108.951 9779.55 106.361 9773.28 101.532C9769.98 99.381 9766.07 98.2418 9762.08 98.2676C9755.53 98.2091 9748.88 98.1496 9742.22 98.0902L9698.36 97.6981C9693 97.5873 9687.79 96.0317 9683.32 93.2123C9677.65 89.8865 9671.1 88.1801 9664.45 88.2965L9648.44 88.1534C9632.53 88.0112 9616.63 88.4624 9600.63 87.1327C9597.98 86.9924 9595.41 86.2212 9593.16 84.8903C9590.89 83.5843 9588.4 82.5733 9586.13 81.2673C9583.81 80.0771 9581.28 79.3162 9578.66 79.0249C9570.72 78.2309 9562.74 77.9282 9554.76 78.1189L9502.78 77.6543C9496.09 77.8431 9489.55 75.7501 9484.33 71.7533C9481.14 69.4984 9477.4 68.0682 9473.45 67.6016C9469.51 67.0719 9465.57 66.1464 9461.73 65.4198C9459.07 64.9943 9456.61 63.7981 9454.69 61.9945C9451.77 59.581 9448.16 58.0358 9444.33 57.5505C9440.41 56.9865 9436.45 56.7196 9432.49 56.7523C9420.53 56.6455 9408.47 56.5377 9396.52 56.4308L9376.67 56.2534C9371.31 56.1239 9366.09 54.644 9361.53 51.9646C9357.09 49.1572 9351.92 47.5707 9346.6 47.3808L9326.64 47.2024L9274.66 46.7378C9269.36 46.6904 9264.27 46.6449 9258.66 46.0014C9254.69 45.7431 9250.88 44.4046 9247.68 42.1452C9244.67 39.6138 9240.81 38.1999 9236.8 38.164C9232.78 38.1282 9228.9 39.4728 9225.85 41.9501C9222.71 44.1966 9219.67 46.6419 9216.63 49.0872C9212.65 52.4569 9207.57 54.4043 9202.24 54.5956C9190.28 54.9832 9178.33 54.9752 9166.38 54.275C9161.03 53.9047 9155.96 51.8398 9151.98 48.4103C9148.88 46.0091 9146.1 43.314 9143 40.9129C9138.76 37.8019 9133.63 35.9657 9128.29 35.6389L9068.52 35.1047C9060.49 34.9646 9052.62 37.2107 9046 41.5296C9043.77 42.9367 9041.17 43.7343 9038.5 43.8358L9022.59 43.6937C9017.26 43.6281 9012.08 41.9926 9007.77 39.0121C9003.36 36.146 8998.18 34.5227 8992.84 34.3293C8972.06 33.649 8950.33 33.2571 8929.02 33.7588C8927.72 33.8912 8926.43 34.1111 8925.16 34.4167C8922.54 34.7521 8920.1 35.8877 8918.21 37.6535C8916.32 39.4194 8915.08 41.7206 8914.68 44.2125C8913.99 47.8646 8914.33 51.6262 8915.67 55.1132C8917.01 58.6001 8919.3 61.6875 8922.3 64.0596L8928.29 69.0579C8930.33 70.6894 8932.87 71.6486 8935.54 71.7928C8947.48 73.0863 8959.44 72.5011 8971.39 72.9046C8980.7 72.5582 8990.02 73.0054 8999.24 74.2412C9001.85 74.6057 9004.22 75.8996 9005.86 77.8608L9008.44 80.7518C9011.19 86.2157 9020.73 89.0698 9015.46 97.6266L9009.34 107.461C9006.91 111.494 9009.23 119.427 9013.91 120.26L9017.64 121.183L9025.63 122.244C9030.21 122.981 9034.51 124.822 9038.12 127.589C9041.74 130.357 9044.55 133.96 9046.28 138.053C9046.83 139.189 9047.2 140.391 9047.4 141.624C9047.54 142.873 9047.53 144.135 9047.36 145.382C9047.92 149.128 9047.38 152.946 9045.81 156.419C9044.24 159.893 9041.69 162.889 9038.45 165.081C9035.41 168.12 9033.33 168.299 9028.05 166.175L9024.53 164.462C9020.95 162.739 9017.02 161.76 9013.02 161.59C9005.12 161.519 8997.11 161.448 8989.11 161.376C8983.75 161.475 8978.61 163.393 8974.61 166.785C8971.77 169.285 8968.05 170.696 8964.18 170.746C8952.22 171.134 8940.16 171.026 8928.2 171.018L8888.39 170.662C8881.71 170.569 8875.15 172.445 8869.63 176.033C8867.43 177.472 8864.89 178.367 8862.23 178.637C8855.63 179.254 8848.99 179.426 8842.37 179.151C8833.02 179.831 8823.69 177.482 8815.92 172.487C8813.57 171.328 8810.94 170.821 8808.3 171.025C8805.67 171.229 8803.15 172.135 8801.04 173.639C8798.82 175.036 8796.72 176.605 8794.76 178.33C8791.87 180.934 8788.64 183.166 8785.14 184.969C8782.78 186.12 8780.25 186.899 8777.63 187.275C8768.37 188.231 8759.02 188.147 8749.78 187.026C8747.13 187.16 8744.5 186.519 8742.24 185.191C8739.99 183.863 8738.21 181.91 8737.16 179.596C8737.17 178.409 8736.14 177.213 8735.74 176.022C8732.92 170.287 8728.6 165.342 8723.18 161.669C8722.16 160.85 8720.96 160.264 8719.66 159.957C8714.58 158.725 8709.29 157.688 8704.2 156.555C8702.21 156.339 8700.38 155.421 8699.06 153.981C8697.74 152.541 8697.04 150.684 8697.1 148.778C8696.6 146.925 8696.89 144.961 8697.89 143.307C8698.9 141.653 8700.54 140.439 8702.48 139.925C8705.69 139.212 8708.67 137.747 8711.14 135.662C8713.61 133.577 8715.49 130.939 8716.62 127.986C8717.78 124.302 8719.84 120.932 8722.63 118.151C8727.35 113.742 8731.97 109.136 8736.58 104.727C8744.03 97.475 8751.57 90.3233 8759.64 83.7694C8762.57 81.4274 8766.24 80.0699 8770.07 79.9066C8775.37 79.954 8780.46 79.9997 8785.98 79.3568C8791.31 79.2731 8796.46 77.4714 8800.58 74.2458C8803.79 72.1962 8807.31 70.6267 8811.02 69.592C8812.87 68.8762 8814.51 67.7581 8815.83 66.3273C8817.14 64.8964 8818.08 63.1926 8818.58 61.3525C8819.54 57.6892 8819.58 53.8582 8818.68 50.1782C8818.26 47.7092 8817.25 45.3647 8815.72 43.328C8810.57 37.5461 8804.9 32.155 8799.55 26.4701C8796.86 23.7121 8793.48 21.6415 8789.73 20.4486C8787.24 19.5363 8784.65 18.9199 8782.27 17.8108C8777.92 14.9428 8773.23 12.5769 8768.3 10.7632C8763.25 9.17671 8758.47 6.90195 8754.11 4.0103C8751.76 2.84215 8749.19 2.11427 8746.54 1.86592C8745.19 1.85384 8743.95 1.34837 8742.6 1.3363L8678.77 0.765811C8673.44 0.70207 8668.21 2.17193 8663.77 4.98307C8659.28 7.72502 8654.09 9.21981 8648.76 9.29903L8632.84 10.0468C8630.19 10.2709 8627.63 11.0593 8625.34 12.3534C8618.74 16.744 8610.76 18.8379 8602.73 18.2827C8593.48 18.2001 8584.12 18.1164 8574.87 18.0337C8569.53 18.1242 8564.34 19.7309 8559.96 22.6476C8555.86 25.8941 8550.7 27.6985 8545.36 27.7585L8505.44 27.995C8498.77 27.6893 8492.17 29.3953 8486.58 32.8699C8485.45 33.5498 8484.26 34.135 8483.03 34.6185C8480.74 35.9376 8478.1 36.6324 8475.42 36.6272C8468.87 36.5687 8462.22 37.2015 8455.56 37.142L8375.73 36.4285C8369.08 36.369 8362.53 36.3104 8355.87 36.251C8351.84 36.1274 8347.86 37.1226 8344.41 39.1153C8337.61 43.1222 8329.7 45.0847 8321.7 44.747L8273.78 44.3187C8268.45 44.2996 8263.19 43.1016 8258.43 40.8191C8257.41 40.0634 8256.22 39.5545 8254.95 39.3364C8253.69 39.1182 8252.39 39.1975 8251.16 39.5674C8243.84 42.5755 8236 44.2819 8228.04 44.6022C8224.19 44.7858 8220.52 46.1793 8217.6 48.5637C8216.57 49.359 8215.45 50.0453 8214.26 50.6105C8211.99 51.9489 8209.42 52.7718 8206.75 53.0158C8197.48 53.7738 8188.15 53.6904 8178.89 52.7668C8174.94 52.4153 8171.12 51.2327 8167.7 49.3043C8165.32 48.1952 8163.04 46.7902 8160.77 45.4843C8158.54 44.1071 8155.96 43.332 8153.3 43.2418C8146.63 43.0889 8140.05 41.6158 8134.01 38.9159C8132.31 37.9536 8130.38 37.4369 8128.4 37.4193C8126.43 37.4017 8124.49 37.8837 8122.78 38.8156C8119.3 40.6839 8115.41 41.7656 8111.42 41.9774C8104.76 42.4124 8098.11 42.5507 8091.55 42.9866C8088.86 43.1091 8086.28 44.0186 8084.15 45.5908C8078.92 49.5748 8072.4 51.717 8065.69 51.6559L8025.88 51.3001C8019.18 51.2723 8012.67 49.0884 8007.43 45.1027C8005.34 43.4871 8002.77 42.5311 8000.08 42.3669C7997.48 42.3437 7994.88 41.727 7992.18 41.8017C7988.19 41.5271 7984.22 42.4609 7980.82 44.4692C7974.3 48.8883 7966.43 51.1459 7958.42 50.895C7938.46 50.7167 7918.5 50.5383 7898.54 51.0521C7894.53 51.0905 7890.61 52.1479 7887.18 54.115C7884.88 55.3801 7882.79 57.0427 7880.49 58.11C7878.1 59.1999 7875.52 59.8799 7872.88 60.1187C7862.49 60.0258 7851.57 60.4227 7840.96 60.5257C7835.66 60.4783 7830.57 60.4328 7825.06 60.3836C7819.73 60.815 7814.61 62.5028 7810.15 65.2941C7807.98 66.7443 7805.45 67.6469 7802.82 67.9173C7800.18 68.1877 7797.51 67.8171 7795.06 66.8402C7791.43 65.72 7788.02 63.316 7783.65 64.2659C7781.13 64.8648 7778.69 65.7045 7776.35 66.772C7773.91 67.7506 7771.29 68.2971 7768.64 68.3844C7763.34 68.3371 7758.25 68.2915 7752.63 68.2414C7738.08 68.1113 7723.43 67.4858 7708.76 68.4426C7704.78 68.6951 7700.96 70.0728 7697.81 72.3994C7695.88 74.1572 7693.45 75.3383 7690.81 75.798C7686.86 76.356 7683.01 77.1127 7679.05 77.5718C7675.05 77.8082 7671.2 79.0726 7667.9 81.2302C7663.65 84.2264 7658.98 86.6169 7654.01 88.3255C7650.32 89.6012 7646.82 91.2965 7643.57 93.3746C7640.22 95.471 7636.31 96.6036 7632.31 96.6364C7624.3 96.5648 7616.4 96.4942 7608.4 96.4227C7603.09 96.2435 7597.94 94.6187 7593.58 91.7411C7589.23 88.6946 7583.94 87.1158 7578.54 87.2553L7518.77 86.7211C7510.74 86.5475 7502.86 88.7966 7496.26 93.1459C7494.57 94.1501 7492.65 94.723 7490.66 94.8092C7488.67 94.8954 7486.7 94.492 7484.92 93.638C7482.5 92.6351 7480.15 91.4911 7477.88 90.2127C7472.03 87.14 7465.31 85.9032 7458.68 86.6786C7456.06 86.8866 7453.53 87.6768 7451.28 88.9859C7444.79 93.5208 7436.81 95.7261 7428.77 95.2128L7412.76 95.0697C7406.08 94.9892 7399.53 96.8638 7394 100.44C7390.61 102.421 7386.73 103.513 7382.75 103.603C7370.79 103.496 7358.84 103.389 7346.88 104.074C7341.49 104.203 7336.36 106.32 7332.58 109.978C7329.75 112.623 7326.61 114.969 7323.88 117.713C7320.06 121.266 7315.03 123.396 7309.69 123.718L7301.68 124.438C7297.78 124.942 7294.14 126.566 7291.24 129.091C7288.21 131.536 7285.38 134.181 7282.44 136.726C7279.47 139.358 7275.9 141.291 7272 142.369C7266.89 143.834 7262.13 146.245 7258 149.463C7256.03 151.185 7253.48 152.179 7250.8 152.267C7245.5 152.219 7240.4 152.866 7234.89 152.916L7195.08 152.56C7188.39 152.249 7181.78 153.993 7176.22 157.534C7174.02 158.951 7171.53 159.906 7168.92 160.337C7161.02 161.402 7152.99 161.331 7145.11 160.124C7142.47 159.728 7139.95 158.758 7137.76 157.289C7132.18 153.784 7125.67 151.841 7118.99 151.682L7060.36 151.158C7053.65 150.871 7047.03 152.765 7041.6 156.528C7039.42 157.925 7036.92 158.817 7034.3 159.133L7014.44 160.242C7010.46 160.405 7006.6 161.601 7003.28 163.702C6998.93 166.65 6993.81 168.416 6988.48 168.811C6981.8 168.9 6975.33 171.027 6970.02 174.876C6965.75 177.979 6960.49 179.606 6955.11 179.49L6935.26 179.313C6928.59 179.247 6922.06 181.083 6916.5 184.584C6913.17 186.716 6909.26 187.883 6905.24 187.945L6889.23 187.802L6749.63 186.554C6744.33 186.507 6739.24 186.461 6733.72 186.906C6731.08 187.09 6728.49 187.633 6726.01 188.519C6707.76 195.278 6707.76 195.377 6695.6 195.169L6675.64 194.991C6668.95 194.91 6662.44 197.017 6657.19 200.958C6654 203.276 6650.14 204.59 6646.13 204.716C6630.2 205.562 6614.23 205.419 6598.32 204.288C6594.31 203.942 6590.42 202.796 6586.91 200.923C6584.57 199.794 6581.97 199.253 6579.35 199.35C6576.72 199.448 6574.18 200.181 6571.94 201.481C6568.37 203.255 6564.4 204.171 6560.37 204.147L6516.51 203.755C6504.55 203.648 6492.6 203.541 6480.64 203.434C6472.61 203.139 6464.69 205.285 6458.03 209.562C6454.61 211.536 6450.67 212.531 6446.67 212.427C6440.02 212.367 6433.37 212.308 6426.71 212.248C6413.41 212.129 6400.1 212.01 6386.8 211.892C6378.8 211.626 6370.89 213.62 6364.08 217.622C6360.58 219.45 6356.62 220.369 6352.62 220.289C6340.67 220.182 6328.72 220.075 6316.76 220.76C6314.12 221.012 6311.55 221.692 6309.15 222.768C6306.78 223.832 6304.47 225.033 6302.26 226.366C6300.02 227.759 6297.42 228.547 6294.75 228.645C6292.07 228.743 6289.42 228.148 6287.07 226.922C6284.83 225.641 6282.27 224.954 6279.66 224.93C6277.04 224.907 6274.47 225.549 6272.21 226.79C6267.39 228.916 6262.2 230.145 6256.89 230.411C6251.56 230.771 6246.47 232.656 6242.29 235.818C6237.93 238.803 6232.66 240.353 6227.28 240.233C6215.33 240.769 6203.36 240.662 6191.42 239.913C6187.56 239.59 6183.92 238.063 6181.06 235.568C6178.08 233.031 6174.55 231.143 6170.72 230.036C6165.7 228.401 6161.04 225.913 6156.96 222.694C6154.9 221.083 6152.43 220.005 6149.81 219.564C6146.01 218.692 6142.47 217.002 6139.46 214.625C6136.33 212.47 6132.82 210.865 6129.1 209.885C6125.21 208.934 6121.64 207.027 6118.76 204.353C6114.73 200.955 6111.23 197.166 6107.2 194.36C6104.31 191.938 6100.68 190.451 6096.85 190.114L6060.99 189.2L6041.03 189.022C6035.67 189.039 6030.43 187.51 6026 184.635C6020.63 180.631 6013.56 180.271 6008.19 176.663C6003.88 173.664 5999.09 171.35 5994.01 169.812C5990.16 168.699 5986.62 166.774 5983.66 164.181C5980.8 161.681 5977.17 160.123 5973.3 159.737C5966.66 158.985 5960.01 158.629 5953.46 158.076C5950.78 157.87 5948.22 156.918 5946.11 155.341C5941.98 152.139 5937.85 148.937 5933.93 145.342C5930.98 142.753 5927.44 140.858 5923.58 139.81C5919.81 138.773 5916.29 137.026 5913.23 134.674C5909.18 131.347 5904.07 129.419 5898.73 129.204C5890.72 129.133 5882.82 129.062 5874.82 128.991C5870.87 128.955 5866.82 128.919 5862.87 128.389C5858.92 127.905 5855.11 126.66 5851.67 124.729C5843.09 119.707 5843.09 119.411 5837.27 119.062C5829.27 118.668 5821.55 116.131 5814.99 111.743C5813.27 110.8 5811.32 110.295 5809.34 110.278C5807.35 110.26 5805.4 110.73 5803.66 111.641L5796.56 115.237C5793.1 117.072 5789.25 118.152 5785.3 118.4C5778.62 118.378 5772.04 119.916 5766.13 122.876C5764.94 123.455 5763.62 123.751 5762.28 123.739C5760.94 123.727 5759.62 123.407 5758.44 122.808C5752.57 119.858 5746.09 118.179 5739.46 117.891C5734.15 117.571 5729.04 115.809 5724.74 112.815C5720.26 110.022 5714.95 108.658 5709.6 108.921C5705.63 108.534 5701.63 109.328 5698.15 111.192C5691.5 115.51 5683.58 117.692 5675.53 117.418C5660.98 117.288 5646.32 117.157 5631.67 117.026C5627.72 116.991 5623.76 117.45 5619.81 117.811C5617.15 118.095 5614.66 119.181 5612.71 120.912C5602.23 130.707 5591.74 140.503 5581.26 150.299C5570.78 160.095 5562.6 168.23 5553.37 177.246C5550.72 180.077 5548.77 183.439 5547.66 187.084C5546.33 190.672 5544.32 194.003 5541.75 196.921C5535.77 203.79 5528.65 209.463 5522.46 216.033C5519.9 218.817 5518.21 222.228 5517.59 225.879C5516.39 232.099 5516.74 238.53 5515.34 244.649C5514.72 247.087 5513.26 249.257 5511.19 250.815C5509.12 252.373 5506.57 253.23 5503.93 253.25C5501.3 253.474 5498.65 253.45 5496.03 253.179C5493.4 252.843 5490.88 251.942 5488.67 250.542C5483.3 246.835 5478.35 242.538 5472.98 238.732C5469.74 236.537 5465.86 235.361 5461.88 235.37C5456.57 234.905 5451.22 235.886 5446.47 238.199C5442 240.962 5437.11 243.053 5431.97 244.399C5429.42 245.009 5427.06 246.172 5425.07 247.798C5418.07 253.608 5411.49 259.859 5405.36 266.511C5404.47 267.438 5403.82 268.55 5403.46 269.758C5401.54 275.819 5398.22 281.397 5393.75 286.088C5391.13 288.833 5388.92 292.077 5386.29 294.921C5383.78 297.887 5382.36 301.557 5382.25 305.368C5382.17 314.268 5382.09 323.069 5381.39 331.963C5381.28 344.522 5381.16 357.179 5380.53 369.832C5380.3 373.53 5378.69 377.026 5375.97 379.681C5370.62 385.369 5365.48 390.861 5359.5 396.148C5356.67 398.718 5352.98 400.26 5349.07 400.505C5342.41 401.039 5335.76 401.079 5329.1 401.019L5249.27 400.305C5244.07 400.259 5238.87 400.707 5233.46 401.054C5230.81 401.234 5228.29 402.217 5226.26 403.858C5222.18 407.184 5218.3 410.61 5214.22 413.64C5211.24 416.065 5207.64 417.704 5203.78 418.392C5201.08 418.368 5198.48 419.037 5195.87 419.508C5190.61 420.162 5185.63 422.169 5181.47 425.313C5178.07 427.296 5174.2 428.45 5170.22 428.674C5163.6 429.333 5156.95 427.654 5151.55 423.958C5147.42 420.633 5142.13 418.894 5136.72 419.079C5122.18 418.454 5107.52 418.125 5092.86 418.686C5088.87 418.628 5084.97 419.77 5081.7 421.949C5076.22 425.54 5070.11 428.165 5063.65 429.699C5058.95 431.837 5055.02 435.241 5052.34 439.488C5052.42 440.731 5052.65 441.961 5053.03 443.153C5054.18 447.445 5056.88 451.216 5060.66 453.801C5064.44 456.386 5069.06 457.619 5073.7 457.282C5076.35 457.472 5079.01 457.162 5081.53 456.37C5084.05 455.578 5086.39 454.319 5088.4 452.666C5092.45 449.361 5097.56 447.455 5102.89 447.258C5105.6 447.282 5108.2 447.305 5110.9 447.329L5114.85 447.365C5118.18 447.34 5121.45 448.288 5124.2 450.08C5126.95 451.873 5129.06 454.425 5130.25 457.392C5133.51 464.64 5134.55 465.144 5140.56 467.374L5144.29 468.594C5146.82 469.339 5149.15 470.61 5151.11 472.314C5154.09 474.609 5157.67 476.079 5161.47 476.56C5168.12 476.619 5174.77 477.272 5181.32 478.023C5183.96 478.319 5186.47 479.299 5188.57 480.857C5192.72 484.068 5196.22 487.99 5198.86 492.421C5200.08 494.652 5200.35 497.24 5199.64 499.659C5198.92 502.077 5197.26 504.144 5195 505.44C5188.78 507.568 5182.93 510.584 5177.66 514.384C5173.6 516.592 5168.94 517.616 5164.27 517.328C5159.59 517.04 5155.11 515.453 5151.38 512.764C5147.34 509.547 5142.41 507.511 5137.19 506.902C5133.24 506.866 5129.3 505.743 5125.35 505.213C5122.76 504.625 5120.37 503.412 5118.42 501.69C5115.22 499.431 5111.4 498.092 5107.43 497.834L5095.48 497.134L5079.47 496.99C5076.84 496.846 5074.26 496.183 5071.9 495.044C5067.42 492.329 5062.58 490.19 5057.51 488.685C5052.24 488.045 5046.93 487.701 5041.61 487.653C5021.65 487.474 5001.7 487.296 4981.74 487.117C4975.12 486.979 4968.63 485.398 4962.76 482.498C4961.09 481.46 4959.15 480.899 4957.16 480.882C4955.17 480.864 4953.21 481.39 4951.53 482.397C4948.3 484.635 4944.46 485.939 4940.48 486.155L4928.52 486.048L4904.61 485.835C4899.52 485.789 4898.48 485.78 4889.71 490.547C4885.08 493.031 4879.9 494.442 4874.6 494.665L4858.68 495.413C4856.01 495.514 4853.41 496.312 4851.18 497.719C4844.48 501.878 4836.55 503.855 4828.57 503.352C4812.56 503.209 4796.66 503.066 4780.65 502.923C4775.3 502.604 4770.04 504.257 4765.95 507.539C4764.89 508.268 4763.77 508.919 4762.6 509.487C4760.38 510.885 4757.84 511.776 4755.2 512.091C4744.63 513.381 4733.93 513.285 4723.39 511.807C4718.22 510.651 4713.45 508.259 4709.52 504.859C4707.89 503.802 4706 503.165 4704.03 503.009C4702.07 502.853 4700.09 503.183 4698.3 503.967C4697.06 504.403 4695.89 505.027 4694.86 505.816C4688.55 510.645 4680.51 512.95 4672.45 512.241C4662.05 512.148 4651.66 512.056 4640.54 511.956C4632.53 512.365 4624.64 509.973 4618.35 505.231C4616.3 503.58 4613.9 502.376 4611.31 501.706C4606.24 500.299 4601.47 498.046 4597.23 495.053C4595.02 493.607 4592.44 492.763 4589.77 492.613C4584.47 491.973 4579.38 491.828 4573.87 491.581C4564.52 491.498 4555.27 491.415 4545.92 490.738C4543.28 490.464 4540.76 489.594 4538.56 488.2C4536.42 486.666 4533.75 485.971 4531.1 486.261C4528.44 486.55 4526.01 487.801 4524.3 489.754C4523.36 490.635 4522.21 491.317 4521.26 492.199C4519.45 494.028 4518.26 496.329 4517.83 498.809C4517.4 501.288 4517.76 503.834 4518.85 506.121C4520.96 509.332 4523.45 512.307 4526.26 514.989C4528.99 517.901 4532.61 519.937 4536.6 520.818C4541.59 522.492 4546.35 524.725 4550.79 527.472C4553.18 528.559 4555.73 529.314 4558.35 529.715C4564.95 530.417 4571.6 530.476 4578.21 529.892C4582.19 529.446 4586.06 528.379 4589.67 526.731C4591.34 525.972 4593.2 525.68 4595.04 525.889C4596.88 526.098 4598.62 526.799 4600.06 527.912C4603.26 530.215 4606.04 533.009 4609.14 535.311C4612.07 537.749 4615.66 539.357 4619.49 539.953C4624.79 540.594 4629.88 540.936 4635.39 541.183C4640.7 541.511 4645.79 543.348 4650 546.456C4654.24 549.565 4659.37 551.37 4664.71 551.631C4670.02 551.679 4675.11 551.724 4680.61 552.565C4685.92 553.262 4690.85 555.559 4694.69 559.119C4699.82 563.114 4703.84 568.243 4706.41 574.058C4706.29 575.27 4705.91 576.445 4705.29 577.511C4704.67 578.578 4703.83 579.512 4702.82 580.256C4701.66 580.858 4700.38 581.217 4699.07 581.31C4689.76 581.953 4680.42 582.101 4671.1 581.753C4660.7 581.66 4650.31 581.567 4639.19 581.467C4631.17 581.83 4623.28 579.404 4617 574.643C4613.76 572.369 4609.92 570.999 4605.91 570.687C4600.72 570.047 4595.52 569.803 4590.02 569.556C4586.04 569.224 4582.18 568.076 4578.71 566.192C4577.58 565.687 4576.65 564.689 4575.51 564.086C4572.1 562.069 4568.22 560.88 4564.21 560.622L4520.34 560.23L4488.43 559.945C4483.12 559.745 4477.97 558.197 4473.5 555.46C4468.99 552.75 4463.8 551.236 4458.47 551.073L4426.55 550.788C4418.55 550.717 4410.55 550.645 4402.54 550.574C4398.69 550.463 4395.01 549.024 4392.18 546.525C4391.18 545.703 4390.11 544.966 4388.98 544.321C4385.05 541.906 4380.51 540.562 4375.83 540.433C4371.16 540.304 4366.54 541.396 4362.48 543.59C4360.08 545.775 4357.25 547.488 4354.15 548.631C4351.06 549.774 4347.75 550.325 4344.43 550.252L4332.48 550.145C4327.16 550.206 4322 551.817 4317.67 554.76C4315.52 556.318 4312.96 557.287 4310.27 557.562C4306.32 558.121 4302.29 557.275 4298.96 555.186C4294.2 551.681 4288.39 549.706 4282.37 549.545C4276.36 549.385 4270.45 551.048 4265.49 554.293C4260.91 556.871 4255.71 558.289 4250.38 558.411C4247.74 558.484 4245.12 558.859 4242.57 559.528C4240.01 560.174 4237.63 561.333 4235.58 562.926C4232.6 565.449 4229.93 568.277 4227.6 571.36C4226.21 573.477 4225.47 575.917 4225.45 578.412C4225.42 580.907 4226.13 583.36 4227.48 585.501C4229.89 588.522 4232.74 591.21 4235.93 593.488C4238.04 595.04 4240.54 596.05 4243.18 596.421C4248.48 596.468 4253.57 597.404 4259.08 597.552C4265.77 597.658 4272.23 599.911 4277.42 603.947C4280.52 606.326 4284.32 607.741 4288.3 608C4297.59 609.022 4306.96 609.106 4316.26 608.249C4320.15 607.912 4323.81 606.383 4326.7 603.892C4329.65 601.304 4333.24 599.465 4337.14 598.547C4341.02 597.585 4344.79 596.26 4348.4 594.592C4349.99 593.739 4351.79 593.298 4353.61 593.314C4355.44 593.33 4357.23 593.803 4358.8 594.685C4359.83 595.486 4360.98 596.131 4362.21 596.595C4369.98 598.501 4377.24 601.935 4383.54 606.675C4385.79 608.031 4388.46 608.599 4391.1 608.279C4393.74 607.96 4396.18 606.774 4398 604.925C4402.76 600.514 4407.87 596.46 4413.29 592.799C4415.47 591.36 4418.04 590.527 4420.69 590.393C4431.31 589.548 4442 589.644 4452.6 590.678C4456.58 591.102 4460.26 592.893 4462.95 595.715C4466.66 599.309 4470.69 602.608 4474.72 605.71C4477.33 607.667 4480.61 608.661 4483.93 608.509C4487.25 608.357 4490.41 607.07 4492.81 604.883C4494.8 603.219 4496.59 601.257 4498.58 599.594C4500.43 597.795 4502.39 596.096 4504.44 594.504C4507.61 592.178 4511.49 590.894 4515.5 590.845L4531.4 590.987C4535.39 591.201 4539.29 592.248 4542.81 594.055C4549.26 598.577 4557.09 600.974 4565.1 600.881C4567.7 601.421 4570.23 602.206 4572.67 603.223C4579.84 608.984 4588.88 612.21 4598.26 612.352C4600.88 612.68 4603.36 613.695 4605.41 615.284C4608.46 617.706 4611.98 619.549 4615.76 620.717C4620.93 621.845 4625.77 624.05 4629.94 627.173C4632.04 628.748 4634.43 629.942 4636.98 630.697C4638.27 631.005 4639.52 631.447 4640.71 632.016C4642.35 633.063 4643.74 634.429 4644.78 636.024C4645.82 637.619 4646.5 639.407 4646.76 641.268C4646.4 643.113 4645.64 644.866 4644.53 646.421C4643.43 647.976 4642 649.299 4640.34 650.309C4636.65 651.391 4633.14 652.957 4629.9 654.962C4625.75 658.169 4620.64 660.06 4615.3 660.37C4611.33 660.368 4607.37 660.864 4603.54 661.847C4602.23 662.104 4600.99 662.596 4599.89 663.298C4591.72 669.752 4585.2 677.803 4576.31 683.657C4571.82 686.584 4569.32 686.957 4565.91 684.553C4562.12 681.023 4557.84 677.992 4553.2 675.539C4551.98 675.068 4550.67 674.862 4549.36 674.936C4548.04 675.009 4546.76 675.361 4545.61 675.966C4543.32 677.249 4541.15 678.719 4539.13 680.358C4536.09 682.704 4533.26 685.547 4530.02 687.595C4527.62 688.688 4524.89 688.943 4522.32 688.317C4520.98 688.202 4519.71 687.739 4518.63 686.979C4517.56 686.219 4516.72 685.192 4516.22 684.01C4515.33 682.338 4514.87 680.485 4514.88 678.609C4514.9 676.732 4515.39 674.888 4516.32 673.231C4520.62 668.424 4524.93 663.419 4529.34 658.909C4530.71 657.53 4531.78 655.906 4532.5 654.13C4533.21 652.354 4533.54 650.462 4533.48 648.562C4533.82 646.069 4533.84 643.546 4533.55 641.047C4532.56 635.401 4529.79 631.124 4523.97 631.072C4520.06 630.393 4516.05 630.357 4512.12 630.966C4509.48 631.348 4506.97 632.345 4504.82 633.868C4498.11 639.939 4491.51 646.209 4484.8 652.38C4481.01 655.944 4476.22 658.405 4471.01 659.476C4467.24 660.544 4463.7 662.254 4460.57 664.525C4457.86 666.351 4454.62 667.318 4451.29 667.288C4447.97 667.259 4444.74 666.234 4442.07 664.36C4439.84 662.987 4437.53 661.744 4435.14 660.639C4433.37 659.779 4431.4 659.364 4429.41 659.433C4427.43 659.502 4425.5 660.052 4423.8 661.032C4422.65 661.615 4421.61 662.397 4420.46 663.079C4414.86 666.579 4408.16 668.126 4401.5 667.458C4397.52 667.4 4393.65 666.193 4390.4 663.997C4387.23 661.7 4383.6 660.034 4379.73 659.099C4375.86 658.164 4371.84 657.979 4367.89 658.554C4365.23 658.638 4362.65 659.476 4360.49 660.96C4354.02 665.478 4346.1 667.715 4338.08 667.287L4282.16 666.787C4279.56 666.764 4276.97 666.048 4274.27 665.826C4271.64 665.46 4269.21 664.286 4267.35 662.483C4265.49 660.681 4264.3 658.35 4263.96 655.845C4263.37 649.555 4264.5 643.228 4267.24 637.48C4267.72 636.28 4267.86 634.984 4267.64 633.718C4267.43 632.451 4266.88 631.258 4266.04 630.254C4265.21 629.251 4264.11 628.471 4262.86 627.991C4261.61 627.511 4260.25 627.347 4258.91 627.516C4256.3 627.609 4253.69 627.85 4251.11 628.237C4249.76 628.32 4248.46 628.753 4247.36 629.489C4239.39 636.242 4231.74 643.195 4223.68 649.749C4220.85 652.097 4217.61 654.442 4213.27 651.535C4206.55 647.222 4197.92 647.145 4191.31 642.735C4189.76 641.692 4187.89 641.183 4186 641.292C4184.1 641.401 4182.31 642.122 4180.91 643.334C4177.65 645.528 4174.57 647.946 4171.69 650.57C4164.88 656.641 4158.28 662.812 4151.67 668.983L4140.35 679.662C4136.39 683.068 4131.29 685.021 4125.95 685.17C4119.29 685.832 4112.61 684.038 4107.29 680.157C4104 677.952 4100.19 676.558 4096.2 676.102C4093.6 676.079 4090.9 675.561 4088.31 675.142C4084.39 674.531 4080.77 672.769 4077.96 670.105C4075.12 667.465 4072.57 664.56 4070.34 661.433C4069.3 659.85 4068.67 658.049 4068.53 656.186C4068.38 654.324 4068.72 652.456 4069.5 650.744C4070.51 648.383 4071.86 646.165 4073.51 644.154C4075.29 641.501 4076.5 638.537 4077.06 635.435C4077.62 632.333 4077.53 629.155 4076.79 626.086C4076.51 623.671 4075.3 621.44 4073.39 619.818C4071.49 618.196 4069.03 617.296 4066.48 617.291C4065.17 617.347 4063.87 617.569 4062.62 617.949C4058.13 620.64 4053.37 622.916 4048.42 624.744C4043.37 626.174 4038.6 628.405 4034.33 631.343C4032.07 632.681 4029.52 633.514 4026.87 633.782C4024.22 634.049 4021.54 633.744 4019.03 632.888L4015.3 631.668C3988.53 626.088 3999.94 605.323 3995.92 590.058C3993.2 580.144 4008.81 555.065 3976.72 562.986L3974.75 574.243C3974.39 576.728 3973.51 579.121 3972.17 581.282C3970.83 583.442 3969.06 585.329 3966.95 586.831L3963.91 589.277C3960.19 591.93 3955.79 593.598 3951.16 594.113C3946.54 594.627 3941.86 593.969 3937.58 592.206C3935.1 591.278 3932.77 590.026 3930.65 588.485C3927.25 586.474 3923.35 585.379 3919.35 585.318C3910.1 585.236 3900.74 585.152 3891.49 585.069L3808.33 584.326C3804.36 584.124 3800.41 583.725 3796.49 583.132C3795.23 582.795 3794.07 582.207 3793.07 581.408C3792.08 580.608 3791.27 579.616 3790.71 578.497C3790.15 577.377 3789.85 576.157 3789.82 574.918C3789.8 573.679 3790.05 572.449 3790.56 571.311C3792.99 566.981 3795.4 565.025 3799.36 564.763C3803.31 564.502 3809.76 563.966 3815.27 563.818C3821.96 563.594 3828.3 560.881 3832.91 556.262C3833.8 555.331 3834.74 554.448 3835.74 553.617C3838.02 551.346 3839.3 548.334 3839.33 545.193C3839.36 542.053 3838.13 539.018 3835.89 536.707C3834.05 534.912 3832.09 533.242 3830.01 531.71C3828.52 530.401 3826.62 529.602 3824.61 529.44C3822.6 529.279 3820.58 529.764 3818.89 530.819C3814.28 533.3 3809.08 534.647 3803.78 534.739C3798.49 535.176 3793.34 536.538 3788.57 538.757C3782.2 541.469 3782 541.566 3777.55 538.658C3773.04 535.931 3767.85 534.383 3762.52 534.172C3753.26 534.09 3743.91 534.006 3734.66 533.923C3725.41 533.841 3718.65 533.78 3710.75 533.71C3705.41 533.678 3700.21 532.115 3695.82 529.225C3692.8 526.731 3688.94 525.342 3684.94 525.307C3680.94 525.271 3677.06 526.591 3673.99 529.03C3669.66 532.017 3664.43 533.6 3659.08 533.544C3647.13 533.438 3635.17 533.825 3623.32 534.115C3619.3 534.347 3615.42 535.573 3612.06 537.673C3610.91 538.315 3609.72 538.899 3608.51 539.422C3606.1 540.785 3603.93 540.172 3602.08 537.485C3598.6 530.927 3580.45 538.478 3586.41 522.807C3588.28 520.043 3591.08 517.974 3594.36 516.945C3596.8 515.927 3599.35 515.186 3601.97 514.738C3609.97 514.829 3617.81 512.548 3624.38 508.214C3627.62 505.958 3631.52 504.746 3635.53 504.753C3640.84 504.801 3645.94 504.253 3651.45 504.005C3655.43 503.627 3659.26 502.338 3662.6 500.248C3663.75 499.665 3664.7 498.685 3665.85 498.003C3669.25 496.048 3673.07 494.84 3677.03 494.465C3680.99 494.09 3684.99 494.557 3688.74 495.834C3691.25 496.701 3693.71 497.713 3696.09 498.866C3700.34 500.487 3700.44 500.685 3706.5 497.674C3712.71 495.474 3719.24 494.231 3725.87 493.99C3729.72 493.343 3733.32 491.738 3736.3 489.336L3739.14 486.691C3743.02 483.188 3745.34 478.39 3745.6 473.299C3745.77 469.504 3745.2 465.711 3743.93 462.109C3742.82 460.498 3741.27 459.205 3739.44 458.37C3737.62 457.535 3735.59 457.188 3733.57 457.369C3730.99 457.806 3728.52 458.689 3726.28 459.974C3720.55 463.288 3713.91 464.915 3707.21 464.649L3675.3 464.364C3664.9 464.271 3654.5 464.178 3643.38 464.079C3638.74 463.577 3634.04 463.973 3629.56 465.241C3625.09 466.51 3620.92 468.625 3617.33 471.461C3613.91 473.435 3609.97 474.43 3605.97 474.326C3602.02 474.291 3597.97 474.254 3594.02 474.219C3586.01 474.148 3578.11 474.077 3570.11 474.005C3560.78 473.641 3551.55 475.972 3543.64 480.691C3541.86 481.505 3539.9 481.919 3537.91 481.901C3535.93 481.883 3533.98 481.435 3532.21 480.589C3531.02 480.051 3529.91 479.377 3528.9 478.582C3524.48 475.684 3519.33 473.965 3513.98 473.602C3502.04 472.853 3490.06 472.746 3478.11 473.282C3474.16 473.512 3470.31 474.594 3466.86 476.445C3464.45 477.61 3462.57 479.472 3460.17 480.44C3455.26 482.275 3449.74 483.709 3445.15 485.448C3440.56 487.187 3439.31 487.473 3430.61 484.23C3426.91 482.808 3422.98 482.003 3418.99 481.852C3412.34 481.7 3405.91 479.529 3400.64 475.655C3399.57 474.867 3398.39 474.224 3397.13 473.745C3395.92 473.299 3394.67 472.989 3393.39 472.821C3386.74 472.267 3380.09 471.714 3373.44 471.358C3368.11 470.953 3363.14 468.606 3359.57 464.805C3356.52 462.316 3352.61 460.979 3348.59 461.048C3341.98 460.102 3335.25 461.56 3329.73 465.132C3325.97 467.769 3323.48 466.955 3319.35 463.457C3315.23 459.959 3314.21 456.884 3315.28 453.531C3317.38 448.899 3321.08 445.093 3325.78 442.746C3327 442.296 3328.31 442.105 3329.63 442.187C3334.93 442.235 3340.03 441.687 3345.54 441.637L3401.46 442.137C3410.81 441.717 3420.05 444.194 3427.8 449.196C3429.53 450.112 3431.48 450.601 3433.46 450.619C3435.44 450.636 3437.39 450.182 3439.14 449.298C3441.54 448.231 3443.94 447.165 3446.23 445.9C3449.7 444.018 3453.6 442.966 3457.59 442.837L3505.42 442.275C3508.12 442.329 3510.77 441.517 3512.92 439.969C3513.97 439.286 3515.22 438.803 3516.27 438.021C3521.62 434.187 3528.13 432.095 3534.83 432.055C3540.21 431.848 3545.3 429.66 3549.02 425.952C3549.98 425.086 3550.89 424.169 3551.75 423.207C3552.5 422.601 3553.1 421.847 3553.52 420.998C3553.94 420.148 3554.16 419.223 3554.17 418.284C3554.18 417.345 3553.98 416.416 3553.57 415.559C3553.17 414.702 3552.58 413.938 3551.83 413.318L3546.16 408.026C3544.2 406.331 3541.74 405.233 3539.11 404.875C3536.48 404.517 3533.81 404.914 3531.42 406.015C3524 411.509 3514.61 414.016 3505.26 413.001L3501.31 412.966C3495.96 412.962 3490.74 411.359 3486.39 408.382C3482.15 405.3 3477.08 403.436 3471.77 403.01C3469.07 402.986 3466.47 402.963 3463.77 402.938C3455.74 402.974 3447.91 400.507 3441.48 395.915C3439.38 394.38 3436.87 393.432 3434.23 393.18C3431.53 393.156 3428.93 392.54 3426.23 392.515L3354.51 391.874C3349.13 391.9 3343.97 393.828 3340.01 397.283C3335.08 401.491 3330.26 405.8 3325.24 409.809C3324.06 410.418 3322.73 410.714 3321.38 410.665C3319.41 410.802 3317.44 410.401 3315.7 409.509C3313.96 408.618 3312.52 407.273 3311.55 405.633C3310.36 402.041 3310.65 398.15 3312.38 394.761C3314.85 391.798 3317.55 389.012 3320.46 386.427C3324.02 382.701 3327.59 378.975 3330.95 375.445C3333.87 372.866 3336.13 369.69 3337.57 366.156C3339 362.623 3339.57 358.824 3339.24 355.048C3339.25 352.51 3338.69 349.999 3337.62 347.674C3336.55 345.349 3334.99 343.261 3333.02 341.543L3327.98 335.663C3322.4 328.529 3314.58 323.264 3305.66 320.629C3302.13 319.806 3301.21 318.512 3298.67 312.16C3297.84 309.777 3296.31 307.669 3294.26 306.089C3292.21 304.51 3289.72 303.526 3287.1 303.255L3279.21 301.998C3275.37 301.49 3271.76 299.909 3268.86 297.455C3255.66 284.975 3242.15 272.789 3229.48 259.82C3222.27 252.338 3214.43 245.543 3206.7 238.65C3202.82 235.16 3198.15 232.578 3193.04 231.111C3190.55 230.312 3188.28 228.971 3186.42 227.195C3183.43 224.498 3180.44 221.999 3177.34 219.697C3175 217.405 3172.17 215.621 3169.04 214.466C3165.91 213.312 3162.56 212.814 3159.21 213.008C3152.54 212.568 3146.32 209.632 3141.92 204.843C3139.14 202.147 3135.94 199.844 3133.15 197.149C3130.41 194.443 3126.73 192.761 3122.8 192.409C3113.44 192.325 3104.2 191.649 3094.84 192.159C3085.52 192.674 3076.28 190.301 3068.49 185.396C3066.23 184.082 3063.74 183.156 3061.14 182.66C3056.21 180.788 3051.58 178.284 3047.38 175.219C3042.72 172.804 3037.75 171.078 3032.88 169.057C3026.85 164.273 3019.78 160.831 3012.18 158.982C3005.44 156.252 3005.34 155.757 2997.1 158.848C2994.68 159.963 2992.07 160.644 2989.39 160.855L2961.53 161.101C2954.88 161.042 2948.22 160.982 2941.57 160.923C2936.24 161.158 2931.08 162.789 2926.66 165.635C2918.41 170.506 2917.47 170.696 2912.06 170.845C2906.65 170.995 2898.86 171.221 2892.2 171.162C2885.5 171.095 2878.96 173.082 2873.54 176.83C2870.24 178.944 2866.37 180.11 2862.39 180.192C2857.09 180.144 2852 180.099 2846.38 180.839C2842.39 180.896 2838.5 181.99 2835.12 184.003C2832.94 185.451 2830.59 186.658 2828.12 187.599C2821.65 189.002 2815.6 191.827 2810.48 195.848C2805.68 197.881 2800.67 199.716 2795.97 202.047C2790.71 205.832 2784.72 208.601 2778.33 210.196C2775.97 211.341 2773.71 212.643 2771.54 214.092C2768.33 216.341 2765.26 218.756 2762.33 221.328C2757.49 225.709 2751.07 228.164 2744.39 228.189C2741.06 228.286 2737.79 229.044 2734.78 230.413C2731.78 231.783 2729.12 233.734 2726.95 236.142C2725.17 238.005 2723.18 239.669 2721.39 241.631C2720.5 242.558 2719.85 243.67 2719.49 244.877C2717.76 250.97 2714.33 256.506 2709.58 260.909C2705.8 264.435 2702.34 268.36 2698.46 271.787C2695.59 274.497 2691.97 276.383 2688.02 277.231C2682.83 278.31 2678.06 280.731 2674.23 284.229C2671.46 286.992 2668.21 289.272 2664.61 290.966C2663.41 291.472 2662.12 291.728 2660.81 291.716C2659.5 291.704 2658.21 291.426 2657.02 290.899C2652.35 288.548 2647.46 286.617 2642.41 285.131C2639.83 284.486 2637.44 283.242 2635.48 281.509C2631.18 278.505 2625.99 276.866 2620.66 276.827C2604.66 275.992 2588.74 276.542 2572.74 275.608C2570.08 275.478 2567.53 274.517 2565.49 272.873C2561.57 269.574 2557.33 266.372 2553.62 262.877C2545.99 255.689 2538.78 248.306 2531.26 241.118C2528.36 238.534 2525.29 236.128 2522.07 233.915C2520.41 232.9 2518.55 232.217 2516.61 231.911C2514.66 231.604 2512.67 231.68 2510.76 232.133C2505.04 235.436 2498.36 236.902 2491.69 236.314C2481.3 236.221 2470.91 236.128 2459.78 236.029C2455.82 235.958 2451.85 236.187 2447.93 236.714C2444.01 237.099 2440.35 238.699 2437.49 241.269C2435.6 243.032 2433.51 244.497 2431.52 246.16C2427.93 249.966 2423.24 252.677 2418.04 253.951C2412.95 255.421 2408.35 258.103 2404.66 261.743C2401.94 264.488 2399 267.033 2396.07 269.578C2393.19 272.039 2389.51 273.474 2385.64 273.639C2376.38 274.05 2367.02 274.065 2357.77 274.477C2353.74 274.461 2349.79 275.56 2346.41 277.639C2344.29 279.185 2341.98 280.461 2339.51 281.434C2333.19 283.258 2327.2 286.007 2321.77 289.583C2318.47 291.763 2314.53 292.904 2310.51 292.845L2286.59 293.62C2281.25 293.579 2276.02 295.16 2271.69 298.135C2267.25 300.92 2262.09 302.483 2256.78 302.65L2216.86 302.293C2210.18 302.448 2203.62 300.514 2198.2 296.786C2193.77 293.938 2188.5 292.505 2183.16 292.696C2179.18 292.68 2175.23 293.488 2171.6 295.065C2167.19 297.836 2162.47 300.117 2157.51 301.861C2152.44 303.378 2147.63 305.565 2143.21 308.359C2140.85 309.52 2138.26 310.204 2135.6 310.368C2125.02 311.312 2114.36 311.217 2103.79 310.084C2101.17 309.669 2098.68 308.663 2096.54 307.151C2087.35 299.949 2080.16 290.588 2070.55 283.679C2068.87 282.712 2066.98 282.113 2065.02 281.924C2063.06 281.736 2061.09 281.962 2059.23 282.588C2056.86 283.683 2054.65 285.059 2052.65 286.683C2049.29 288.737 2045.5 290.067 2041.54 290.578C2037.59 291.09 2033.56 290.77 2029.75 289.643C2028.4 289.381 2027.16 288.79 2026.13 287.929C2013.54 276.84 2000.75 265.748 1988.8 253.873C1986.5 252.69 1984.07 251.772 1981.55 251.138C1976.25 250.497 1971.16 250.55 1965.65 250.007C1960.15 249.463 1957.76 248.848 1953.81 248.318C1952.34 247.199 1950.52 246.581 1948.63 246.564C1946.75 246.547 1944.91 247.132 1943.42 248.226C1941.64 250.093 1940.18 252.216 1939.1 254.516L1930.26 267.096C1929.48 272.034 1928.92 276.974 1927.73 282.007C1927.06 284.422 1925.91 286.694 1924.34 288.701C1922.87 290.765 1920.67 292.426 1919.1 294.39C1917.79 295.838 1916.2 297.023 1914.4 297.873C1912.61 298.724 1910.66 299.223 1908.65 299.34C1899.39 300.101 1890.08 300.315 1880.79 299.981C1876.81 299.747 1872.82 299.712 1868.84 299.874C1864.84 300.065 1860.97 301.222 1857.58 303.235C1852.07 306.796 1845.48 308.543 1838.82 308.21L1834.77 308.174C1826.76 308.68 1818.81 306.548 1812.26 302.138C1808.84 300.118 1804.88 299.087 1800.85 299.168C1792.95 299.097 1784.95 299.026 1776.95 298.954L1769.04 298.884C1762.34 298.831 1755.84 296.727 1750.49 292.883C1748.3 291.448 1745.73 290.613 1743.07 290.467C1740.42 290.321 1737.77 290.87 1735.42 292.056C1731.77 293.507 1728.42 295.752 1724.98 297.105C1722.49 297.92 1719.77 297.896 1717.29 297.037C1716.01 296.655 1714.81 296.04 1713.77 295.225C1709.61 292.076 1704.87 289.686 1699.8 288.177C1696 287.008 1692.48 285.127 1689.45 282.646C1686.4 280.154 1682.59 278.664 1678.58 278.395C1671.99 277.546 1665.32 277.486 1658.72 278.217C1654.79 278.541 1651.11 280.151 1648.29 282.772C1647.28 283.632 1646.15 284.354 1644.94 284.918C1642.64 286.114 1639.96 286.49 1637.4 285.978C1634.83 285.465 1632.53 284.099 1630.93 282.123C1628.57 278.937 1627.98 275.075 1625.82 272.188C1623.66 269.3 1621.09 266.113 1619.15 262.832C1618.12 260.523 1617.31 258.133 1616.72 255.69C1615.72 251.856 1613.54 248.392 1610.46 245.744C1608.61 244.145 1606.44 242.642 1604.37 241.042C1600.58 242.125 1597.04 243.871 1593.93 246.19C1592.85 246.892 1591.84 247.677 1590.89 248.536C1575.57 264.42 1558.61 278.608 1542.46 293.694C1538.96 295.484 1534.92 296.076 1531.01 295.372C1527.49 293.56 1524.19 291.454 1520.67 289.741C1517.09 288.052 1513.14 287.171 1509.15 287.166C1503.82 286.807 1498.55 288.346 1494.35 291.483C1487.23 297.255 1480.21 302.928 1473.4 308.998C1470.52 311.782 1466.91 313.796 1462.95 314.839C1457.91 316.396 1453.02 318.371 1448.35 320.741C1443.55 322.874 1440.87 319.883 1437.98 317.385C1431.59 310.937 1424.69 304.958 1417.35 299.498C1415.19 298.062 1412.67 297.186 1410.05 296.954C1407.43 296.723 1404.79 297.144 1402.39 298.178C1401.23 298.778 1400.15 299.498 1399.15 300.324C1395.77 302.36 1391.98 303.716 1388.02 304.31C1384.07 304.904 1380.03 304.723 1376.14 303.778C1373.54 303.271 1371.1 302.2 1369 300.648C1365.85 298.323 1362.92 295.75 1360.23 292.955C1356.43 289.435 1351.88 286.731 1346.89 285.023C1341.73 283.632 1337.17 280.717 1333.87 276.698C1332.01 275.001 1329.95 273.301 1328.09 271.504C1325.41 268.676 1321.75 266.867 1317.77 266.413C1313.8 265.96 1309.79 266.892 1306.49 269.037C1302.24 272.097 1297.11 273.845 1291.79 274.048L1287.73 274.011C1282.38 274.204 1277.26 276.149 1273.24 279.519C1269.99 281.678 1266.22 283.038 1262.28 283.476C1258.31 283.835 1254.32 283.998 1250.32 283.962L1230.37 283.784C1223.68 283.711 1217.05 285.071 1210.99 287.764C1209.16 288.464 1207.18 288.739 1205.21 288.567C1203.24 288.394 1201.34 287.78 1199.67 286.773C1196.14 284.978 1192.07 284.412 1188.15 285.172C1184.24 285.931 1180.72 287.969 1178.22 290.932L1163.55 303.757C1158.83 308.165 1154.22 312.772 1149.29 316.98C1146.33 319.591 1142.74 321.492 1138.85 322.524C1135.02 323.293 1131.44 324.922 1128.41 327.276C1125.4 329.515 1121.78 330.89 1117.98 331.238C1111.33 331.772 1104.65 331.712 1098.02 331.059C1095.37 330.957 1092.81 330.108 1090.66 328.62C1084.18 324.1 1076.29 321.799 1068.27 322.091C1057.87 321.998 1046.96 321.9 1036.35 321.805C1032.34 321.803 1028.42 322.939 1025.1 325.067C1023.96 325.723 1022.68 326.106 1021.36 326.18C1020.03 326.254 1018.71 326.019 1017.5 325.494C1015.01 324.68 1012.64 323.472 1010.15 322.758C1002.51 320.37 994.241 320.576 986.751 323.34C984.601 324.79 982.1 325.7 979.481 325.988C976.862 326.276 974.21 325.931 971.767 324.986C969.873 324.45 967.876 324.331 965.928 324.64C963.98 324.948 962.132 325.675 960.524 326.765C957.127 328.783 953.169 329.781 949.166 329.63C942.506 329.734 935.942 331.157 929.895 333.809C928.047 334.453 926.057 334.637 924.113 334.343C922.168 334.048 920.337 333.286 918.789 332.127C916.49 330.841 913.882 330.137 911.217 330.082C901.965 329.999 892.614 329.421 883.365 329.141C876.712 329.081 870.059 329.022 863.407 328.962C858.111 328.699 852.973 327.155 848.477 324.477C844.219 321.331 838.935 319.709 833.549 319.894L825.649 319.823C818.974 319.342 812.326 321.026 806.789 324.599C804.059 326.438 800.821 327.478 797.477 327.588C794.132 327.699 790.827 326.877 787.966 325.222L765.285 304.054C763.358 302.306 761.08 300.947 758.586 300.058C756.093 299.169 753.435 298.769 750.776 298.88C747.459 298.508 744.097 298.9 740.975 300.026C737.852 301.151 735.062 302.976 732.839 305.346L724.037 313.08C720.16 316.507 716.283 320.032 712.613 323.56C709.673 325.895 706.009 327.252 702.181 327.422C700.866 327.512 699.546 327.501 698.232 327.387C649.064 326.947 599.89 327.101 550.623 326.068C546.661 325.725 542.816 324.613 539.322 322.802C538.157 322.192 537.051 321.488 536.014 320.696C532.631 318.711 528.782 317.555 524.815 317.332C515.464 316.754 506.215 316.473 496.968 315.896C493.043 315.66 489.352 314.04 486.613 311.353C470.74 296.081 454.03 281.394 438.994 265.535C434.505 260.856 429.643 256.514 424.451 252.549C420.804 249.783 416.459 247.977 411.849 247.311C407.239 246.645 402.527 247.142 398.185 248.754C395.668 249.595 393.306 250.808 391.188 252.35C387.804 254.429 383.857 255.528 379.827 255.512C363.918 255.864 347.909 255.82 332.002 256.074C327.99 256.329 324.13 257.629 320.845 259.831C319.787 260.558 318.775 261.342 317.81 262.177C314.773 264.622 311.632 266.968 308.802 269.613C306.928 271.444 304.641 272.844 302.112 273.706C295.828 275.879 290.044 279.185 285.079 283.444C281.099 286.771 276.707 289.698 272.419 292.627C271.183 293.085 269.886 293.373 268.565 293.482C267.262 293.732 265.94 293.886 264.612 293.942C242.055 293.74 219.386 294.23 196.835 293.336C194.189 292.988 191.583 292.402 189.054 291.585C180.585 285.279 169.368 284.091 161.006 277.588C155.057 274.619 148.135 273.954 141.687 275.734C139.765 276.116 137.996 277.01 136.586 278.31C135.176 279.61 134.181 281.264 133.719 283.08C132.846 288.044 132.386 293.066 132.339 298.1C132.294 303.143 130.18 307.179 127.786 307.454C123.857 307.237 120.156 305.614 117.43 302.911L108.138 295.806C106.039 294.235 103.448 293.376 100.778 293.367L60.8599 293.01C44.9556 292.868 28.9477 292.725 13.0496 291.891L0.00082582 1751.76L20787.6 1937.57L20801.5 390.578C20774 360.663 20738.7 356.59 20706.6 361.94C20720.1 321.118 20773.2 333.955 20802.2 307.216L20802.8 238.885C20799.1 237.679 20795.2 236.914 20791.3 236.606C20766 235.688 20740.8 236.154 20715.5 235.929C20708.8 235.787 20702.3 237.629 20696.8 241.2C20693.5 243.419 20689.6 244.69 20685.6 244.858C20676.3 245.566 20667 245.483 20657.7 244.609C20653.8 243.857 20650.1 242.379 20646.9 240.26C20638 235.235 20636.5 235.025 20632.2 234.888C20613.7 233.931 20595.1 233.764 20576.4 234.389C20572.5 234.712 20568.6 235.752 20565.1 237.452C20560 241.58 20553.4 243.774 20546.7 243.617C20541.4 243.703 20536.2 244.978 20531.5 247.338C20530.4 248.02 20529.2 249.098 20528.1 249.186C20526.7 249.089 20525.5 248.706 20524.3 248.065C20518.4 245.261 20511.9 243.591 20505.2 243.148C20499.9 243.13 20494.7 241.413 20490.5 238.269C20489.5 237.503 20488.3 236.862 20487.1 236.359C20483 234.272 20478.4 233.235 20473.8 233.349C20469.1 233.464 20464.6 234.726 20460.6 237.012L20457.1 238.96C20453.8 241.088 20449.9 242.223 20445.9 242.221C20433.9 242.609 20422 242.502 20409.9 242.691C20405.9 242.84 20402 243.641 20398.4 245.06C20393.4 248.873 20388.6 246.753 20383.7 244.929C20380.7 243.53 20377.4 242.949 20374.1 243.252C20370.8 243.554 20367.6 244.728 20365 246.641C20361.8 249.008 20357.9 250.328 20353.9 250.399C20342 250.292 20330 250.877 20318 250.968C20312.7 250.956 20307.5 252.496 20303 255.383C20297.3 258.539 20290.7 260.155 20284.1 260.059L20268.1 259.916L20204.2 259.346C20198.9 259.299 20193.8 259.847 20188.3 260.094C20185.7 260.225 20183.1 261.174 20181 262.798C20175.9 266.915 20169.6 269.295 20162.9 269.558C20156.2 269.727 20149.8 271.845 20144.4 275.624C20142.2 277.017 20139.7 277.97 20137 278.425C20131.9 279.719 20127 281.887 20122.7 284.825C20120.4 286.075 20117.9 286.828 20115.2 287.032C20105.9 287.74 20096.6 287.657 20087.4 286.783C20083.4 286.59 20079.5 285.432 20076.2 283.42C20070.6 279.843 20064.2 277.861 20057.5 277.715C20042.8 277.584 20028.2 277.453 20013.5 277.322C20004.2 276.698 19994.9 278.975 19987.1 283.81C19983.6 285.582 19979.6 286.305 19975.6 285.883C19970.3 285.991 19965 284.64 19960.5 281.99L19957 280.178C19954.8 278.751 19952.2 277.977 19949.5 277.953C19946.9 277.929 19944.3 278.658 19942.1 280.045C19935.3 284.192 19927.4 286.293 19919.4 286.073C19908.8 285.599 19898.1 285.768 19887.6 286.579C19883.7 287.052 19880.1 288.603 19877.1 291.035C19873 294.346 19867.8 296.188 19862.4 296.244C19854.5 296.174 19846.5 296.597 19838.5 296.723C19834.5 296.697 19830.6 297.761 19827.2 299.787C19821.5 303.018 19815.4 305.587 19809.1 307.437C19804.2 309.173 19800.4 313.194 19794.9 313.837C19790.9 314.296 19786.9 314.557 19783 315.215C19779 315.68 19775.3 317.508 19772.6 320.363C19770.8 322.225 19768.8 323.991 19766.8 325.652C19762.3 330.339 19756.5 333.717 19750.1 335.392C19746.3 336.449 19742.8 338.161 19739.7 340.441C19736.3 342.475 19732.4 343.508 19728.4 343.406L19680.6 343.967C19677.9 343.997 19675.3 344.726 19673 346.075C19670.7 347.34 19668.3 348.407 19666.1 349.772C19663.8 351.093 19661.2 351.978 19658.6 352.375C19648.2 353.669 19637.7 353.575 19627.4 352.096C19623.6 351.316 19620.1 349.728 19617 347.454C19612.6 344.602 19607.4 343.043 19602.1 342.969L19542.2 342.434C19535.6 342.086 19529 343.949 19523.6 347.707C19520.3 349.941 19516.5 351.276 19512.5 351.564L19492.6 353.166C19490 353.371 19487.5 354.273 19485.3 355.771C19481.1 358.788 19476.3 361.087 19471.3 362.568C19467.5 363.705 19464 365.41 19460.8 367.617C19457.5 369.71 19453.6 370.811 19449.6 370.78L19421.6 370.53C19416.3 370.248 19410.9 370.767 19405.8 372.07C19402.1 373.495 19398.7 375.217 19395.3 377.218C19393 378.494 19390.4 379.185 19387.7 379.227C19379.8 379.156 19371.8 379.678 19363.8 379.606L19256.1 378.644C19245.7 378.551 19235.3 378.458 19224.2 378.359C19214.8 377.599 19205.5 380.355 19198.3 386.038C19194.6 387.572 19190.8 388.475 19186.8 388.705L19154.9 388.914C19149.6 389.149 19144.4 390.523 19139.8 392.932C19130.7 397.302 19130 397.394 19124.8 397.348L19084.8 396.991C19078.2 396.893 19071.6 395.522 19065.5 392.961C19061.4 391.342 19061.3 391.638 19054.5 393.852C19052.1 394.884 19049.5 395.593 19046.9 395.96C19040.3 396.395 19033.6 396.533 19026.9 396.572L18955.2 395.931C18951.2 396.189 18947.4 397.232 18943.9 398.994C18942.6 399.524 18941.5 400.177 18940.4 400.941C18937 403.021 18933.1 404.119 18929.1 404.103C18917.1 403.996 18905.1 403.89 18893.2 404.376L18877.2 404.233C18870.5 403.882 18863.9 405.706 18858.4 409.406C18853 413.092 18846.4 414.947 18839.8 414.678L18819.8 414.5L18811.8 414.428C18806.5 414.483 18801.3 415.943 18796.8 418.645C18792.3 421.359 18787.1 422.9 18781.8 423.112C18776.5 423.325 18771.2 422.203 18766.4 419.857C18764.8 418.827 18762.9 418.199 18760.9 418.026C18758.9 417.853 18756.9 418.141 18755.1 418.866C18750.4 421.23 18745.3 422.601 18740 422.885C18733.3 422.971 18726.8 424.905 18721.2 428.453C18717.9 430.533 18714 431.602 18710 431.517C18698 431.41 18686 431.302 18674 431.195C18670 431.147 18666.1 430.124 18662.6 428.225C18660.9 427.219 18659 426.612 18657.1 426.457C18655.1 426.302 18653.1 426.602 18651.3 427.333C18646.5 429.548 18641.3 430.813 18636 431.053L18608.1 430.804C18600 430.096 18592 432.4 18585.7 437.23C18582.2 439.07 18578.4 440.183 18574.4 440.492C18569.1 440.444 18564 440.399 18558.4 440.843L18530.6 440.594C18525.2 440.567 18519.9 442.183 18515.6 445.207C18509.8 448.288 18503.2 449.867 18496.6 449.784L18464.7 450.092C18463.4 450.236 18462.1 450.523 18460.8 450.948C18459.5 451.121 18458.2 451.511 18457.1 452.101C18450.5 456.467 18442.7 458.844 18434.7 458.922C18430.6 458.906 18426.7 460.277 18423.7 462.78C18420.9 465.326 18417.6 467.671 18414.7 470.216C18409.9 474.524 18405.1 478.832 18400.3 483.339C18397.4 485.783 18393.8 487.245 18389.9 487.499C18383.3 488.033 18376.6 487.973 18369.9 487.32C18367.3 487.155 18364.7 486.275 18362.6 484.782C18356.2 480.186 18348.2 477.908 18340.2 478.352L18332.2 478.28C18328.2 478.176 18324.2 479.171 18320.8 481.145C18314.1 485.356 18306.2 487.399 18298.1 486.975C18291.5 486.916 18284.9 486.857 18278.3 487.292C18275.6 487.353 18273 487.936 18270.6 489.003C18269.3 489.371 18268 489.927 18266.9 490.652C18261.4 494.105 18255.4 496.876 18249.2 498.899C18246.8 500.136 18244.6 501.502 18242.5 502.993C18239.1 505.089 18235.2 506.222 18231.2 506.255C18219.3 506.148 18207.3 506.733 18195.3 506.824C18191.3 506.952 18187.4 508.226 18184.2 510.482C18178.6 514.012 18172.1 515.819 18165.4 515.655C18160.1 515.375 18154.8 515.693 18149.6 516.602C18148.3 516.821 18147 517.209 18145.9 517.755C18139 521.599 18133 526.685 18128.2 532.728C18126.7 534.831 18125.7 537.167 18125.1 539.623C18124.6 540.843 18124.6 542.174 18125.1 543.399C18125.5 544.624 18126.4 545.671 18127.5 546.369C18128.5 547.144 18129.4 548.051 18130.2 549.063C18131.5 550.485 18133.1 551.634 18134.8 552.433C18136.6 553.233 18138.6 553.666 18140.5 553.705C18149.8 554.48 18159.2 554.564 18168.5 553.955C18172.5 554.089 18176.4 553.129 18179.9 551.189C18186.5 546.939 18194.5 544.891 18202.5 545.358C18215.8 545.477 18229.1 545.102 18242.4 546.308C18243.7 546.387 18244.9 546.828 18245.9 547.577C18247 548.325 18247.8 549.348 18248.2 550.514C18248.6 551.695 18248.7 552.968 18248.4 554.188C18248.1 555.408 18247.5 556.528 18246.5 557.422C18242.7 561.021 18239.2 564.926 18236 569.096C18234.8 571.299 18234.2 573.801 18234.4 576.301C18234.4 577.554 18234.8 578.779 18235.5 579.836C18236.2 580.892 18237.2 581.737 18238.4 582.271C18239.5 582.957 18240.8 583.438 18242.1 583.688C18248.6 584.339 18255.2 584.795 18261.9 585.151C18267.2 585.532 18272.2 587.718 18276 591.309C18277 592.157 18278 593.057 18278.9 594.005C18282.1 597.177 18284.3 601.196 18285.2 605.553C18286 609.91 18285.5 614.408 18283.6 618.475C18283.3 619.721 18282.6 620.869 18281.7 621.82C18278.8 624.379 18275.7 626.7 18272.3 628.758C18271.2 629.405 18269.9 629.743 18268.6 629.731C18267.3 629.719 18266 629.359 18264.9 628.692C18259.3 625.258 18252.7 623.575 18246 623.874C18240.7 623.614 18235.3 623.998 18230.1 625.018C18228.8 625.233 18227.6 625.729 18226.5 626.469C18222.5 629.796 18218.6 633.222 18215 636.849C18210.2 641.274 18205.2 645.392 18199.9 649.175C18196.6 651.418 18192.7 652.66 18188.7 652.734C18184.8 652.699 18180.8 652.664 18176.8 652.627C18170.1 652.39 18163.5 654.436 18158.3 658.396C18156.3 660.056 18153.8 661.07 18151.1 661.299C18144.5 661.832 18137.8 662.169 18131.3 662.802C18127.3 662.97 18123.4 664.319 18120.3 666.66L18111.3 674.195C18106.5 678.68 18100.2 681.244 18093.5 681.353C18081.5 681.247 18069.5 681.14 18057.6 682.022C18055.6 681.917 18053.7 682.345 18051.9 683.258C18050.2 684.17 18048.8 685.529 18047.9 687.176C18046.9 689.541 18045.9 691.806 18044.8 694.17C18041.8 699.855 18037.2 704.593 18031.5 707.798C18029.3 709.225 18026.7 710.087 18024.1 710.303C18017.5 710.986 18010.8 710.926 18004.2 710.125C18000.4 709.558 17996.8 707.985 17993.9 705.583C17989.8 702.382 17986.1 698.69 17982.2 695.589C17979.4 693.039 17975.7 691.473 17971.8 691.145C17965.2 691.086 17958.5 690.531 17952 690.473C17948 690.074 17944 690.456 17940.1 691.595C17936.3 692.734 17932.7 694.606 17929.7 697.097C17926.4 699.335 17922.5 700.545 17918.5 700.558C17909.3 701.069 17899.9 701.084 17890.7 701.496C17886.8 701.802 17883.2 703.219 17880.2 705.556C17878.2 707.224 17875.9 708.453 17873.3 709.153C17870.7 709.673 17868.2 710.515 17865.8 711.657C17863.4 712.658 17861.4 714.517 17860.4 716.85C17857.7 724.052 17853.3 730.553 17847.5 735.822L17833.6 749.345C17830.8 752.01 17829 755.468 17828.5 759.189C17827.4 765.41 17827 771.736 17826.4 778.059C17826 780.49 17824.7 782.724 17822.8 784.37C17820.9 786.016 17818.5 786.969 17815.9 787.064C17813.2 787.287 17810.6 787.264 17808 786.993C17805.3 786.657 17802.8 785.792 17800.5 784.454C17794.9 781.066 17789.9 776.923 17785.6 772.156C17783.6 770.421 17782.3 768.205 17781.6 765.765C17781 763.325 17781.1 760.763 17781.9 758.377C17782.9 756.013 17784.1 753.748 17784.8 751.381C17786.1 746.459 17786.2 741.296 17784.9 736.351C17784.1 734.679 17782.8 733.265 17781.1 732.271C17779.5 731.277 17777.6 730.743 17775.6 730.729C17773 730.935 17770.5 731.689 17768.2 732.938C17765 735.071 17761.5 736.771 17757.8 737.987C17752.6 739.149 17747.8 741.255 17743.5 744.188C17740.1 746.198 17736.1 747.227 17732.1 747.153L17712.2 746.974L17696.2 746.831C17692.2 747.139 17688.3 748.215 17684.8 749.993C17679.5 753.703 17673.5 756.617 17667.3 758.638C17662.9 761.409 17658.3 763.88 17653.5 766.031C17648.3 767.051 17643.5 769.442 17639.7 772.929C17636.7 775.473 17633.8 778.118 17630.7 780.365C17627.7 782.643 17624.1 784.114 17620.3 784.623C17614.9 785.07 17609.9 785.024 17604.2 785.073C17598.9 784.905 17593.6 785.289 17588.4 786.217C17585.8 786.773 17583.4 787.791 17581.2 789.219C17578 791.42 17575 793.983 17572.4 796.854C17569.7 799.645 17566.4 801.804 17562.6 803.16C17558.9 804.516 17554.9 805.034 17550.9 804.672L17531 804.494C17525.6 804.607 17520.4 806.249 17516.1 809.206C17514 810.724 17511.6 811.874 17509.1 812.605C17504 814.064 17499.2 816.365 17495 819.402C17490.6 822.366 17485.3 823.787 17480 823.421C17477.3 823.596 17474.6 823.234 17472.1 822.36C17469.6 821.486 17467.3 820.118 17465.4 818.346C17462.4 815.908 17458.8 814.3 17455 813.704C17448.4 812.953 17441.7 812.794 17435.2 812.34C17431.2 811.881 17427.4 810.45 17424.2 808.187C17423.2 807.386 17422 806.681 17420.9 806.081C17418.6 804.822 17416 804.148 17413.3 804.124C17410.6 804.1 17408 804.727 17405.7 805.945C17403.7 807.593 17401.4 808.97 17399 810.039C17391.4 812.205 17384.1 815.476 17377.5 819.736C17375.3 821.101 17372.7 821.895 17370 822.043C17360.7 822.8 17351.4 822.717 17342.1 821.794C17338.3 821.35 17334.7 819.799 17331.8 817.35C17327.9 814.051 17324.2 810.359 17320 807.355C17317.1 804.906 17313.5 803.355 17309.7 802.911C17296.4 802.792 17283.1 802.08 17269.9 801.369C17266 801.255 17262.2 799.696 17259.5 797.024C17255 792.434 17250.1 788.138 17245.3 783.843C17242.4 781.147 17239.5 778.55 17236.5 776.05C17233.5 773.774 17229.9 772.367 17226.2 772.002C17218.2 771.745 17210.4 769.307 17203.9 764.979C17200.9 763.525 17197.7 762.647 17194.4 762.396C17191.1 762.146 17187.8 762.529 17184.6 763.522C17183.3 763.775 17182.1 764.299 17181 765.058C17179.9 765.817 17179 766.792 17178.4 767.916C17176.4 772.55 17173.8 776.943 17170.8 781.001C17168.3 783.913 17166.5 787.257 17165.4 790.842C17165.4 792.029 17165.4 793.314 17164.3 794.492C17163.9 795.706 17163.3 796.842 17162.5 797.838C17156.1 805.887 17148.1 812.781 17139.1 818.199C17137.3 818.988 17135.4 819.329 17133.4 819.191C17131.4 819.052 17129.5 818.438 17127.8 817.406C17125.7 816.002 17123.7 814.204 17121.4 812.997C17119.1 811.689 17116.5 810.985 17113.9 810.962C17111.2 810.938 17108.6 811.595 17106.3 812.863C17104 814.019 17101.7 815.461 17099.8 817.155C17097.7 818.709 17095.1 819.617 17092.5 819.76C17082.1 820.458 17071.1 819.569 17060.5 819.969C17052.5 820.233 17044.7 817.779 17038.4 813.046C17035.8 811.005 17032.5 809.983 17029.1 810.193C17025.8 810.402 17022.6 811.826 17020.4 814.171C17019.3 814.91 17018.2 815.593 17017 816.217C17014.8 817.556 17012.2 818.255 17009.6 818.232C17006.9 818.208 17004.4 817.463 17002.1 816.085C17000.1 814.484 16998 812.883 16996.1 811.184L16987.4 803.393C16984.1 801.252 16980 800.37 16976.1 800.919C16973.5 801.524 16971.1 802.467 16968.8 803.721C16963.3 807.324 16956.7 808.948 16950 808.301C16947.4 808.332 16944.7 807.73 16942.4 806.551C16938.8 804.739 16935.5 802.633 16932 801.118C16928.5 799.603 16924.5 798.678 16920.9 797.162C16918.6 795.978 16916.3 794.601 16914.2 793.047C16912 791.62 16909.4 790.717 16906.7 790.409C16902.8 789.585 16898.8 789.537 16894.9 790.268C16891 790.999 16887.3 792.493 16884 794.657C16881.2 796.352 16878.1 797.499 16874.8 798.03C16871.6 798.561 16868.2 798.466 16865 797.75C16862.3 797.503 16859.8 796.367 16857.9 794.542C16856 792.716 16854.9 790.318 16854.7 787.768C16854.1 781.434 16853.8 775.2 16853.1 768.865C16853 767.607 16852.7 766.37 16852.1 765.239C16851.6 764.108 16850.7 763.108 16849.7 762.308C16847.5 760.972 16845 760.106 16842.5 759.771C16839.8 759.502 16837.1 759.478 16834.4 759.699C16830.5 759.723 16826.6 761.05 16823.5 763.458C16820.4 765.819 16817.5 768.369 16814.7 771.093C16806.1 779.027 16797.7 787.061 16789.2 795.095C16786.4 797.764 16783.4 800.279 16780.3 802.63C16778.2 804.135 16775.8 805.193 16773.2 805.731C16769.4 806.656 16765.3 806.835 16761.4 806.256C16757.5 805.677 16753.7 804.353 16750.3 802.361C16742.4 797.742 16742.3 797.84 16739.9 798.214C16736.1 798.793 16732.5 800.293 16729.5 802.571C16723.5 807.574 16717.8 812.941 16712.5 818.638C16708.8 822.265 16705 825.592 16701 829.018C16698 831.598 16694.5 833.501 16690.7 834.581C16686.9 835.661 16682.8 835.89 16678.9 835.249C16673.8 834.511 16670.9 833.2 16669.6 829.43C16663.7 821.535 16655.3 815.665 16645.6 812.7C16644 811.588 16642.1 810.941 16640.1 810.836C16638.1 810.73 16636.1 811.171 16634.4 812.105C16632.1 813.37 16630.1 814.935 16627.8 816.2C16622 819.388 16615.2 820.552 16608.6 819.49C16606 819.256 16603.4 818.307 16601.3 816.754C16597.3 813.455 16593.3 810.057 16589.4 806.759C16585.6 803.266 16580.8 800.773 16575.7 799.515C16571.9 798.32 16568.4 796.478 16565.3 794.082C16563.1 792.66 16560.6 791.726 16557.9 791.346C16543.4 789.733 16528.7 789.602 16514.2 790.955C16511.5 791.249 16509 792.105 16506.7 793.459C16501.3 797.187 16494.8 799.174 16488.1 799.128C16485.4 799.104 16482.8 799.081 16480.1 799.057C16473.5 798.904 16466.9 800.786 16461.5 804.428C16458.1 806.512 16454.1 807.643 16450.1 807.689C16438.2 808.078 16426.2 807.97 16414.2 808.259C16411.6 808.232 16409 808.716 16406.5 809.68C16404.1 810.644 16401.9 812.069 16400 813.868C16395.1 818.11 16391.4 823.59 16389.5 829.696C16387.5 832.968 16384.4 835.438 16380.6 836.638C16376.9 837.64 16373.3 839.248 16370.2 841.39C16366.1 844.716 16361 846.625 16355.7 846.799C16349 847.068 16342.5 848.84 16336.7 851.969C16332.2 854.402 16330.8 853.894 16326.3 850.294C16321.9 846.694 16318.6 843.303 16314.5 840.299C16312.3 838.762 16309.8 837.754 16307.2 837.366C16294 836.406 16280.7 836.288 16267.4 837.01C16263.4 837.038 16259.5 838.285 16256.2 840.57C16253.1 842.934 16249.3 844.349 16245.3 844.631C16241.3 844.913 16237.3 844.048 16233.9 842.15C16232.3 841.268 16230.5 840.795 16228.7 840.779C16226.9 840.762 16225.1 841.203 16223.5 842.057C16218.8 844.606 16213.5 845.924 16208.2 845.876L16188.2 846.192C16182.9 846.214 16177.6 847.639 16173.1 850.309C16170.9 851.575 16168.7 852.94 16166.3 854.204C16160.1 856.426 16153.2 856.365 16147 854.032C16143.4 852.317 16139.9 850.404 16136.6 848.302C16134.4 846.967 16131.8 846.133 16129.2 845.862C16117.2 844.667 16105.2 845.648 16093.3 844.552C16088 844.103 16082.9 842.428 16078.5 839.673C16074.2 836.536 16069 834.852 16063.7 834.892L16059.6 834.856C16050.3 833.803 16040.9 836.081 16033.2 841.247C16030.9 842.37 16028.2 842.858 16025.6 842.661C16023 842.463 16020.4 841.586 16018.3 840.124C16017.2 839.44 16016.1 838.634 16015.2 837.723C16012.1 835.322 16009.1 832.921 16006.1 830.323C16004.2 828.548 16001.9 827.179 15999.4 826.307C15993 824.557 15987 821.685 15981.8 817.843C15979.4 816.69 15976.8 816.161 15974.1 816.311C15971.5 816.461 15968.9 817.285 15966.7 818.697C15964.6 820.117 15962.5 821.651 15960.5 823.29C15954.7 828.38 15948.9 833.669 15943.1 838.859C15937.4 844.049 15931.6 852.205 15920.9 847.363Z" fill="#060127"/>
</svg>
