<svg xmlns="http://www.w3.org/2000/svg" width="512" height="512" fill-rule="evenodd" clip-rule="evenodd" image-rendering="optimizeQuality" shape-rendering="geometricPrecision" text-rendering="geometricPrecision" viewBox="0 0 512 512" id="facebook">
  <path d="M189.48 505.55c0,3.56 2.89,6.45 6.45,6.45l91.93 0c3.56,0 6.44,-2.89 6.44,-6.45l0 -251.57 66.65 0c3.34,0 6.13,-2.57 6.42,-5.9l6.41 -75.8c0.31,-3.76 -2.65,-6.99 -6.43,-6.99l-73.05 0 0 -53.77c0,-12.61 10.22,-22.83 22.82,-22.83l51.36 0c3.57,0 6.45,-2.89 6.45,-6.45l0 -75.79c0,-3.56 -2.88,-6.45 -6.45,-6.45l-86.78 0c-50.93,0 -92.22,41.28 -92.22,92.21l0 73.08 -45.96 0c-3.56,0 -6.45,2.89 -6.45,6.45l0 75.79c0,3.57 2.89,6.45 6.45,6.45l45.96 0 0 251.57z"></path>
</svg>
