<svg xmlns="http://www.w3.org/2000/svg" width="512" height="512" fill-rule="evenodd" clip-rule="evenodd" image-rendering="optimizeQuality" shape-rendering="geometricPrecision" text-rendering="geometricPrecision" viewBox="0 0 512 512" id="instagram">
  <path d="M150.8 2.35c-94.62,4.32 -144.31,57.55 -148.44,148.44 -3.15,68.81 -3.15,141.62 0,210.43 4.13,90.89 53.82,144.11 148.44,148.43 68.82,3.13 141.6,3.13 210.42,0 90.91,-4.16 144.11,-53.78 148.44,-148.43 3.12,-68.85 3.11,-141.59 0,-210.43 -4.24,-92.65 -55.78,-144.21 -148.44,-148.44 -68.82,-3.13 -141.6,-3.13 -210.42,0zm272.06 117.43c0,16.91 -13.72,30.63 -30.63,30.63 -16.93,0 -30.63,-13.72 -30.63,-30.63 0,-16.91 13.7,-30.62 30.63,-30.62 16.91,0 30.62,13.71 30.63,30.62zm-166.85 221.28c-46.98,0 -85.06,-38.08 -85.06,-85.06 0.01,-46.98 38.08,-85.06 85.05,-85.06 46.98,0 85.07,38.08 85.07,85.06 0,46.97 -38.09,85.06 -85.07,85.06l0.01 0zm0 -216.1c-72.36,0 -131.05,58.67 -131.05,131.04 0,72.37 58.68,131.04 131.04,131.04 72.38,0 131.05,-58.67 131.05,-131.04 0,-72.37 -58.67,-131.04 -131.04,-131.04zm103.11 -76.68c68.74,3.14 101.48,35.86 104.6,104.61 3.1,67.39 3.09,138.83 0,206.23 -3.2,70.72 -37.64,101.55 -104.6,104.6 -67.42,3.07 -138.81,3.07 -206.23,0 -66.96,-3.05 -101.38,-33.88 -104.6,-104.6 -3.08,-67.39 -3.08,-138.85 0,-206.23 3.04,-66.98 33.88,-101.37 104.6,-104.61 67.41,-3.07 138.82,-3.08 206.23,0z"></path>
</svg>
