<svg width="834" height="720" viewBox="0 0 834 720" fill="none" xmlns="http://www.w3.org/2000/svg">
<path d="M539.751 552.47C701.706 552.47 832.997 437.071 832.997 294.718C832.997 152.366 701.706 36.9668 539.751 36.9668C377.796 36.9668 246.505 152.366 246.505 294.718C246.505 437.071 377.796 552.47 539.751 552.47Z" fill="#EAEAEA"/>
<path d="M739.288 96.9082L699.08 132.25" stroke="#4C241D" stroke-width="1.21871" stroke-linecap="round" stroke-linejoin="round"/>
<path d="M699.08 96.9082L739.288 132.25" stroke="#4C241D" stroke-width="1.21871" stroke-linecap="round" stroke-linejoin="round"/>
<path d="M730.708 324.685C749.54 324.685 764.806 311.267 764.806 294.714C764.806 278.162 749.54 264.743 730.708 264.743C711.876 264.743 696.609 278.162 696.609 294.714C696.609 311.267 711.876 324.685 730.708 324.685Z" stroke="#4C241D" stroke-width="1.21871" stroke-linecap="round" stroke-linejoin="round"/>
<path d="M42.1493 263.078C50.2019 263.078 56.7298 257.34 56.7298 250.262C56.7298 243.185 50.2019 237.447 42.1493 237.447C34.0967 237.447 27.5688 243.185 27.5688 250.262C27.5688 257.34 34.0967 263.078 42.1493 263.078Z" fill="#4C241D"/>
<path d="M1 612.416L137.393 480.543L191.951 552.474L41.918 648.381" fill="#FFE8DC"/>
<path d="M1 612.416L137.393 480.543L191.951 552.474L41.918 648.381" stroke="#4C241D" stroke-width="1.21871" stroke-linecap="round" stroke-linejoin="round"/>
<path d="M833.001 612.416L696.608 480.543L642.05 552.474L792.083 648.381" fill="#FFE8DC"/>
<path d="M833.001 612.416L696.608 480.543L642.05 552.474L792.083 648.381" stroke="#4C241D" stroke-width="1.21871" stroke-linecap="round" stroke-linejoin="round"/>
<path d="M601.133 379.605V545.55L638.655 566.146L724.91 491.973L601.133 379.605Z" fill="#D6D6D6" stroke="#4C241D" stroke-width="1.21871" stroke-linecap="round" stroke-linejoin="round"/>
<path d="M354.258 308.909C394.697 297.986 437.936 297.986 478.376 308.909L505.654 433.373H326.979L354.258 308.909Z" fill="#FFE8DC" stroke="#4C241D" stroke-width="1.21871" stroke-linecap="round" stroke-linejoin="round"/>
<path d="M232.868 379.605V545.55L195.346 566.146L109.091 491.973L232.868 379.605Z" fill="#D6D6D6" stroke="#4C241D" stroke-width="1.21871" stroke-linecap="round" stroke-linejoin="round"/>
<path d="M601.129 718.995V378.055C567.524 369.162 533.16 362.652 498.371 358.586C496.284 376.456 486.726 393.009 471.548 405.039C456.37 417.068 436.652 423.718 416.215 423.7C395.778 423.682 376.075 416.998 360.925 404.942C345.774 392.885 336.254 376.316 334.208 358.442C299.862 362.475 265.963 369.036 232.867 378.055V718.995" fill="white"/>
<path d="M601.129 718.995V378.055C567.524 369.162 533.16 362.652 498.371 358.586C496.284 376.456 486.726 393.009 471.548 405.039C456.37 417.068 436.652 423.718 416.215 423.7C395.778 423.682 376.075 416.998 360.925 404.942C345.774 392.885 336.254 376.316 334.208 358.442C299.862 362.475 265.963 369.036 232.867 378.055V718.995" stroke="#4C241D" stroke-width="1.21871" stroke-linecap="round" stroke-linejoin="round"/>
<path d="M500.607 310.55L446.568 331.29C437.234 334.842 427.17 336.675 416.998 336.675C406.826 336.675 396.762 334.842 387.428 331.29L333.389 310.55C316.031 304.298 301.137 293.715 290.545 280.108C279.953 266.5 274.126 250.464 273.785 233.979V129.68C273.785 65.254 337.89 12.9844 416.998 12.9844C496.106 12.9844 560.211 65.254 560.211 129.728V234.027C559.859 250.504 554.027 266.53 543.436 280.128C532.844 293.726 517.956 304.301 500.607 310.55Z" fill="#FFE8DC" stroke="#4C241D" stroke-width="1.21871" stroke-linecap="round" stroke-linejoin="round"/>
<path d="M273.785 245.967C274.126 262.452 279.953 278.488 290.545 292.095C301.137 305.702 316.031 316.285 333.389 322.537L387.428 355.266C396.762 358.818 406.826 360.651 416.998 360.651C427.17 360.651 437.234 358.818 446.568 355.266L500.607 322.537C517.964 316.285 532.858 305.702 543.451 292.095C554.043 278.488 559.869 262.452 560.211 245.967V198.013C559.869 214.498 554.043 230.534 543.451 244.141C532.858 257.749 517.964 268.332 500.607 274.583L446.568 295.323C437.234 298.876 427.17 300.709 416.998 300.709C406.826 300.709 396.762 298.876 387.428 295.323L333.389 274.583C316.031 268.332 301.137 257.749 290.545 244.141C279.953 230.534 274.126 214.498 273.785 198.013V245.967Z" fill="#FFCE56" stroke="#4C241D" stroke-width="1.21871" stroke-linecap="round" stroke-linejoin="round"/>
<path d="M349 293.655C349.162 286.662 351.929 279.858 356.958 274.085C361.987 268.312 369.059 263.822 377.301 261.17L402.96 247.285C407.392 245.778 412.17 245 417 245C421.83 245 426.608 245.778 431.04 247.285L456.699 261.17C464.941 263.822 472.013 268.312 477.042 274.085C482.071 279.858 484.838 286.662 485 293.655V314C484.838 307.006 482.071 300.203 477.042 294.43C472.013 288.657 464.941 284.167 456.699 281.515L431.04 272.716C426.608 271.208 421.83 270.431 417 270.431C412.17 270.431 407.392 271.208 402.96 272.716L377.301 281.515C369.059 284.167 361.987 288.657 356.958 294.43C351.929 300.203 349.162 307.006 349 314V293.655Z" fill="#FFCE56" stroke="#4C241D" stroke-width="1.21871" stroke-linecap="round" stroke-linejoin="round"/>
<path d="M560.211 180.826H573.851C581.086 180.826 588.024 183.352 593.14 187.849C598.255 192.345 601.129 198.444 601.129 204.803C601.129 211.162 598.255 217.261 593.14 221.757C588.024 226.254 581.086 228.78 573.851 228.78H560.211V180.826Z" fill="#FFE8DC" stroke="#4C241D" stroke-width="1.21871" stroke-linecap="round" stroke-linejoin="round"/>
<path d="M273.785 228.784H260.145C252.911 228.784 245.972 226.258 240.856 221.761C235.741 217.264 232.867 211.166 232.867 204.807C232.867 198.448 235.741 192.349 240.856 187.853C245.972 183.356 252.911 180.83 260.145 180.83H273.785V228.784Z" fill="#FFE8DC" stroke="#4C241D" stroke-width="1.21871" stroke-linecap="round" stroke-linejoin="round"/>
<path d="M303.559 1C295.663 1 288.089 3.75727 282.505 8.66524C276.922 13.5732 273.785 20.2299 273.785 27.1708V144.861C288.254 144.861 302.131 139.809 312.363 130.816C322.594 121.823 328.342 109.626 328.342 96.9076H497.197C521.144 96.9076 544.11 88.5461 561.044 73.6625C577.977 58.779 587.49 38.5926 587.49 17.5441V1H303.559Z" fill="#FFCE56" stroke="#4C241D" stroke-width="1.21871" stroke-linecap="round" stroke-linejoin="round"/>
<path d="M532.932 48.9502H573.85" stroke="#4C241D" stroke-width="1.21871" stroke-linecap="round" stroke-linejoin="round"/>
<path d="M355.855 203.136C363.908 203.136 370.436 197.398 370.436 190.321C370.436 183.243 363.908 177.505 355.855 177.505C347.803 177.505 341.275 183.243 341.275 190.321C341.275 197.398 347.803 203.136 355.855 203.136Z" fill="#4C241D"/>
<path d="M478.612 203.136C486.665 203.136 493.193 197.398 493.193 190.321C493.193 183.243 486.665 177.505 478.612 177.505C470.56 177.505 464.032 183.243 464.032 190.321C464.032 197.398 470.56 203.136 478.612 203.136Z" fill="#4C241D"/>
<path d="M355.624 504.515L382.903 492.527V564.458" stroke="#4C241D" stroke-width="1.21871" stroke-linecap="round" stroke-linejoin="round"/>
<path d="M437.463 504.515L464.742 492.527V564.458" stroke="#4C241D" stroke-width="1.21871" stroke-linecap="round" stroke-linejoin="round"/>
</svg>
