<svg xmlns="http://www.w3.org/2000/svg" xml:space="preserve" viewBox="0 0 52 52" id="team">
  <path d="M18.702 26.41C17.61 22.841 9.47 22.357 6.56 23.59 3.91 24.71-1.285 31.26.893 34.22c1.13 1.534 4.187.894 5.65.858 3.074-.077 2.192-.29 1.624 2.247-.155.693-.39 2.467-.22 3.179.347 1.453.711 1.83 2.144 2.295 1.533.496 3.604.04 5.186.06 2.075.027 4.129.342 6.192.53 4.407.4 8.848.576 13.271.666 2.02.042 6.881.697 8.483-1.094 1.461-1.634.64-4.852.193-6.637-.62-2.48-.999-2.158-2.758-4.031-2.17-2.311-3.411-4.846-6.216-6.608-2.544-1.6-5.443-2.13-8.408-2.35-6.781-.505-11.922 3.877-15.394 9.324-.868 1.361 1.295 2.616 2.158 1.262 4.794-7.52 14.773-11.447 22.197-4.672 1.604 1.463 3.053 3.46 4.346 5.211.835 1.131 1.587 2.269 1.833 3.795.491 3.052.243 3.18-3.127 3.337-6.586.307-13.282-.498-19.831-1.044-2.476-.206-7.444.967-7.638-2.559-.087-1.574 1.394-2.755 1.005-4.425a1.237 1.237 0 0 0-.873-.873c-.799-.192-1.6-.11-2.417-.12-1.594-.017-4.643.444-5.047-.5-.98-2.287 3.199-4.753 4.374-5.352 1.554-1.423 3.285-1.711 5.193-.864 1.17.38 2.328.785 3.478 1.219.47 1.534 2.883.88 2.41-.665z"></path>
  <path d="M40.567 35.327c2.461.004 4.984.185 7.439.014.9-.063 1.82-.093 2.57-.65 2.688-1.994-.513-5.318-1.478-7.197-2.944-5.735-10.652-6.234-15.713-2.984-1.35.867-.098 3.032 1.261 2.16 1.858-1.194 3.92-1.885 6.152-1.713 3.343.259 4.925 1.932 6.464 4.65.744 1.315 2.075 2.5.124 3.233-1.596.6-5.132-.01-6.82-.013-1.608-.003-1.61 2.497 0 2.5z"></path>
  <path d="M37.955 23.149c.146-1.184.005-2.146-.094-3.299-.14-1.626.964-2.399 2.52-2.568 1.496-.163 2.27.391 2.452 1.892.128 1.058.164 2.545-.262 3.523-.636 1.46 1.517 2.734 2.159 1.261 1.353-3.108 1.047-8.96-3.33-9.215-2.118-.124-4.079.55-5.388 2.253-.6.779-.858 1.577-.75 2.566.138 1.258.352 2.296.193 3.587-.196 1.593 2.306 1.579 2.5 0zM14.936 23.698c-.038-.544.845-1.089 1.13-1.488.36-.504.578-1.06.703-1.665.188-.91.196-2.162-.054-3.068-.587-2.132-3.236-3.03-5.174-3.071-2.182-.048-4.38.553-5.225 2.796-.908 2.412.274 4.76 1.426 6.852.776 1.41 2.935.15 2.158-1.262-.699-1.27-1.81-2.95-1.326-4.474.51-1.607 3.07-1.788 4.418-1.182 1.43.643 1.875 2.194 1.03 3.555-.68 1.098-1.69 1.533-1.586 3.007.113 1.596 2.613 1.608 2.5 0zM22.739 22.887c-1.281-.32-1.958-3.324-2.211-4.33-.331-1.319-.48-2.73-.124-4.065.882-3.31 5.184-5.158 8.296-3.761 2.8 1.256 3.504 6.144 2.544 8.86-.667 1.888-2.6 2.748-3.543 4.54-.748 1.423 1.41 2.688 2.159 1.262.938-1.785 2.986-2.617 3.807-4.491.854-1.95.332-4.557.03-6.57-.242-1.618-.557-3.773-1.867-4.91-1.53-1.331-4.51-1.788-6.449-1.58-3.82.41-7.039 3.205-7.585 7.035-.432 3.021.784 9.55 4.278 10.421 1.562.39 2.228-2.02.665-2.41z"></path>
</svg>
